<svg xmlns="http://www.w3.org/2000/svg" width="750" height="315"><g transform="translate(20, 20)"><g transform="translate(0, 260)" style="font-size: 15px; font-family: monospace; font-weight: 300;" fill="none" font-size="10" font-family="sans-serif" text-anchor="middle"><path class="domain" stroke="currentColor" d="M0.5,6V0.5H710.5V6"></path><g class="tick" opacity="1" transform="translate(77.65625,0)"><line stroke="currentColor" y2="6"></line><text fill="currentColor" y="9" dy="0.71em">TypeScript</text></g><g class="tick" opacity="1" transform="translate(188.59375,0)"><line stroke="currentColor" y2="6"></line><text fill="currentColor" y="9" dy="0.71em">JavaScript</text></g><g class="tick" opacity="1" transform="translate(299.53125,0)"><line stroke="currentColor" y2="6"></line><text fill="currentColor" y="9" dy="0.71em">JSX</text></g><g class="tick" opacity="1" transform="translate(410.46875000000006,0)"><line stroke="currentColor" y2="6"></line><text fill="currentColor" y="9" dy="0.71em">Python</text></g><g class="tick" opacity="1" transform="translate(521.40625,0)"><line stroke="currentColor" y2="6"></line><text fill="currentColor" y="9" dy="0.71em">CSS</text></g><g class="tick" opacity="1" transform="translate(632.3437500000001,0)"><line stroke="currentColor" y2="6"></line><text fill="currentColor" y="9" dy="0.71em">JSON</text></g></g><rect x="44.375" y="20.98466505246165" height="239.01533494753835" width="66.5625" fill="#D50657"></rect><rect x="155.3125" y="236.70702179176754" height="23.292978208232455" width="66.5625" fill="#049AE6"></rect><rect x="266.25" y="253.49475383373687" height="6.5052461662631345" width="66.5625" fill="#F8C41B"></rect><rect x="377.18750000000006" y="256.2227602905569" height="3.7772397094431085" width="66.5625" fill="#32465B"></rect><rect x="488.12500000000006" y="259.37046004842614" height="0.6295399515738609" width="66.5625" fill="#E45E42"></rect><rect x="599.0625000000001" y="259.79015334947536" height="0.20984665052463924" width="66.5625" fill="#007C5A"></rect><text class="labels" style="fill: #444;" x="44.375" y="0.9846650524616507">11 hrs 39 mins</text><text class="labels" style="fill: #444;" x="155.3125" y="216.70702179176754">1 hr 11 mins</text><text class="labels" style="fill: #444;" x="266.25" y="233.49475383373687">31 mins</text><text class="labels" style="fill: #444;" x="377.18750000000006" y="236.2227602905569">18 mins</text><text class="labels" style="fill: #444;" x="488.12500000000006" y="239.37046004842614">3 mins</text><text class="labels" style="fill: #444;" x="599.0625000000001" y="239.79015334947536">1 min</text></g></svg>