<svg xmlns="http://www.w3.org/2000/svg" width="750" height="315"><g transform="translate(20, 20)"><g transform="translate(0, 260)" style="font-size: 15px; font-family: monospace; font-weight: 300;" fill="none" font-size="10" font-family="sans-serif" text-anchor="middle"><path class="domain" stroke="currentColor" d="M0.5,6V0.5H710.5V6"></path><g class="tick" opacity="1" transform="translate(77.65625,0)"><line stroke="currentColor" y2="6"></line><text fill="currentColor" y="9" dy="0.71em">JavaScript</text></g><g class="tick" opacity="1" transform="translate(188.59375,0)"><line stroke="currentColor" y2="6"></line><text fill="currentColor" y="9" dy="0.71em">TypeScript</text></g><g class="tick" opacity="1" transform="translate(299.53125,0)"><line stroke="currentColor" y2="6"></line><text fill="currentColor" y="9" dy="0.71em">JSX</text></g><g class="tick" opacity="1" transform="translate(410.46875000000006,0)"><line stroke="currentColor" y2="6"></line><text fill="currentColor" y="9" dy="0.71em">JSON</text></g><g class="tick" opacity="1" transform="translate(521.40625,0)"><line stroke="currentColor" y2="6"></line><text fill="currentColor" y="9" dy="0.71em">Dart</text></g><g class="tick" opacity="1" transform="translate(632.3437500000001,0)"><line stroke="currentColor" y2="6"></line><text fill="currentColor" y="9" dy="0.71em">Bash</text></g></g><rect x="44.375" y="24.88038277511963" height="235.11961722488036" width="66.5625" fill="#D50657"></rect><rect x="155.3125" y="226.41148325358853" height="33.58851674641147" width="66.5625" fill="#049AE6"></rect><rect x="266.25" y="226.41148325358853" height="33.58851674641147" width="66.5625" fill="#F8C41B"></rect><rect x="377.18750000000006" y="254.77511961722487" height="5.224880382775126" width="66.5625" fill="#32465B"></rect><rect x="488.12500000000006" y="258.75598086124404" height="1.2440191387559594" width="66.5625" fill="#E45E42"></rect><rect x="599.0625000000001" y="259.0047846889952" height="0.995215311004813" width="66.5625" fill="#007C5A"></rect><text class="labels" style="fill: #444;" x="44.375" y="4.880382775119632">9 hrs 45 mins</text><text class="labels" style="fill: #444;" x="155.3125" y="206.41148325358853">1 hr 35 mins</text><text class="labels" style="fill: #444;" x="266.25" y="206.41148325358853">1 hr 35 mins</text><text class="labels" style="fill: #444;" x="377.18750000000006" y="234.77511961722487">21 mins</text><text class="labels" style="fill: #444;" x="488.12500000000006" y="238.75598086124404">5 mins</text><text class="labels" style="fill: #444;" x="599.0625000000001" y="239.0047846889952">4 mins</text></g></svg>