<svg xmlns="http://www.w3.org/2000/svg" width="875" height="315"><g transform="translate(20, 20)"><g transform="translate(0, 260)" style="font-size: 15px; font-family: monospace; font-weight: 300;" fill="none" font-size="10" font-family="sans-serif" text-anchor="middle"><path class="domain" stroke="currentColor" d="M0.5,6V0.5H835.5V6"></path><g class="tick" opacity="1" transform="translate(78.98648648648646,0)"><line stroke="currentColor" y2="6"></line><text fill="currentColor" y="9" dy="0.71em">JSX</text></g><g class="tick" opacity="1" transform="translate(191.82432432432432,0)"><line stroke="currentColor" y2="6"></line><text fill="currentColor" y="9" dy="0.71em">JavaScript</text></g><g class="tick" opacity="1" transform="translate(304.6621621621622,0)"><line stroke="currentColor" y2="6"></line><text fill="currentColor" y="9" dy="0.71em">TypeScript</text></g><g class="tick" opacity="1" transform="translate(417.5,0)"><line stroke="currentColor" y2="6"></line><text fill="currentColor" y="9" dy="0.71em">JSON</text></g><g class="tick" opacity="1" transform="translate(530.3378378378379,0)"><line stroke="currentColor" y2="6"></line><text fill="currentColor" y="9" dy="0.71em">HTML</text></g><g class="tick" opacity="1" transform="translate(643.1756756756757,0)"><line stroke="currentColor" y2="6"></line><text fill="currentColor" y="9" dy="0.71em">CSS</text></g><g class="tick" opacity="1" transform="translate(756.0135135135135,0)"><line stroke="currentColor" y2="6"></line><text fill="currentColor" y="9" dy="0.71em">BrightScript</text></g></g><rect x="45.1351351351351" y="62.50000000000001" height="197.5" width="67.70270270270271" fill="#D50657"></rect><rect x="157.97297297297297" y="131.25" height="128.75" width="67.70270270270271" fill="#049AE6"></rect><rect x="270.81081081081084" y="240.625" height="19.375" width="67.70270270270271" fill="#F8C41B"></rect><rect x="383.64864864864865" y="256.25" height="3.75" width="67.70270270270271" fill="#32465B"></rect><rect x="496.4864864864865" y="256.875" height="3.125" width="67.70270270270271" fill="#E45E42"></rect><rect x="609.3243243243244" y="258.125" height="1.875" width="67.70270270270271" fill="#007C5A"></rect><rect x="722.1621621621622" y="259.375" height="0.625" width="67.70270270270271" fill="#FC69FF"></rect><text class="labels" style="fill: #444;" x="45.1351351351351" y="42.50000000000001">3 hrs 16 mins</text><text class="labels" style="fill: #444;" x="157.97297297297297" y="111.25">2 hrs 6 mins</text><text class="labels" style="fill: #444;" x="270.81081081081084" y="220.625">31 mins</text><text class="labels" style="fill: #444;" x="383.64864864864865" y="236.25">6 mins</text><text class="labels" style="fill: #444;" x="496.4864864864865" y="236.875">5 mins</text><text class="labels" style="fill: #444;" x="609.3243243243244" y="238.125">3 mins</text><text class="labels" style="fill: #444;" x="722.1621621621622" y="239.375">1 min</text></g></svg>