<svg xmlns="http://www.w3.org/2000/svg" width="1125" height="315"><g transform="translate(20, 20)"><g transform="translate(0, 260)" style="font-size: 15px; font-family: monospace; font-weight: 300;" fill="none" font-size="10" font-family="sans-serif" text-anchor="middle"><path class="domain" stroke="currentColor" d="M0.5,6V0.5H1085.5V6"></path><g class="tick" opacity="1" transform="translate(80.79787234042558,0)"><line stroke="currentColor" y2="6"></line><text fill="currentColor" y="9" dy="0.71em">TypeScript</text></g><g class="tick" opacity="1" transform="translate(196.2234042553192,0)"><line stroke="currentColor" y2="6"></line><text fill="currentColor" y="9" dy="0.71em">JSX</text></g><g class="tick" opacity="1" transform="translate(311.6489361702128,0)"><line stroke="currentColor" y2="6"></line><text fill="currentColor" y="9" dy="0.71em">JavaScript</text></g><g class="tick" opacity="1" transform="translate(427.07446808510645,0)"><line stroke="currentColor" y2="6"></line><text fill="currentColor" y="9" dy="0.71em">HTML</text></g><g class="tick" opacity="1" transform="translate(542.5,0)"><line stroke="currentColor" y2="6"></line><text fill="currentColor" y="9" dy="0.71em">JSON</text></g><g class="tick" opacity="1" transform="translate(657.9255319148937,0)"><line stroke="currentColor" y2="6"></line><text fill="currentColor" y="9" dy="0.71em">Text</text></g><g class="tick" opacity="1" transform="translate(773.3510638297872,0)"><line stroke="currentColor" y2="6"></line><text fill="currentColor" y="9" dy="0.71em">YAML</text></g><g class="tick" opacity="1" transform="translate(888.776595744681,0)"><line stroke="currentColor" y2="6"></line><text fill="currentColor" y="9" dy="0.71em">Docker</text></g><g class="tick" opacity="1" transform="translate(1004.2021276595746,0)"><line stroke="currentColor" y2="6"></line><text fill="currentColor" y="9" dy="0.71em">CSS</text></g></g><rect x="46.1702127659575" y="11.716989634970705" height="248.2830103650293" width="69.25531914893617" fill="#D50657"></rect><rect x="161.5957446808511" y="105.92158630013519" height="154.07841369986483" width="69.25531914893617" fill="#049AE6"></rect><rect x="277.0212765957447" y="187.35466426318163" height="72.64533573681837" width="69.25531914893617" fill="#F8C41B"></rect><rect x="392.44680851063833" y="254.96169445696262" height="5.0383055430373815" width="69.25531914893617" fill="#32465B"></rect><rect x="507.87234042553195" y="256.83641279855794" height="3.1635872014420556" width="69.25531914893617" fill="#E45E42"></rect><rect x="623.2978723404256" y="256.9535826949076" height="3.0464173050924046" width="69.25531914893617" fill="#007C5A"></rect><rect x="738.7234042553191" y="257.77377196935555" height="2.2262280306444495" width="69.25531914893617" fill="#FC69FF"></rect><rect x="854.1489361702129" y="258.8283010365029" height="1.1716989634970787" width="69.25531914893617" fill="#3EC6CF"></rect><rect x="969.5744680851064" y="259.8828301036503" height="0.11716989634970787" width="69.25531914893617" fill="#620A79"></rect><text class="labels" style="fill: #444;" x="46.1702127659575" y="-8.283010365029295">21 hrs 19 mins</text><text class="labels" style="fill: #444;" x="161.5957446808511" y="85.92158630013519">13 hrs 15 mins</text><text class="labels" style="fill: #444;" x="277.0212765957447" y="167.35466426318163">6 hrs 20 mins</text><text class="labels" style="fill: #444;" x="392.44680851063833" y="234.96169445696262">43 mins</text><text class="labels" style="fill: #444;" x="507.87234042553195" y="236.83641279855794">27 mins</text><text class="labels" style="fill: #444;" x="623.2978723404256" y="236.9535826949076">26 mins</text><text class="labels" style="fill: #444;" x="738.7234042553191" y="237.77377196935555">19 mins</text><text class="labels" style="fill: #444;" x="854.1489361702129" y="238.82830103650292">10 mins</text><text class="labels" style="fill: #444;" x="969.5744680851064" y="239.8828301036503">1 min</text></g></svg>