<svg xmlns="http://www.w3.org/2000/svg" width="875" height="315"><g transform="translate(20, 20)"><g transform="translate(0, 260)" style="font-size: 15px; font-family: monospace; font-weight: 300;" fill="none" font-size="10" font-family="sans-serif" text-anchor="middle"><path class="domain" stroke="currentColor" d="M0.5,6V0.5H835.5V6"></path><g class="tick" opacity="1" transform="translate(78.98648648648646,0)"><line stroke="currentColor" y2="6"></line><text fill="currentColor" y="9" dy="0.71em">TypeScript</text></g><g class="tick" opacity="1" transform="translate(191.82432432432432,0)"><line stroke="currentColor" y2="6"></line><text fill="currentColor" y="9" dy="0.71em">JSX</text></g><g class="tick" opacity="1" transform="translate(304.6621621621622,0)"><line stroke="currentColor" y2="6"></line><text fill="currentColor" y="9" dy="0.71em">JavaScript</text></g><g class="tick" opacity="1" transform="translate(417.5,0)"><line stroke="currentColor" y2="6"></line><text fill="currentColor" y="9" dy="0.71em">Python</text></g><g class="tick" opacity="1" transform="translate(530.3378378378379,0)"><line stroke="currentColor" y2="6"></line><text fill="currentColor" y="9" dy="0.71em">CSS</text></g><g class="tick" opacity="1" transform="translate(643.1756756756757,0)"><line stroke="currentColor" y2="6"></line><text fill="currentColor" y="9" dy="0.71em">JSON</text></g><g class="tick" opacity="1" transform="translate(756.0135135135135,0)"><line stroke="currentColor" y2="6"></line><text fill="currentColor" y="9" dy="0.71em">Git Config</text></g></g><rect x="45.1351351351351" y="22.5108225108225" height="237.4891774891775" width="67.70270270270271" fill="#D50657"></rect><rect x="157.97297297297297" y="165.67965367965365" height="94.32034632034635" width="67.70270270270271" fill="#049AE6"></rect><rect x="270.81081081081084" y="228.93506493506493" height="31.06493506493507" width="67.70270270270271" fill="#F8C41B"></rect><rect x="383.64864864864865" y="255.4978354978355" height="4.502164502164504" width="67.70270270270271" fill="#32465B"></rect><rect x="496.4864864864865" y="257.0735930735931" height="2.926406926406912" width="67.70270270270271" fill="#E45E42"></rect><rect x="609.3243243243244" y="257.2987012987013" height="2.701298701298697" width="67.70270270270271" fill="#007C5A"></rect><rect x="722.1621621621622" y="259.54978354978357" height="0.45021645021643053" width="67.70270270270271" fill="#FC69FF"></rect><text class="labels" style="fill: #444;" x="45.1351351351351" y="2.5108225108225">10 hrs 55 mins</text><text class="labels" style="fill: #444;" x="157.97297297297297" y="145.67965367965365">4 hrs 19 mins</text><text class="labels" style="fill: #444;" x="270.81081081081084" y="208.93506493506493">1 hr 38 mins</text><text class="labels" style="fill: #444;" x="383.64864864864865" y="235.4978354978355">20 mins</text><text class="labels" style="fill: #444;" x="496.4864864864865" y="237.0735930735931">13 mins</text><text class="labels" style="fill: #444;" x="609.3243243243244" y="237.2987012987013">12 mins</text><text class="labels" style="fill: #444;" x="722.1621621621622" y="239.54978354978357">2 mins</text></g></svg>