<svg xmlns="http://www.w3.org/2000/svg" width="1125" height="315"><g transform="translate(20, 20)"><g transform="translate(0, 260)" style="font-size: 15px; font-family: monospace; font-weight: 300;" fill="none" font-size="10" font-family="sans-serif" text-anchor="middle"><path class="domain" stroke="currentColor" d="M0.5,6V0.5H1085.5V6"></path><g class="tick" opacity="1" transform="translate(80.79787234042558,0)"><line stroke="currentColor" y2="6"></line><text fill="currentColor" y="9" dy="0.71em">TypeScript</text></g><g class="tick" opacity="1" transform="translate(196.2234042553192,0)"><line stroke="currentColor" y2="6"></line><text fill="currentColor" y="9" dy="0.71em">JSON</text></g><g class="tick" opacity="1" transform="translate(311.6489361702128,0)"><line stroke="currentColor" y2="6"></line><text fill="currentColor" y="9" dy="0.71em">JavaScript</text></g><g class="tick" opacity="1" transform="translate(427.07446808510645,0)"><line stroke="currentColor" y2="6"></line><text fill="currentColor" y="9" dy="0.71em">yarn.lock</text></g><g class="tick" opacity="1" transform="translate(542.5,0)"><line stroke="currentColor" y2="6"></line><text fill="currentColor" y="9" dy="0.71em">Text</text></g><g class="tick" opacity="1" transform="translate(657.9255319148937,0)"><line stroke="currentColor" y2="6"></line><text fill="currentColor" y="9" dy="0.71em">CSS</text></g><g class="tick" opacity="1" transform="translate(773.3510638297872,0)"><line stroke="currentColor" y2="6"></line><text fill="currentColor" y="9" dy="0.71em">tsconfig</text></g><g class="tick" opacity="1" transform="translate(888.776595744681,0)"><line stroke="currentColor" y2="6"></line><text fill="currentColor" y="9" dy="0.71em">Markdown</text></g><g class="tick" opacity="1" transform="translate(1004.2021276595746,0)"><line stroke="currentColor" y2="6"></line><text fill="currentColor" y="9" dy="0.71em">XML</text></g></g><rect x="46.1702127659575" y="7.222222222222225" height="252.77777777777777" width="69.25531914893617" fill="#D50657"></rect><rect x="161.5957446808511" y="257.11111111111114" height="2.8888888888888573" width="69.25531914893617" fill="#049AE6"></rect><rect x="277.0212765957447" y="257.7611111111111" height="2.23888888888888" width="69.25531914893617" fill="#F8C41B"></rect><rect x="392.44680851063833" y="259.27777777777777" height="0.7222222222222285" width="69.25531914893617" fill="#32465B"></rect><rect x="507.87234042553195" y="259.49444444444447" height="0.5055555555555316" width="69.25531914893617" fill="#E45E42"></rect><rect x="623.2978723404256" y="259.56666666666666" height="0.4333333333333371" width="69.25531914893617" fill="#007C5A"></rect><rect x="738.7234042553191" y="259.7111111111111" height="0.2888888888888914" width="69.25531914893617" fill="#FC69FF"></rect><rect x="854.1489361702129" y="259.92777777777775" height="0.07222222222225128" width="69.25531914893617" fill="#3EC6CF"></rect><rect x="969.5744680851064" y="259.92777777777775" height="0.07222222222225128" width="69.25531914893617" fill="#620A79"></rect><text class="labels" style="fill: #444;" x="46.1702127659575" y="-12.777777777777775">35 hrs</text><text class="labels" style="fill: #444;" x="161.5957446808511" y="237.11111111111114">40 mins</text><text class="labels" style="fill: #444;" x="277.0212765957447" y="237.76111111111112">31 mins</text><text class="labels" style="fill: #444;" x="392.44680851063833" y="239.27777777777777">10 mins</text><text class="labels" style="fill: #444;" x="507.87234042553195" y="239.49444444444447">7 mins</text><text class="labels" style="fill: #444;" x="623.2978723404256" y="239.56666666666666">6 mins</text><text class="labels" style="fill: #444;" x="738.7234042553191" y="239.7111111111111">4 mins</text><text class="labels" style="fill: #444;" x="854.1489361702129" y="239.92777777777775">1 min</text><text class="labels" style="fill: #444;" x="969.5744680851064" y="239.92777777777775">1 min</text></g></svg>