<svg xmlns="http://www.w3.org/2000/svg" width="1250" height="315"><g transform="translate(20, 20)"><g transform="translate(0, 260)" style="font-size: 15px; font-family: monospace; font-weight: 300;" fill="none" font-size="10" font-family="sans-serif" text-anchor="middle"><path class="domain" stroke="currentColor" d="M0.5,6V0.5H1210.5V6"></path><g class="tick" opacity="1" transform="translate(81.44230769230771,0)"><line stroke="currentColor" y2="6"></line><text fill="currentColor" y="9" dy="0.71em">JavaScript</text></g><g class="tick" opacity="1" transform="translate(197.78846153846155,0)"><line stroke="currentColor" y2="6"></line><text fill="currentColor" y="9" dy="0.71em">JSX</text></g><g class="tick" opacity="1" transform="translate(314.13461538461536,0)"><line stroke="currentColor" y2="6"></line><text fill="currentColor" y="9" dy="0.71em">CSS</text></g><g class="tick" opacity="1" transform="translate(430.4807692307692,0)"><line stroke="currentColor" y2="6"></line><text fill="currentColor" y="9" dy="0.71em">Svelte</text></g><g class="tick" opacity="1" transform="translate(546.8269230769231,0)"><line stroke="currentColor" y2="6"></line><text fill="currentColor" y="9" dy="0.71em">JSON</text></g><g class="tick" opacity="1" transform="translate(663.1730769230769,0)"><line stroke="currentColor" y2="6"></line><text fill="currentColor" y="9" dy="0.71em">Solidity</text></g><g class="tick" opacity="1" transform="translate(779.5192307692308,0)"><line stroke="currentColor" y2="6"></line><text fill="currentColor" y="9" dy="0.71em">Markdown</text></g><g class="tick" opacity="1" transform="translate(895.8653846153846,0)"><line stroke="currentColor" y2="6"></line><text fill="currentColor" y="9" dy="0.71em">HTML</text></g><g class="tick" opacity="1" transform="translate(1012.2115384615385,0)"><line stroke="currentColor" y2="6"></line><text fill="currentColor" y="9" dy="0.71em">TypeScript</text></g><g class="tick" opacity="1" transform="translate(1128.5576923076924,0)"><line stroke="currentColor" y2="6"></line><text fill="currentColor" y="9" dy="0.71em">Text</text></g></g><rect x="46.53846153846155" y="24.80916030534351" height="235.1908396946565" width="69.8076923076923" fill="#D50657"></rect><rect x="162.8846153846154" y="183.33969465648858" height="76.66030534351142" width="69.8076923076923" fill="#049AE6"></rect><rect x="279.2307692307692" y="223.28244274809163" height="36.717557251908374" width="69.8076923076923" fill="#F8C41B"></rect><rect x="395.5769230769231" y="227.74809160305344" height="32.25190839694656" width="69.8076923076923" fill="#32465B"></rect><rect x="511.9230769230769" y="232.4618320610687" height="27.53816793893131" width="69.8076923076923" fill="#E45E42"></rect><rect x="628.2692307692307" y="250.07633587786262" height="9.923664122137382" width="69.8076923076923" fill="#007C5A"></rect><rect x="744.6153846153846" y="257.7671755725191" height="2.232824427480921" width="69.8076923076923" fill="#FC69FF"></rect><rect x="860.9615384615385" y="258.75954198473283" height="1.2404580152671656" width="69.8076923076923" fill="#3EC6CF"></rect><rect x="977.3076923076923" y="259.5038167938931" height="0.4961832061068776" width="69.8076923076923" fill="#620A79"></rect><rect x="1093.6538461538462" y="259.75190839694653" height="0.24809160305346722" width="69.8076923076923" fill="#D50657"></rect><text class="labels" style="fill: #444;" x="46.53846153846155" y="4.809160305343511">9 hrs 48 mins</text><text class="labels" style="fill: #444;" x="162.8846153846154" y="163.33969465648858">3 hrs 9 mins</text><text class="labels" style="fill: #444;" x="279.2307692307692" y="203.28244274809163">1 hr 48 mins</text><text class="labels" style="fill: #444;" x="395.5769230769231" y="207.74809160305344">1 hr 30 mins</text><text class="labels" style="fill: #444;" x="511.9230769230769" y="212.4618320610687">1 hr 11 mins</text><text class="labels" style="fill: #444;" x="628.2692307692307" y="230.07633587786262">40 mins</text><text class="labels" style="fill: #444;" x="744.6153846153846" y="237.76717557251908">9 mins</text><text class="labels" style="fill: #444;" x="860.9615384615385" y="238.75954198473283">5 mins</text><text class="labels" style="fill: #444;" x="977.3076923076923" y="239.50381679389312">2 mins</text><text class="labels" style="fill: #444;" x="1093.6538461538462" y="239.75190839694653">1 min</text></g></svg>