<svg xmlns="http://www.w3.org/2000/svg" width="625" height="315"><g transform="translate(20, 20)"><g transform="translate(0, 260)" style="font-size: 15px; font-family: monospace; font-weight: 300;" fill="none" font-size="10" font-family="sans-serif" text-anchor="middle"><path class="domain" stroke="currentColor" d="M0.5,6V0.5H585.5V6"></path><g class="tick" opacity="1" transform="translate(75.83333333333334,0)"><line stroke="currentColor" y2="6"></line><text fill="currentColor" y="9" dy="0.71em">Dart</text></g><g class="tick" opacity="1" transform="translate(184.16666666666669,0)"><line stroke="currentColor" y2="6"></line><text fill="currentColor" y="9" dy="0.71em">JavaScript</text></g><g class="tick" opacity="1" transform="translate(292.5,0)"><line stroke="currentColor" y2="6"></line><text fill="currentColor" y="9" dy="0.71em">JSX</text></g><g class="tick" opacity="1" transform="translate(400.83333333333337,0)"><line stroke="currentColor" y2="6"></line><text fill="currentColor" y="9" dy="0.71em">TypeScript</text></g><g class="tick" opacity="1" transform="translate(509.16666666666674,0)"><line stroke="currentColor" y2="6"></line><text fill="currentColor" y="9" dy="0.71em">LESS</text></g></g><rect x="43.33333333333334" y="50.88062622309197" height="209.11937377690802" width="65" fill="#D50657"></rect><rect x="151.66666666666669" y="78.35616438356166" height="181.64383561643834" width="65" fill="#049AE6"></rect><rect x="260" y="78.86497064579257" height="181.13502935420743" width="65" fill="#F8C41B"></rect><rect x="368.33333333333337" y="130.25440313111548" height="129.74559686888452" width="65" fill="#32465B"></rect><rect x="476.66666666666674" y="251.35029354207438" height="8.649706457925618" width="65" fill="#E45E42"></rect><text class="labels" style="fill: #444;" x="43.33333333333334" y="30.880626223091973">4 hrs 11 mins</text><text class="labels" style="fill: #444;" x="151.66666666666669" y="58.35616438356166">3 hrs 57 mins</text><text class="labels" style="fill: #444;" x="260" y="58.86497064579257">3 hrs 56 mins</text><text class="labels" style="fill: #444;" x="368.33333333333337" y="110.25440313111548">2 hrs 55 mins</text><text class="labels" style="fill: #444;" x="476.66666666666674" y="231.35029354207438">17 mins</text></g></svg>