<svg xmlns="http://www.w3.org/2000/svg" width="625" height="315"><g transform="translate(20, 20)"><g transform="translate(0, 260)" style="font-size: 15px; font-family: monospace; font-weight: 300;" fill="none" font-size="10" font-family="sans-serif" text-anchor="middle"><path class="domain" stroke="currentColor" d="M0.5,6V0.5H585.5V6"></path><g class="tick" opacity="1" transform="translate(75.83333333333334,0)"><line stroke="currentColor" y2="6"></line><text fill="currentColor" y="9" dy="0.71em">JavaScript</text></g><g class="tick" opacity="1" transform="translate(184.16666666666669,0)"><line stroke="currentColor" y2="6"></line><text fill="currentColor" y="9" dy="0.71em">JSX</text></g><g class="tick" opacity="1" transform="translate(292.5,0)"><line stroke="currentColor" y2="6"></line><text fill="currentColor" y="9" dy="0.71em">TypeScript</text></g><g class="tick" opacity="1" transform="translate(400.83333333333337,0)"><line stroke="currentColor" y2="6"></line><text fill="currentColor" y="9" dy="0.71em">JSON</text></g><g class="tick" opacity="1" transform="translate(509.16666666666674,0)"><line stroke="currentColor" y2="6"></line><text fill="currentColor" y="9" dy="0.71em">Git Config</text></g></g><rect x="43.33333333333334" y="31.86274509803922" height="228.13725490196077" width="65" fill="#D50657"></rect><rect x="151.66666666666669" y="92.40196078431374" height="167.59803921568624" width="65" fill="#049AE6"></rect><rect x="260" y="96.86274509803921" height="163.13725490196077" width="65" fill="#F8C41B"></rect><rect x="368.33333333333337" y="258.0882352941177" height="1.9117647058823195" width="65" fill="#32465B"></rect><rect x="476.66666666666674" y="259.6813725490196" height="0.3186274509803866" width="65" fill="#E45E42"></rect><text class="labels" style="fill: #444;" x="43.33333333333334" y="11.86274509803922">7 hrs 16 mins</text><text class="labels" style="fill: #444;" x="151.66666666666669" y="72.40196078431374">5 hrs 26 mins</text><text class="labels" style="fill: #444;" x="260" y="76.86274509803921">5 hrs 12 mins</text><text class="labels" style="fill: #444;" x="368.33333333333337" y="238.08823529411768">6 mins</text><text class="labels" style="fill: #444;" x="476.66666666666674" y="239.6813725490196">1 min</text></g></svg>