<svg xmlns="http://www.w3.org/2000/svg" width="1000" height="315"><g transform="translate(20, 20)"><g transform="translate(0, 260)" style="font-size: 15px; font-family: monospace; font-weight: 300;" fill="none" font-size="10" font-family="sans-serif" text-anchor="middle"><path class="domain" stroke="currentColor" d="M0.5,6V0.5H960.5V6"></path><g class="tick" opacity="1" transform="translate(80.00000000000006,0)"><line stroke="currentColor" y2="6"></line><text fill="currentColor" y="9" dy="0.71em">JavaScript</text></g><g class="tick" opacity="1" transform="translate(194.28571428571433,0)"><line stroke="currentColor" y2="6"></line><text fill="currentColor" y="9" dy="0.71em">JSX</text></g><g class="tick" opacity="1" transform="translate(308.5714285714286,0)"><line stroke="currentColor" y2="6"></line><text fill="currentColor" y="9" dy="0.71em">TypeScript</text></g><g class="tick" opacity="1" transform="translate(422.8571428571429,0)"><line stroke="currentColor" y2="6"></line><text fill="currentColor" y="9" dy="0.71em">JSON</text></g><g class="tick" opacity="1" transform="translate(537.1428571428572,0)"><line stroke="currentColor" y2="6"></line><text fill="currentColor" y="9" dy="0.71em">LESS</text></g><g class="tick" opacity="1" transform="translate(651.4285714285714,0)"><line stroke="currentColor" y2="6"></line><text fill="currentColor" y="9" dy="0.71em">Java</text></g><g class="tick" opacity="1" transform="translate(765.7142857142858,0)"><line stroke="currentColor" y2="6"></line><text fill="currentColor" y="9" dy="0.71em">XML</text></g><g class="tick" opacity="1" transform="translate(880.0000000000001,0)"><line stroke="currentColor" y2="6"></line><text fill="currentColor" y="9" dy="0.71em">Text</text></g></g><rect x="45.71428571428578" y="23.423423423423415" height="236.5765765765766" width="68.57142857142857" fill="#D50657"></rect><rect x="160.00000000000006" y="115.24324324324326" height="144.75675675675674" width="68.57142857142857" fill="#049AE6"></rect><rect x="274.28571428571433" y="248.99099099099098" height="11.00900900900902" width="68.57142857142857" fill="#F8C41B"></rect><rect x="388.5714285714286" y="249.92792792792793" height="10.072072072072075" width="68.57142857142857" fill="#32465B"></rect><rect x="502.8571428571429" y="253.44144144144144" height="6.558558558558559" width="68.57142857142857" fill="#E45E42"></rect><rect x="617.1428571428571" y="259.06306306306305" height="0.9369369369369451" width="68.57142857142857" fill="#007C5A"></rect><rect x="731.4285714285714" y="259.2972972972973" height="0.7027027027027088" width="68.57142857142857" fill="#FC69FF"></rect><rect x="845.7142857142858" y="259.76576576576576" height="0.23423423423423628" width="68.57142857142857" fill="#3EC6CF"></rect><text class="labels" style="fill: #444;" x="45.71428571428578" y="3.423423423423415">10 hrs 10 mins</text><text class="labels" style="fill: #444;" x="160.00000000000006" y="95.24324324324326">6 hrs 18 mins</text><text class="labels" style="fill: #444;" x="274.28571428571433" y="228.99099099099098">47 mins</text><text class="labels" style="fill: #444;" x="388.5714285714286" y="229.92792792792793">43 mins</text><text class="labels" style="fill: #444;" x="502.8571428571429" y="233.44144144144144">28 mins</text><text class="labels" style="fill: #444;" x="617.1428571428571" y="239.06306306306305">4 mins</text><text class="labels" style="fill: #444;" x="731.4285714285714" y="239.2972972972973">3 mins</text><text class="labels" style="fill: #444;" x="845.7142857142858" y="239.76576576576576">1 min</text></g></svg>