<svg xmlns="http://www.w3.org/2000/svg" width="875" height="315"><g transform="translate(20, 20)"><g transform="translate(0, 260)" style="font-size: 15px; font-family: monospace; font-weight: 300;" fill="none" font-size="10" font-family="sans-serif" text-anchor="middle"><path class="domain" stroke="currentColor" d="M0.5,6V0.5H835.5V6"></path><g class="tick" opacity="1" transform="translate(78.98648648648646,0)"><line stroke="currentColor" y2="6"></line><text fill="currentColor" y="9" dy="0.71em">JSX</text></g><g class="tick" opacity="1" transform="translate(191.82432432432432,0)"><line stroke="currentColor" y2="6"></line><text fill="currentColor" y="9" dy="0.71em">JavaScript</text></g><g class="tick" opacity="1" transform="translate(304.6621621621622,0)"><line stroke="currentColor" y2="6"></line><text fill="currentColor" y="9" dy="0.71em">Bash</text></g><g class="tick" opacity="1" transform="translate(417.5,0)"><line stroke="currentColor" y2="6"></line><text fill="currentColor" y="9" dy="0.71em">YAML</text></g><g class="tick" opacity="1" transform="translate(530.3378378378379,0)"><line stroke="currentColor" y2="6"></line><text fill="currentColor" y="9" dy="0.71em">LESS</text></g><g class="tick" opacity="1" transform="translate(643.1756756756757,0)"><line stroke="currentColor" y2="6"></line><text fill="currentColor" y="9" dy="0.71em">Docker</text></g><g class="tick" opacity="1" transform="translate(756.0135135135135,0)"><line stroke="currentColor" y2="6"></line><text fill="currentColor" y="9" dy="0.71em">TypeScript</text></g></g><rect x="45.1351351351351" y="19.35964259121371" height="240.6403574087863" width="67.70270270270271" fill="#D50657"></rect><rect x="157.97297297297297" y="195.1451973194341" height="64.85480268056591" width="67.70270270270271" fill="#049AE6"></rect><rect x="270.81081081081084" y="249.35219657483245" height="10.647803425167552" width="67.70270270270271" fill="#F8C41B"></rect><rect x="383.64864864864865" y="251.481757259866" height="8.518242740134014" width="67.70270270270271" fill="#32465B"></rect><rect x="496.4864864864865" y="255.3536857781087" height="4.646314221891288" width="67.70270270270271" fill="#E45E42"></rect><rect x="609.3243243243244" y="256.9024571854058" height="3.097542814594192" width="67.70270270270271" fill="#007C5A"></rect><rect x="722.1621621621622" y="257.2896500372301" height="2.7103499627698966" width="67.70270270270271" fill="#FC69FF"></rect><text class="labels" style="fill: #444;" x="45.1351351351351" y="-0.64035740878629">12 hrs 43 mins</text><text class="labels" style="fill: #444;" x="157.97297297297297" y="175.1451973194341">3 hrs 35 mins</text><text class="labels" style="fill: #444;" x="270.81081081081084" y="229.35219657483245">55 mins</text><text class="labels" style="fill: #444;" x="383.64864864864865" y="231.481757259866">44 mins</text><text class="labels" style="fill: #444;" x="496.4864864864865" y="235.3536857781087">24 mins</text><text class="labels" style="fill: #444;" x="609.3243243243244" y="236.9024571854058">16 mins</text><text class="labels" style="fill: #444;" x="722.1621621621622" y="237.2896500372301">14 mins</text></g></svg>