<svg xmlns="http://www.w3.org/2000/svg" width="625" height="315"><g transform="translate(20, 20)"><g transform="translate(0, 260)" style="font-size: 15px; font-family: monospace; font-weight: 300;" fill="none" font-size="10" font-family="sans-serif" text-anchor="middle"><path class="domain" stroke="currentColor" d="M0.5,6V0.5H585.5V6"></path><g class="tick" opacity="1" transform="translate(75.83333333333334,0)"><line stroke="currentColor" y2="6"></line><text fill="currentColor" y="9" dy="0.71em">JavaScript</text></g><g class="tick" opacity="1" transform="translate(184.16666666666669,0)"><line stroke="currentColor" y2="6"></line><text fill="currentColor" y="9" dy="0.71em">TypeScript</text></g><g class="tick" opacity="1" transform="translate(292.5,0)"><line stroke="currentColor" y2="6"></line><text fill="currentColor" y="9" dy="0.71em">Dart</text></g><g class="tick" opacity="1" transform="translate(400.83333333333337,0)"><line stroke="currentColor" y2="6"></line><text fill="currentColor" y="9" dy="0.71em">XML</text></g><g class="tick" opacity="1" transform="translate(509.16666666666674,0)"><line stroke="currentColor" y2="6"></line><text fill="currentColor" y="9" dy="0.71em">JSON</text></g></g><rect x="43.33333333333334" y="62.801932367149774" height="197.1980676328502" width="65" fill="#D50657"></rect><rect x="151.66666666666669" y="183.3816425120773" height="76.61835748792271" width="65" fill="#049AE6"></rect><rect x="260" y="229.22705314009661" height="30.772946859903385" width="65" fill="#F8C41B"></rect><rect x="368.33333333333337" y="255.60386473429952" height="4.3961352657004795" width="65" fill="#32465B"></rect><rect x="476.66666666666674" y="258.1159420289855" height="1.8840579710144993" width="65" fill="#E45E42"></rect><text class="labels" style="fill: #444;" x="43.33333333333334" y="42.801932367149774">3 hrs 14 mins</text><text class="labels" style="fill: #444;" x="151.66666666666669" y="163.3816425120773">1 hr 22 mins</text><text class="labels" style="fill: #444;" x="260" y="209.22705314009661">49 mins</text><text class="labels" style="fill: #444;" x="368.33333333333337" y="235.60386473429952">7 mins</text><text class="labels" style="fill: #444;" x="476.66666666666674" y="238.1159420289855">3 mins</text></g></svg>