<svg xmlns="http://www.w3.org/2000/svg" width="625" height="315"><g transform="translate(20, 20)"><g transform="translate(0, 260)" style="font-size: 15px; font-family: monospace; font-weight: 300;" fill="none" font-size="10" font-family="sans-serif" text-anchor="middle"><path class="domain" stroke="currentColor" d="M0.5,6V0.5H585.5V6"></path><g class="tick" opacity="1" transform="translate(75.83333333333334,0)"><line stroke="currentColor" y2="6"></line><text fill="currentColor" y="9" dy="0.71em">TypeScript</text></g><g class="tick" opacity="1" transform="translate(184.16666666666669,0)"><line stroke="currentColor" y2="6"></line><text fill="currentColor" y="9" dy="0.71em">JavaScript</text></g><g class="tick" opacity="1" transform="translate(292.5,0)"><line stroke="currentColor" y2="6"></line><text fill="currentColor" y="9" dy="0.71em">JSX</text></g><g class="tick" opacity="1" transform="translate(400.83333333333337,0)"><line stroke="currentColor" y2="6"></line><text fill="currentColor" y="9" dy="0.71em">JSON</text></g><g class="tick" opacity="1" transform="translate(509.16666666666674,0)"><line stroke="currentColor" y2="6"></line><text fill="currentColor" y="9" dy="0.71em">LESS</text></g></g><rect x="43.33333333333334" y="31.4009661835749" height="228.5990338164251" width="65" fill="#D50657"></rect><rect x="151.66666666666669" y="197.19806763285024" height="62.80193236714976" width="65" fill="#049AE6"></rect><rect x="260" y="243.04347826086956" height="16.956521739130437" width="65" fill="#F8C41B"></rect><rect x="368.33333333333337" y="255.9178743961353" height="4.082125603864711" width="65" fill="#32465B"></rect><rect x="476.66666666666674" y="258.1159420289855" height="1.8840579710144993" width="65" fill="#E45E42"></rect><text class="labels" style="fill: #444;" x="43.33333333333334" y="11.400966183574901">7 hrs 28 mins</text><text class="labels" style="fill: #444;" x="151.66666666666669" y="177.19806763285024">2 hrs</text><text class="labels" style="fill: #444;" x="260" y="223.04347826086956">54 mins</text><text class="labels" style="fill: #444;" x="368.33333333333337" y="235.9178743961353">13 mins</text><text class="labels" style="fill: #444;" x="476.66666666666674" y="238.1159420289855">6 mins</text></g></svg>