<svg xmlns="http://www.w3.org/2000/svg" width="750" height="315"><g transform="translate(20, 20)"><g transform="translate(0, 260)" style="font-size: 15px; font-family: monospace; font-weight: 300;" fill="none" font-size="10" font-family="sans-serif" text-anchor="middle"><path class="domain" stroke="currentColor" d="M0.5,6V0.5H710.5V6"></path><g class="tick" opacity="1" transform="translate(77.65625,0)"><line stroke="currentColor" y2="6"></line><text fill="currentColor" y="9" dy="0.71em">TypeScript</text></g><g class="tick" opacity="1" transform="translate(188.59375,0)"><line stroke="currentColor" y2="6"></line><text fill="currentColor" y="9" dy="0.71em">JavaScript</text></g><g class="tick" opacity="1" transform="translate(299.53125,0)"><line stroke="currentColor" y2="6"></line><text fill="currentColor" y="9" dy="0.71em">JSX</text></g><g class="tick" opacity="1" transform="translate(410.46875000000006,0)"><line stroke="currentColor" y2="6"></line><text fill="currentColor" y="9" dy="0.71em">Python</text></g><g class="tick" opacity="1" transform="translate(521.40625,0)"><line stroke="currentColor" y2="6"></line><text fill="currentColor" y="9" dy="0.71em">CSS</text></g><g class="tick" opacity="1" transform="translate(632.3437500000001,0)"><line stroke="currentColor" y2="6"></line><text fill="currentColor" y="9" dy="0.71em">JSON</text></g></g><rect x="44.375" y="23.529411764705884" height="236.47058823529412" width="66.5625" fill="#D50657"></rect><rect x="155.3125" y="228.47058823529412" height="31.529411764705884" width="66.5625" fill="#049AE6"></rect><rect x="266.25" y="252.94117647058823" height="7.058823529411768" width="66.5625" fill="#F8C41B"></rect><rect x="377.18750000000006" y="255.76470588235296" height="4.235294117647044" width="66.5625" fill="#32465B"></rect><rect x="488.12500000000006" y="259.29411764705884" height="0.7058823529411598" width="66.5625" fill="#E45E42"></rect><rect x="599.0625000000001" y="259.7647058823529" height="0.2352941176470722" width="66.5625" fill="#007C5A"></rect><text class="labels" style="fill: #444;" x="44.375" y="3.529411764705884">10 hrs 5 mins</text><text class="labels" style="fill: #444;" x="155.3125" y="208.47058823529412">1 hr 34 mins</text><text class="labels" style="fill: #444;" x="266.25" y="232.94117647058823">30 mins</text><text class="labels" style="fill: #444;" x="377.18750000000006" y="235.76470588235296">18 mins</text><text class="labels" style="fill: #444;" x="488.12500000000006" y="239.29411764705884">3 mins</text><text class="labels" style="fill: #444;" x="599.0625000000001" y="239.76470588235293">1 min</text></g></svg>