<svg xmlns="http://www.w3.org/2000/svg" width="625" height="315"><g transform="translate(20, 20)"><g transform="translate(0, 260)" style="font-size: 15px; font-family: monospace; font-weight: 300;" fill="none" font-size="10" font-family="sans-serif" text-anchor="middle"><path class="domain" stroke="currentColor" d="M0.5,6V0.5H585.5V6"></path><g class="tick" opacity="1" transform="translate(75.83333333333334,0)"><line stroke="currentColor" y2="6"></line><text fill="currentColor" y="9" dy="0.71em">TypeScript</text></g><g class="tick" opacity="1" transform="translate(184.16666666666669,0)"><line stroke="currentColor" y2="6"></line><text fill="currentColor" y="9" dy="0.71em">Groovy</text></g><g class="tick" opacity="1" transform="translate(292.5,0)"><line stroke="currentColor" y2="6"></line><text fill="currentColor" y="9" dy="0.71em">JavaScript</text></g><g class="tick" opacity="1" transform="translate(400.83333333333337,0)"><line stroke="currentColor" y2="6"></line><text fill="currentColor" y="9" dy="0.71em">LESS</text></g><g class="tick" opacity="1" transform="translate(509.16666666666674,0)"><line stroke="currentColor" y2="6"></line><text fill="currentColor" y="9" dy="0.71em">Properties</text></g></g><rect x="43.33333333333334" y="17.955801104972373" height="242.04419889502762" width="65" fill="#D50657"></rect><rect x="151.66666666666669" y="256.9475138121547" height="3.052486187845318" width="65" fill="#049AE6"></rect><rect x="260" y="257.3066298342541" height="2.6933701657458755" width="65" fill="#F8C41B"></rect><rect x="368.33333333333337" y="259.46132596685084" height="0.5386740331491637" width="65" fill="#32465B"></rect><rect x="476.66666666666674" y="259.8204419889503" height="0.17955801104972124" width="65" fill="#E45E42"></rect><text class="labels" style="fill: #444;" x="43.33333333333334" y="-2.044198895027627">13 hrs 48 mins</text><text class="labels" style="fill: #444;" x="151.66666666666669" y="236.94751381215468">17 mins</text><text class="labels" style="fill: #444;" x="260" y="237.30662983425412">15 mins</text><text class="labels" style="fill: #444;" x="368.33333333333337" y="239.46132596685084">3 mins</text><text class="labels" style="fill: #444;" x="476.66666666666674" y="239.82044198895028">1 min</text></g></svg>