<svg xmlns="http://www.w3.org/2000/svg" width="750" height="315"><g transform="translate(20, 20)"><g transform="translate(0, 260)" style="font-size: 15px; font-family: monospace; font-weight: 300;" fill="none" font-size="10" font-family="sans-serif" text-anchor="middle"><path class="domain" stroke="currentColor" d="M0.5,6V0.5H710.5V6"></path><g class="tick" opacity="1" transform="translate(77.65625,0)"><line stroke="currentColor" y2="6"></line><text fill="currentColor" y="9" dy="0.71em">JavaScript</text></g><g class="tick" opacity="1" transform="translate(188.59375,0)"><line stroke="currentColor" y2="6"></line><text fill="currentColor" y="9" dy="0.71em">Dart</text></g><g class="tick" opacity="1" transform="translate(299.53125,0)"><line stroke="currentColor" y2="6"></line><text fill="currentColor" y="9" dy="0.71em">XML</text></g><g class="tick" opacity="1" transform="translate(410.46875000000006,0)"><line stroke="currentColor" y2="6"></line><text fill="currentColor" y="9" dy="0.71em">YAML</text></g><g class="tick" opacity="1" transform="translate(521.40625,0)"><line stroke="currentColor" y2="6"></line><text fill="currentColor" y="9" dy="0.71em">TypeScript</text></g><g class="tick" opacity="1" transform="translate(632.3437500000001,0)"><line stroke="currentColor" y2="6"></line><text fill="currentColor" y="9" dy="0.71em">Groovy</text></g></g><rect x="44.375" y="61.46572104018916" height="198.53427895981085" width="66.5625" fill="#D50657"></rect><rect x="155.3125" y="118.01418439716312" height="141.98581560283688" width="66.5625" fill="#049AE6"></rect><rect x="266.25" y="237.25768321513002" height="22.742316784869985" width="66.5625" fill="#F8C41B"></rect><rect x="377.18750000000006" y="245.24822695035462" height="14.75177304964538" width="66.5625" fill="#32465B"></rect><rect x="488.12500000000006" y="249.55082742316787" height="10.449172576832126" width="66.5625" fill="#E45E42"></rect><rect x="599.0625000000001" y="254.46808510638297" height="5.531914893617028" width="66.5625" fill="#007C5A"></rect><text class="labels" style="fill: #444;" x="44.375" y="41.46572104018916">3 hrs 23 mins</text><text class="labels" style="fill: #444;" x="155.3125" y="98.01418439716312">2 hrs 31 mins</text><text class="labels" style="fill: #444;" x="266.25" y="217.25768321513002">37 mins</text><text class="labels" style="fill: #444;" x="377.18750000000006" y="225.24822695035462">24 mins</text><text class="labels" style="fill: #444;" x="488.12500000000006" y="229.55082742316787">17 mins</text><text class="labels" style="fill: #444;" x="599.0625000000001" y="234.46808510638297">9 mins</text></g></svg>