<svg xmlns="http://www.w3.org/2000/svg" width="750" height="315"><g transform="translate(20, 20)"><g transform="translate(0, 260)" style="font-size: 15px; font-family: monospace; font-weight: 300;" fill="none" font-size="10" font-family="sans-serif" text-anchor="middle"><path class="domain" stroke="currentColor" d="M0.5,6V0.5H710.5V6"></path><g class="tick" opacity="1" transform="translate(77.65625,0)"><line stroke="currentColor" y2="6"></line><text fill="currentColor" y="9" dy="0.71em">JSX</text></g><g class="tick" opacity="1" transform="translate(188.59375,0)"><line stroke="currentColor" y2="6"></line><text fill="currentColor" y="9" dy="0.71em">CSS</text></g><g class="tick" opacity="1" transform="translate(299.53125,0)"><line stroke="currentColor" y2="6"></line><text fill="currentColor" y="9" dy="0.71em">LESS</text></g><g class="tick" opacity="1" transform="translate(410.46875000000006,0)"><line stroke="currentColor" y2="6"></line><text fill="currentColor" y="9" dy="0.71em">JavaScript</text></g><g class="tick" opacity="1" transform="translate(521.40625,0)"><line stroke="currentColor" y2="6"></line><text fill="currentColor" y="9" dy="0.71em">TypeScript</text></g><g class="tick" opacity="1" transform="translate(632.3437500000001,0)"><line stroke="currentColor" y2="6"></line><text fill="currentColor" y="9" dy="0.71em">JSON</text></g></g><rect x="44.375" y="12.246820536975985" height="247.75317946302403" width="66.5625" fill="#D50657"></rect><rect x="155.3125" y="219.21808761186998" height="40.781912388130024" width="66.5625" fill="#049AE6"></rect><rect x="266.25" y="232.07724917569476" height="27.92275082430524" width="66.5625" fill="#F8C41B"></rect><rect x="377.18750000000006" y="235.13895430993878" height="24.861045690061218" width="66.5625" fill="#32465B"></rect><rect x="488.12500000000006" y="241.13989637305698" height="18.860103626943015" width="66.5625" fill="#E45E42"></rect><rect x="599.0625000000001" y="258.53038153556287" height="1.4696184644371328" width="66.5625" fill="#007C5A"></rect><text class="labels" style="fill: #444;" x="44.375" y="-7.753179463024015">20 hrs 23 mins</text><text class="labels" style="fill: #444;" x="155.3125" y="199.21808761186998">3 hrs 33 mins</text><text class="labels" style="fill: #444;" x="266.25" y="212.07724917569476">2 hrs 28 mins</text><text class="labels" style="fill: #444;" x="377.18750000000006" y="215.13895430993878">2 hrs 3 mins</text><text class="labels" style="fill: #444;" x="488.12500000000006" y="221.13989637305698">1 hr 54 mins</text><text class="labels" style="fill: #444;" x="599.0625000000001" y="238.53038153556287">12 mins</text></g></svg>