<svg xmlns="http://www.w3.org/2000/svg" width="875" height="315"><g transform="translate(20, 20)"><g transform="translate(0, 260)" style="font-size: 15px; font-family: monospace; font-weight: 300;" fill="none" font-size="10" font-family="sans-serif" text-anchor="middle"><path class="domain" stroke="currentColor" d="M0.5,6V0.5H835.5V6"></path><g class="tick" opacity="1" transform="translate(78.98648648648646,0)"><line stroke="currentColor" y2="6"></line><text fill="currentColor" y="9" dy="0.71em">JSX</text></g><g class="tick" opacity="1" transform="translate(191.82432432432432,0)"><line stroke="currentColor" y2="6"></line><text fill="currentColor" y="9" dy="0.71em">CSS</text></g><g class="tick" opacity="1" transform="translate(304.6621621621622,0)"><line stroke="currentColor" y2="6"></line><text fill="currentColor" y="9" dy="0.71em">JavaScript</text></g><g class="tick" opacity="1" transform="translate(417.5,0)"><line stroke="currentColor" y2="6"></line><text fill="currentColor" y="9" dy="0.71em">LESS</text></g><g class="tick" opacity="1" transform="translate(530.3378378378379,0)"><line stroke="currentColor" y2="6"></line><text fill="currentColor" y="9" dy="0.71em">TypeScript</text></g><g class="tick" opacity="1" transform="translate(643.1756756756757,0)"><line stroke="currentColor" y2="6"></line><text fill="currentColor" y="9" dy="0.71em">JSON</text></g><g class="tick" opacity="1" transform="translate(756.0135135135135,0)"><line stroke="currentColor" y2="6"></line><text fill="currentColor" y="9" dy="0.71em">Git Config</text></g></g><rect x="45.1351351351351" y="12.682926829268304" height="247.3170731707317" width="67.70270270270271" fill="#D50657"></rect><rect x="157.97297297297297" y="227.53170731707317" height="32.46829268292683" width="67.70270270270271" fill="#049AE6"></rect><rect x="270.81081081081084" y="230.1951219512195" height="29.804878048780495" width="67.70270270270271" fill="#F8C41B"></rect><rect x="383.64864864864865" y="231.0829268292683" height="28.917073170731697" width="67.70270270270271" fill="#32465B"></rect><rect x="496.4864864864865" y="234.38048780487804" height="25.619512195121956" width="67.70270270270271" fill="#E45E42"></rect><rect x="609.3243243243244" y="258.22439024390246" height="1.7756097560975377" width="67.70270270270271" fill="#007C5A"></rect><rect x="722.1621621621622" y="259.8731707317073" height="0.12682926829268126" width="67.70270270270271" fill="#FC69FF"></rect><text class="labels" style="fill: #444;" x="45.1351351351351" y="-7.317073170731696">19 hrs 50 mins</text><text class="labels" style="fill: #444;" x="157.97297297297297" y="207.53170731707317">2 hrs 56 mins</text><text class="labels" style="fill: #444;" x="270.81081081081084" y="210.1951219512195">2 hrs 35 mins</text><text class="labels" style="fill: #444;" x="383.64864864864865" y="211.0829268292683">2 hrs 28 mins</text><text class="labels" style="fill: #444;" x="496.4864864864865" y="214.38048780487804">2 hrs 2 mins</text><text class="labels" style="fill: #444;" x="609.3243243243244" y="238.22439024390246">14 mins</text><text class="labels" style="fill: #444;" x="722.1621621621622" y="239.87317073170732">1 min</text></g></svg>