<svg xmlns="http://www.w3.org/2000/svg" width="875" height="315"><g transform="translate(20, 20)"><g transform="translate(0, 260)" style="font-size: 15px; font-family: monospace; font-weight: 300;" fill="none" font-size="10" font-family="sans-serif" text-anchor="middle"><path class="domain" stroke="currentColor" d="M0.5,6V0.5H835.5V6"></path><g class="tick" opacity="1" transform="translate(78.98648648648646,0)"><line stroke="currentColor" y2="6"></line><text fill="currentColor" y="9" dy="0.71em">JavaScript</text></g><g class="tick" opacity="1" transform="translate(191.82432432432432,0)"><line stroke="currentColor" y2="6"></line><text fill="currentColor" y="9" dy="0.71em">TypeScript</text></g><g class="tick" opacity="1" transform="translate(304.6621621621622,0)"><line stroke="currentColor" y2="6"></line><text fill="currentColor" y="9" dy="0.71em">JSON</text></g><g class="tick" opacity="1" transform="translate(417.5,0)"><line stroke="currentColor" y2="6"></line><text fill="currentColor" y="9" dy="0.71em">Markdown</text></g><g class="tick" opacity="1" transform="translate(530.3378378378379,0)"><line stroke="currentColor" y2="6"></line><text fill="currentColor" y="9" dy="0.71em">YAML</text></g><g class="tick" opacity="1" transform="translate(643.1756756756757,0)"><line stroke="currentColor" y2="6"></line><text fill="currentColor" y="9" dy="0.71em">Java</text></g><g class="tick" opacity="1" transform="translate(756.0135135135135,0)"><line stroke="currentColor" y2="6"></line><text fill="currentColor" y="9" dy="0.71em">Git Config</text></g></g><rect x="45.1351351351351" y="47.794117647058826" height="212.20588235294116" width="67.70270270270271" fill="#D50657"></rect><rect x="157.97297297297297" y="68.82352941176472" height="191.17647058823528" width="67.70270270270271" fill="#049AE6"></rect><rect x="270.81081081081084" y="111.83823529411765" height="148.16176470588235" width="67.70270270270271" fill="#F8C41B"></rect><rect x="383.64864864864865" y="188.78676470588235" height="71.21323529411765" width="67.70270270270271" fill="#32465B"></rect><rect x="496.4864864864865" y="232.7573529411765" height="27.242647058823508" width="67.70270270270271" fill="#E45E42"></rect><rect x="609.3243243243244" y="254.26470588235293" height="5.735294117647072" width="67.70270270270271" fill="#007C5A"></rect><rect x="722.1621621621622" y="258.0882352941177" height="1.9117647058823195" width="67.70270270270271" fill="#FC69FF"></rect><text class="labels" style="fill: #444;" x="45.1351351351351" y="27.794117647058826">4 hrs 44 mins</text><text class="labels" style="fill: #444;" x="157.97297297297297" y="48.823529411764724">4 hrs</text><text class="labels" style="fill: #444;" x="270.81081081081084" y="91.83823529411765">3 hrs 10 mins</text><text class="labels" style="fill: #444;" x="383.64864864864865" y="168.78676470588235">1 hr 49 mins</text><text class="labels" style="fill: #444;" x="496.4864864864865" y="212.7573529411765">57 mins</text><text class="labels" style="fill: #444;" x="609.3243243243244" y="234.26470588235293">12 mins</text><text class="labels" style="fill: #444;" x="722.1621621621622" y="238.08823529411768">4 mins</text></g></svg>