<svg xmlns="http://www.w3.org/2000/svg" width="750" height="315"><g transform="translate(20, 20)"><g transform="translate(0, 260)" style="font-size: 15px; font-family: monospace; font-weight: 300;" fill="none" font-size="10" font-family="sans-serif" text-anchor="middle"><path class="domain" stroke="currentColor" d="M0.5,6V0.5H710.5V6"></path><g class="tick" opacity="1" transform="translate(77.65625,0)"><line stroke="currentColor" y2="6"></line><text fill="currentColor" y="9" dy="0.71em">JSX</text></g><g class="tick" opacity="1" transform="translate(188.59375,0)"><line stroke="currentColor" y2="6"></line><text fill="currentColor" y="9" dy="0.71em">TypeScript</text></g><g class="tick" opacity="1" transform="translate(299.53125,0)"><line stroke="currentColor" y2="6"></line><text fill="currentColor" y="9" dy="0.71em">LESS</text></g><g class="tick" opacity="1" transform="translate(410.46875000000006,0)"><line stroke="currentColor" y2="6"></line><text fill="currentColor" y="9" dy="0.71em">JavaScript</text></g><g class="tick" opacity="1" transform="translate(521.40625,0)"><line stroke="currentColor" y2="6"></line><text fill="currentColor" y="9" dy="0.71em">JSON</text></g><g class="tick" opacity="1" transform="translate(632.3437500000001,0)"><line stroke="currentColor" y2="6"></line><text fill="currentColor" y="9" dy="0.71em">CSS</text></g></g><rect x="44.375" y="51.999999999999986" height="208" width="66.5625" fill="#D50657"></rect><rect x="155.3125" y="153.40000000000003" height="106.59999999999997" width="66.5625" fill="#049AE6"></rect><rect x="266.25" y="193.96" height="66.03999999999999" width="66.5625" fill="#F8C41B"></rect><rect x="377.18750000000006" y="197.6" height="62.400000000000006" width="66.5625" fill="#32465B"></rect><rect x="488.12500000000006" y="247" height="13" width="66.5625" fill="#E45E42"></rect><rect x="599.0625000000001" y="258.96" height="1.0400000000000205" width="66.5625" fill="#007C5A"></rect><text class="labels" style="fill: #444;" x="44.375" y="31.999999999999986">4 hrs</text><text class="labels" style="fill: #444;" x="155.3125" y="133.40000000000003">2 hrs 5 mins</text><text class="labels" style="fill: #444;" x="266.25" y="173.96">1 hr 27 mins</text><text class="labels" style="fill: #444;" x="377.18750000000006" y="177.6">1 hr 20 mins</text><text class="labels" style="fill: #444;" x="488.12500000000006" y="227">25 mins</text><text class="labels" style="fill: #444;" x="599.0625000000001" y="238.95999999999998">2 mins</text></g></svg>