<svg xmlns="http://www.w3.org/2000/svg" width="750" height="315"><g transform="translate(20, 20)"><g transform="translate(0, 260)" style="font-size: 15px; font-family: monospace; font-weight: 300;" fill="none" font-size="10" font-family="sans-serif" text-anchor="middle"><path class="domain" stroke="currentColor" d="M0.5,6V0.5H710.5V6"></path><g class="tick" opacity="1" transform="translate(77.65625,0)"><line stroke="currentColor" y2="6"></line><text fill="currentColor" y="9" dy="0.71em">JavaScript</text></g><g class="tick" opacity="1" transform="translate(188.59375,0)"><line stroke="currentColor" y2="6"></line><text fill="currentColor" y="9" dy="0.71em">TypeScript</text></g><g class="tick" opacity="1" transform="translate(299.53125,0)"><line stroke="currentColor" y2="6"></line><text fill="currentColor" y="9" dy="0.71em">JSX</text></g><g class="tick" opacity="1" transform="translate(410.46875000000006,0)"><line stroke="currentColor" y2="6"></line><text fill="currentColor" y="9" dy="0.71em">LESS</text></g><g class="tick" opacity="1" transform="translate(521.40625,0)"><line stroke="currentColor" y2="6"></line><text fill="currentColor" y="9" dy="0.71em">JSON</text></g><g class="tick" opacity="1" transform="translate(632.3437500000001,0)"><line stroke="currentColor" y2="6"></line><text fill="currentColor" y="9" dy="0.71em">Text</text></g></g><rect x="44.375" y="17.310252996005314" height="242.68974700399468" width="66.5625" fill="#D50657"></rect><rect x="155.3125" y="102.99600532623167" height="157.00399467376832" width="66.5625" fill="#049AE6"></rect><rect x="266.25" y="135.71238348868175" height="124.28761651131825" width="66.5625" fill="#F8C41B"></rect><rect x="377.18750000000006" y="257.2303595206392" height="2.7696404793608167" width="66.5625" fill="#32465B"></rect><rect x="488.12500000000006" y="259.48069241011984" height="0.5193075898801567" width="66.5625" fill="#E45E42"></rect><rect x="599.0625000000001" y="259.6537949400799" height="0.3462050599201234" width="66.5625" fill="#007C5A"></rect><text class="labels" style="fill: #444;" x="44.375" y="-2.689747003994686">14 hrs 2 mins</text><text class="labels" style="fill: #444;" x="155.3125" y="82.99600532623167">9 hrs 7 mins</text><text class="labels" style="fill: #444;" x="266.25" y="115.71238348868175">7 hrs 18 mins</text><text class="labels" style="fill: #444;" x="377.18750000000006" y="237.23035952063918">16 mins</text><text class="labels" style="fill: #444;" x="488.12500000000006" y="239.48069241011984">3 mins</text><text class="labels" style="fill: #444;" x="599.0625000000001" y="239.65379494007988">2 mins</text></g></svg>