<svg xmlns="http://www.w3.org/2000/svg" width="875" height="315"><g transform="translate(20, 20)"><g transform="translate(0, 260)" style="font-size: 15px; font-family: monospace; font-weight: 300;" fill="none" font-size="10" font-family="sans-serif" text-anchor="middle"><path class="domain" stroke="currentColor" d="M0.5,6V0.5H835.5V6"></path><g class="tick" opacity="1" transform="translate(78.98648648648646,0)"><line stroke="currentColor" y2="6"></line><text fill="currentColor" y="9" dy="0.71em">JSX</text></g><g class="tick" opacity="1" transform="translate(191.82432432432432,0)"><line stroke="currentColor" y2="6"></line><text fill="currentColor" y="9" dy="0.71em">TypeScript</text></g><g class="tick" opacity="1" transform="translate(304.6621621621622,0)"><line stroke="currentColor" y2="6"></line><text fill="currentColor" y="9" dy="0.71em">JavaScript</text></g><g class="tick" opacity="1" transform="translate(417.5,0)"><line stroke="currentColor" y2="6"></line><text fill="currentColor" y="9" dy="0.71em">LESS</text></g><g class="tick" opacity="1" transform="translate(530.3378378378379,0)"><line stroke="currentColor" y2="6"></line><text fill="currentColor" y="9" dy="0.71em">CSS</text></g><g class="tick" opacity="1" transform="translate(643.1756756756757,0)"><line stroke="currentColor" y2="6"></line><text fill="currentColor" y="9" dy="0.71em">JSON</text></g><g class="tick" opacity="1" transform="translate(756.0135135135135,0)"><line stroke="currentColor" y2="6"></line><text fill="currentColor" y="9" dy="0.71em">Git Config</text></g></g><rect x="45.1351351351351" y="14.89971346704871" height="245.1002865329513" width="67.70270270270271" fill="#D50657"></rect><rect x="157.97297297297297" y="183.41547277936962" height="76.58452722063038" width="67.70270270270271" fill="#049AE6"></rect><rect x="270.81081081081084" y="223.9426934097421" height="36.057306590257895" width="67.70270270270271" fill="#F8C41B"></rect><rect x="383.64864864864865" y="226.02865329512895" height="33.97134670487105" width="67.70270270270271" fill="#32465B"></rect><rect x="496.4864864864865" y="228.56160458452723" height="31.43839541547277" width="67.70270270270271" fill="#E45E42"></rect><rect x="609.3243243243244" y="257.91404011461316" height="2.085959885386842" width="67.70270270270271" fill="#007C5A"></rect><rect x="722.1621621621622" y="259.8510028653295" height="0.1489971346704806" width="67.70270270270271" fill="#FC69FF"></rect><text class="labels" style="fill: #444;" x="45.1351351351351" y="-5.100286532951291">16 hrs 45 mins</text><text class="labels" style="fill: #444;" x="157.97297297297297" y="163.41547277936962">5 hrs 14 mins</text><text class="labels" style="fill: #444;" x="270.81081081081084" y="203.9426934097421">2 hrs 42 mins</text><text class="labels" style="fill: #444;" x="383.64864864864865" y="206.02865329512895">2 hrs 28 mins</text><text class="labels" style="fill: #444;" x="496.4864864864865" y="208.56160458452723">2 hrs 11 mins</text><text class="labels" style="fill: #444;" x="609.3243243243244" y="237.91404011461316">14 mins</text><text class="labels" style="fill: #444;" x="722.1621621621622" y="239.85100286532952">1 min</text></g></svg>