<svg xmlns="http://www.w3.org/2000/svg" width="750" height="315"><g transform="translate(20, 20)"><g transform="translate(0, 260)" style="font-size: 15px; font-family: monospace; font-weight: 300;" fill="none" font-size="10" font-family="sans-serif" text-anchor="middle"><path class="domain" stroke="currentColor" d="M0.5,6V0.5H710.5V6"></path><g class="tick" opacity="1" transform="translate(77.65625,0)"><line stroke="currentColor" y2="6"></line><text fill="currentColor" y="9" dy="0.71em">JSX</text></g><g class="tick" opacity="1" transform="translate(188.59375,0)"><line stroke="currentColor" y2="6"></line><text fill="currentColor" y="9" dy="0.71em">LESS</text></g><g class="tick" opacity="1" transform="translate(299.53125,0)"><line stroke="currentColor" y2="6"></line><text fill="currentColor" y="9" dy="0.71em">TypeScript</text></g><g class="tick" opacity="1" transform="translate(410.46875000000006,0)"><line stroke="currentColor" y2="6"></line><text fill="currentColor" y="9" dy="0.71em">JavaScript</text></g><g class="tick" opacity="1" transform="translate(521.40625,0)"><line stroke="currentColor" y2="6"></line><text fill="currentColor" y="9" dy="0.71em">YAML</text></g><g class="tick" opacity="1" transform="translate(632.3437500000001,0)"><line stroke="currentColor" y2="6"></line><text fill="currentColor" y="9" dy="0.71em">JSON</text></g></g><rect x="44.375" y="47.016274864376136" height="212.98372513562387" width="66.5625" fill="#D50657"></rect><rect x="155.3125" y="161.26582278481013" height="98.73417721518987" width="66.5625" fill="#049AE6"></rect><rect x="266.25" y="200.2893309222423" height="59.7106690777577" width="66.5625" fill="#F8C41B"></rect><rect x="377.18750000000006" y="235.5515370705244" height="24.448462929475596" width="66.5625" fill="#32465B"></rect><rect x="488.12500000000006" y="255.29837251356238" height="4.701627486437616" width="66.5625" fill="#E45E42"></rect><rect x="599.0625000000001" y="259.0596745027125" height="0.9403254972875175" width="66.5625" fill="#007C5A"></rect><text class="labels" style="fill: #444;" x="44.375" y="27.016274864376136">4 hrs 53 mins</text><text class="labels" style="fill: #444;" x="155.3125" y="141.26582278481013">2 hrs 10 mins</text><text class="labels" style="fill: #444;" x="266.25" y="180.2893309222423">1 hr 27 mins</text><text class="labels" style="fill: #444;" x="377.18750000000006" y="215.5515370705244">52 mins</text><text class="labels" style="fill: #444;" x="488.12500000000006" y="235.29837251356238">10 mins</text><text class="labels" style="fill: #444;" x="599.0625000000001" y="239.05967450271248">2 mins</text></g></svg>