<svg xmlns="http://www.w3.org/2000/svg" width="625" height="315"><g transform="translate(20, 20)"><g transform="translate(0, 260)" style="font-size: 15px; font-family: monospace; font-weight: 300;" fill="none" font-size="10" font-family="sans-serif" text-anchor="middle"><path class="domain" stroke="currentColor" d="M0.5,6V0.5H585.5V6"></path><g class="tick" opacity="1" transform="translate(75.83333333333334,0)"><line stroke="currentColor" y2="6"></line><text fill="currentColor" y="9" dy="0.71em">TypeScript</text></g><g class="tick" opacity="1" transform="translate(184.16666666666669,0)"><line stroke="currentColor" y2="6"></line><text fill="currentColor" y="9" dy="0.71em">JavaScript</text></g><g class="tick" opacity="1" transform="translate(292.5,0)"><line stroke="currentColor" y2="6"></line><text fill="currentColor" y="9" dy="0.71em">YAML</text></g><g class="tick" opacity="1" transform="translate(400.83333333333337,0)"><line stroke="currentColor" y2="6"></line><text fill="currentColor" y="9" dy="0.71em">JSON</text></g><g class="tick" opacity="1" transform="translate(509.16666666666674,0)"><line stroke="currentColor" y2="6"></line><text fill="currentColor" y="9" dy="0.71em">Java</text></g></g><rect x="43.33333333333334" y="9.249377445748843" height="250.75062255425115" width="65" fill="#D50657"></rect><rect x="151.66666666666669" y="210.70081821415866" height="49.29918178584134" width="65" fill="#049AE6"></rect><rect x="260" y="257.04019921736034" height="2.959800782639661" width="65" fill="#F8C41B"></rect><rect x="368.33333333333337" y="257.31768054073285" height="2.6823194592671484" width="65" fill="#32465B"></rect><rect x="476.66666666666674" y="258.5200996086802" height="1.479900391319802" width="65" fill="#E45E42"></rect><text class="labels" style="fill: #444;" x="43.33333333333334" y="-10.750622554251157">27 hrs 11 mins</text><text class="labels" style="fill: #444;" x="151.66666666666669" y="190.70081821415866">5 hrs 33 mins</text><text class="labels" style="fill: #444;" x="260" y="237.04019921736034">32 mins</text><text class="labels" style="fill: #444;" x="368.33333333333337" y="237.31768054073285">29 mins</text><text class="labels" style="fill: #444;" x="476.66666666666674" y="238.5200996086802">16 mins</text></g></svg>