<svg xmlns="http://www.w3.org/2000/svg" width="625" height="315"><g transform="translate(20, 20)"><g transform="translate(0, 260)" style="font-size: 15px; font-family: monospace; font-weight: 300;" fill="none" font-size="10" font-family="sans-serif" text-anchor="middle"><path class="domain" stroke="currentColor" d="M0.5,6V0.5H585.5V6"></path><g class="tick" opacity="1" transform="translate(75.83333333333334,0)"><line stroke="currentColor" y2="6"></line><text fill="currentColor" y="9" dy="0.71em">JSX</text></g><g class="tick" opacity="1" transform="translate(184.16666666666669,0)"><line stroke="currentColor" y2="6"></line><text fill="currentColor" y="9" dy="0.71em">JavaScript</text></g><g class="tick" opacity="1" transform="translate(292.5,0)"><line stroke="currentColor" y2="6"></line><text fill="currentColor" y="9" dy="0.71em">TypeScript</text></g><g class="tick" opacity="1" transform="translate(400.83333333333337,0)"><line stroke="currentColor" y2="6"></line><text fill="currentColor" y="9" dy="0.71em">CSS</text></g><g class="tick" opacity="1" transform="translate(509.16666666666674,0)"><line stroke="currentColor" y2="6"></line><text fill="currentColor" y="9" dy="0.71em">JSON</text></g></g><rect x="43.33333333333334" y="21.00161550888529" height="238.9983844911147" width="65" fill="#D50657"></rect><rect x="151.66666666666669" y="84.00646203554119" height="175.99353796445882" width="65" fill="#049AE6"></rect><rect x="260" y="175.78352180936997" height="84.21647819063003" width="65" fill="#F8C41B"></rect><rect x="368.33333333333337" y="255.79967689822294" height="4.200323101777059" width="65" fill="#32465B"></rect><rect x="476.66666666666674" y="258.52988691437804" height="1.4701130856219606" width="65" fill="#E45E42"></rect><text class="labels" style="fill: #444;" x="43.33333333333334" y="1.0016155088852905">11 hrs 38 mins</text><text class="labels" style="fill: #444;" x="151.66666666666669" y="64.00646203554119">8 hrs 38 mins</text><text class="labels" style="fill: #444;" x="260" y="155.78352180936997">4 hrs 1 min</text><text class="labels" style="fill: #444;" x="368.33333333333337" y="235.79967689822294">20 mins</text><text class="labels" style="fill: #444;" x="476.66666666666674" y="238.52988691437804">7 mins</text></g></svg>