<svg xmlns="http://www.w3.org/2000/svg" width="1000" height="315"><g transform="translate(20, 20)"><g transform="translate(0, 260)" style="font-size: 15px; font-family: monospace; font-weight: 300;" fill="none" font-size="10" font-family="sans-serif" text-anchor="middle"><path class="domain" stroke="currentColor" d="M0.5,6V0.5H960.5V6"></path><g class="tick" opacity="1" transform="translate(80.00000000000006,0)"><line stroke="currentColor" y2="6"></line><text fill="currentColor" y="9" dy="0.71em">TypeScript</text></g><g class="tick" opacity="1" transform="translate(194.28571428571433,0)"><line stroke="currentColor" y2="6"></line><text fill="currentColor" y="9" dy="0.71em">JSON</text></g><g class="tick" opacity="1" transform="translate(308.5714285714286,0)"><line stroke="currentColor" y2="6"></line><text fill="currentColor" y="9" dy="0.71em">JavaScript</text></g><g class="tick" opacity="1" transform="translate(422.8571428571429,0)"><line stroke="currentColor" y2="6"></line><text fill="currentColor" y="9" dy="0.71em">yarn.lock</text></g><g class="tick" opacity="1" transform="translate(537.1428571428572,0)"><line stroke="currentColor" y2="6"></line><text fill="currentColor" y="9" dy="0.71em">tsconfig</text></g><g class="tick" opacity="1" transform="translate(651.4285714285714,0)"><line stroke="currentColor" y2="6"></line><text fill="currentColor" y="9" dy="0.71em">Markdown</text></g><g class="tick" opacity="1" transform="translate(765.7142857142858,0)"><line stroke="currentColor" y2="6"></line><text fill="currentColor" y="9" dy="0.71em">CSS</text></g><g class="tick" opacity="1" transform="translate(880.0000000000001,0)"><line stroke="currentColor" y2="6"></line><text fill="currentColor" y="9" dy="0.71em">XML</text></g></g><rect x="45.71428571428578" y="12.155212716222543" height="247.84478728377746" width="68.57142857142857" fill="#D50657"></rect><rect x="160.00000000000006" y="243.34735857877513" height="16.65264142122487" width="68.57142857142857" fill="#049AE6"></rect><rect x="274.28571428571433" y="246.6292660121552" height="13.370733987844801" width="68.57142857142857" fill="#F8C41B"></rect><rect x="388.5714285714286" y="258.78447872837774" height="1.215521271622265" width="68.57142857142857" fill="#32465B"></rect><rect x="502.8571428571429" y="259.0275829827022" height="0.9724170172978006" width="68.57142857142857" fill="#E45E42"></rect><rect x="617.1428571428571" y="259.2706872370266" height="0.7293127629733931" width="68.57142857142857" fill="#007C5A"></rect><rect x="731.4285714285714" y="259.51379149135107" height="0.48620850864892873" width="68.57142857142857" fill="#FC69FF"></rect><rect x="845.7142857142858" y="259.8784478728378" height="0.12155212716220376" width="68.57142857142857" fill="#3EC6CF"></rect><text class="labels" style="fill: #444;" x="45.71428571428578" y="-7.844787283777457">20 hrs 39 mins</text><text class="labels" style="fill: #444;" x="160.00000000000006" y="223.34735857877513">1 hr 37 mins</text><text class="labels" style="fill: #444;" x="274.28571428571433" y="226.6292660121552">1 hr 10 mins</text><text class="labels" style="fill: #444;" x="388.5714285714286" y="238.78447872837774">10 mins</text><text class="labels" style="fill: #444;" x="502.8571428571429" y="239.0275829827022">8 mins</text><text class="labels" style="fill: #444;" x="617.1428571428571" y="239.2706872370266">6 mins</text><text class="labels" style="fill: #444;" x="731.4285714285714" y="239.51379149135107">4 mins</text><text class="labels" style="fill: #444;" x="845.7142857142858" y="239.8784478728378">1 min</text></g></svg>