<svg xmlns="http://www.w3.org/2000/svg" width="750" height="315"><g transform="translate(20, 20)"><g transform="translate(0, 260)" style="font-size: 15px; font-family: monospace; font-weight: 300;" fill="none" font-size="10" font-family="sans-serif" text-anchor="middle"><path class="domain" stroke="currentColor" d="M0.5,6V0.5H710.5V6"></path><g class="tick" opacity="1" transform="translate(77.65625,0)"><line stroke="currentColor" y2="6"></line><text fill="currentColor" y="9" dy="0.71em">JSX</text></g><g class="tick" opacity="1" transform="translate(188.59375,0)"><line stroke="currentColor" y2="6"></line><text fill="currentColor" y="9" dy="0.71em">JavaScript</text></g><g class="tick" opacity="1" transform="translate(299.53125,0)"><line stroke="currentColor" y2="6"></line><text fill="currentColor" y="9" dy="0.71em">LESS</text></g><g class="tick" opacity="1" transform="translate(410.46875000000006,0)"><line stroke="currentColor" y2="6"></line><text fill="currentColor" y="9" dy="0.71em">TypeScript</text></g><g class="tick" opacity="1" transform="translate(521.40625,0)"><line stroke="currentColor" y2="6"></line><text fill="currentColor" y="9" dy="0.71em">JSON</text></g><g class="tick" opacity="1" transform="translate(632.3437500000001,0)"><line stroke="currentColor" y2="6"></line><text fill="currentColor" y="9" dy="0.71em">CSS</text></g></g><rect x="44.375" y="15.195791934541216" height="244.8042080654588" width="66.5625" fill="#D50657"></rect><rect x="155.3125" y="136.15429573348916" height="123.84570426651084" width="66.5625" fill="#049AE6"></rect><rect x="266.25" y="252.85797779076563" height="7.142022209234369" width="66.5625" fill="#F8C41B"></rect><rect x="377.18750000000006" y="253.16189362945647" height="6.838106370543528" width="66.5625" fill="#32465B"></rect><rect x="488.12500000000006" y="257.8725891291642" height="2.1274108708357744" width="66.5625" fill="#E45E42"></rect><rect x="599.0625000000001" y="258.6323787258913" height="1.3676212741087284" width="66.5625" fill="#007C5A"></rect><text class="labels" style="fill: #444;" x="44.375" y="-4.804208065458784">16 hrs 11 mins</text><text class="labels" style="fill: #444;" x="155.3125" y="116.15429573348916">8 hrs 15 mins</text><text class="labels" style="fill: #444;" x="266.25" y="232.85797779076563">47 mins</text><text class="labels" style="fill: #444;" x="377.18750000000006" y="233.16189362945647">45 mins</text><text class="labels" style="fill: #444;" x="488.12500000000006" y="237.87258912916423">14 mins</text><text class="labels" style="fill: #444;" x="599.0625000000001" y="238.63237872589127">9 mins</text></g></svg>