<svg xmlns="http://www.w3.org/2000/svg" width="625" height="315"><g transform="translate(20, 20)"><g transform="translate(0, 260)" style="font-size: 15px; font-family: monospace; font-weight: 300;" fill="none" font-size="10" font-family="sans-serif" text-anchor="middle"><path class="domain" stroke="currentColor" d="M0.5,6V0.5H585.5V6"></path><g class="tick" opacity="1" transform="translate(75.83333333333334,0)"><line stroke="currentColor" y2="6"></line><text fill="currentColor" y="9" dy="0.71em">JavaScript</text></g><g class="tick" opacity="1" transform="translate(184.16666666666669,0)"><line stroke="currentColor" y2="6"></line><text fill="currentColor" y="9" dy="0.71em">TypeScript</text></g><g class="tick" opacity="1" transform="translate(292.5,0)"><line stroke="currentColor" y2="6"></line><text fill="currentColor" y="9" dy="0.71em">CSS</text></g><g class="tick" opacity="1" transform="translate(400.83333333333337,0)"><line stroke="currentColor" y2="6"></line><text fill="currentColor" y="9" dy="0.71em">HTML</text></g><g class="tick" opacity="1" transform="translate(509.16666666666674,0)"><line stroke="currentColor" y2="6"></line><text fill="currentColor" y="9" dy="0.71em">Java</text></g></g><rect x="43.33333333333334" y="34.482758620689644" height="225.51724137931035" width="65" fill="#D50657"></rect><rect x="151.66666666666669" y="219.3103448275862" height="40.68965517241381" width="65" fill="#049AE6"></rect><rect x="260" y="253.10344827586206" height="6.896551724137936" width="65" fill="#F8C41B"></rect><rect x="368.33333333333337" y="255.86206896551727" height="4.137931034482733" width="65" fill="#32465B"></rect><rect x="476.66666666666674" y="258.9655172413793" height="1.0344827586206975" width="65" fill="#E45E42"></rect><text class="labels" style="fill: #444;" x="43.33333333333334" y="14.482758620689644">6 hrs 54 mins</text><text class="labels" style="fill: #444;" x="151.66666666666669" y="199.3103448275862">1 hr 18 mins</text><text class="labels" style="fill: #444;" x="260" y="233.10344827586206">20 mins</text><text class="labels" style="fill: #444;" x="368.33333333333337" y="235.86206896551727">12 mins</text><text class="labels" style="fill: #444;" x="476.66666666666674" y="238.9655172413793">3 mins</text></g></svg>