<svg xmlns="http://www.w3.org/2000/svg" width="750" height="315"><g transform="translate(20, 20)"><g transform="translate(0, 260)" style="font-size: 15px; font-family: monospace; font-weight: 300;" fill="none" font-size="10" font-family="sans-serif" text-anchor="middle"><path class="domain" stroke="currentColor" d="M0.5,6V0.5H710.5V6"></path><g class="tick" opacity="1" transform="translate(77.65625,0)"><line stroke="currentColor" y2="6"></line><text fill="currentColor" y="9" dy="0.71em">JSX</text></g><g class="tick" opacity="1" transform="translate(188.59375,0)"><line stroke="currentColor" y2="6"></line><text fill="currentColor" y="9" dy="0.71em">JavaScript</text></g><g class="tick" opacity="1" transform="translate(299.53125,0)"><line stroke="currentColor" y2="6"></line><text fill="currentColor" y="9" dy="0.71em">YAML</text></g><g class="tick" opacity="1" transform="translate(410.46875000000006,0)"><line stroke="currentColor" y2="6"></line><text fill="currentColor" y="9" dy="0.71em">TypeScript</text></g><g class="tick" opacity="1" transform="translate(521.40625,0)"><line stroke="currentColor" y2="6"></line><text fill="currentColor" y="9" dy="0.71em">LESS</text></g><g class="tick" opacity="1" transform="translate(632.3437500000001,0)"><line stroke="currentColor" y2="6"></line><text fill="currentColor" y="9" dy="0.71em">Docker</text></g></g><rect x="44.375" y="74.49856733524355" height="185.50143266475646" width="66.5625" fill="#D50657"></rect><rect x="155.3125" y="169.85673352435532" height="90.14326647564468" width="66.5625" fill="#049AE6"></rect><rect x="266.25" y="245.84527220630372" height="14.154727793696281" width="66.5625" fill="#F8C41B"></rect><rect x="377.18750000000006" y="251.8051575931232" height="8.194842406876802" width="66.5625" fill="#32465B"></rect><rect x="488.12500000000006" y="257.7650429799427" height="2.2349570200573226" width="66.5625" fill="#E45E42"></rect><rect x="599.0625000000001" y="259.25501432664754" height="0.7449856733524598" width="66.5625" fill="#007C5A"></rect><text class="labels" style="fill: #444;" x="44.375" y="54.49856733524355">2 hrs 49 mins</text><text class="labels" style="fill: #444;" x="155.3125" y="149.85673352435532">1 hr 21 mins</text><text class="labels" style="fill: #444;" x="266.25" y="225.84527220630372">19 mins</text><text class="labels" style="fill: #444;" x="377.18750000000006" y="231.8051575931232">11 mins</text><text class="labels" style="fill: #444;" x="488.12500000000006" y="237.76504297994268">3 mins</text><text class="labels" style="fill: #444;" x="599.0625000000001" y="239.25501432664754">1 min</text></g></svg>