<svg xmlns="http://www.w3.org/2000/svg" width="625" height="315"><g transform="translate(20, 20)"><g transform="translate(0, 260)" style="font-size: 15px; font-family: monospace; font-weight: 300;" fill="none" font-size="10" font-family="sans-serif" text-anchor="middle"><path class="domain" stroke="currentColor" d="M0.5,6V0.5H585.5V6"></path><g class="tick" opacity="1" transform="translate(75.83333333333334,0)"><line stroke="currentColor" y2="6"></line><text fill="currentColor" y="9" dy="0.71em">TypeScript</text></g><g class="tick" opacity="1" transform="translate(184.16666666666669,0)"><line stroke="currentColor" y2="6"></line><text fill="currentColor" y="9" dy="0.71em">JSX</text></g><g class="tick" opacity="1" transform="translate(292.5,0)"><line stroke="currentColor" y2="6"></line><text fill="currentColor" y="9" dy="0.71em">JavaScript</text></g><g class="tick" opacity="1" transform="translate(400.83333333333337,0)"><line stroke="currentColor" y2="6"></line><text fill="currentColor" y="9" dy="0.71em">LESS</text></g><g class="tick" opacity="1" transform="translate(509.16666666666674,0)"><line stroke="currentColor" y2="6"></line><text fill="currentColor" y="9" dy="0.71em">JSON</text></g></g><rect x="43.33333333333334" y="17.241379310344822" height="242.75862068965517" width="65" fill="#D50657"></rect><rect x="151.66666666666669" y="115.34482758620689" height="144.6551724137931" width="65" fill="#049AE6"></rect><rect x="260" y="185.6896551724138" height="74.31034482758619" width="65" fill="#F8C41B"></rect><rect x="368.33333333333337" y="250" height="10" width="65" fill="#32465B"></rect><rect x="476.66666666666674" y="259.82758620689657" height="0.17241379310343063" width="65" fill="#E45E42"></rect><text class="labels" style="fill: #444;" x="43.33333333333334" y="-2.758620689655178">14 hrs 8 mins</text><text class="labels" style="fill: #444;" x="151.66666666666669" y="95.34482758620689">8 hrs 39 mins</text><text class="labels" style="fill: #444;" x="260" y="165.6896551724138">4 hrs 31 mins</text><text class="labels" style="fill: #444;" x="368.33333333333337" y="230">58 mins</text><text class="labels" style="fill: #444;" x="476.66666666666674" y="239.82758620689657">1 min</text></g></svg>