<svg xmlns="http://www.w3.org/2000/svg" width="750" height="315"><g transform="translate(20, 20)"><g transform="translate(0, 260)" style="font-size: 15px; font-family: monospace; font-weight: 300;" fill="none" font-size="10" font-family="sans-serif" text-anchor="middle"><path class="domain" stroke="currentColor" d="M0.5,6V0.5H710.5V6"></path><g class="tick" opacity="1" transform="translate(77.65625,0)"><line stroke="currentColor" y2="6"></line><text fill="currentColor" y="9" dy="0.71em">JavaScript</text></g><g class="tick" opacity="1" transform="translate(188.59375,0)"><line stroke="currentColor" y2="6"></line><text fill="currentColor" y="9" dy="0.71em">JSX</text></g><g class="tick" opacity="1" transform="translate(299.53125,0)"><line stroke="currentColor" y2="6"></line><text fill="currentColor" y="9" dy="0.71em">TypeScript</text></g><g class="tick" opacity="1" transform="translate(410.46875000000006,0)"><line stroke="currentColor" y2="6"></line><text fill="currentColor" y="9" dy="0.71em">LESS</text></g><g class="tick" opacity="1" transform="translate(521.40625,0)"><line stroke="currentColor" y2="6"></line><text fill="currentColor" y="9" dy="0.71em">JSON</text></g><g class="tick" opacity="1" transform="translate(632.3437500000001,0)"><line stroke="currentColor" y2="6"></line><text fill="currentColor" y="9" dy="0.71em">Text</text></g></g><rect x="44.375" y="17.943409247757064" height="242.05659075224293" width="66.5625" fill="#D50657"></rect><rect x="155.3125" y="114.29951690821258" height="145.70048309178742" width="66.5625" fill="#049AE6"></rect><rect x="266.25" y="115.73498964803314" height="144.26501035196685" width="66.5625" fill="#F8C41B"></rect><rect x="377.18750000000006" y="257.12905452035886" height="2.8709454796411364" width="66.5625" fill="#32465B"></rect><rect x="488.12500000000006" y="259.4616977225673" height="0.538302277432706" width="66.5625" fill="#E45E42"></rect><rect x="599.0625000000001" y="259.64113181504484" height="0.35886818495515627" width="66.5625" fill="#007C5A"></rect><text class="labels" style="fill: #444;" x="44.375" y="-2.0565907522429363">13 hrs 49 mins</text><text class="labels" style="fill: #444;" x="155.3125" y="94.29951690821258">8 hrs 12 mins</text><text class="labels" style="fill: #444;" x="266.25" y="95.73498964803314">8 hrs 4 mins</text><text class="labels" style="fill: #444;" x="377.18750000000006" y="237.12905452035886">16 mins</text><text class="labels" style="fill: #444;" x="488.12500000000006" y="239.4616977225673">3 mins</text><text class="labels" style="fill: #444;" x="599.0625000000001" y="239.64113181504484">2 mins</text></g></svg>