<svg xmlns="http://www.w3.org/2000/svg" width="875" height="315"><g transform="translate(20, 20)"><g transform="translate(0, 260)" style="font-size: 15px; font-family: monospace; font-weight: 300;" fill="none" font-size="10" font-family="sans-serif" text-anchor="middle"><path class="domain" stroke="currentColor" d="M0.5,6V0.5H835.5V6"></path><g class="tick" opacity="1" transform="translate(78.98648648648646,0)"><line stroke="currentColor" y2="6"></line><text fill="currentColor" y="9" dy="0.71em">JSX</text></g><g class="tick" opacity="1" transform="translate(191.82432432432432,0)"><line stroke="currentColor" y2="6"></line><text fill="currentColor" y="9" dy="0.71em">TypeScript</text></g><g class="tick" opacity="1" transform="translate(304.6621621621622,0)"><line stroke="currentColor" y2="6"></line><text fill="currentColor" y="9" dy="0.71em">JavaScript</text></g><g class="tick" opacity="1" transform="translate(417.5,0)"><line stroke="currentColor" y2="6"></line><text fill="currentColor" y="9" dy="0.71em">LESS</text></g><g class="tick" opacity="1" transform="translate(530.3378378378379,0)"><line stroke="currentColor" y2="6"></line><text fill="currentColor" y="9" dy="0.71em">Text</text></g><g class="tick" opacity="1" transform="translate(643.1756756756757,0)"><line stroke="currentColor" y2="6"></line><text fill="currentColor" y="9" dy="0.71em">JSON</text></g><g class="tick" opacity="1" transform="translate(756.0135135135135,0)"><line stroke="currentColor" y2="6"></line><text fill="currentColor" y="9" dy="0.71em">Docker</text></g></g><rect x="45.1351351351351" y="21.035598705501627" height="238.96440129449837" width="67.70270270270271" fill="#D50657"></rect><rect x="157.97297297297297" y="147.66990291262135" height="112.33009708737865" width="67.70270270270271" fill="#049AE6"></rect><rect x="270.81081081081084" y="209.51456310679612" height="50.48543689320388" width="67.70270270270271" fill="#F8C41B"></rect><rect x="383.64864864864865" y="215.8252427184466" height="44.17475728155341" width="67.70270270270271" fill="#32465B"></rect><rect x="496.4864864864865" y="259.57928802589" height="0.42071197411002004" width="67.70270270270271" fill="#E45E42"></rect><rect x="609.3243243243244" y="259.57928802589" height="0.42071197411002004" width="67.70270270270271" fill="#007C5A"></rect><rect x="722.1621621621622" y="259.789644012945" height="0.2103559870549816" width="67.70270270270271" fill="#FC69FF"></rect><text class="labels" style="fill: #444;" x="45.1351351351351" y="1.0355987055016271">11 hrs 36 mins</text><text class="labels" style="fill: #444;" x="157.97297297297297" y="127.66990291262135">5 hrs 34 mins</text><text class="labels" style="fill: #444;" x="270.81081081081084" y="189.51456310679612">2 hrs 40 mins</text><text class="labels" style="fill: #444;" x="383.64864864864865" y="195.8252427184466">2 hrs 10 mins</text><text class="labels" style="fill: #444;" x="496.4864864864865" y="239.57928802588998">2 mins</text><text class="labels" style="fill: #444;" x="609.3243243243244" y="239.57928802588998">2 mins</text><text class="labels" style="fill: #444;" x="722.1621621621622" y="239.78964401294502">1 min</text></g></svg>