<svg xmlns="http://www.w3.org/2000/svg" width="1000" height="315"><g transform="translate(20, 20)"><g transform="translate(0, 260)" style="font-size: 15px; font-family: monospace; font-weight: 300;" fill="none" font-size="10" font-family="sans-serif" text-anchor="middle"><path class="domain" stroke="currentColor" d="M0.5,6V0.5H960.5V6"></path><g class="tick" opacity="1" transform="translate(80.00000000000006,0)"><line stroke="currentColor" y2="6"></line><text fill="currentColor" y="9" dy="0.71em">JSX</text></g><g class="tick" opacity="1" transform="translate(194.28571428571433,0)"><line stroke="currentColor" y2="6"></line><text fill="currentColor" y="9" dy="0.71em">TypeScript</text></g><g class="tick" opacity="1" transform="translate(308.5714285714286,0)"><line stroke="currentColor" y2="6"></line><text fill="currentColor" y="9" dy="0.71em">JavaScript</text></g><g class="tick" opacity="1" transform="translate(422.8571428571429,0)"><line stroke="currentColor" y2="6"></line><text fill="currentColor" y="9" dy="0.71em">LESS</text></g><g class="tick" opacity="1" transform="translate(537.1428571428572,0)"><line stroke="currentColor" y2="6"></line><text fill="currentColor" y="9" dy="0.71em">CSS</text></g><g class="tick" opacity="1" transform="translate(651.4285714285714,0)"><line stroke="currentColor" y2="6"></line><text fill="currentColor" y="9" dy="0.71em">JSON</text></g><g class="tick" opacity="1" transform="translate(765.7142857142858,0)"><line stroke="currentColor" y2="6"></line><text fill="currentColor" y="9" dy="0.71em">Docker</text></g><g class="tick" opacity="1" transform="translate(880.0000000000001,0)"><line stroke="currentColor" y2="6"></line><text fill="currentColor" y="9" dy="0.71em">Git Config</text></g></g><rect x="45.71428571428578" y="21.31147540983606" height="238.68852459016395" width="68.57142857142857" fill="#D50657"></rect><rect x="160.00000000000006" y="38.14754098360655" height="221.85245901639345" width="68.57142857142857" fill="#049AE6"></rect><rect x="274.28571428571433" y="212.47540983606558" height="47.52459016393442" width="68.57142857142857" fill="#F8C41B"></rect><rect x="388.5714285714286" y="228.88524590163934" height="31.114754098360663" width="68.57142857142857" fill="#32465B"></rect><rect x="502.8571428571429" y="235.91803278688525" height="24.08196721311475" width="68.57142857142857" fill="#E45E42"></rect><rect x="617.1428571428571" y="257.016393442623" height="2.9836065573770156" width="68.57142857142857" fill="#007C5A"></rect><rect x="731.4285714285714" y="258.93442622950823" height="1.065573770491767" width="68.57142857142857" fill="#FC69FF"></rect><rect x="845.7142857142858" y="259.78688524590166" height="0.21311475409834202" width="68.57142857142857" fill="#3EC6CF"></rect><text class="labels" style="fill: #444;" x="45.71428571428578" y="1.31147540983606">11 hrs 20 mins</text><text class="labels" style="fill: #444;" x="160.00000000000006" y="18.147540983606547">10 hrs 41 mins</text><text class="labels" style="fill: #444;" x="274.28571428571433" y="192.47540983606558">2 hrs 23 mins</text><text class="labels" style="fill: #444;" x="388.5714285714286" y="208.88524590163934">1 hr 46 mins</text><text class="labels" style="fill: #444;" x="502.8571428571429" y="215.91803278688525">1 hr 13 mins</text><text class="labels" style="fill: #444;" x="617.1428571428571" y="237.01639344262298">14 mins</text><text class="labels" style="fill: #444;" x="731.4285714285714" y="238.93442622950823">5 mins</text><text class="labels" style="fill: #444;" x="845.7142857142858" y="239.78688524590166">1 min</text></g></svg>