<svg xmlns="http://www.w3.org/2000/svg" width="875" height="315"><g transform="translate(20, 20)"><g transform="translate(0, 260)" style="font-size: 15px; font-family: monospace; font-weight: 300;" fill="none" font-size="10" font-family="sans-serif" text-anchor="middle"><path class="domain" stroke="currentColor" d="M0.5,6V0.5H835.5V6"></path><g class="tick" opacity="1" transform="translate(78.98648648648646,0)"><line stroke="currentColor" y2="6"></line><text fill="currentColor" y="9" dy="0.71em">TypeScript</text></g><g class="tick" opacity="1" transform="translate(191.82432432432432,0)"><line stroke="currentColor" y2="6"></line><text fill="currentColor" y="9" dy="0.71em">JavaScript</text></g><g class="tick" opacity="1" transform="translate(304.6621621621622,0)"><line stroke="currentColor" y2="6"></line><text fill="currentColor" y="9" dy="0.71em">JSON</text></g><g class="tick" opacity="1" transform="translate(417.5,0)"><line stroke="currentColor" y2="6"></line><text fill="currentColor" y="9" dy="0.71em">YAML</text></g><g class="tick" opacity="1" transform="translate(530.3378378378379,0)"><line stroke="currentColor" y2="6"></line><text fill="currentColor" y="9" dy="0.71em">Java</text></g><g class="tick" opacity="1" transform="translate(643.1756756756757,0)"><line stroke="currentColor" y2="6"></line><text fill="currentColor" y="9" dy="0.71em">Markdown</text></g><g class="tick" opacity="1" transform="translate(756.0135135135135,0)"><line stroke="currentColor" y2="6"></line><text fill="currentColor" y="9" dy="0.71em">Git Config</text></g></g><rect x="45.1351351351351" y="12.115563839701768" height="247.88443616029824" width="67.70270270270271" fill="#D50657"></rect><rect x="157.97297297297297" y="185.3681267474371" height="74.63187325256291" width="67.70270270270271" fill="#049AE6"></rect><rect x="270.81081081081084" y="244.49207828518175" height="15.507921714818252" width="67.70270270270271" fill="#F8C41B"></rect><rect x="383.64864864864865" y="254.5479962721342" height="5.452003727865787" width="67.70270270270271" fill="#32465B"></rect><rect x="496.4864864864865" y="257.2134203168686" height="2.7865796831313787" width="67.70270270270271" fill="#E45E42"></rect><rect x="609.3243243243244" y="259.2730661696179" height="0.7269338303821087" width="67.70270270270271" fill="#007C5A"></rect><rect x="722.1621621621622" y="259.63653308480895" height="0.36346691519105434" width="67.70270270270271" fill="#FC69FF"></rect><text class="labels" style="fill: #444;" x="45.1351351351351" y="-7.8844361602982325">20 hrs 46 mins</text><text class="labels" style="fill: #444;" x="157.97297297297297" y="165.3681267474371">6 hrs 16 mins</text><text class="labels" style="fill: #444;" x="270.81081081081084" y="224.49207828518175">1 hr 28 mins</text><text class="labels" style="fill: #444;" x="383.64864864864865" y="234.5479962721342">45 mins</text><text class="labels" style="fill: #444;" x="496.4864864864865" y="237.21342031686862">23 mins</text><text class="labels" style="fill: #444;" x="609.3243243243244" y="239.2730661696179">6 mins</text><text class="labels" style="fill: #444;" x="722.1621621621622" y="239.63653308480895">3 mins</text></g></svg>