<svg xmlns="http://www.w3.org/2000/svg" width="625" height="315"><g transform="translate(20, 20)"><g transform="translate(0, 260)" style="font-size: 15px; font-family: monospace; font-weight: 300;" fill="none" font-size="10" font-family="sans-serif" text-anchor="middle"><path class="domain" stroke="currentColor" d="M0.5,6V0.5H585.5V6"></path><g class="tick" opacity="1" transform="translate(75.83333333333334,0)"><line stroke="currentColor" y2="6"></line><text fill="currentColor" y="9" dy="0.71em">TypeScript</text></g><g class="tick" opacity="1" transform="translate(184.16666666666669,0)"><line stroke="currentColor" y2="6"></line><text fill="currentColor" y="9" dy="0.71em">JSX</text></g><g class="tick" opacity="1" transform="translate(292.5,0)"><line stroke="currentColor" y2="6"></line><text fill="currentColor" y="9" dy="0.71em">JavaScript</text></g><g class="tick" opacity="1" transform="translate(400.83333333333337,0)"><line stroke="currentColor" y2="6"></line><text fill="currentColor" y="9" dy="0.71em">LESS</text></g><g class="tick" opacity="1" transform="translate(509.16666666666674,0)"><line stroke="currentColor" y2="6"></line><text fill="currentColor" y="9" dy="0.71em">JSON</text></g></g><rect x="43.33333333333334" y="25.19379844961239" height="234.8062015503876" width="65" fill="#D50657"></rect><rect x="151.66666666666669" y="26.705426356589165" height="233.29457364341084" width="65" fill="#049AE6"></rect><rect x="260" y="175.60077519379846" height="84.39922480620154" width="65" fill="#F8C41B"></rect><rect x="368.33333333333337" y="230.27131782945736" height="29.72868217054264" width="65" fill="#32465B"></rect><rect x="476.66666666666674" y="255.21317829457362" height="4.786821705426377" width="65" fill="#E45E42"></rect><text class="labels" style="fill: #444;" x="43.33333333333334" y="5.193798449612391">9 hrs 32 mins</text><text class="labels" style="fill: #444;" x="151.66666666666669" y="6.7054263565891645">9 hrs 26 mins</text><text class="labels" style="fill: #444;" x="260" y="155.60077519379846">3 hrs 35 mins</text><text class="labels" style="fill: #444;" x="368.33333333333337" y="210.27131782945736">1 hr 18 mins</text><text class="labels" style="fill: #444;" x="476.66666666666674" y="235.21317829457362">19 mins</text></g></svg>