<svg xmlns="http://www.w3.org/2000/svg" width="1250" height="315"><g transform="translate(20, 20)"><g transform="translate(0, 260)" style="font-size: 15px; font-family: monospace; font-weight: 300;" fill="none" font-size="10" font-family="sans-serif" text-anchor="middle"><path class="domain" stroke="currentColor" d="M0.5,6V0.5H1210.5V6"></path><g class="tick" opacity="1" transform="translate(81.44230769230771,0)"><line stroke="currentColor" y2="6"></line><text fill="currentColor" y="9" dy="0.71em">TypeScript</text></g><g class="tick" opacity="1" transform="translate(197.78846153846155,0)"><line stroke="currentColor" y2="6"></line><text fill="currentColor" y="9" dy="0.71em">JavaScript</text></g><g class="tick" opacity="1" transform="translate(314.13461538461536,0)"><line stroke="currentColor" y2="6"></line><text fill="currentColor" y="9" dy="0.71em">JSON</text></g><g class="tick" opacity="1" transform="translate(430.4807692307692,0)"><line stroke="currentColor" y2="6"></line><text fill="currentColor" y="9" dy="0.71em">yarn.lock</text></g><g class="tick" opacity="1" transform="translate(546.8269230769231,0)"><line stroke="currentColor" y2="6"></line><text fill="currentColor" y="9" dy="0.71em">Text</text></g><g class="tick" opacity="1" transform="translate(663.1730769230769,0)"><line stroke="currentColor" y2="6"></line><text fill="currentColor" y="9" dy="0.71em">CSS</text></g><g class="tick" opacity="1" transform="translate(779.5192307692308,0)"><line stroke="currentColor" y2="6"></line><text fill="currentColor" y="9" dy="0.71em">tsconfig</text></g><g class="tick" opacity="1" transform="translate(895.8653846153846,0)"><line stroke="currentColor" y2="6"></line><text fill="currentColor" y="9" dy="0.71em">XML</text></g><g class="tick" opacity="1" transform="translate(1012.2115384615385,0)"><line stroke="currentColor" y2="6"></line><text fill="currentColor" y="9" dy="0.71em">SVG</text></g><g class="tick" opacity="1" transform="translate(1128.5576923076924,0)"><line stroke="currentColor" y2="6"></line><text fill="currentColor" y="9" dy="0.71em">Markdown</text></g></g><rect x="46.53846153846155" y="6.610729722857858" height="253.38927027714215" width="69.8076923076923" fill="#D50657"></rect><rect x="162.8846153846154" y="256.49631324688534" height="3.503686753114664" width="69.8076923076923" fill="#049AE6"></rect><rect x="279.2307692307692" y="256.76074243579967" height="3.2392575642003294" width="69.8076923076923" fill="#F8C41B"></rect><rect x="395.5769230769231" y="259.3389270277142" height="0.6610729722858082" width="69.8076923076923" fill="#32465B"></rect><rect x="511.9230769230769" y="259.53724891939993" height="0.4627510806000714" width="69.8076923076923" fill="#E45E42"></rect><rect x="628.2692307692307" y="259.6033562166285" height="0.39664378337147355" width="69.8076923076923" fill="#007C5A"></rect><rect x="744.6153846153846" y="259.6033562166285" height="0.39664378337147355" width="69.8076923076923" fill="#FC69FF"></rect><rect x="860.9615384615385" y="259.9338927027714" height="0.06610729722859787" width="69.8076923076923" fill="#3EC6CF"></rect><rect x="977.3076923076923" y="259.9338927027714" height="0.06610729722859787" width="69.8076923076923" fill="#620A79"></rect><rect x="1093.6538461538462" y="259.9338927027714" height="0.06610729722859787" width="69.8076923076923" fill="#D50657"></rect><text class="labels" style="fill: #444;" x="46.53846153846155" y="-13.389270277142142">38 hrs 33 mins</text><text class="labels" style="fill: #444;" x="162.8846153846154" y="236.49631324688534">53 mins</text><text class="labels" style="fill: #444;" x="279.2307692307692" y="236.76074243579967">49 mins</text><text class="labels" style="fill: #444;" x="395.5769230769231" y="239.3389270277142">10 mins</text><text class="labels" style="fill: #444;" x="511.9230769230769" y="239.53724891939993">7 mins</text><text class="labels" style="fill: #444;" x="628.2692307692307" y="239.60335621662853">6 mins</text><text class="labels" style="fill: #444;" x="744.6153846153846" y="239.60335621662853">6 mins</text><text class="labels" style="fill: #444;" x="860.9615384615385" y="239.9338927027714">1 min</text><text class="labels" style="fill: #444;" x="977.3076923076923" y="239.9338927027714">1 min</text><text class="labels" style="fill: #444;" x="1093.6538461538462" y="239.9338927027714">1 min</text></g></svg>