<svg xmlns="http://www.w3.org/2000/svg" width="625" height="315"><g transform="translate(20, 20)"><g transform="translate(0, 260)" style="font-size: 15px; font-family: monospace; font-weight: 300;" fill="none" font-size="10" font-family="sans-serif" text-anchor="middle"><path class="domain" stroke="currentColor" d="M0.5,6V0.5H585.5V6"></path><g class="tick" opacity="1" transform="translate(75.83333333333334,0)"><line stroke="currentColor" y2="6"></line><text fill="currentColor" y="9" dy="0.71em">JavaScript</text></g><g class="tick" opacity="1" transform="translate(184.16666666666669,0)"><line stroke="currentColor" y2="6"></line><text fill="currentColor" y="9" dy="0.71em">Dart</text></g><g class="tick" opacity="1" transform="translate(292.5,0)"><line stroke="currentColor" y2="6"></line><text fill="currentColor" y="9" dy="0.71em">JSX</text></g><g class="tick" opacity="1" transform="translate(400.83333333333337,0)"><line stroke="currentColor" y2="6"></line><text fill="currentColor" y="9" dy="0.71em">TypeScript</text></g><g class="tick" opacity="1" transform="translate(509.16666666666674,0)"><line stroke="currentColor" y2="6"></line><text fill="currentColor" y="9" dy="0.71em">LESS</text></g></g><rect x="43.33333333333334" y="48.327137546468414" height="211.6728624535316" width="65" fill="#D50657"></rect><rect x="151.66666666666669" y="61.37546468401485" height="198.62453531598516" width="65" fill="#049AE6"></rect><rect x="260" y="61.37546468401485" height="198.62453531598516" width="65" fill="#F8C41B"></rect><rect x="368.33333333333337" y="151.74721189591077" height="108.25278810408923" width="65" fill="#32465B"></rect><rect x="476.66666666666674" y="251.78438661710035" height="8.215613382899647" width="65" fill="#E45E42"></rect><text class="labels" style="fill: #444;" x="43.33333333333334" y="28.327137546468414">4 hrs 38 mins</text><text class="labels" style="fill: #444;" x="151.66666666666669" y="41.37546468401485">4 hrs 11 mins</text><text class="labels" style="fill: #444;" x="260" y="41.37546468401485">4 hrs 11 mins</text><text class="labels" style="fill: #444;" x="368.33333333333337" y="131.74721189591077">2 hrs 24 mins</text><text class="labels" style="fill: #444;" x="476.66666666666674" y="231.78438661710035">17 mins</text></g></svg>