<svg xmlns="http://www.w3.org/2000/svg" width="625" height="315"><g transform="translate(20, 20)"><g transform="translate(0, 260)" style="font-size: 15px; font-family: monospace; font-weight: 300;" fill="none" font-size="10" font-family="sans-serif" text-anchor="middle"><path class="domain" stroke="currentColor" d="M0.5,6V0.5H585.5V6"></path><g class="tick" opacity="1" transform="translate(75.83333333333334,0)"><line stroke="currentColor" y2="6"></line><text fill="currentColor" y="9" dy="0.71em">TypeScript</text></g><g class="tick" opacity="1" transform="translate(184.16666666666669,0)"><line stroke="currentColor" y2="6"></line><text fill="currentColor" y="9" dy="0.71em">JavaScript</text></g><g class="tick" opacity="1" transform="translate(292.5,0)"><line stroke="currentColor" y2="6"></line><text fill="currentColor" y="9" dy="0.71em">JSON</text></g><g class="tick" opacity="1" transform="translate(400.83333333333337,0)"><line stroke="currentColor" y2="6"></line><text fill="currentColor" y="9" dy="0.71em">Java</text></g><g class="tick" opacity="1" transform="translate(509.16666666666674,0)"><line stroke="currentColor" y2="6"></line><text fill="currentColor" y="9" dy="0.71em">YAML</text></g></g><rect x="43.33333333333334" y="8.384392131570468" height="251.61560786842952" width="65" fill="#D50657"></rect><rect x="151.66666666666669" y="232.750725572396" height="27.249274427604007" width="65" fill="#049AE6"></rect><rect x="260" y="257.5685262818446" height="2.4314737181554165" width="65" fill="#F8C41B"></rect><rect x="368.33333333333337" y="259.07771686552724" height="0.9222831344727638" width="65" fill="#32465B"></rect><rect x="476.66666666666674" y="259.9161560786843" height="0.0838439213156903" width="65" fill="#E45E42"></rect><text class="labels" style="fill: #444;" x="43.33333333333334" y="-11.615607868429532">30 hrs 1 min</text><text class="labels" style="fill: #444;" x="151.66666666666669" y="212.750725572396">3 hrs 25 mins</text><text class="labels" style="fill: #444;" x="260" y="237.56852628184458">29 mins</text><text class="labels" style="fill: #444;" x="368.33333333333337" y="239.07771686552724">11 mins</text><text class="labels" style="fill: #444;" x="476.66666666666674" y="239.9161560786843">1 min</text></g></svg>