<svg xmlns="http://www.w3.org/2000/svg" width="875" height="315"><g transform="translate(20, 20)"><g transform="translate(0, 260)" style="font-size: 15px; font-family: monospace; font-weight: 300;" fill="none" font-size="10" font-family="sans-serif" text-anchor="middle"><path class="domain" stroke="currentColor" d="M0.5,6V0.5H835.5V6"></path><g class="tick" opacity="1" transform="translate(78.98648648648646,0)"><line stroke="currentColor" y2="6"></line><text fill="currentColor" y="9" dy="0.71em">JavaScript</text></g><g class="tick" opacity="1" transform="translate(191.82432432432432,0)"><line stroke="currentColor" y2="6"></line><text fill="currentColor" y="9" dy="0.71em">JSX</text></g><g class="tick" opacity="1" transform="translate(304.6621621621622,0)"><line stroke="currentColor" y2="6"></line><text fill="currentColor" y="9" dy="0.71em">TypeScript</text></g><g class="tick" opacity="1" transform="translate(417.5,0)"><line stroke="currentColor" y2="6"></line><text fill="currentColor" y="9" dy="0.71em">JSON</text></g><g class="tick" opacity="1" transform="translate(530.3378378378379,0)"><line stroke="currentColor" y2="6"></line><text fill="currentColor" y="9" dy="0.71em">Java</text></g><g class="tick" opacity="1" transform="translate(643.1756756756757,0)"><line stroke="currentColor" y2="6"></line><text fill="currentColor" y="9" dy="0.71em">XML</text></g><g class="tick" opacity="1" transform="translate(756.0135135135135,0)"><line stroke="currentColor" y2="6"></line><text fill="currentColor" y="9" dy="0.71em">Text</text></g></g><rect x="45.1351351351351" y="24.904214559386983" height="235.095785440613" width="67.70270270270271" fill="#D50657"></rect><rect x="157.97297297297297" y="172.33716475095787" height="87.66283524904213" width="67.70270270270271" fill="#049AE6"></rect><rect x="270.81081081081084" y="248.29501915708812" height="11.70498084291188" width="67.70270270270271" fill="#F8C41B"></rect><rect x="383.64864864864865" y="249.2911877394636" height="10.708812260536405" width="67.70270270270271" fill="#32465B"></rect><rect x="496.4864864864865" y="259.0038314176245" height="0.9961685823755033" width="67.70270270270271" fill="#E45E42"></rect><rect x="609.3243243243244" y="259.2528735632184" height="0.7471264367816275" width="67.70270270270271" fill="#007C5A"></rect><rect x="722.1621621621622" y="259.7509578544061" height="0.24904214559387583" width="67.70270270270271" fill="#FC69FF"></rect><text class="labels" style="fill: #444;" x="45.1351351351351" y="4.904214559386983">9 hrs 44 mins</text><text class="labels" style="fill: #444;" x="157.97297297297297" y="152.33716475095787">3 hrs 52 mins</text><text class="labels" style="fill: #444;" x="270.81081081081084" y="228.29501915708812">47 mins</text><text class="labels" style="fill: #444;" x="383.64864864864865" y="229.2911877394636">43 mins</text><text class="labels" style="fill: #444;" x="496.4864864864865" y="239.0038314176245">4 mins</text><text class="labels" style="fill: #444;" x="609.3243243243244" y="239.25287356321837">3 mins</text><text class="labels" style="fill: #444;" x="722.1621621621622" y="239.75095785440612">1 min</text></g></svg>