<svg xmlns="http://www.w3.org/2000/svg" width="875" height="315"><g transform="translate(20, 20)"><g transform="translate(0, 260)" style="font-size: 15px; font-family: monospace; font-weight: 300;" fill="none" font-size="10" font-family="sans-serif" text-anchor="middle"><path class="domain" stroke="currentColor" d="M0.5,6V0.5H835.5V6"></path><g class="tick" opacity="1" transform="translate(78.98648648648646,0)"><line stroke="currentColor" y2="6"></line><text fill="currentColor" y="9" dy="0.71em">TypeScript</text></g><g class="tick" opacity="1" transform="translate(191.82432432432432,0)"><line stroke="currentColor" y2="6"></line><text fill="currentColor" y="9" dy="0.71em">JavaScript</text></g><g class="tick" opacity="1" transform="translate(304.6621621621622,0)"><line stroke="currentColor" y2="6"></line><text fill="currentColor" y="9" dy="0.71em">JSON</text></g><g class="tick" opacity="1" transform="translate(417.5,0)"><line stroke="currentColor" y2="6"></line><text fill="currentColor" y="9" dy="0.71em">yarn.lock</text></g><g class="tick" opacity="1" transform="translate(530.3378378378379,0)"><line stroke="currentColor" y2="6"></line><text fill="currentColor" y="9" dy="0.71em">tsconfig</text></g><g class="tick" opacity="1" transform="translate(643.1756756756757,0)"><line stroke="currentColor" y2="6"></line><text fill="currentColor" y="9" dy="0.71em">Markdown</text></g><g class="tick" opacity="1" transform="translate(756.0135135135135,0)"><line stroke="currentColor" y2="6"></line><text fill="currentColor" y="9" dy="0.71em">CSS</text></g></g><rect x="45.1351351351351" y="15.294117647058826" height="244.70588235294116" width="67.70270270270271" fill="#D50657"></rect><rect x="157.97297297297297" y="224.9764705882353" height="35.02352941176471" width="67.70270270270271" fill="#049AE6"></rect><rect x="270.81081081081084" y="240.7294117647059" height="19.2705882352941" width="67.70270270270271" fill="#F8C41B"></rect><rect x="383.64864864864865" y="258.47058823529414" height="1.5294117647058556" width="67.70270270270271" fill="#32465B"></rect><rect x="496.4864864864865" y="258.77647058823527" height="1.22352941176473" width="67.70270270270271" fill="#E45E42"></rect><rect x="609.3243243243244" y="259.38823529411764" height="0.611764705882365" width="67.70270270270271" fill="#007C5A"></rect><rect x="722.1621621621622" y="259.8470588235294" height="0.15294117647061967" width="67.70270270270271" fill="#FC69FF"></rect><text class="labels" style="fill: #444;" x="45.1351351351351" y="-4.705882352941174">16 hrs</text><text class="labels" style="fill: #444;" x="157.97297297297297" y="204.9764705882353">2 hrs 29 mins</text><text class="labels" style="fill: #444;" x="270.81081081081084" y="220.7294117647059">1 hr 26 mins</text><text class="labels" style="fill: #444;" x="383.64864864864865" y="238.47058823529414">10 mins</text><text class="labels" style="fill: #444;" x="496.4864864864865" y="238.77647058823527">8 mins</text><text class="labels" style="fill: #444;" x="609.3243243243244" y="239.38823529411764">4 mins</text><text class="labels" style="fill: #444;" x="722.1621621621622" y="239.84705882352938">1 min</text></g></svg>