<svg xmlns="http://www.w3.org/2000/svg" width="625" height="315"><g transform="translate(20, 20)"><g transform="translate(0, 260)" style="font-size: 15px; font-family: monospace; font-weight: 300;" fill="none" font-size="10" font-family="sans-serif" text-anchor="middle"><path class="domain" stroke="currentColor" d="M0.5,6V0.5H585.5V6"></path><g class="tick" opacity="1" transform="translate(75.83333333333334,0)"><line stroke="currentColor" y2="6"></line><text fill="currentColor" y="9" dy="0.71em">JavaScript</text></g><g class="tick" opacity="1" transform="translate(184.16666666666669,0)"><line stroke="currentColor" y2="6"></line><text fill="currentColor" y="9" dy="0.71em">JSX</text></g><g class="tick" opacity="1" transform="translate(292.5,0)"><line stroke="currentColor" y2="6"></line><text fill="currentColor" y="9" dy="0.71em">JSON</text></g><g class="tick" opacity="1" transform="translate(400.83333333333337,0)"><line stroke="currentColor" y2="6"></line><text fill="currentColor" y="9" dy="0.71em">TypeScript</text></g><g class="tick" opacity="1" transform="translate(509.16666666666674,0)"><line stroke="currentColor" y2="6"></line><text fill="currentColor" y="9" dy="0.71em">CSS</text></g></g><rect x="43.33333333333334" y="168.83116883116884" height="91.16883116883116" width="65" fill="#D50657"></rect><rect x="151.66666666666669" y="192.46753246753244" height="67.53246753246756" width="65" fill="#049AE6"></rect><rect x="260" y="231.2987012987013" height="28.701298701298697" width="65" fill="#F8C41B"></rect><rect x="368.33333333333337" y="244.80519480519482" height="15.194805194805184" width="65" fill="#32465B"></rect><rect x="476.66666666666674" y="258.31168831168833" height="1.6883116883116713" width="65" fill="#E45E42"></rect><text class="labels" style="fill: #444;" x="43.33333333333334" y="148.83116883116884">54 mins</text><text class="labels" style="fill: #444;" x="151.66666666666669" y="172.46753246753244">40 mins</text><text class="labels" style="fill: #444;" x="260" y="211.2987012987013">17 mins</text><text class="labels" style="fill: #444;" x="368.33333333333337" y="224.80519480519482">9 mins</text><text class="labels" style="fill: #444;" x="476.66666666666674" y="238.31168831168833">1 min</text></g></svg>