<svg xmlns="http://www.w3.org/2000/svg" width="625" height="315"><g transform="translate(20, 20)"><g transform="translate(0, 260)" style="font-size: 15px; font-family: monospace; font-weight: 300;" fill="none" font-size="10" font-family="sans-serif" text-anchor="middle"><path class="domain" stroke="currentColor" d="M0.5,6V0.5H585.5V6"></path><g class="tick" opacity="1" transform="translate(75.83333333333334,0)"><line stroke="currentColor" y2="6"></line><text fill="currentColor" y="9" dy="0.71em">TypeScript</text></g><g class="tick" opacity="1" transform="translate(184.16666666666669,0)"><line stroke="currentColor" y2="6"></line><text fill="currentColor" y="9" dy="0.71em">JavaScript</text></g><g class="tick" opacity="1" transform="translate(292.5,0)"><line stroke="currentColor" y2="6"></line><text fill="currentColor" y="9" dy="0.71em">JSX</text></g><g class="tick" opacity="1" transform="translate(400.83333333333337,0)"><line stroke="currentColor" y2="6"></line><text fill="currentColor" y="9" dy="0.71em">YAML</text></g><g class="tick" opacity="1" transform="translate(509.16666666666674,0)"><line stroke="currentColor" y2="6"></line><text fill="currentColor" y="9" dy="0.71em">JSON</text></g></g><rect x="43.33333333333334" y="32.13844252163165" height="227.86155747836835" width="65" fill="#D50657"></rect><rect x="151.66666666666669" y="193.47342398022252" height="66.52657601977748" width="65" fill="#049AE6"></rect><rect x="260" y="221.75525339925835" height="38.24474660074165" width="65" fill="#F8C41B"></rect><rect x="368.33333333333337" y="245.85908529048208" height="14.140914709517915" width="65" fill="#32465B"></rect><rect x="476.66666666666674" y="257.10754017305317" height="2.8924598269468333" width="65" fill="#E45E42"></rect><text class="labels" style="fill: #444;" x="43.33333333333334" y="12.138442521631653">7 hrs 9 mins</text><text class="labels" style="fill: #444;" x="151.66666666666669" y="173.47342398022252">2 hrs 7 mins</text><text class="labels" style="fill: #444;" x="260" y="201.75525339925835">1 hr 19 mins</text><text class="labels" style="fill: #444;" x="368.33333333333337" y="225.85908529048208">44 mins</text><text class="labels" style="fill: #444;" x="476.66666666666674" y="237.10754017305317">9 mins</text></g></svg>