<svg xmlns="http://www.w3.org/2000/svg" width="750" height="315"><g transform="translate(20, 20)"><g transform="translate(0, 260)" style="font-size: 15px; font-family: monospace; font-weight: 300;" fill="none" font-size="10" font-family="sans-serif" text-anchor="middle"><path class="domain" stroke="currentColor" d="M0.5,6V0.5H710.5V6"></path><g class="tick" opacity="1" transform="translate(77.65625,0)"><line stroke="currentColor" y2="6"></line><text fill="currentColor" y="9" dy="0.71em">JSX</text></g><g class="tick" opacity="1" transform="translate(188.59375,0)"><line stroke="currentColor" y2="6"></line><text fill="currentColor" y="9" dy="0.71em">JavaScript</text></g><g class="tick" opacity="1" transform="translate(299.53125,0)"><line stroke="currentColor" y2="6"></line><text fill="currentColor" y="9" dy="0.71em">Dart</text></g><g class="tick" opacity="1" transform="translate(410.46875000000006,0)"><line stroke="currentColor" y2="6"></line><text fill="currentColor" y="9" dy="0.71em">TypeScript</text></g><g class="tick" opacity="1" transform="translate(521.40625,0)"><line stroke="currentColor" y2="6"></line><text fill="currentColor" y="9" dy="0.71em">JSON</text></g><g class="tick" opacity="1" transform="translate(632.3437500000001,0)"><line stroke="currentColor" y2="6"></line><text fill="currentColor" y="9" dy="0.71em">LESS</text></g></g><rect x="44.375" y="50.19305019305021" height="209.80694980694977" width="66.5625" fill="#D50657"></rect><rect x="155.3125" y="136.52509652509653" height="123.47490347490347" width="66.5625" fill="#049AE6"></rect><rect x="266.25" y="139.53667953667954" height="120.46332046332046" width="66.5625" fill="#F8C41B"></rect><rect x="377.18750000000006" y="241.42857142857144" height="18.571428571428555" width="66.5625" fill="#32465B"></rect><rect x="488.12500000000006" y="246.44787644787644" height="13.552123552123561" width="66.5625" fill="#E45E42"></rect><rect x="599.0625000000001" y="254.98069498069498" height="5.019305019305023" width="66.5625" fill="#007C5A"></rect><text class="labels" style="fill: #444;" x="44.375" y="30.19305019305021">4 hrs 18 mins</text><text class="labels" style="fill: #444;" x="155.3125" y="116.52509652509653">2 hrs 46 mins</text><text class="labels" style="fill: #444;" x="266.25" y="119.53667953667954">2 hrs 40 mins</text><text class="labels" style="fill: #444;" x="377.18750000000006" y="221.42857142857144">37 mins</text><text class="labels" style="fill: #444;" x="488.12500000000006" y="226.44787644787644">27 mins</text><text class="labels" style="fill: #444;" x="599.0625000000001" y="234.98069498069498">10 mins</text></g></svg>