<svg xmlns="http://www.w3.org/2000/svg" width="1125" height="315"><g transform="translate(20, 20)"><g transform="translate(0, 260)" style="font-size: 15px; font-family: monospace; font-weight: 300;" fill="none" font-size="10" font-family="sans-serif" text-anchor="middle"><path class="domain" stroke="currentColor" d="M0.5,6V0.5H1085.5V6"></path><g class="tick" opacity="1" transform="translate(80.79787234042558,0)"><line stroke="currentColor" y2="6"></line><text fill="currentColor" y="9" dy="0.71em">TypeScript</text></g><g class="tick" opacity="1" transform="translate(196.2234042553192,0)"><line stroke="currentColor" y2="6"></line><text fill="currentColor" y="9" dy="0.71em">JSON</text></g><g class="tick" opacity="1" transform="translate(311.6489361702128,0)"><line stroke="currentColor" y2="6"></line><text fill="currentColor" y="9" dy="0.71em">JavaScript</text></g><g class="tick" opacity="1" transform="translate(427.07446808510645,0)"><line stroke="currentColor" y2="6"></line><text fill="currentColor" y="9" dy="0.71em">Markdown</text></g><g class="tick" opacity="1" transform="translate(542.5,0)"><line stroke="currentColor" y2="6"></line><text fill="currentColor" y="9" dy="0.71em">YAML</text></g><g class="tick" opacity="1" transform="translate(657.9255319148937,0)"><line stroke="currentColor" y2="6"></line><text fill="currentColor" y="9" dy="0.71em">Git Config</text></g><g class="tick" opacity="1" transform="translate(773.3510638297872,0)"><line stroke="currentColor" y2="6"></line><text fill="currentColor" y="9" dy="0.71em">Java</text></g><g class="tick" opacity="1" transform="translate(888.776595744681,0)"><line stroke="currentColor" y2="6"></line><text fill="currentColor" y="9" dy="0.71em">XML</text></g><g class="tick" opacity="1" transform="translate(1004.2021276595746,0)"><line stroke="currentColor" y2="6"></line><text fill="currentColor" y="9" dy="0.71em">Groovy</text></g></g><rect x="46.1702127659575" y="51.485148514851474" height="208.51485148514854" width="69.25531914893617" fill="#D50657"></rect><rect x="161.5957446808511" y="100.3960396039604" height="159.6039603960396" width="69.25531914893617" fill="#049AE6"></rect><rect x="277.0212765957447" y="137.46534653465346" height="122.53465346534654" width="69.25531914893617" fill="#F8C41B"></rect><rect x="392.44680851063833" y="183.28712871287127" height="76.71287128712873" width="69.25531914893617" fill="#32465B"></rect><rect x="507.87234042553195" y="246.6138613861386" height="13.386138613861391" width="69.25531914893617" fill="#E45E42"></rect><rect x="623.2978723404256" y="251.76237623762376" height="8.237623762376245" width="69.25531914893617" fill="#007C5A"></rect><rect x="738.7234042553191" y="256.3960396039604" height="3.6039603960396107" width="69.25531914893617" fill="#FC69FF"></rect><rect x="854.1489361702129" y="257.94059405940595" height="2.059405940594047" width="69.25531914893617" fill="#3EC6CF"></rect><rect x="969.5744680851064" y="258.970297029703" height="1.0297029702970235" width="69.25531914893617" fill="#620A79"></rect><text class="labels" style="fill: #444;" x="46.1702127659575" y="31.485148514851474">4 hrs 5 mins</text><text class="labels" style="fill: #444;" x="161.5957446808511" y="80.3960396039604">3 hrs 10 mins</text><text class="labels" style="fill: #444;" x="277.0212765957447" y="117.46534653465346">2 hrs 38 mins</text><text class="labels" style="fill: #444;" x="392.44680851063833" y="163.28712871287127">1 hr 49 mins</text><text class="labels" style="fill: #444;" x="507.87234042553195" y="226.6138613861386">26 mins</text><text class="labels" style="fill: #444;" x="623.2978723404256" y="231.76237623762376">16 mins</text><text class="labels" style="fill: #444;" x="738.7234042553191" y="236.3960396039604">7 mins</text><text class="labels" style="fill: #444;" x="854.1489361702129" y="237.94059405940595">4 mins</text><text class="labels" style="fill: #444;" x="969.5744680851064" y="238.97029702970298">2 mins</text></g></svg>