<svg xmlns="http://www.w3.org/2000/svg" width="1000" height="315"><g transform="translate(20, 20)"><g transform="translate(0, 260)" style="font-size: 15px; font-family: monospace; font-weight: 300;" fill="none" font-size="10" font-family="sans-serif" text-anchor="middle"><path class="domain" stroke="currentColor" d="M0.5,6V0.5H960.5V6"></path><g class="tick" opacity="1" transform="translate(80.00000000000006,0)"><line stroke="currentColor" y2="6"></line><text fill="currentColor" y="9" dy="0.71em">JSX</text></g><g class="tick" opacity="1" transform="translate(194.28571428571433,0)"><line stroke="currentColor" y2="6"></line><text fill="currentColor" y="9" dy="0.71em">JavaScript</text></g><g class="tick" opacity="1" transform="translate(308.5714285714286,0)"><line stroke="currentColor" y2="6"></line><text fill="currentColor" y="9" dy="0.71em">TypeScript</text></g><g class="tick" opacity="1" transform="translate(422.8571428571429,0)"><line stroke="currentColor" y2="6"></line><text fill="currentColor" y="9" dy="0.71em">Dart</text></g><g class="tick" opacity="1" transform="translate(537.1428571428572,0)"><line stroke="currentColor" y2="6"></line><text fill="currentColor" y="9" dy="0.71em">JSON</text></g><g class="tick" opacity="1" transform="translate(651.4285714285714,0)"><line stroke="currentColor" y2="6"></line><text fill="currentColor" y="9" dy="0.71em">LESS</text></g><g class="tick" opacity="1" transform="translate(765.7142857142858,0)"><line stroke="currentColor" y2="6"></line><text fill="currentColor" y="9" dy="0.71em">XML</text></g><g class="tick" opacity="1" transform="translate(880.0000000000001,0)"><line stroke="currentColor" y2="6"></line><text fill="currentColor" y="9" dy="0.71em">YAML</text></g></g><rect x="45.71428571428578" y="31.287605294825486" height="228.71239470517452" width="68.57142857142857" fill="#D50657"></rect><rect x="160.00000000000006" y="245.92057761732852" height="14.079422382671481" width="68.57142857142857" fill="#049AE6"></rect><rect x="274.28571428571433" y="246.54632972322503" height="13.453670276774972" width="68.57142857142857" fill="#F8C41B"></rect><rect x="388.5714285714286" y="250.9265944645006" height="9.073405535499404" width="68.57142857142857" fill="#32465B"></rect><rect x="502.8571428571429" y="256.8712394705174" height="3.1287605294825767" width="68.57142857142857" fill="#E45E42"></rect><rect x="617.1428571428571" y="258.43561973525874" height="1.56438026474126" width="68.57142857142857" fill="#007C5A"></rect><rect x="731.4285714285714" y="259.0613718411552" height="0.9386281588447787" width="68.57142857142857" fill="#FC69FF"></rect><rect x="845.7142857142858" y="259.68712394705176" height="0.3128760529482406" width="68.57142857142857" fill="#3EC6CF"></rect><text class="labels" style="fill: #444;" x="45.71428571428578" y="11.287605294825486">7 hrs 31 mins</text><text class="labels" style="fill: #444;" x="160.00000000000006" y="225.92057761732852">45 mins</text><text class="labels" style="fill: #444;" x="274.28571428571433" y="226.54632972322503">43 mins</text><text class="labels" style="fill: #444;" x="388.5714285714286" y="230.9265944645006">29 mins</text><text class="labels" style="fill: #444;" x="502.8571428571429" y="236.87123947051742">10 mins</text><text class="labels" style="fill: #444;" x="617.1428571428571" y="238.43561973525874">5 mins</text><text class="labels" style="fill: #444;" x="731.4285714285714" y="239.06137184115522">3 mins</text><text class="labels" style="fill: #444;" x="845.7142857142858" y="239.68712394705176">1 min</text></g></svg>