<svg xmlns="http://www.w3.org/2000/svg" width="750" height="315"><g transform="translate(20, 20)"><g transform="translate(0, 260)" style="font-size: 15px; font-family: monospace; font-weight: 300;" fill="none" font-size="10" font-family="sans-serif" text-anchor="middle"><path class="domain" stroke="currentColor" d="M0.5,6V0.5H710.5V6"></path><g class="tick" opacity="1" transform="translate(77.65625,0)"><line stroke="currentColor" y2="6"></line><text fill="currentColor" y="9" dy="0.71em">TypeScript</text></g><g class="tick" opacity="1" transform="translate(188.59375,0)"><line stroke="currentColor" y2="6"></line><text fill="currentColor" y="9" dy="0.71em">JavaScript</text></g><g class="tick" opacity="1" transform="translate(299.53125,0)"><line stroke="currentColor" y2="6"></line><text fill="currentColor" y="9" dy="0.71em">CSS</text></g><g class="tick" opacity="1" transform="translate(410.46875000000006,0)"><line stroke="currentColor" y2="6"></line><text fill="currentColor" y="9" dy="0.71em">JSX</text></g><g class="tick" opacity="1" transform="translate(521.40625,0)"><line stroke="currentColor" y2="6"></line><text fill="currentColor" y="9" dy="0.71em">JSON</text></g><g class="tick" opacity="1" transform="translate(632.3437500000001,0)"><line stroke="currentColor" y2="6"></line><text fill="currentColor" y="9" dy="0.71em">Markdown</text></g></g><rect x="44.375" y="64.35643564356435" height="195.64356435643566" width="66.5625" fill="#D50657"></rect><rect x="155.3125" y="103.61386138613862" height="156.38613861386136" width="66.5625" fill="#049AE6"></rect><rect x="266.25" y="243.26732673267324" height="16.73267326732676" width="66.5625" fill="#F8C41B"></rect><rect x="377.18750000000006" y="244.55445544554453" height="15.445544554455466" width="66.5625" fill="#32465B"></rect><rect x="488.12500000000006" y="256.78217821782175" height="3.217821782178248" width="66.5625" fill="#E45E42"></rect><rect x="599.0625000000001" y="258.0693069306931" height="1.9306930693069262" width="66.5625" fill="#007C5A"></rect><text class="labels" style="fill: #444;" x="44.375" y="44.35643564356435">3 hrs 4 mins</text><text class="labels" style="fill: #444;" x="155.3125" y="83.61386138613862">2 hrs 43 mins</text><text class="labels" style="fill: #444;" x="266.25" y="223.26732673267324">26 mins</text><text class="labels" style="fill: #444;" x="377.18750000000006" y="224.55445544554453">24 mins</text><text class="labels" style="fill: #444;" x="488.12500000000006" y="236.78217821782175">5 mins</text><text class="labels" style="fill: #444;" x="599.0625000000001" y="238.06930693069307">3 mins</text></g></svg>