<svg xmlns="http://www.w3.org/2000/svg" width="750" height="315"><g transform="translate(20, 20)"><g transform="translate(0, 260)" style="font-size: 15px; font-family: monospace; font-weight: 300;" fill="none" font-size="10" font-family="sans-serif" text-anchor="middle"><path class="domain" stroke="currentColor" d="M0.5,6V0.5H710.5V6"></path><g class="tick" opacity="1" transform="translate(77.65625,0)"><line stroke="currentColor" y2="6"></line><text fill="currentColor" y="9" dy="0.71em">JSX</text></g><g class="tick" opacity="1" transform="translate(188.59375,0)"><line stroke="currentColor" y2="6"></line><text fill="currentColor" y="9" dy="0.71em">JavaScript</text></g><g class="tick" opacity="1" transform="translate(299.53125,0)"><line stroke="currentColor" y2="6"></line><text fill="currentColor" y="9" dy="0.71em">TypeScript</text></g><g class="tick" opacity="1" transform="translate(410.46875000000006,0)"><line stroke="currentColor" y2="6"></line><text fill="currentColor" y="9" dy="0.71em">LESS</text></g><g class="tick" opacity="1" transform="translate(521.40625,0)"><line stroke="currentColor" y2="6"></line><text fill="currentColor" y="9" dy="0.71em">Bash</text></g><g class="tick" opacity="1" transform="translate(632.3437500000001,0)"><line stroke="currentColor" y2="6"></line><text fill="currentColor" y="9" dy="0.71em">JSON</text></g></g><rect x="44.375" y="36.4656381486676" height="223.5343618513324" width="66.5625" fill="#D50657"></rect><rect x="155.3125" y="112.31416549789621" height="147.68583450210377" width="66.5625" fill="#049AE6"></rect><rect x="266.25" y="113.04347826086955" height="146.95652173913044" width="66.5625" fill="#F8C41B"></rect><rect x="377.18750000000006" y="256.3534361851332" height="3.646563814866795" width="66.5625" fill="#32465B"></rect><rect x="488.12500000000006" y="256.71809256661993" height="3.28190743338007" width="66.5625" fill="#E45E42"></rect><rect x="599.0625000000001" y="259.2706872370266" height="0.7293127629733931" width="66.5625" fill="#007C5A"></rect><text class="labels" style="fill: #444;" x="44.375" y="16.4656381486676">6 hrs 13 mins</text><text class="labels" style="fill: #444;" x="155.3125" y="92.31416549789621">4 hrs 5 mins</text><text class="labels" style="fill: #444;" x="266.25" y="93.04347826086955">4 hrs 3 mins</text><text class="labels" style="fill: #444;" x="377.18750000000006" y="236.3534361851332">10 mins</text><text class="labels" style="fill: #444;" x="488.12500000000006" y="236.71809256661993">9 mins</text><text class="labels" style="fill: #444;" x="599.0625000000001" y="239.2706872370266">2 mins</text></g></svg>