<svg xmlns="http://www.w3.org/2000/svg" width="625" height="315"><g transform="translate(20, 20)"><g transform="translate(0, 260)" style="font-size: 15px; font-family: monospace; font-weight: 300;" fill="none" font-size="10" font-family="sans-serif" text-anchor="middle"><path class="domain" stroke="currentColor" d="M0.5,6V0.5H585.5V6"></path><g class="tick" opacity="1" transform="translate(75.83333333333334,0)"><line stroke="currentColor" y2="6"></line><text fill="currentColor" y="9" dy="0.71em">JavaScript</text></g><g class="tick" opacity="1" transform="translate(184.16666666666669,0)"><line stroke="currentColor" y2="6"></line><text fill="currentColor" y="9" dy="0.71em">TypeScript</text></g><g class="tick" opacity="1" transform="translate(292.5,0)"><line stroke="currentColor" y2="6"></line><text fill="currentColor" y="9" dy="0.71em">JSX</text></g><g class="tick" opacity="1" transform="translate(400.83333333333337,0)"><line stroke="currentColor" y2="6"></line><text fill="currentColor" y="9" dy="0.71em">JSON</text></g><g class="tick" opacity="1" transform="translate(509.16666666666674,0)"><line stroke="currentColor" y2="6"></line><text fill="currentColor" y="9" dy="0.71em">CSS</text></g></g><rect x="43.33333333333334" y="174.49664429530202" height="85.50335570469798" width="65" fill="#D50657"></rect><rect x="151.66666666666669" y="191.94630872483222" height="68.05369127516778" width="65" fill="#049AE6"></rect><rect x="260" y="212.88590604026842" height="47.114093959731576" width="65" fill="#F8C41B"></rect><rect x="368.33333333333337" y="233.8255033557047" height="26.17449664429529" width="65" fill="#32465B"></rect><rect x="476.66666666666674" y="258.255033557047" height="1.7449664429530003" width="65" fill="#E45E42"></rect><text class="labels" style="fill: #444;" x="43.33333333333334" y="154.49664429530202">49 mins</text><text class="labels" style="fill: #444;" x="151.66666666666669" y="171.94630872483222">39 mins</text><text class="labels" style="fill: #444;" x="260" y="192.88590604026842">27 mins</text><text class="labels" style="fill: #444;" x="368.33333333333337" y="213.8255033557047">15 mins</text><text class="labels" style="fill: #444;" x="476.66666666666674" y="238.255033557047">1 min</text></g></svg>