<svg xmlns="http://www.w3.org/2000/svg" width="875" height="315"><g transform="translate(20, 20)"><g transform="translate(0, 260)" style="font-size: 15px; font-family: monospace; font-weight: 300;" fill="none" font-size="10" font-family="sans-serif" text-anchor="middle"><path class="domain" stroke="currentColor" d="M0.5,6V0.5H835.5V6"></path><g class="tick" opacity="1" transform="translate(78.98648648648646,0)"><line stroke="currentColor" y2="6"></line><text fill="currentColor" y="9" dy="0.71em">JSX</text></g><g class="tick" opacity="1" transform="translate(191.82432432432432,0)"><line stroke="currentColor" y2="6"></line><text fill="currentColor" y="9" dy="0.71em">JavaScript</text></g><g class="tick" opacity="1" transform="translate(304.6621621621622,0)"><line stroke="currentColor" y2="6"></line><text fill="currentColor" y="9" dy="0.71em">LESS</text></g><g class="tick" opacity="1" transform="translate(417.5,0)"><line stroke="currentColor" y2="6"></line><text fill="currentColor" y="9" dy="0.71em">Bash</text></g><g class="tick" opacity="1" transform="translate(530.3378378378379,0)"><line stroke="currentColor" y2="6"></line><text fill="currentColor" y="9" dy="0.71em">YAML</text></g><g class="tick" opacity="1" transform="translate(643.1756756756757,0)"><line stroke="currentColor" y2="6"></line><text fill="currentColor" y="9" dy="0.71em">Docker</text></g><g class="tick" opacity="1" transform="translate(756.0135135135135,0)"><line stroke="currentColor" y2="6"></line><text fill="currentColor" y="9" dy="0.71em">TypeScript</text></g></g><rect x="45.1351351351351" y="18.531717747683548" height="241.46828225231644" width="67.70270270270271" fill="#D50657"></rect><rect x="157.97297297297297" y="215.15324305060585" height="44.84675694939415" width="67.70270270270271" fill="#049AE6"></rect><rect x="270.81081081081084" y="233.49964362081255" height="26.50035637918745" width="67.70270270270271" fill="#F8C41B"></rect><rect x="383.64864864864865" y="249.80755523877406" height="10.192444761225943" width="67.70270270270271" fill="#32465B"></rect><rect x="496.4864864864865" y="251.84604419101925" height="8.153955808980754" width="67.70270270270271" fill="#E45E42"></rect><rect x="609.3243243243244" y="256.47897362794015" height="3.5210263720598505" width="67.70270270270271" fill="#007C5A"></rect><rect x="722.1621621621622" y="259.81468282252314" height="0.18531717747686116" width="67.70270270270271" fill="#FC69FF"></rect><text class="labels" style="fill: #444;" x="45.1351351351351" y="-1.4682822523164525">13 hrs 3 mins</text><text class="labels" style="fill: #444;" x="157.97297297297297" y="195.15324305060585">2 hrs 42 mins</text><text class="labels" style="fill: #444;" x="270.81081081081084" y="213.49964362081255">1 hr 43 mins</text><text class="labels" style="fill: #444;" x="383.64864864864865" y="229.80755523877406">55 mins</text><text class="labels" style="fill: #444;" x="496.4864864864865" y="231.84604419101925">44 mins</text><text class="labels" style="fill: #444;" x="609.3243243243244" y="236.47897362794015">19 mins</text><text class="labels" style="fill: #444;" x="722.1621621621622" y="239.81468282252314">1 min</text></g></svg>