<svg xmlns="http://www.w3.org/2000/svg" width="625" height="315"><g transform="translate(20, 20)"><g transform="translate(0, 260)" style="font-size: 15px; font-family: monospace; font-weight: 300;" fill="none" font-size="10" font-family="sans-serif" text-anchor="middle"><path class="domain" stroke="currentColor" d="M0.5,6V0.5H585.5V6"></path><g class="tick" opacity="1" transform="translate(75.83333333333334,0)"><line stroke="currentColor" y2="6"></line><text fill="currentColor" y="9" dy="0.71em">JSX</text></g><g class="tick" opacity="1" transform="translate(184.16666666666669,0)"><line stroke="currentColor" y2="6"></line><text fill="currentColor" y="9" dy="0.71em">TypeScript</text></g><g class="tick" opacity="1" transform="translate(292.5,0)"><line stroke="currentColor" y2="6"></line><text fill="currentColor" y="9" dy="0.71em">JavaScript</text></g><g class="tick" opacity="1" transform="translate(400.83333333333337,0)"><line stroke="currentColor" y2="6"></line><text fill="currentColor" y="9" dy="0.71em">LESS</text></g><g class="tick" opacity="1" transform="translate(509.16666666666674,0)"><line stroke="currentColor" y2="6"></line><text fill="currentColor" y="9" dy="0.71em">JSON</text></g></g><rect x="43.33333333333334" y="46.59498207885305" height="213.40501792114696" width="65" fill="#D50657"></rect><rect x="151.66666666666669" y="59.17562724014339" height="200.8243727598566" width="65" fill="#049AE6"></rect><rect x="260" y="151.4336917562724" height="108.5663082437276" width="65" fill="#F8C41B"></rect><rect x="368.33333333333337" y="242.29390681003585" height="17.70609318996415" width="65" fill="#32465B"></rect><rect x="476.66666666666674" y="252.5448028673835" height="7.45519713261649" width="65" fill="#E45E42"></rect><text class="labels" style="fill: #444;" x="43.33333333333334" y="26.59498207885305">4 hrs 58 mins</text><text class="labels" style="fill: #444;" x="151.66666666666669" y="39.17562724014339">4 hrs 31 mins</text><text class="labels" style="fill: #444;" x="260" y="131.4336917562724">2 hrs 33 mins</text><text class="labels" style="fill: #444;" x="368.33333333333337" y="222.29390681003585">38 mins</text><text class="labels" style="fill: #444;" x="476.66666666666674" y="232.5448028673835">16 mins</text></g></svg>