<svg xmlns="http://www.w3.org/2000/svg" width="1000" height="315"><g transform="translate(20, 20)"><g transform="translate(0, 260)" style="font-size: 15px; font-family: monospace; font-weight: 300;" fill="none" font-size="10" font-family="sans-serif" text-anchor="middle"><path class="domain" stroke="currentColor" d="M0.5,6V0.5H960.5V6"></path><g class="tick" opacity="1" transform="translate(80.00000000000006,0)"><line stroke="currentColor" y2="6"></line><text fill="currentColor" y="9" dy="0.71em">JSX</text></g><g class="tick" opacity="1" transform="translate(194.28571428571433,0)"><line stroke="currentColor" y2="6"></line><text fill="currentColor" y="9" dy="0.71em">JavaScript</text></g><g class="tick" opacity="1" transform="translate(308.5714285714286,0)"><line stroke="currentColor" y2="6"></line><text fill="currentColor" y="9" dy="0.71em">Groovy</text></g><g class="tick" opacity="1" transform="translate(422.8571428571429,0)"><line stroke="currentColor" y2="6"></line><text fill="currentColor" y="9" dy="0.71em">TypeScript</text></g><g class="tick" opacity="1" transform="translate(537.1428571428572,0)"><line stroke="currentColor" y2="6"></line><text fill="currentColor" y="9" dy="0.71em">Dart</text></g><g class="tick" opacity="1" transform="translate(651.4285714285714,0)"><line stroke="currentColor" y2="6"></line><text fill="currentColor" y="9" dy="0.71em">XML</text></g><g class="tick" opacity="1" transform="translate(765.7142857142858,0)"><line stroke="currentColor" y2="6"></line><text fill="currentColor" y="9" dy="0.71em">JSON</text></g><g class="tick" opacity="1" transform="translate(880.0000000000001,0)"><line stroke="currentColor" y2="6"></line><text fill="currentColor" y="9" dy="0.71em">YAML</text></g></g><rect x="45.71428571428578" y="73.23943661971833" height="186.76056338028167" width="68.57142857142857" fill="#D50657"></rect><rect x="160.00000000000006" y="161.85915492957744" height="98.14084507042256" width="68.57142857142857" fill="#049AE6"></rect><rect x="274.28571428571433" y="238.7605633802817" height="21.239436619718305" width="68.57142857142857" fill="#F8C41B"></rect><rect x="388.5714285714286" y="242.4225352112676" height="17.577464788732414" width="68.57142857142857" fill="#32465B"></rect><rect x="502.8571428571429" y="243.15492957746477" height="16.84507042253523" width="68.57142857142857" fill="#E45E42"></rect><rect x="617.1428571428571" y="253.40845070422537" height="6.591549295774627" width="68.57142857142857" fill="#007C5A"></rect><rect x="731.4285714285714" y="254.8732394366197" height="5.126760563380287" width="68.57142857142857" fill="#FC69FF"></rect><rect x="845.7142857142858" y="259.2676056338028" height="0.7323943661971839" width="68.57142857142857" fill="#3EC6CF"></rect><text class="labels" style="fill: #444;" x="45.71428571428578" y="53.23943661971833">2 hrs 55 mins</text><text class="labels" style="fill: #444;" x="160.00000000000006" y="141.85915492957744">1 hr 34 mins</text><text class="labels" style="fill: #444;" x="274.28571428571433" y="218.7605633802817">29 mins</text><text class="labels" style="fill: #444;" x="388.5714285714286" y="222.4225352112676">24 mins</text><text class="labels" style="fill: #444;" x="502.8571428571429" y="223.15492957746477">23 mins</text><text class="labels" style="fill: #444;" x="617.1428571428571" y="233.40845070422537">9 mins</text><text class="labels" style="fill: #444;" x="731.4285714285714" y="234.8732394366197">7 mins</text><text class="labels" style="fill: #444;" x="845.7142857142858" y="239.26760563380282">1 min</text></g></svg>