<svg xmlns="http://www.w3.org/2000/svg" width="625" height="315"><g transform="translate(20, 20)"><g transform="translate(0, 260)" style="font-size: 15px; font-family: monospace; font-weight: 300;" fill="none" font-size="10" font-family="sans-serif" text-anchor="middle"><path class="domain" stroke="currentColor" d="M0.5,6V0.5H585.5V6"></path><g class="tick" opacity="1" transform="translate(75.83333333333334,0)"><line stroke="currentColor" y2="6"></line><text fill="currentColor" y="9" dy="0.71em">JSX</text></g><g class="tick" opacity="1" transform="translate(184.16666666666669,0)"><line stroke="currentColor" y2="6"></line><text fill="currentColor" y="9" dy="0.71em">TypeScript</text></g><g class="tick" opacity="1" transform="translate(292.5,0)"><line stroke="currentColor" y2="6"></line><text fill="currentColor" y="9" dy="0.71em">JavaScript</text></g><g class="tick" opacity="1" transform="translate(400.83333333333337,0)"><line stroke="currentColor" y2="6"></line><text fill="currentColor" y="9" dy="0.71em">LESS</text></g><g class="tick" opacity="1" transform="translate(509.16666666666674,0)"><line stroke="currentColor" y2="6"></line><text fill="currentColor" y="9" dy="0.71em">JSON</text></g></g><rect x="43.33333333333334" y="18.1184668989547" height="241.8815331010453" width="65" fill="#D50657"></rect><rect x="151.66666666666669" y="180.45993031358884" height="79.54006968641116" width="65" fill="#049AE6"></rect><rect x="260" y="201.29616724738676" height="58.70383275261324" width="65" fill="#F8C41B"></rect><rect x="368.33333333333337" y="256.1951219512195" height="3.8048780487804947" width="65" fill="#32465B"></rect><rect x="476.66666666666674" y="258.55052264808364" height="1.4494773519163573" width="65" fill="#E45E42"></rect><text class="labels" style="fill: #444;" x="43.33333333333334" y="-1.8815331010452994">13 hrs 35 mins</text><text class="labels" style="fill: #444;" x="151.66666666666669" y="160.45993031358884">4 hrs 39 mins</text><text class="labels" style="fill: #444;" x="260" y="181.29616724738676">3 hrs 24 mins</text><text class="labels" style="fill: #444;" x="368.33333333333337" y="236.1951219512195">21 mins</text><text class="labels" style="fill: #444;" x="476.66666666666674" y="238.55052264808364">8 mins</text></g></svg>