<svg xmlns="http://www.w3.org/2000/svg" width="625" height="315"><g transform="translate(20, 20)"><g transform="translate(0, 260)" style="font-size: 15px; font-family: monospace; font-weight: 300;" fill="none" font-size="10" font-family="sans-serif" text-anchor="middle"><path class="domain" stroke="currentColor" d="M0.5,6V0.5H585.5V6"></path><g class="tick" opacity="1" transform="translate(75.83333333333334,0)"><line stroke="currentColor" y2="6"></line><text fill="currentColor" y="9" dy="0.71em">JavaScript</text></g><g class="tick" opacity="1" transform="translate(184.16666666666669,0)"><line stroke="currentColor" y2="6"></line><text fill="currentColor" y="9" dy="0.71em">JSX</text></g><g class="tick" opacity="1" transform="translate(292.5,0)"><line stroke="currentColor" y2="6"></line><text fill="currentColor" y="9" dy="0.71em">TypeScript</text></g><g class="tick" opacity="1" transform="translate(400.83333333333337,0)"><line stroke="currentColor" y2="6"></line><text fill="currentColor" y="9" dy="0.71em">HTML</text></g><g class="tick" opacity="1" transform="translate(509.16666666666674,0)"><line stroke="currentColor" y2="6"></line><text fill="currentColor" y="9" dy="0.71em">Git Config</text></g></g><rect x="43.33333333333334" y="25.490196078431367" height="234.50980392156862" width="65" fill="#D50657"></rect><rect x="151.66666666666669" y="130" height="130" width="65" fill="#049AE6"></rect><rect x="260" y="228.39215686274508" height="31.607843137254918" width="65" fill="#F8C41B"></rect><rect x="368.33333333333337" y="257.45098039215685" height="2.5490196078431495" width="65" fill="#32465B"></rect><rect x="476.66666666666674" y="259.7450980392157" height="0.25490196078430927" width="65" fill="#E45E42"></rect><text class="labels" style="fill: #444;" x="43.33333333333334" y="5.490196078431367">9 hrs 20 mins</text><text class="labels" style="fill: #444;" x="151.66666666666669" y="110">5 hrs 10 mins</text><text class="labels" style="fill: #444;" x="260" y="208.39215686274508">1 hr 24 mins</text><text class="labels" style="fill: #444;" x="368.33333333333337" y="237.45098039215685">10 mins</text><text class="labels" style="fill: #444;" x="476.66666666666674" y="239.7450980392157">1 min</text></g></svg>