<svg xmlns="http://www.w3.org/2000/svg" width="625" height="315"><g transform="translate(20, 20)"><g transform="translate(0, 260)" style="font-size: 15px; font-family: monospace; font-weight: 300;" fill="none" font-size="10" font-family="sans-serif" text-anchor="middle"><path class="domain" stroke="currentColor" d="M0.5,6V0.5H585.5V6"></path><g class="tick" opacity="1" transform="translate(75.83333333333334,0)"><line stroke="currentColor" y2="6"></line><text fill="currentColor" y="9" dy="0.71em">JavaScript</text></g><g class="tick" opacity="1" transform="translate(184.16666666666669,0)"><line stroke="currentColor" y2="6"></line><text fill="currentColor" y="9" dy="0.71em">JSX</text></g><g class="tick" opacity="1" transform="translate(292.5,0)"><line stroke="currentColor" y2="6"></line><text fill="currentColor" y="9" dy="0.71em">TypeScript</text></g><g class="tick" opacity="1" transform="translate(400.83333333333337,0)"><line stroke="currentColor" y2="6"></line><text fill="currentColor" y="9" dy="0.71em">Bash</text></g><g class="tick" opacity="1" transform="translate(509.16666666666674,0)"><line stroke="currentColor" y2="6"></line><text fill="currentColor" y="9" dy="0.71em">JSON</text></g></g><rect x="43.33333333333334" y="16.209476309226932" height="243.79052369077306" width="65" fill="#D50657"></rect><rect x="151.66666666666669" y="224.82543640897754" height="35.17456359102246" width="65" fill="#049AE6"></rect><rect x="260" y="254.32668329177056" height="5.673316708229436" width="65" fill="#F8C41B"></rect><rect x="368.33333333333337" y="255.46134663341644" height="4.53865336658356" width="65" fill="#32465B"></rect><rect x="476.66666666666674" y="256.7581047381546" height="3.2418952618454" width="65" fill="#E45E42"></rect><text class="labels" style="fill: #444;" x="43.33333333333334" y="-3.7905236907730675">15 hrs 4 mins</text><text class="labels" style="fill: #444;" x="151.66666666666669" y="204.82543640897754">2 hrs 17 mins</text><text class="labels" style="fill: #444;" x="260" y="234.32668329177056">35 mins</text><text class="labels" style="fill: #444;" x="368.33333333333337" y="235.46134663341644">28 mins</text><text class="labels" style="fill: #444;" x="476.66666666666674" y="236.7581047381546">20 mins</text></g></svg>