<svg xmlns="http://www.w3.org/2000/svg" width="750" height="315"><g transform="translate(20, 20)"><g transform="translate(0, 260)" style="font-size: 15px; font-family: monospace; font-weight: 300;" fill="none" font-size="10" font-family="sans-serif" text-anchor="middle"><path class="domain" stroke="currentColor" d="M0.5,6V0.5H710.5V6"></path><g class="tick" opacity="1" transform="translate(77.65625,0)"><line stroke="currentColor" y2="6"></line><text fill="currentColor" y="9" dy="0.71em">JSX</text></g><g class="tick" opacity="1" transform="translate(188.59375,0)"><line stroke="currentColor" y2="6"></line><text fill="currentColor" y="9" dy="0.71em">JavaScript</text></g><g class="tick" opacity="1" transform="translate(299.53125,0)"><line stroke="currentColor" y2="6"></line><text fill="currentColor" y="9" dy="0.71em">TypeScript</text></g><g class="tick" opacity="1" transform="translate(410.46875000000006,0)"><line stroke="currentColor" y2="6"></line><text fill="currentColor" y="9" dy="0.71em">JSON</text></g><g class="tick" opacity="1" transform="translate(521.40625,0)"><line stroke="currentColor" y2="6"></line><text fill="currentColor" y="9" dy="0.71em">LESS</text></g><g class="tick" opacity="1" transform="translate(632.3437500000001,0)"><line stroke="currentColor" y2="6"></line><text fill="currentColor" y="9" dy="0.71em">CSS</text></g></g><rect x="44.375" y="15.815085158150833" height="244.18491484184918" width="66.5625" fill="#D50657"></rect><rect x="155.3125" y="97.89537712895375" height="162.10462287104625" width="66.5625" fill="#049AE6"></rect><rect x="266.25" y="237.54257907542578" height="22.457420924574222" width="66.5625" fill="#F8C41B"></rect><rect x="377.18750000000006" y="252.2506082725061" height="7.749391727493901" width="66.5625" fill="#32465B"></rect><rect x="488.12500000000006" y="254.6228710462287" height="5.37712895377129" width="66.5625" fill="#E45E42"></rect><rect x="599.0625000000001" y="258.89294403892944" height="1.1070559610705573" width="66.5625" fill="#007C5A"></rect><text class="labels" style="fill: #444;" x="44.375" y="-4.184914841849167">15 hrs 44 mins</text><text class="labels" style="fill: #444;" x="155.3125" y="77.89537712895375">10 hrs 25 mins</text><text class="labels" style="fill: #444;" x="266.25" y="217.54257907542578">1 hr 42 mins</text><text class="labels" style="fill: #444;" x="377.18750000000006" y="232.2506082725061">49 mins</text><text class="labels" style="fill: #444;" x="488.12500000000006" y="234.6228710462287">34 mins</text><text class="labels" style="fill: #444;" x="599.0625000000001" y="238.89294403892944">7 mins</text></g></svg>