<svg xmlns="http://www.w3.org/2000/svg" width="750" height="315"><g transform="translate(20, 20)"><g transform="translate(0, 260)" style="font-size: 15px; font-family: monospace; font-weight: 300;" fill="none" font-size="10" font-family="sans-serif" text-anchor="middle"><path class="domain" stroke="currentColor" d="M0.5,6V0.5H710.5V6"></path><g class="tick" opacity="1" transform="translate(77.65625,0)"><line stroke="currentColor" y2="6"></line><text fill="currentColor" y="9" dy="0.71em">JSX</text></g><g class="tick" opacity="1" transform="translate(188.59375,0)"><line stroke="currentColor" y2="6"></line><text fill="currentColor" y="9" dy="0.71em">JavaScript</text></g><g class="tick" opacity="1" transform="translate(299.53125,0)"><line stroke="currentColor" y2="6"></line><text fill="currentColor" y="9" dy="0.71em">TypeScript</text></g><g class="tick" opacity="1" transform="translate(410.46875000000006,0)"><line stroke="currentColor" y2="6"></line><text fill="currentColor" y="9" dy="0.71em">LESS</text></g><g class="tick" opacity="1" transform="translate(521.40625,0)"><line stroke="currentColor" y2="6"></line><text fill="currentColor" y="9" dy="0.71em">JSON</text></g><g class="tick" opacity="1" transform="translate(632.3437500000001,0)"><line stroke="currentColor" y2="6"></line><text fill="currentColor" y="9" dy="0.71em">CSS</text></g></g><rect x="44.375" y="15.728977616454964" height="244.27102238354504" width="66.5625" fill="#D50657"></rect><rect x="155.3125" y="83.67816091954022" height="176.32183908045977" width="66.5625" fill="#049AE6"></rect><rect x="266.25" y="228.3847549909256" height="31.615245009074414" width="66.5625" fill="#F8C41B"></rect><rect x="377.18750000000006" y="251.0344827586207" height="8.965517241379303" width="66.5625" fill="#32465B"></rect><rect x="488.12500000000006" y="252.2928009679371" height="7.707199032062903" width="66.5625" fill="#E45E42"></rect><rect x="599.0625000000001" y="258.89897156684816" height="1.1010284331518392" width="66.5625" fill="#007C5A"></rect><text class="labels" style="fill: #444;" x="44.375" y="-4.271022383545036">15 hrs 53 mins</text><text class="labels" style="fill: #444;" x="155.3125" y="63.67816091954022">11 hrs 21 mins</text><text class="labels" style="fill: #444;" x="266.25" y="208.3847549909256">2 hrs 1 min</text><text class="labels" style="fill: #444;" x="377.18750000000006" y="231.0344827586207">57 mins</text><text class="labels" style="fill: #444;" x="488.12500000000006" y="232.2928009679371">49 mins</text><text class="labels" style="fill: #444;" x="599.0625000000001" y="238.89897156684816">7 mins</text></g></svg>