<svg xmlns="http://www.w3.org/2000/svg" width="875" height="315"><g transform="translate(20, 20)"><g transform="translate(0, 260)" style="font-size: 15px; font-family: monospace; font-weight: 300;" fill="none" font-size="10" font-family="sans-serif" text-anchor="middle"><path class="domain" stroke="currentColor" d="M0.5,6V0.5H835.5V6"></path><g class="tick" opacity="1" transform="translate(78.98648648648646,0)"><line stroke="currentColor" y2="6"></line><text fill="currentColor" y="9" dy="0.71em">TypeScript</text></g><g class="tick" opacity="1" transform="translate(191.82432432432432,0)"><line stroke="currentColor" y2="6"></line><text fill="currentColor" y="9" dy="0.71em">JavaScript</text></g><g class="tick" opacity="1" transform="translate(304.6621621621622,0)"><line stroke="currentColor" y2="6"></line><text fill="currentColor" y="9" dy="0.71em">JSX</text></g><g class="tick" opacity="1" transform="translate(417.5,0)"><line stroke="currentColor" y2="6"></line><text fill="currentColor" y="9" dy="0.71em">CSS</text></g><g class="tick" opacity="1" transform="translate(530.3378378378379,0)"><line stroke="currentColor" y2="6"></line><text fill="currentColor" y="9" dy="0.71em">YAML</text></g><g class="tick" opacity="1" transform="translate(643.1756756756757,0)"><line stroke="currentColor" y2="6"></line><text fill="currentColor" y="9" dy="0.71em">JSON</text></g><g class="tick" opacity="1" transform="translate(756.0135135135135,0)"><line stroke="currentColor" y2="6"></line><text fill="currentColor" y="9" dy="0.71em">Markdown</text></g></g><rect x="45.1351351351351" y="35.66529492455418" height="224.3347050754458" width="67.70270270270271" fill="#D50657"></rect><rect x="157.97297297297297" y="135.88477366255142" height="124.11522633744858" width="67.70270270270271" fill="#049AE6"></rect><rect x="270.81081081081084" y="222.90809327846367" height="37.09190672153633" width="67.70270270270271" fill="#F8C41B"></rect><rect x="383.64864864864865" y="250.37037037037035" height="9.629629629629648" width="67.70270270270271" fill="#32465B"></rect><rect x="496.4864864864865" y="254.29355281207134" height="5.70644718792866" width="67.70270270270271" fill="#E45E42"></rect><rect x="609.3243243243244" y="255.36351165980795" height="4.636488340192045" width="67.70270270270271" fill="#007C5A"></rect><rect x="722.1621621621622" y="258.93004115226336" height="1.0699588477366433" width="67.70270270270271" fill="#FC69FF"></rect><text class="labels" style="fill: #444;" x="45.1351351351351" y="15.665294924554182">6 hrs 29 mins</text><text class="labels" style="fill: #444;" x="157.97297297297297" y="115.88477366255142">3 hrs 48 mins</text><text class="labels" style="fill: #444;" x="270.81081081081084" y="202.90809327846367">1 hr 4 mins</text><text class="labels" style="fill: #444;" x="383.64864864864865" y="230.37037037037035">27 mins</text><text class="labels" style="fill: #444;" x="496.4864864864865" y="234.29355281207134">16 mins</text><text class="labels" style="fill: #444;" x="609.3243243243244" y="235.36351165980795">13 mins</text><text class="labels" style="fill: #444;" x="722.1621621621622" y="238.93004115226336">3 mins</text></g></svg>