<svg xmlns="http://www.w3.org/2000/svg" width="750" height="315"><g transform="translate(20, 20)"><g transform="translate(0, 260)" style="font-size: 15px; font-family: monospace; font-weight: 300;" fill="none" font-size="10" font-family="sans-serif" text-anchor="middle"><path class="domain" stroke="currentColor" d="M0.5,6V0.5H710.5V6"></path><g class="tick" opacity="1" transform="translate(77.65625,0)"><line stroke="currentColor" y2="6"></line><text fill="currentColor" y="9" dy="0.71em">JSX</text></g><g class="tick" opacity="1" transform="translate(188.59375,0)"><line stroke="currentColor" y2="6"></line><text fill="currentColor" y="9" dy="0.71em">JavaScript</text></g><g class="tick" opacity="1" transform="translate(299.53125,0)"><line stroke="currentColor" y2="6"></line><text fill="currentColor" y="9" dy="0.71em">TypeScript</text></g><g class="tick" opacity="1" transform="translate(410.46875000000006,0)"><line stroke="currentColor" y2="6"></line><text fill="currentColor" y="9" dy="0.71em">Git Config</text></g><g class="tick" opacity="1" transform="translate(521.40625,0)"><line stroke="currentColor" y2="6"></line><text fill="currentColor" y="9" dy="0.71em">LESS</text></g><g class="tick" opacity="1" transform="translate(632.3437500000001,0)"><line stroke="currentColor" y2="6"></line><text fill="currentColor" y="9" dy="0.71em">Dart</text></g></g><rect x="44.375" y="24.832855778414505" height="235.1671442215855" width="66.5625" fill="#D50657"></rect><rect x="155.3125" y="105.29130850047756" height="154.70869149952244" width="66.5625" fill="#049AE6"></rect><rect x="266.25" y="229.20725883476598" height="30.79274116523402" width="66.5625" fill="#F8C41B"></rect><rect x="377.18750000000006" y="258.51002865329514" height="1.4899713467048628" width="66.5625" fill="#32465B"></rect><rect x="488.12500000000006" y="258.51002865329514" height="1.4899713467048628" width="66.5625" fill="#E45E42"></rect><rect x="599.0625000000001" y="259.0066857688634" height="0.9933142311365941" width="66.5625" fill="#007C5A"></rect><text class="labels" style="fill: #444;" x="44.375" y="4.832855778414505">9 hrs 47 mins</text><text class="labels" style="fill: #444;" x="155.3125" y="85.29130850047756">6 hrs 23 mins</text><text class="labels" style="fill: #444;" x="266.25" y="209.20725883476598">1 hr 24 mins</text><text class="labels" style="fill: #444;" x="377.18750000000006" y="238.51002865329514">6 mins</text><text class="labels" style="fill: #444;" x="488.12500000000006" y="238.51002865329514">6 mins</text><text class="labels" style="fill: #444;" x="599.0625000000001" y="239.0066857688634">4 mins</text></g></svg>