<svg xmlns="http://www.w3.org/2000/svg" width="625" height="315"><g transform="translate(20, 20)"><g transform="translate(0, 260)" style="font-size: 15px; font-family: monospace; font-weight: 300;" fill="none" font-size="10" font-family="sans-serif" text-anchor="middle"><path class="domain" stroke="currentColor" d="M0.5,6V0.5H585.5V6"></path><g class="tick" opacity="1" transform="translate(75.83333333333334,0)"><line stroke="currentColor" y2="6"></line><text fill="currentColor" y="9" dy="0.71em">JSX</text></g><g class="tick" opacity="1" transform="translate(184.16666666666669,0)"><line stroke="currentColor" y2="6"></line><text fill="currentColor" y="9" dy="0.71em">JavaScript</text></g><g class="tick" opacity="1" transform="translate(292.5,0)"><line stroke="currentColor" y2="6"></line><text fill="currentColor" y="9" dy="0.71em">Bash</text></g><g class="tick" opacity="1" transform="translate(400.83333333333337,0)"><line stroke="currentColor" y2="6"></line><text fill="currentColor" y="9" dy="0.71em">TypeScript</text></g><g class="tick" opacity="1" transform="translate(509.16666666666674,0)"><line stroke="currentColor" y2="6"></line><text fill="currentColor" y="9" dy="0.71em">JSON</text></g></g><rect x="43.33333333333334" y="21.505376344086024" height="238.49462365591398" width="65" fill="#D50657"></rect><rect x="151.66666666666669" y="40.860215053763454" height="219.13978494623655" width="65" fill="#049AE6"></rect><rect x="260" y="253.9784946236559" height="6.021505376344095" width="65" fill="#F8C41B"></rect><rect x="368.33333333333337" y="255.05376344086022" height="4.946236559139777" width="65" fill="#32465B"></rect><rect x="476.66666666666674" y="258.7096774193548" height="1.2903225806451815" width="65" fill="#E45E42"></rect><text class="labels" style="fill: #444;" x="43.33333333333334" y="1.5053763440860237">11 hrs 9 mins</text><text class="labels" style="fill: #444;" x="151.66666666666669" y="20.860215053763454">10 hrs 19 mins</text><text class="labels" style="fill: #444;" x="260" y="233.9784946236559">28 mins</text><text class="labels" style="fill: #444;" x="368.33333333333337" y="235.05376344086022">23 mins</text><text class="labels" style="fill: #444;" x="476.66666666666674" y="238.70967741935482">6 mins</text></g></svg>