<svg xmlns="http://www.w3.org/2000/svg" width="625" height="315"><g transform="translate(20, 20)"><g transform="translate(0, 260)" style="font-size: 15px; font-family: monospace; font-weight: 300;" fill="none" font-size="10" font-family="sans-serif" text-anchor="middle"><path class="domain" stroke="currentColor" d="M0.5,6V0.5H585.5V6"></path><g class="tick" opacity="1" transform="translate(75.83333333333334,0)"><line stroke="currentColor" y2="6"></line><text fill="currentColor" y="9" dy="0.71em">JSX</text></g><g class="tick" opacity="1" transform="translate(184.16666666666669,0)"><line stroke="currentColor" y2="6"></line><text fill="currentColor" y="9" dy="0.71em">JavaScript</text></g><g class="tick" opacity="1" transform="translate(292.5,0)"><line stroke="currentColor" y2="6"></line><text fill="currentColor" y="9" dy="0.71em">TypeScript</text></g><g class="tick" opacity="1" transform="translate(400.83333333333337,0)"><line stroke="currentColor" y2="6"></line><text fill="currentColor" y="9" dy="0.71em">JSON</text></g><g class="tick" opacity="1" transform="translate(509.16666666666674,0)"><line stroke="currentColor" y2="6"></line><text fill="currentColor" y="9" dy="0.71em">Dart</text></g></g><rect x="43.33333333333334" y="31.287605294825486" height="228.71239470517452" width="65" fill="#D50657"></rect><rect x="151.66666666666669" y="117.32851985559566" height="142.67148014440434" width="65" fill="#049AE6"></rect><rect x="260" y="243.1046931407942" height="16.89530685920579" width="65" fill="#F8C41B"></rect><rect x="368.33333333333337" y="248.1107099879663" height="11.889290012033712" width="65" fill="#32465B"></rect><rect x="476.66666666666674" y="254.05535499398317" height="5.944645006016827" width="65" fill="#E45E42"></rect><text class="labels" style="fill: #444;" x="43.33333333333334" y="11.287605294825486">7 hrs 31 mins</text><text class="labels" style="fill: #444;" x="151.66666666666669" y="97.32851985559566">4 hrs 56 mins</text><text class="labels" style="fill: #444;" x="260" y="223.1046931407942">54 mins</text><text class="labels" style="fill: #444;" x="368.33333333333337" y="228.1107099879663">38 mins</text><text class="labels" style="fill: #444;" x="476.66666666666674" y="234.05535499398317">19 mins</text></g></svg>