<svg xmlns="http://www.w3.org/2000/svg" width="875" height="315"><g transform="translate(20, 20)"><g transform="translate(0, 260)" style="font-size: 15px; font-family: monospace; font-weight: 300;" fill="none" font-size="10" font-family="sans-serif" text-anchor="middle"><path class="domain" stroke="currentColor" d="M0.5,6V0.5H835.5V6"></path><g class="tick" opacity="1" transform="translate(78.98648648648646,0)"><line stroke="currentColor" y2="6"></line><text fill="currentColor" y="9" dy="0.71em">JSX</text></g><g class="tick" opacity="1" transform="translate(191.82432432432432,0)"><line stroke="currentColor" y2="6"></line><text fill="currentColor" y="9" dy="0.71em">JavaScript</text></g><g class="tick" opacity="1" transform="translate(304.6621621621622,0)"><line stroke="currentColor" y2="6"></line><text fill="currentColor" y="9" dy="0.71em">TypeScript</text></g><g class="tick" opacity="1" transform="translate(417.5,0)"><line stroke="currentColor" y2="6"></line><text fill="currentColor" y="9" dy="0.71em">LESS</text></g><g class="tick" opacity="1" transform="translate(530.3378378378379,0)"><line stroke="currentColor" y2="6"></line><text fill="currentColor" y="9" dy="0.71em">JSON</text></g><g class="tick" opacity="1" transform="translate(643.1756756756757,0)"><line stroke="currentColor" y2="6"></line><text fill="currentColor" y="9" dy="0.71em">Java</text></g><g class="tick" opacity="1" transform="translate(756.0135135135135,0)"><line stroke="currentColor" y2="6"></line><text fill="currentColor" y="9" dy="0.71em">Text</text></g></g><rect x="45.1351351351351" y="22.648083623693367" height="237.35191637630663" width="67.70270270270271" fill="#D50657"></rect><rect x="157.97297297297297" y="73.15331010452964" height="186.84668989547038" width="67.70270270270271" fill="#049AE6"></rect><rect x="270.81081081081084" y="235.99303135888502" height="24.00696864111498" width="67.70270270270271" fill="#F8C41B"></rect><rect x="383.64864864864865" y="237.35191637630663" height="22.648083623693367" width="67.70270270270271" fill="#32465B"></rect><rect x="496.4864864864865" y="248.22299651567945" height="11.777003484320545" width="67.70270270270271" fill="#E45E42"></rect><rect x="609.3243243243244" y="259.0940766550523" height="0.9059233449477233" width="67.70270270270271" fill="#007C5A"></rect><rect x="722.1621621621622" y="259.77351916376307" height="0.22648083623693083" width="67.70270270270271" fill="#FC69FF"></rect><text class="labels" style="fill: #444;" x="45.1351351351351" y="2.648083623693367">10 hrs 48 mins</text><text class="labels" style="fill: #444;" x="157.97297297297297" y="53.15331010452964">8 hrs 25 mins</text><text class="labels" style="fill: #444;" x="270.81081081081084" y="215.99303135888502">1 hr 6 mins</text><text class="labels" style="fill: #444;" x="383.64864864864865" y="217.35191637630663">1 hr</text><text class="labels" style="fill: #444;" x="496.4864864864865" y="228.22299651567945">52 mins</text><text class="labels" style="fill: #444;" x="609.3243243243244" y="239.09407665505228">4 mins</text><text class="labels" style="fill: #444;" x="722.1621621621622" y="239.77351916376307">1 min</text></g></svg>