<svg xmlns="http://www.w3.org/2000/svg" width="750" height="315"><g transform="translate(20, 20)"><g transform="translate(0, 260)" style="font-size: 15px; font-family: monospace; font-weight: 300;" fill="none" font-size="10" font-family="sans-serif" text-anchor="middle"><path class="domain" stroke="currentColor" d="M0.5,6V0.5H710.5V6"></path><g class="tick" opacity="1" transform="translate(77.65625,0)"><line stroke="currentColor" y2="6"></line><text fill="currentColor" y="9" dy="0.71em">JSX</text></g><g class="tick" opacity="1" transform="translate(188.59375,0)"><line stroke="currentColor" y2="6"></line><text fill="currentColor" y="9" dy="0.71em">JavaScript</text></g><g class="tick" opacity="1" transform="translate(299.53125,0)"><line stroke="currentColor" y2="6"></line><text fill="currentColor" y="9" dy="0.71em">YAML</text></g><g class="tick" opacity="1" transform="translate(410.46875000000006,0)"><line stroke="currentColor" y2="6"></line><text fill="currentColor" y="9" dy="0.71em">TypeScript</text></g><g class="tick" opacity="1" transform="translate(521.40625,0)"><line stroke="currentColor" y2="6"></line><text fill="currentColor" y="9" dy="0.71em">LESS</text></g><g class="tick" opacity="1" transform="translate(632.3437500000001,0)"><line stroke="currentColor" y2="6"></line><text fill="currentColor" y="9" dy="0.71em">Docker</text></g></g><rect x="44.375" y="35.51912568306012" height="224.4808743169399" width="66.5625" fill="#D50657"></rect><rect x="155.3125" y="220.5737704918033" height="39.42622950819671" width="66.5625" fill="#049AE6"></rect><rect x="266.25" y="253.2513661202186" height="6.7486338797814085" width="66.5625" fill="#F8C41B"></rect><rect x="377.18750000000006" y="255.38251366120218" height="4.617486338797818" width="66.5625" fill="#32465B"></rect><rect x="488.12500000000006" y="258.93442622950823" height="1.065573770491767" width="66.5625" fill="#E45E42"></rect><rect x="599.0625000000001" y="259.6448087431694" height="0.3551912568306079" width="66.5625" fill="#007C5A"></rect><text class="labels" style="fill: #444;" x="44.375" y="15.519125683060118">6 hrs 32 mins</text><text class="labels" style="fill: #444;" x="155.3125" y="200.5737704918033">1 hr 11 mins</text><text class="labels" style="fill: #444;" x="266.25" y="233.2513661202186">19 mins</text><text class="labels" style="fill: #444;" x="377.18750000000006" y="235.38251366120218">13 mins</text><text class="labels" style="fill: #444;" x="488.12500000000006" y="238.93442622950823">3 mins</text><text class="labels" style="fill: #444;" x="599.0625000000001" y="239.6448087431694">1 min</text></g></svg>