<svg xmlns="http://www.w3.org/2000/svg" width="750" height="315"><g transform="translate(20, 20)"><g transform="translate(0, 260)" style="font-size: 15px; font-family: monospace; font-weight: 300;" fill="none" font-size="10" font-family="sans-serif" text-anchor="middle"><path class="domain" stroke="currentColor" d="M0.5,6V0.5H710.5V6"></path><g class="tick" opacity="1" transform="translate(77.65625,0)"><line stroke="currentColor" y2="6"></line><text fill="currentColor" y="9" dy="0.71em">TypeScript</text></g><g class="tick" opacity="1" transform="translate(188.59375,0)"><line stroke="currentColor" y2="6"></line><text fill="currentColor" y="9" dy="0.71em">JSX</text></g><g class="tick" opacity="1" transform="translate(299.53125,0)"><line stroke="currentColor" y2="6"></line><text fill="currentColor" y="9" dy="0.71em">LESS</text></g><g class="tick" opacity="1" transform="translate(410.46875000000006,0)"><line stroke="currentColor" y2="6"></line><text fill="currentColor" y="9" dy="0.71em">JavaScript</text></g><g class="tick" opacity="1" transform="translate(521.40625,0)"><line stroke="currentColor" y2="6"></line><text fill="currentColor" y="9" dy="0.71em">JSON</text></g><g class="tick" opacity="1" transform="translate(632.3437500000001,0)"><line stroke="currentColor" y2="6"></line><text fill="currentColor" y="9" dy="0.71em">Markdown</text></g></g><rect x="44.375" y="24.85659655831741" height="235.14340344168258" width="66.5625" fill="#D50657"></rect><rect x="155.3125" y="152.12237093690248" height="107.87762906309752" width="66.5625" fill="#049AE6"></rect><rect x="266.25" y="221.96940726577438" height="38.03059273422562" width="66.5625" fill="#F8C41B"></rect><rect x="377.18750000000006" y="230.66921606118547" height="29.330783938814534" width="66.5625" fill="#32465B"></rect><rect x="488.12500000000006" y="255.77437858508605" height="4.225621414913945" width="66.5625" fill="#E45E42"></rect><rect x="599.0625000000001" y="259.2543021032505" height="0.7456978967495047" width="66.5625" fill="#007C5A"></rect><text class="labels" style="fill: #444;" x="44.375" y="4.85659655831741">9 hrs 46 mins</text><text class="labels" style="fill: #444;" x="155.3125" y="132.12237093690248">4 hrs 34 mins</text><text class="labels" style="fill: #444;" x="266.25" y="201.96940726577438">1 hr 53 mins</text><text class="labels" style="fill: #444;" x="377.18750000000006" y="210.66921606118547">1 hr 18 mins</text><text class="labels" style="fill: #444;" x="488.12500000000006" y="235.77437858508605">17 mins</text><text class="labels" style="fill: #444;" x="599.0625000000001" y="239.2543021032505">3 mins</text></g></svg>