<svg xmlns="http://www.w3.org/2000/svg" width="625" height="315"><g transform="translate(20, 20)"><g transform="translate(0, 260)" style="font-size: 15px; font-family: monospace; font-weight: 300;" fill="none" font-size="10" font-family="sans-serif" text-anchor="middle"><path class="domain" stroke="currentColor" d="M0.5,6V0.5H585.5V6"></path><g class="tick" opacity="1" transform="translate(75.83333333333334,0)"><line stroke="currentColor" y2="6"></line><text fill="currentColor" y="9" dy="0.71em">TypeScript</text></g><g class="tick" opacity="1" transform="translate(184.16666666666669,0)"><line stroke="currentColor" y2="6"></line><text fill="currentColor" y="9" dy="0.71em">JSX</text></g><g class="tick" opacity="1" transform="translate(292.5,0)"><line stroke="currentColor" y2="6"></line><text fill="currentColor" y="9" dy="0.71em">JavaScript</text></g><g class="tick" opacity="1" transform="translate(400.83333333333337,0)"><line stroke="currentColor" y2="6"></line><text fill="currentColor" y="9" dy="0.71em">LESS</text></g><g class="tick" opacity="1" transform="translate(509.16666666666674,0)"><line stroke="currentColor" y2="6"></line><text fill="currentColor" y="9" dy="0.71em">JSON</text></g></g><rect x="43.33333333333334" y="19.95395241749809" height="240.0460475825019" width="65" fill="#D50657"></rect><rect x="151.66666666666669" y="112.73983115886415" height="147.26016884113585" width="65" fill="#049AE6"></rect><rect x="260" y="173.99846508058326" height="86.00153491941674" width="65" fill="#F8C41B"></rect><rect x="368.33333333333337" y="239.048349961627" height="20.951650038373003" width="65" fill="#32465B"></rect><rect x="476.66666666666674" y="259.800460475825" height="0.19953952417500886" width="65" fill="#E45E42"></rect><text class="labels" style="fill: #444;" x="43.33333333333334" y="-0.046047582501909545">12 hrs 3 mins</text><text class="labels" style="fill: #444;" x="151.66666666666669" y="92.73983115886415">7 hrs 38 mins</text><text class="labels" style="fill: #444;" x="260" y="153.99846508058326">4 hrs 31 mins</text><text class="labels" style="fill: #444;" x="368.33333333333337" y="219.048349961627">1 hr 5 mins</text><text class="labels" style="fill: #444;" x="476.66666666666674" y="239.800460475825">1 min</text></g></svg>