<svg xmlns="http://www.w3.org/2000/svg" width="750" height="315"><g transform="translate(20, 20)"><g transform="translate(0, 260)" style="font-size: 15px; font-family: monospace; font-weight: 300;" fill="none" font-size="10" font-family="sans-serif" text-anchor="middle"><path class="domain" stroke="currentColor" d="M0.5,6V0.5H710.5V6"></path><g class="tick" opacity="1" transform="translate(77.65625,0)"><line stroke="currentColor" y2="6"></line><text fill="currentColor" y="9" dy="0.71em">TypeScript</text></g><g class="tick" opacity="1" transform="translate(188.59375,0)"><line stroke="currentColor" y2="6"></line><text fill="currentColor" y="9" dy="0.71em">JavaScript</text></g><g class="tick" opacity="1" transform="translate(299.53125,0)"><line stroke="currentColor" y2="6"></line><text fill="currentColor" y="9" dy="0.71em">JSX</text></g><g class="tick" opacity="1" transform="translate(410.46875000000006,0)"><line stroke="currentColor" y2="6"></line><text fill="currentColor" y="9" dy="0.71em">JSON</text></g><g class="tick" opacity="1" transform="translate(521.40625,0)"><line stroke="currentColor" y2="6"></line><text fill="currentColor" y="9" dy="0.71em">CSS</text></g><g class="tick" opacity="1" transform="translate(632.3437500000001,0)"><line stroke="currentColor" y2="6"></line><text fill="currentColor" y="9" dy="0.71em">Python</text></g></g><rect x="44.375" y="58.165548098434016" height="201.83445190156598" width="66.5625" fill="#D50657"></rect><rect x="155.3125" y="141.34228187919462" height="118.65771812080538" width="66.5625" fill="#049AE6"></rect><rect x="266.25" y="171.006711409396" height="88.99328859060401" width="66.5625" fill="#F8C41B"></rect><rect x="377.18750000000006" y="255.92841163310962" height="4.071588366890381" width="66.5625" fill="#32465B"></rect><rect x="488.12500000000006" y="257.0917225950783" height="2.908277404921705" width="66.5625" fill="#E45E42"></rect><rect x="599.0625000000001" y="257.0917225950783" height="2.908277404921705" width="66.5625" fill="#007C5A"></rect><text class="labels" style="fill: #444;" x="44.375" y="38.165548098434016">3 hrs 47 mins</text><text class="labels" style="fill: #444;" x="155.3125" y="121.34228187919462">2 hrs 4 mins</text><text class="labels" style="fill: #444;" x="266.25" y="151.006711409396">1 hr 53 mins</text><text class="labels" style="fill: #444;" x="377.18750000000006" y="235.92841163310962">7 mins</text><text class="labels" style="fill: #444;" x="488.12500000000006" y="237.0917225950783">5 mins</text><text class="labels" style="fill: #444;" x="599.0625000000001" y="237.0917225950783">5 mins</text></g></svg>