<svg xmlns="http://www.w3.org/2000/svg" width="625" height="315"><g transform="translate(20, 20)"><g transform="translate(0, 260)" style="font-size: 15px; font-family: monospace; font-weight: 300;" fill="none" font-size="10" font-family="sans-serif" text-anchor="middle"><path class="domain" stroke="currentColor" d="M0.5,6V0.5H585.5V6"></path><g class="tick" opacity="1" transform="translate(75.83333333333334,0)"><line stroke="currentColor" y2="6"></line><text fill="currentColor" y="9" dy="0.71em">TypeScript</text></g><g class="tick" opacity="1" transform="translate(184.16666666666669,0)"><line stroke="currentColor" y2="6"></line><text fill="currentColor" y="9" dy="0.71em">JSX</text></g><g class="tick" opacity="1" transform="translate(292.5,0)"><line stroke="currentColor" y2="6"></line><text fill="currentColor" y="9" dy="0.71em">JavaScript</text></g><g class="tick" opacity="1" transform="translate(400.83333333333337,0)"><line stroke="currentColor" y2="6"></line><text fill="currentColor" y="9" dy="0.71em">JSON</text></g><g class="tick" opacity="1" transform="translate(509.16666666666674,0)"><line stroke="currentColor" y2="6"></line><text fill="currentColor" y="9" dy="0.71em">LESS</text></g></g><rect x="43.33333333333334" y="60.04618937644341" height="199.9538106235566" width="65" fill="#D50657"></rect><rect x="151.66666666666669" y="61.84757505773674" height="198.15242494226325" width="65" fill="#049AE6"></rect><rect x="260" y="127.29792147806005" height="132.70207852193994" width="65" fill="#F8C41B"></rect><rect x="368.33333333333337" y="252.19399538106234" height="7.8060046189376635" width="65" fill="#32465B"></rect><rect x="476.66666666666674" y="253.99538106235565" height="6.004618937644352" width="65" fill="#E45E42"></rect><text class="labels" style="fill: #444;" x="43.33333333333334" y="40.04618937644341">3 hrs 33 mins</text><text class="labels" style="fill: #444;" x="151.66666666666669" y="41.84757505773674">3 hrs 30 mins</text><text class="labels" style="fill: #444;" x="260" y="107.29792147806005">2 hrs 21 mins</text><text class="labels" style="fill: #444;" x="368.33333333333337" y="232.19399538106234">13 mins</text><text class="labels" style="fill: #444;" x="476.66666666666674" y="233.99538106235565">10 mins</text></g></svg>