<svg xmlns="http://www.w3.org/2000/svg" width="750" height="315"><g transform="translate(20, 20)"><g transform="translate(0, 260)" style="font-size: 15px; font-family: monospace; font-weight: 300;" fill="none" font-size="10" font-family="sans-serif" text-anchor="middle"><path class="domain" stroke="currentColor" d="M0.5,6V0.5H710.5V6"></path><g class="tick" opacity="1" transform="translate(77.65625,0)"><line stroke="currentColor" y2="6"></line><text fill="currentColor" y="9" dy="0.71em">JSX</text></g><g class="tick" opacity="1" transform="translate(188.59375,0)"><line stroke="currentColor" y2="6"></line><text fill="currentColor" y="9" dy="0.71em">JavaScript</text></g><g class="tick" opacity="1" transform="translate(299.53125,0)"><line stroke="currentColor" y2="6"></line><text fill="currentColor" y="9" dy="0.71em">TypeScript</text></g><g class="tick" opacity="1" transform="translate(410.46875000000006,0)"><line stroke="currentColor" y2="6"></line><text fill="currentColor" y="9" dy="0.71em">Git Config</text></g><g class="tick" opacity="1" transform="translate(521.40625,0)"><line stroke="currentColor" y2="6"></line><text fill="currentColor" y="9" dy="0.71em">Dart</text></g><g class="tick" opacity="1" transform="translate(632.3437500000001,0)"><line stroke="currentColor" y2="6"></line><text fill="currentColor" y="9" dy="0.71em">XML</text></g></g><rect x="44.375" y="23.04964539007091" height="236.9503546099291" width="66.5625" fill="#D50657"></rect><rect x="155.3125" y="73.98936170212765" height="186.01063829787233" width="66.5625" fill="#049AE6"></rect><rect x="266.25" y="233.03191489361703" height="26.968085106382972" width="66.5625" fill="#F8C41B"></rect><rect x="377.18750000000006" y="258.6170212765957" height="1.3829787234042783" width="66.5625" fill="#32465B"></rect><rect x="488.12500000000006" y="259.07801418439715" height="0.9219858156028522" width="66.5625" fill="#E45E42"></rect><rect x="599.0625000000001" y="259.5390070921986" height="0.4609929078014261" width="66.5625" fill="#007C5A"></rect><text class="labels" style="fill: #444;" x="44.375" y="3.0496453900709106">10 hrs 28 mins</text><text class="labels" style="fill: #444;" x="155.3125" y="53.98936170212765">8 hrs 7 mins</text><text class="labels" style="fill: #444;" x="266.25" y="213.03191489361703">1 hr 17 mins</text><text class="labels" style="fill: #444;" x="377.18750000000006" y="238.61702127659572">6 mins</text><text class="labels" style="fill: #444;" x="488.12500000000006" y="239.07801418439715">4 mins</text><text class="labels" style="fill: #444;" x="599.0625000000001" y="239.53900709219857">2 mins</text></g></svg>