<svg xmlns="http://www.w3.org/2000/svg" width="875" height="315"><g transform="translate(20, 20)"><g transform="translate(0, 260)" style="font-size: 15px; font-family: monospace; font-weight: 300;" fill="none" font-size="10" font-family="sans-serif" text-anchor="middle"><path class="domain" stroke="currentColor" d="M0.5,6V0.5H835.5V6"></path><g class="tick" opacity="1" transform="translate(78.98648648648646,0)"><line stroke="currentColor" y2="6"></line><text fill="currentColor" y="9" dy="0.71em">JavaScript</text></g><g class="tick" opacity="1" transform="translate(191.82432432432432,0)"><line stroke="currentColor" y2="6"></line><text fill="currentColor" y="9" dy="0.71em">JSX</text></g><g class="tick" opacity="1" transform="translate(304.6621621621622,0)"><line stroke="currentColor" y2="6"></line><text fill="currentColor" y="9" dy="0.71em">TypeScript</text></g><g class="tick" opacity="1" transform="translate(417.5,0)"><line stroke="currentColor" y2="6"></line><text fill="currentColor" y="9" dy="0.71em">JSON</text></g><g class="tick" opacity="1" transform="translate(530.3378378378379,0)"><line stroke="currentColor" y2="6"></line><text fill="currentColor" y="9" dy="0.71em">Properties</text></g><g class="tick" opacity="1" transform="translate(643.1756756756757,0)"><line stroke="currentColor" y2="6"></line><text fill="currentColor" y="9" dy="0.71em">LESS</text></g><g class="tick" opacity="1" transform="translate(756.0135135135135,0)"><line stroke="currentColor" y2="6"></line><text fill="currentColor" y="9" dy="0.71em">Git Config</text></g></g><rect x="45.1351351351351" y="21.259198691741613" height="238.7408013082584" width="67.70270270270271" fill="#D50657"></rect><rect x="157.97297297297297" y="206.63941128372852" height="53.36058871627148" width="67.70270270270271" fill="#049AE6"></rect><rect x="270.81081081081084" y="216.84382665576453" height="43.15617334423547" width="67.70270270270271" fill="#F8C41B"></rect><rect x="383.64864864864865" y="238.10302534750613" height="21.896974652493867" width="67.70270270270271" fill="#32465B"></rect><rect x="496.4864864864865" y="247.88225674570728" height="12.11774325429272" width="67.70270270270271" fill="#E45E42"></rect><rect x="609.3243243243244" y="254.47260834014716" height="5.527391659852839" width="67.70270270270271" fill="#007C5A"></rect><rect x="722.1621621621622" y="259.7874080130826" height="0.21259198691740266" width="67.70270270270271" fill="#FC69FF"></rect><text class="labels" style="fill: #444;" x="45.1351351351351" y="1.259198691741613">11 hrs 23 mins</text><text class="labels" style="fill: #444;" x="157.97297297297297" y="186.63941128372852">2 hrs 51 mins</text><text class="labels" style="fill: #444;" x="270.81081081081084" y="196.84382665576453">2 hrs 3 mins</text><text class="labels" style="fill: #444;" x="383.64864864864865" y="218.10302534750613">1 hr 3 mins</text><text class="labels" style="fill: #444;" x="496.4864864864865" y="227.88225674570728">57 mins</text><text class="labels" style="fill: #444;" x="609.3243243243244" y="234.47260834014716">26 mins</text><text class="labels" style="fill: #444;" x="722.1621621621622" y="239.7874080130826">1 min</text></g></svg>