<svg xmlns="http://www.w3.org/2000/svg" width="875" height="315"><g transform="translate(20, 20)"><g transform="translate(0, 260)" style="font-size: 15px; font-family: monospace; font-weight: 300;" fill="none" font-size="10" font-family="sans-serif" text-anchor="middle"><path class="domain" stroke="currentColor" d="M0.5,6V0.5H835.5V6"></path><g class="tick" opacity="1" transform="translate(78.98648648648646,0)"><line stroke="currentColor" y2="6"></line><text fill="currentColor" y="9" dy="0.71em">JSX</text></g><g class="tick" opacity="1" transform="translate(191.82432432432432,0)"><line stroke="currentColor" y2="6"></line><text fill="currentColor" y="9" dy="0.71em">LESS</text></g><g class="tick" opacity="1" transform="translate(304.6621621621622,0)"><line stroke="currentColor" y2="6"></line><text fill="currentColor" y="9" dy="0.71em">JavaScript</text></g><g class="tick" opacity="1" transform="translate(417.5,0)"><line stroke="currentColor" y2="6"></line><text fill="currentColor" y="9" dy="0.71em">Bash</text></g><g class="tick" opacity="1" transform="translate(530.3378378378379,0)"><line stroke="currentColor" y2="6"></line><text fill="currentColor" y="9" dy="0.71em">YAML</text></g><g class="tick" opacity="1" transform="translate(643.1756756756757,0)"><line stroke="currentColor" y2="6"></line><text fill="currentColor" y="9" dy="0.71em">Docker</text></g><g class="tick" opacity="1" transform="translate(756.0135135135135,0)"><line stroke="currentColor" y2="6"></line><text fill="currentColor" y="9" dy="0.71em">TypeScript</text></g></g><rect x="45.1351351351351" y="19.95395241749809" height="240.0460475825019" width="67.70270270270271" fill="#D50657"></rect><rect x="157.97297297297297" y="231.46584804297774" height="28.53415195702226" width="67.70270270270271" fill="#049AE6"></rect><rect x="270.81081081081084" y="234.8580199539524" height="25.141980046047593" width="67.70270270270271" fill="#F8C41B"></rect><rect x="383.64864864864865" y="249.02532617037605" height="10.974673829623953" width="67.70270270270271" fill="#32465B"></rect><rect x="496.4864864864865" y="251.22026093630083" height="8.779739063699168" width="67.70270270270271" fill="#E45E42"></rect><rect x="609.3243243243244" y="256.20874904067534" height="3.791250959324657" width="67.70270270270271" fill="#007C5A"></rect><rect x="722.1621621621622" y="259.800460475825" height="0.19953952417500886" width="67.70270270270271" fill="#FC69FF"></rect><text class="labels" style="fill: #444;" x="45.1351351351351" y="-0.046047582501909545">12 hrs 3 mins</text><text class="labels" style="fill: #444;" x="157.97297297297297" y="211.46584804297774">1 hr 43 mins</text><text class="labels" style="fill: #444;" x="270.81081081081084" y="214.8580199539524">1 hr 26 mins</text><text class="labels" style="fill: #444;" x="383.64864864864865" y="229.02532617037605">55 mins</text><text class="labels" style="fill: #444;" x="496.4864864864865" y="231.22026093630083">44 mins</text><text class="labels" style="fill: #444;" x="609.3243243243244" y="236.20874904067534">19 mins</text><text class="labels" style="fill: #444;" x="722.1621621621622" y="239.800460475825">1 min</text></g></svg>