<svg xmlns="http://www.w3.org/2000/svg" width="625" height="315"><g transform="translate(20, 20)"><g transform="translate(0, 260)" style="font-size: 15px; font-family: monospace; font-weight: 300;" fill="none" font-size="10" font-family="sans-serif" text-anchor="middle"><path class="domain" stroke="currentColor" d="M0.5,6V0.5H585.5V6"></path><g class="tick" opacity="1" transform="translate(75.83333333333334,0)"><line stroke="currentColor" y2="6"></line><text fill="currentColor" y="9" dy="0.71em">TypeScript</text></g><g class="tick" opacity="1" transform="translate(184.16666666666669,0)"><line stroke="currentColor" y2="6"></line><text fill="currentColor" y="9" dy="0.71em">JSX</text></g><g class="tick" opacity="1" transform="translate(292.5,0)"><line stroke="currentColor" y2="6"></line><text fill="currentColor" y="9" dy="0.71em">JavaScript</text></g><g class="tick" opacity="1" transform="translate(400.83333333333337,0)"><line stroke="currentColor" y2="6"></line><text fill="currentColor" y="9" dy="0.71em">LESS</text></g><g class="tick" opacity="1" transform="translate(509.16666666666674,0)"><line stroke="currentColor" y2="6"></line><text fill="currentColor" y="9" dy="0.71em">Markdown</text></g></g><rect x="43.33333333333334" y="16.677357280307877" height="243.3226427196921" width="65" fill="#D50657"></rect><rect x="151.66666666666669" y="135.0865939704939" height="124.91340602950609" width="65" fill="#049AE6"></rect><rect x="260" y="205.96536241180243" height="54.03463758819757" width="65" fill="#F8C41B"></rect><rect x="368.33333333333337" y="253.99615137908916" height="6.003848620910844" width="65" fill="#32465B"></rect><rect x="476.66666666666674" y="259.4996792815908" height="0.5003207184092275" width="65" fill="#E45E42"></rect><text class="labels" style="fill: #444;" x="43.33333333333334" y="-3.322642719692123">14 hrs 59 mins</text><text class="labels" style="fill: #444;" x="151.66666666666669" y="115.08659397049391">7 hrs 49 mins</text><text class="labels" style="fill: #444;" x="260" y="185.96536241180243">3 hrs 24 mins</text><text class="labels" style="fill: #444;" x="368.33333333333337" y="233.99615137908916">36 mins</text><text class="labels" style="fill: #444;" x="476.66666666666674" y="239.49967928159077">3 mins</text></g></svg>