<svg xmlns="http://www.w3.org/2000/svg" width="1250" height="315"><g transform="translate(20, 20)"><g transform="translate(0, 260)" style="font-size: 15px; font-family: monospace; font-weight: 300;" fill="none" font-size="10" font-family="sans-serif" text-anchor="middle"><path class="domain" stroke="currentColor" d="M0.5,6V0.5H1210.5V6"></path><g class="tick" opacity="1" transform="translate(81.44230769230771,0)"><line stroke="currentColor" y2="6"></line><text fill="currentColor" y="9" dy="0.71em">TypeScript</text></g><g class="tick" opacity="1" transform="translate(197.78846153846155,0)"><line stroke="currentColor" y2="6"></line><text fill="currentColor" y="9" dy="0.71em">JSX</text></g><g class="tick" opacity="1" transform="translate(314.13461538461536,0)"><line stroke="currentColor" y2="6"></line><text fill="currentColor" y="9" dy="0.71em">JavaScript</text></g><g class="tick" opacity="1" transform="translate(430.4807692307692,0)"><line stroke="currentColor" y2="6"></line><text fill="currentColor" y="9" dy="0.71em">CSS</text></g><g class="tick" opacity="1" transform="translate(546.8269230769231,0)"><line stroke="currentColor" y2="6"></line><text fill="currentColor" y="9" dy="0.71em">LESS</text></g><g class="tick" opacity="1" transform="translate(663.1730769230769,0)"><line stroke="currentColor" y2="6"></line><text fill="currentColor" y="9" dy="0.71em">YAML</text></g><g class="tick" opacity="1" transform="translate(779.5192307692308,0)"><line stroke="currentColor" y2="6"></line><text fill="currentColor" y="9" dy="0.71em">Docker</text></g><g class="tick" opacity="1" transform="translate(895.8653846153846,0)"><line stroke="currentColor" y2="6"></line><text fill="currentColor" y="9" dy="0.71em">JSON</text></g><g class="tick" opacity="1" transform="translate(1012.2115384615385,0)"><line stroke="currentColor" y2="6"></line><text fill="currentColor" y="9" dy="0.71em">Text</text></g><g class="tick" opacity="1" transform="translate(1128.5576923076924,0)"><line stroke="currentColor" y2="6"></line><text fill="currentColor" y="9" dy="0.71em">Git Config</text></g></g><rect x="46.53846153846155" y="23.111111111111114" height="236.88888888888889" width="69.8076923076923" fill="#D50657"></rect><rect x="162.8846153846154" y="73.95555555555553" height="186.04444444444448" width="69.8076923076923" fill="#049AE6"></rect><rect x="279.2307692307692" y="166.6311111111111" height="93.3688888888889" width="69.8076923076923" fill="#F8C41B"></rect><rect x="395.5769230769231" y="236.6577777777778" height="23.342222222222205" width="69.8076923076923" fill="#32465B"></rect><rect x="511.9230769230769" y="250.29333333333332" height="9.706666666666678" width="69.8076923076923" fill="#E45E42"></rect><rect x="628.2692307692307" y="255.6088888888889" height="4.391111111111087" width="69.8076923076923" fill="#007C5A"></rect><rect x="744.6153846153846" y="256.53333333333336" height="3.46666666666664" width="69.8076923076923" fill="#FC69FF"></rect><rect x="860.9615384615385" y="256.53333333333336" height="3.46666666666664" width="69.8076923076923" fill="#3EC6CF"></rect><rect x="977.3076923076923" y="257.22666666666663" height="2.773333333333369" width="69.8076923076923" fill="#620A79"></rect><rect x="1093.6538461538462" y="259.76888888888885" height="0.23111111111114724" width="69.8076923076923" fill="#D50657"></rect><text class="labels" style="fill: #444;" x="46.53846153846155" y="3.1111111111111143">10 hrs 25 mins</text><text class="labels" style="fill: #444;" x="162.8846153846154" y="53.955555555555534">8 hrs 5 mins</text><text class="labels" style="fill: #444;" x="279.2307692307692" y="146.6311111111111">4 hrs 4 mins</text><text class="labels" style="fill: #444;" x="395.5769230769231" y="216.6577777777778">1 hr 1 min</text><text class="labels" style="fill: #444;" x="511.9230769230769" y="230.29333333333332">42 mins</text><text class="labels" style="fill: #444;" x="628.2692307692307" y="235.6088888888889">19 mins</text><text class="labels" style="fill: #444;" x="744.6153846153846" y="236.53333333333336">15 mins</text><text class="labels" style="fill: #444;" x="860.9615384615385" y="236.53333333333336">15 mins</text><text class="labels" style="fill: #444;" x="977.3076923076923" y="237.22666666666663">12 mins</text><text class="labels" style="fill: #444;" x="1093.6538461538462" y="239.76888888888885">1 min</text></g></svg>