<svg xmlns="http://www.w3.org/2000/svg" width="625" height="315"><g transform="translate(20, 20)"><g transform="translate(0, 260)" style="font-size: 15px; font-family: monospace; font-weight: 300;" fill="none" font-size="10" font-family="sans-serif" text-anchor="middle"><path class="domain" stroke="currentColor" d="M0.5,6V0.5H585.5V6"></path><g class="tick" opacity="1" transform="translate(75.83333333333334,0)"><line stroke="currentColor" y2="6"></line><text fill="currentColor" y="9" dy="0.71em">TypeScript</text></g><g class="tick" opacity="1" transform="translate(184.16666666666669,0)"><line stroke="currentColor" y2="6"></line><text fill="currentColor" y="9" dy="0.71em">JSX</text></g><g class="tick" opacity="1" transform="translate(292.5,0)"><line stroke="currentColor" y2="6"></line><text fill="currentColor" y="9" dy="0.71em">JavaScript</text></g><g class="tick" opacity="1" transform="translate(400.83333333333337,0)"><line stroke="currentColor" y2="6"></line><text fill="currentColor" y="9" dy="0.71em">LESS</text></g><g class="tick" opacity="1" transform="translate(509.16666666666674,0)"><line stroke="currentColor" y2="6"></line><text fill="currentColor" y="9" dy="0.71em">JSON</text></g></g><rect x="43.33333333333334" y="40.56162246489859" height="219.4383775351014" width="65" fill="#D50657"></rect><rect x="151.66666666666669" y="77.47269890795633" height="182.52730109204367" width="65" fill="#049AE6"></rect><rect x="260" y="81.12324492979718" height="178.87675507020282" width="65" fill="#F8C41B"></rect><rect x="368.33333333333337" y="178.47113884555384" height="81.52886115444616" width="65" fill="#32465B"></rect><rect x="476.66666666666674" y="244.9921996879875" height="15.007800312012506" width="65" fill="#E45E42"></rect><text class="labels" style="fill: #444;" x="43.33333333333334" y="20.56162246489859">5 hrs 41 mins</text><text class="labels" style="fill: #444;" x="151.66666666666669" y="57.47269890795633">4 hrs 50 mins</text><text class="labels" style="fill: #444;" x="260" y="61.12324492979718">4 hrs 41 mins</text><text class="labels" style="fill: #444;" x="368.33333333333337" y="158.47113884555384">2 hrs 1 min</text><text class="labels" style="fill: #444;" x="476.66666666666674" y="224.9921996879875">37 mins</text></g></svg>