<svg xmlns="http://www.w3.org/2000/svg" width="625" height="315"><g transform="translate(20, 20)"><g transform="translate(0, 260)" style="font-size: 15px; font-family: monospace; font-weight: 300;" fill="none" font-size="10" font-family="sans-serif" text-anchor="middle"><path class="domain" stroke="currentColor" d="M0.5,6V0.5H585.5V6"></path><g class="tick" opacity="1" transform="translate(75.83333333333334,0)"><line stroke="currentColor" y2="6"></line><text fill="currentColor" y="9" dy="0.71em">TypeScript</text></g><g class="tick" opacity="1" transform="translate(184.16666666666669,0)"><line stroke="currentColor" y2="6"></line><text fill="currentColor" y="9" dy="0.71em">JSX</text></g><g class="tick" opacity="1" transform="translate(292.5,0)"><line stroke="currentColor" y2="6"></line><text fill="currentColor" y="9" dy="0.71em">JavaScript</text></g><g class="tick" opacity="1" transform="translate(400.83333333333337,0)"><line stroke="currentColor" y2="6"></line><text fill="currentColor" y="9" dy="0.71em">LESS</text></g><g class="tick" opacity="1" transform="translate(509.16666666666674,0)"><line stroke="currentColor" y2="6"></line><text fill="currentColor" y="9" dy="0.71em">JSON</text></g></g><rect x="43.33333333333334" y="39.5738203957382" height="220.4261796042618" width="65" fill="#D50657"></rect><rect x="151.66666666666669" y="43.135464231354625" height="216.86453576864537" width="65" fill="#049AE6"></rect><rect x="260" y="81.52207001522072" height="178.47792998477928" width="65" fill="#F8C41B"></rect><rect x="368.33333333333337" y="180.45662100456622" height="79.54337899543378" width="65" fill="#32465B"></rect><rect x="476.66666666666674" y="245.35768645357686" height="14.64231354642314" width="65" fill="#E45E42"></rect><text class="labels" style="fill: #444;" x="43.33333333333334" y="19.573820395738203">5 hrs 57 mins</text><text class="labels" style="fill: #444;" x="151.66666666666669" y="23.135464231354625">5 hrs 48 mins</text><text class="labels" style="fill: #444;" x="260" y="61.52207001522072">4 hrs 51 mins</text><text class="labels" style="fill: #444;" x="368.33333333333337" y="160.45662100456622">2 hrs 1 min</text><text class="labels" style="fill: #444;" x="476.66666666666674" y="225.35768645357686">37 mins</text></g></svg>