<svg xmlns="http://www.w3.org/2000/svg" width="875" height="315"><g transform="translate(20, 20)"><g transform="translate(0, 260)" style="font-size: 15px; font-family: monospace; font-weight: 300;" fill="none" font-size="10" font-family="sans-serif" text-anchor="middle"><path class="domain" stroke="currentColor" d="M0.5,6V0.5H835.5V6"></path><g class="tick" opacity="1" transform="translate(78.98648648648646,0)"><line stroke="currentColor" y2="6"></line><text fill="currentColor" y="9" dy="0.71em">JSX</text></g><g class="tick" opacity="1" transform="translate(191.82432432432432,0)"><line stroke="currentColor" y2="6"></line><text fill="currentColor" y="9" dy="0.71em">TypeScript</text></g><g class="tick" opacity="1" transform="translate(304.6621621621622,0)"><line stroke="currentColor" y2="6"></line><text fill="currentColor" y="9" dy="0.71em">LESS</text></g><g class="tick" opacity="1" transform="translate(417.5,0)"><line stroke="currentColor" y2="6"></line><text fill="currentColor" y="9" dy="0.71em">JavaScript</text></g><g class="tick" opacity="1" transform="translate(530.3378378378379,0)"><line stroke="currentColor" y2="6"></line><text fill="currentColor" y="9" dy="0.71em">Text</text></g><g class="tick" opacity="1" transform="translate(643.1756756756757,0)"><line stroke="currentColor" y2="6"></line><text fill="currentColor" y="9" dy="0.71em">JSON</text></g><g class="tick" opacity="1" transform="translate(756.0135135135135,0)"><line stroke="currentColor" y2="6"></line><text fill="currentColor" y="9" dy="0.71em">Docker</text></g></g><rect x="45.1351351351351" y="14.789533560864626" height="245.21046643913536" width="67.70270270270271" fill="#D50657"></rect><rect x="157.97297297297297" y="181.9112627986348" height="78.0887372013652" width="67.70270270270271" fill="#049AE6"></rect><rect x="270.81081081081084" y="227.16723549488054" height="32.83276450511946" width="67.70270270270271" fill="#F8C41B"></rect><rect x="383.64864864864865" y="227.31513083048918" height="32.68486916951082" width="67.70270270270271" fill="#32465B"></rect><rect x="496.4864864864865" y="259.70420932878267" height="0.2957906712173326" width="67.70270270270271" fill="#E45E42"></rect><rect x="609.3243243243244" y="259.70420932878267" height="0.2957906712173326" width="67.70270270270271" fill="#007C5A"></rect><rect x="722.1621621621622" y="259.85210466439133" height="0.1478953356086663" width="67.70270270270271" fill="#FC69FF"></rect><text class="labels" style="fill: #444;" x="45.1351351351351" y="-5.210466439135374">16 hrs 58 mins</text><text class="labels" style="fill: #444;" x="157.97297297297297" y="161.9112627986348">5 hrs 28 mins</text><text class="labels" style="fill: #444;" x="270.81081081081084" y="207.16723549488054">2 hrs 22 mins</text><text class="labels" style="fill: #444;" x="383.64864864864865" y="207.31513083048918">2 hrs 21 mins</text><text class="labels" style="fill: #444;" x="496.4864864864865" y="239.70420932878267">2 mins</text><text class="labels" style="fill: #444;" x="609.3243243243244" y="239.70420932878267">2 mins</text><text class="labels" style="fill: #444;" x="722.1621621621622" y="239.85210466439133">1 min</text></g></svg>