<svg xmlns="http://www.w3.org/2000/svg" width="875" height="315"><g transform="translate(20, 20)"><g transform="translate(0, 260)" style="font-size: 15px; font-family: monospace; font-weight: 300;" fill="none" font-size="10" font-family="sans-serif" text-anchor="middle"><path class="domain" stroke="currentColor" d="M0.5,6V0.5H835.5V6"></path><g class="tick" opacity="1" transform="translate(78.98648648648646,0)"><line stroke="currentColor" y2="6"></line><text fill="currentColor" y="9" dy="0.71em">TypeScript</text></g><g class="tick" opacity="1" transform="translate(191.82432432432432,0)"><line stroke="currentColor" y2="6"></line><text fill="currentColor" y="9" dy="0.71em">JavaScript</text></g><g class="tick" opacity="1" transform="translate(304.6621621621622,0)"><line stroke="currentColor" y2="6"></line><text fill="currentColor" y="9" dy="0.71em">JSX</text></g><g class="tick" opacity="1" transform="translate(417.5,0)"><line stroke="currentColor" y2="6"></line><text fill="currentColor" y="9" dy="0.71em">JSON</text></g><g class="tick" opacity="1" transform="translate(530.3378378378379,0)"><line stroke="currentColor" y2="6"></line><text fill="currentColor" y="9" dy="0.71em">CSS</text></g><g class="tick" opacity="1" transform="translate(643.1756756756757,0)"><line stroke="currentColor" y2="6"></line><text fill="currentColor" y="9" dy="0.71em">Git Config</text></g><g class="tick" opacity="1" transform="translate(756.0135135135135,0)"><line stroke="currentColor" y2="6"></line><text fill="currentColor" y="9" dy="0.71em">YAML</text></g></g><rect x="45.1351351351351" y="19.69696969696971" height="240.30303030303028" width="67.70270270270271" fill="#D50657"></rect><rect x="157.97297297297297" y="220.60606060606062" height="39.39393939393938" width="67.70270270270271" fill="#049AE6"></rect><rect x="270.81081081081084" y="257.43939393939394" height="2.5606060606060623" width="67.70270270270271" fill="#F8C41B"></rect><rect x="383.64864864864865" y="257.8333333333333" height="2.1666666666666856" width="67.70270270270271" fill="#32465B"></rect><rect x="496.4864864864865" y="259.2121212121212" height="0.7878787878788103" width="67.70270270270271" fill="#E45E42"></rect><rect x="609.3243243243244" y="259.6060606060606" height="0.3939393939393767" width="67.70270270270271" fill="#007C5A"></rect><rect x="722.1621621621622" y="259.8030303030303" height="0.19696969696968836" width="67.70270270270271" fill="#FC69FF"></rect><text class="labels" style="fill: #444;" x="45.1351351351351" y="-0.3030303030302903">12 hrs 20 mins</text><text class="labels" style="fill: #444;" x="157.97297297297297" y="200.60606060606062">2 hrs</text><text class="labels" style="fill: #444;" x="270.81081081081084" y="237.43939393939394">13 mins</text><text class="labels" style="fill: #444;" x="383.64864864864865" y="237.83333333333331">11 mins</text><text class="labels" style="fill: #444;" x="496.4864864864865" y="239.2121212121212">4 mins</text><text class="labels" style="fill: #444;" x="609.3243243243244" y="239.60606060606062">2 mins</text><text class="labels" style="fill: #444;" x="722.1621621621622" y="239.8030303030303">1 min</text></g></svg>