<svg xmlns="http://www.w3.org/2000/svg" width="625" height="315"><g transform="translate(20, 20)"><g transform="translate(0, 260)" style="font-size: 15px; font-family: monospace; font-weight: 300;" fill="none" font-size="10" font-family="sans-serif" text-anchor="middle"><path class="domain" stroke="currentColor" d="M0.5,6V0.5H585.5V6"></path><g class="tick" opacity="1" transform="translate(75.83333333333334,0)"><line stroke="currentColor" y2="6"></line><text fill="currentColor" y="9" dy="0.71em">JSX</text></g><g class="tick" opacity="1" transform="translate(184.16666666666669,0)"><line stroke="currentColor" y2="6"></line><text fill="currentColor" y="9" dy="0.71em">TypeScript</text></g><g class="tick" opacity="1" transform="translate(292.5,0)"><line stroke="currentColor" y2="6"></line><text fill="currentColor" y="9" dy="0.71em">JavaScript</text></g><g class="tick" opacity="1" transform="translate(400.83333333333337,0)"><line stroke="currentColor" y2="6"></line><text fill="currentColor" y="9" dy="0.71em">LESS</text></g><g class="tick" opacity="1" transform="translate(509.16666666666674,0)"><line stroke="currentColor" y2="6"></line><text fill="currentColor" y="9" dy="0.71em">JSON</text></g></g><rect x="43.33333333333334" y="18.232819074333815" height="241.7671809256662" width="65" fill="#D50657"></rect><rect x="151.66666666666669" y="195.09116409537165" height="64.90883590462835" width="65" fill="#049AE6"></rect><rect x="260" y="198.19074333800842" height="61.80925666199158" width="65" fill="#F8C41B"></rect><rect x="368.33333333333337" y="256.1711079943899" height="3.8288920056101006" width="65" fill="#32465B"></rect><rect x="476.66666666666674" y="258.54137447405327" height="1.4586255259467293" width="65" fill="#E45E42"></rect><text class="labels" style="fill: #444;" x="43.33333333333334" y="-1.7671809256661852">13 hrs 26 mins</text><text class="labels" style="fill: #444;" x="151.66666666666669" y="175.09116409537165">3 hrs 56 mins</text><text class="labels" style="fill: #444;" x="260" y="178.19074333800842">3 hrs 39 mins</text><text class="labels" style="fill: #444;" x="368.33333333333337" y="236.1711079943899">21 mins</text><text class="labels" style="fill: #444;" x="476.66666666666674" y="238.54137447405327">8 mins</text></g></svg>