<svg xmlns="http://www.w3.org/2000/svg" width="750" height="315"><g transform="translate(20, 20)"><g transform="translate(0, 260)" style="font-size: 15px; font-family: monospace; font-weight: 300;" fill="none" font-size="10" font-family="sans-serif" text-anchor="middle"><path class="domain" stroke="currentColor" d="M0.5,6V0.5H710.5V6"></path><g class="tick" opacity="1" transform="translate(77.65625,0)"><line stroke="currentColor" y2="6"></line><text fill="currentColor" y="9" dy="0.71em">JSX</text></g><g class="tick" opacity="1" transform="translate(188.59375,0)"><line stroke="currentColor" y2="6"></line><text fill="currentColor" y="9" dy="0.71em">CSS</text></g><g class="tick" opacity="1" transform="translate(299.53125,0)"><line stroke="currentColor" y2="6"></line><text fill="currentColor" y="9" dy="0.71em">JavaScript</text></g><g class="tick" opacity="1" transform="translate(410.46875000000006,0)"><line stroke="currentColor" y2="6"></line><text fill="currentColor" y="9" dy="0.71em">LESS</text></g><g class="tick" opacity="1" transform="translate(521.40625,0)"><line stroke="currentColor" y2="6"></line><text fill="currentColor" y="9" dy="0.71em">TypeScript</text></g><g class="tick" opacity="1" transform="translate(632.3437500000001,0)"><line stroke="currentColor" y2="6"></line><text fill="currentColor" y="9" dy="0.71em">JSON</text></g></g><rect x="44.375" y="11.231101511879057" height="248.76889848812095" width="66.5625" fill="#D50657"></rect><rect x="155.3125" y="212.7170626349892" height="47.28293736501081" width="66.5625" fill="#049AE6"></rect><rect x="266.25" y="221.0280777537797" height="38.97192224622029" width="66.5625" fill="#F8C41B"></rect><rect x="377.18750000000006" y="234.61771058315335" height="25.382289416846646" width="66.5625" fill="#32465B"></rect><rect x="488.12500000000006" y="248.3196544276458" height="11.680345572354213" width="66.5625" fill="#E45E42"></rect><rect x="599.0625000000001" y="258.6522678185745" height="1.3477321814254992" width="66.5625" fill="#007C5A"></rect><text class="labels" style="fill: #444;" x="44.375" y="-8.768898488120943">22 hrs 15 mins</text><text class="labels" style="fill: #444;" x="155.3125" y="192.7170626349892">4 hrs 21 mins</text><text class="labels" style="fill: #444;" x="266.25" y="201.0280777537797">3 hrs 47 mins</text><text class="labels" style="fill: #444;" x="377.18750000000006" y="214.61771058315335">2 hrs 26 mins</text><text class="labels" style="fill: #444;" x="488.12500000000006" y="228.3196544276458">1 hr 4 mins</text><text class="labels" style="fill: #444;" x="599.0625000000001" y="238.6522678185745">12 mins</text></g></svg>