<svg xmlns="http://www.w3.org/2000/svg" width="625" height="315"><g transform="translate(20, 20)"><g transform="translate(0, 260)" style="font-size: 15px; font-family: monospace; font-weight: 300;" fill="none" font-size="10" font-family="sans-serif" text-anchor="middle"><path class="domain" stroke="currentColor" d="M0.5,6V0.5H585.5V6"></path><g class="tick" opacity="1" transform="translate(75.83333333333334,0)"><line stroke="currentColor" y2="6"></line><text fill="currentColor" y="9" dy="0.71em">JavaScript</text></g><g class="tick" opacity="1" transform="translate(184.16666666666669,0)"><line stroke="currentColor" y2="6"></line><text fill="currentColor" y="9" dy="0.71em">JSX</text></g><g class="tick" opacity="1" transform="translate(292.5,0)"><line stroke="currentColor" y2="6"></line><text fill="currentColor" y="9" dy="0.71em">TypeScript</text></g><g class="tick" opacity="1" transform="translate(400.83333333333337,0)"><line stroke="currentColor" y2="6"></line><text fill="currentColor" y="9" dy="0.71em">LESS</text></g><g class="tick" opacity="1" transform="translate(509.16666666666674,0)"><line stroke="currentColor" y2="6"></line><text fill="currentColor" y="9" dy="0.71em">JSON</text></g></g><rect x="43.33333333333334" y="23.00884955752213" height="236.99115044247787" width="65" fill="#D50657"></rect><rect x="151.66666666666669" y="66.9557522123894" height="193.0442477876106" width="65" fill="#049AE6"></rect><rect x="260" y="201.32743362831857" height="58.67256637168143" width="65" fill="#F8C41B"></rect><rect x="368.33333333333337" y="247.57522123893807" height="12.42477876106193" width="65" fill="#32465B"></rect><rect x="476.66666666666674" y="259.7699115044248" height="0.2300884955752167" width="65" fill="#E45E42"></rect><text class="labels" style="fill: #444;" x="43.33333333333334" y="3.0088495575221295">10 hrs 30 mins</text><text class="labels" style="fill: #444;" x="151.66666666666669" y="46.9557522123894">8 hrs 39 mins</text><text class="labels" style="fill: #444;" x="260" y="181.32743362831857">2 hrs 55 mins</text><text class="labels" style="fill: #444;" x="368.33333333333337" y="227.57522123893807">54 mins</text><text class="labels" style="fill: #444;" x="476.66666666666674" y="239.76991150442478">1 min</text></g></svg>