<svg xmlns="http://www.w3.org/2000/svg" width="625" height="315"><g transform="translate(20, 20)"><g transform="translate(0, 260)" style="font-size: 15px; font-family: monospace; font-weight: 300;" fill="none" font-size="10" font-family="sans-serif" text-anchor="middle"><path class="domain" stroke="currentColor" d="M0.5,6V0.5H585.5V6"></path><g class="tick" opacity="1" transform="translate(75.83333333333334,0)"><line stroke="currentColor" y2="6"></line><text fill="currentColor" y="9" dy="0.71em">JavaScript</text></g><g class="tick" opacity="1" transform="translate(184.16666666666669,0)"><line stroke="currentColor" y2="6"></line><text fill="currentColor" y="9" dy="0.71em">JSX</text></g><g class="tick" opacity="1" transform="translate(292.5,0)"><line stroke="currentColor" y2="6"></line><text fill="currentColor" y="9" dy="0.71em">TypeScript</text></g><g class="tick" opacity="1" transform="translate(400.83333333333337,0)"><line stroke="currentColor" y2="6"></line><text fill="currentColor" y="9" dy="0.71em">JSON</text></g><g class="tick" opacity="1" transform="translate(509.16666666666674,0)"><line stroke="currentColor" y2="6"></line><text fill="currentColor" y="9" dy="0.71em">LESS</text></g></g><rect x="43.33333333333334" y="24.551463644948054" height="235.44853635505194" width="65" fill="#D50657"></rect><rect x="151.66666666666669" y="133.80547686496695" height="126.19452313503305" width="65" fill="#049AE6"></rect><rect x="260" y="150.99150141643057" height="109.00849858356943" width="65" fill="#F8C41B"></rect><rect x="368.33333333333337" y="258.52691218130315" height="1.473087818696854" width="65" fill="#32465B"></rect><rect x="476.66666666666674" y="259.50897072710103" height="0.49102927289897025" width="65" fill="#E45E42"></rect><text class="labels" style="fill: #444;" x="43.33333333333334" y="4.551463644948054">9 hrs 59 mins</text><text class="labels" style="fill: #444;" x="151.66666666666669" y="113.80547686496695">5 hrs 14 mins</text><text class="labels" style="fill: #444;" x="260" y="130.99150141643057">4 hrs 44 mins</text><text class="labels" style="fill: #444;" x="368.33333333333337" y="238.52691218130315">6 mins</text><text class="labels" style="fill: #444;" x="476.66666666666674" y="239.50897072710103">2 mins</text></g></svg>