<svg xmlns="http://www.w3.org/2000/svg" width="625" height="315"><g transform="translate(20, 20)"><g transform="translate(0, 260)" style="font-size: 15px; font-family: monospace; font-weight: 300;" fill="none" font-size="10" font-family="sans-serif" text-anchor="middle"><path class="domain" stroke="currentColor" d="M0.5,6V0.5H585.5V6"></path><g class="tick" opacity="1" transform="translate(75.83333333333334,0)"><line stroke="currentColor" y2="6"></line><text fill="currentColor" y="9" dy="0.71em">TypeScript</text></g><g class="tick" opacity="1" transform="translate(184.16666666666669,0)"><line stroke="currentColor" y2="6"></line><text fill="currentColor" y="9" dy="0.71em">JSX</text></g><g class="tick" opacity="1" transform="translate(292.5,0)"><line stroke="currentColor" y2="6"></line><text fill="currentColor" y="9" dy="0.71em">JavaScript</text></g><g class="tick" opacity="1" transform="translate(400.83333333333337,0)"><line stroke="currentColor" y2="6"></line><text fill="currentColor" y="9" dy="0.71em">LESS</text></g><g class="tick" opacity="1" transform="translate(509.16666666666674,0)"><line stroke="currentColor" y2="6"></line><text fill="currentColor" y="9" dy="0.71em">JSON</text></g></g><rect x="43.33333333333334" y="48.059149722735675" height="211.94085027726433" width="65" fill="#D50657"></rect><rect x="151.66666666666669" y="60.55452865064694" height="199.44547134935306" width="65" fill="#049AE6"></rect><rect x="260" y="100.44362292051756" height="159.55637707948244" width="65" fill="#F8C41B"></rect><rect x="368.33333333333337" y="163.4011090573013" height="96.59889094269869" width="65" fill="#32465B"></rect><rect x="476.66666666666674" y="251.82994454713494" height="8.170055452865057" width="65" fill="#E45E42"></rect><text class="labels" style="fill: #444;" x="43.33333333333334" y="28.059149722735675">4 hrs 41 mins</text><text class="labels" style="fill: #444;" x="151.66666666666669" y="40.55452865064694">4 hrs 15 mins</text><text class="labels" style="fill: #444;" x="260" y="80.44362292051756">3 hrs 32 mins</text><text class="labels" style="fill: #444;" x="368.33333333333337" y="143.4011090573013">2 hrs 1 min</text><text class="labels" style="fill: #444;" x="476.66666666666674" y="231.82994454713494">17 mins</text></g></svg>