<svg xmlns="http://www.w3.org/2000/svg" width="750" height="315"><g transform="translate(20, 20)"><g transform="translate(0, 260)" style="font-size: 15px; font-family: monospace; font-weight: 300;" fill="none" font-size="10" font-family="sans-serif" text-anchor="middle"><path class="domain" stroke="currentColor" d="M0.5,6V0.5H710.5V6"></path><g class="tick" opacity="1" transform="translate(77.65625,0)"><line stroke="currentColor" y2="6"></line><text fill="currentColor" y="9" dy="0.71em">JSX</text></g><g class="tick" opacity="1" transform="translate(188.59375,0)"><line stroke="currentColor" y2="6"></line><text fill="currentColor" y="9" dy="0.71em">JavaScript</text></g><g class="tick" opacity="1" transform="translate(299.53125,0)"><line stroke="currentColor" y2="6"></line><text fill="currentColor" y="9" dy="0.71em">TypeScript</text></g><g class="tick" opacity="1" transform="translate(410.46875000000006,0)"><line stroke="currentColor" y2="6"></line><text fill="currentColor" y="9" dy="0.71em">JSON</text></g><g class="tick" opacity="1" transform="translate(521.40625,0)"><line stroke="currentColor" y2="6"></line><text fill="currentColor" y="9" dy="0.71em">LESS</text></g><g class="tick" opacity="1" transform="translate(632.3437500000001,0)"><line stroke="currentColor" y2="6"></line><text fill="currentColor" y="9" dy="0.71em">CSS</text></g></g><rect x="44.375" y="15.160349854227398" height="244.8396501457726" width="66.5625" fill="#D50657"></rect><rect x="155.3125" y="120.22157434402331" height="139.7784256559767" width="66.5625" fill="#049AE6"></rect><rect x="266.25" y="252.72303206997083" height="7.276967930029173" width="66.5625" fill="#F8C41B"></rect><rect x="377.18750000000006" y="252.87463556851313" height="7.125364431486872" width="66.5625" fill="#32465B"></rect><rect x="488.12500000000006" y="254.84548104956266" height="5.154518950437335" width="66.5625" fill="#E45E42"></rect><rect x="599.0625000000001" y="258.9387755102041" height="1.0612244897959044" width="66.5625" fill="#007C5A"></rect><text class="labels" style="fill: #444;" x="44.375" y="-4.839650145772602">16 hrs 15 mins</text><text class="labels" style="fill: #444;" x="155.3125" y="100.22157434402331">9 hrs 22 mins</text><text class="labels" style="fill: #444;" x="266.25" y="232.72303206997083">48 mins</text><text class="labels" style="fill: #444;" x="377.18750000000006" y="232.87463556851313">47 mins</text><text class="labels" style="fill: #444;" x="488.12500000000006" y="234.84548104956266">34 mins</text><text class="labels" style="fill: #444;" x="599.0625000000001" y="238.9387755102041">7 mins</text></g></svg>