<svg xmlns="http://www.w3.org/2000/svg" width="750" height="315"><g transform="translate(20, 20)"><g transform="translate(0, 260)" style="font-size: 15px; font-family: monospace; font-weight: 300;" fill="none" font-size="10" font-family="sans-serif" text-anchor="middle"><path class="domain" stroke="currentColor" d="M0.5,6V0.5H710.5V6"></path><g class="tick" opacity="1" transform="translate(77.65625,0)"><line stroke="currentColor" y2="6"></line><text fill="currentColor" y="9" dy="0.71em">TypeScript</text></g><g class="tick" opacity="1" transform="translate(188.59375,0)"><line stroke="currentColor" y2="6"></line><text fill="currentColor" y="9" dy="0.71em">Text</text></g><g class="tick" opacity="1" transform="translate(299.53125,0)"><line stroke="currentColor" y2="6"></line><text fill="currentColor" y="9" dy="0.71em">JavaScript</text></g><g class="tick" opacity="1" transform="translate(410.46875000000006,0)"><line stroke="currentColor" y2="6"></line><text fill="currentColor" y="9" dy="0.71em">CSS</text></g><g class="tick" opacity="1" transform="translate(521.40625,0)"><line stroke="currentColor" y2="6"></line><text fill="currentColor" y="9" dy="0.71em">Markdown</text></g><g class="tick" opacity="1" transform="translate(632.3437500000001,0)"><line stroke="currentColor" y2="6"></line><text fill="currentColor" y="9" dy="0.71em">JSON</text></g></g><rect x="44.375" y="4.782048924038998" height="255.217951075961" width="66.5625" fill="#D50657"></rect><rect x="155.3125" y="258.039359941144" height="1.9606400588559723" width="66.5625" fill="#049AE6"></rect><rect x="266.25" y="259.18705168291336" height="0.8129483170866365" width="66.5625" fill="#F8C41B"></rect><rect x="377.18750000000006" y="259.23487217215376" height="0.7651278278462428" width="66.5625" fill="#32465B"></rect><rect x="488.12500000000006" y="259.4739746183557" height="0.5260253816442741" width="66.5625" fill="#E45E42"></rect><rect x="599.0625000000001" y="259.9043590215192" height="0.09564097848078745" width="66.5625" fill="#007C5A"></rect><text class="labels" style="fill: #444;" x="44.375" y="-15.217951075961002">53 hrs 37 mins</text><text class="labels" style="fill: #444;" x="155.3125" y="238.03935994114403">41 mins</text><text class="labels" style="fill: #444;" x="266.25" y="239.18705168291336">17 mins</text><text class="labels" style="fill: #444;" x="377.18750000000006" y="239.23487217215376">16 mins</text><text class="labels" style="fill: #444;" x="488.12500000000006" y="239.47397461835573">11 mins</text><text class="labels" style="fill: #444;" x="599.0625000000001" y="239.9043590215192">2 mins</text></g></svg>