<svg xmlns="http://www.w3.org/2000/svg" width="1125" height="315"><g transform="translate(20, 20)"><g transform="translate(0, 260)" style="font-size: 15px; font-family: monospace; font-weight: 300;" fill="none" font-size="10" font-family="sans-serif" text-anchor="middle"><path class="domain" stroke="currentColor" d="M0.5,6V0.5H1085.5V6"></path><g class="tick" opacity="1" transform="translate(80.79787234042558,0)"><line stroke="currentColor" y2="6"></line><text fill="currentColor" y="9" dy="0.71em">TypeScript</text></g><g class="tick" opacity="1" transform="translate(196.2234042553192,0)"><line stroke="currentColor" y2="6"></line><text fill="currentColor" y="9" dy="0.71em">JSX</text></g><g class="tick" opacity="1" transform="translate(311.6489361702128,0)"><line stroke="currentColor" y2="6"></line><text fill="currentColor" y="9" dy="0.71em">JavaScript</text></g><g class="tick" opacity="1" transform="translate(427.07446808510645,0)"><line stroke="currentColor" y2="6"></line><text fill="currentColor" y="9" dy="0.71em">HTML</text></g><g class="tick" opacity="1" transform="translate(542.5,0)"><line stroke="currentColor" y2="6"></line><text fill="currentColor" y="9" dy="0.71em">Text</text></g><g class="tick" opacity="1" transform="translate(657.9255319148937,0)"><line stroke="currentColor" y2="6"></line><text fill="currentColor" y="9" dy="0.71em">JSON</text></g><g class="tick" opacity="1" transform="translate(773.3510638297872,0)"><line stroke="currentColor" y2="6"></line><text fill="currentColor" y="9" dy="0.71em">YAML</text></g><g class="tick" opacity="1" transform="translate(888.776595744681,0)"><line stroke="currentColor" y2="6"></line><text fill="currentColor" y="9" dy="0.71em">Docker</text></g><g class="tick" opacity="1" transform="translate(1004.2021276595746,0)"><line stroke="currentColor" y2="6"></line><text fill="currentColor" y="9" dy="0.71em">CSS</text></g></g><rect x="46.1702127659575" y="14.86563750714694" height="245.13436249285306" width="69.25531914893617" fill="#D50657"></rect><rect x="161.5957446808511" y="76.7066895368782" height="183.2933104631218" width="69.25531914893617" fill="#049AE6"></rect><rect x="277.0212765957447" y="193.8479130931961" height="66.1520869068039" width="69.25531914893617" fill="#F8C41B"></rect><rect x="392.44680851063833" y="253.60777587192683" height="6.392224128073167" width="69.25531914893617" fill="#32465B"></rect><rect x="507.87234042553195" y="256.1349342481418" height="3.8650657518581966" width="69.25531914893617" fill="#E45E42"></rect><rect x="623.2978723404256" y="256.4322469982847" height="3.567753001715289" width="69.25531914893617" fill="#007C5A"></rect><rect x="738.7234042553191" y="257.17552887364207" height="2.8244711263579347" width="69.25531914893617" fill="#FC69FF"></rect><rect x="854.1489361702129" y="257.77015437392794" height="2.2298456260720627" width="69.25531914893617" fill="#3EC6CF"></rect><rect x="969.5744680851064" y="259.8513436249285" height="0.14865637507148222" width="69.25531914893617" fill="#620A79"></rect><text class="labels" style="fill: #444;" x="46.1702127659575" y="-5.134362492853059">16 hrs 49 mins</text><text class="labels" style="fill: #444;" x="161.5957446808511" y="56.7066895368782">12 hrs 33 mins</text><text class="labels" style="fill: #444;" x="277.0212765957447" y="173.8479130931961">4 hrs 45 mins</text><text class="labels" style="fill: #444;" x="392.44680851063833" y="233.60777587192683">43 mins</text><text class="labels" style="fill: #444;" x="507.87234042553195" y="236.1349342481418">26 mins</text><text class="labels" style="fill: #444;" x="623.2978723404256" y="236.4322469982847">24 mins</text><text class="labels" style="fill: #444;" x="738.7234042553191" y="237.17552887364207">19 mins</text><text class="labels" style="fill: #444;" x="854.1489361702129" y="237.77015437392794">15 mins</text><text class="labels" style="fill: #444;" x="969.5744680851064" y="239.85134362492852">1 min</text></g></svg>