<svg xmlns="http://www.w3.org/2000/svg" width="750" height="315"><g transform="translate(20, 20)"><g transform="translate(0, 260)" style="font-size: 15px; font-family: monospace; font-weight: 300;" fill="none" font-size="10" font-family="sans-serif" text-anchor="middle"><path class="domain" stroke="currentColor" d="M0.5,6V0.5H710.5V6"></path><g class="tick" opacity="1" transform="translate(77.65625,0)"><line stroke="currentColor" y2="6"></line><text fill="currentColor" y="9" dy="0.71em">TypeScript</text></g><g class="tick" opacity="1" transform="translate(188.59375,0)"><line stroke="currentColor" y2="6"></line><text fill="currentColor" y="9" dy="0.71em">JSX</text></g><g class="tick" opacity="1" transform="translate(299.53125,0)"><line stroke="currentColor" y2="6"></line><text fill="currentColor" y="9" dy="0.71em">JavaScript</text></g><g class="tick" opacity="1" transform="translate(410.46875000000006,0)"><line stroke="currentColor" y2="6"></line><text fill="currentColor" y="9" dy="0.71em">LESS</text></g><g class="tick" opacity="1" transform="translate(521.40625,0)"><line stroke="currentColor" y2="6"></line><text fill="currentColor" y="9" dy="0.71em">Markdown</text></g><g class="tick" opacity="1" transform="translate(632.3437500000001,0)"><line stroke="currentColor" y2="6"></line><text fill="currentColor" y="9" dy="0.71em">JSON</text></g></g><rect x="44.375" y="14.97695852534563" height="245.02304147465438" width="66.5625" fill="#D50657"></rect><rect x="155.3125" y="136.14055299539172" height="123.85944700460828" width="66.5625" fill="#049AE6"></rect><rect x="266.25" y="197.99539170506912" height="62.004608294930875" width="66.5625" fill="#F8C41B"></rect><rect x="377.18750000000006" y="254.6082949308756" height="5.391705069124413" width="66.5625" fill="#32465B"></rect><rect x="488.12500000000006" y="259.55069124423966" height="0.4493087557603417" width="66.5625" fill="#E45E42"></rect><rect x="599.0625000000001" y="259.85023041474653" height="0.14976958525346618" width="66.5625" fill="#007C5A"></rect><text class="labels" style="fill: #444;" x="44.375" y="-5.02304147465437">16 hrs 36 mins</text><text class="labels" style="fill: #444;" x="155.3125" y="116.14055299539172">8 hrs 27 mins</text><text class="labels" style="fill: #444;" x="266.25" y="177.99539170506912">4 hrs 14 mins</text><text class="labels" style="fill: #444;" x="377.18750000000006" y="234.6082949308756">36 mins</text><text class="labels" style="fill: #444;" x="488.12500000000006" y="239.55069124423966">3 mins</text><text class="labels" style="fill: #444;" x="599.0625000000001" y="239.85023041474653">1 min</text></g></svg>