<svg xmlns="http://www.w3.org/2000/svg" width="1125" height="315"><g transform="translate(20, 20)"><g transform="translate(0, 260)" style="font-size: 15px; font-family: monospace; font-weight: 300;" fill="none" font-size="10" font-family="sans-serif" text-anchor="middle"><path class="domain" stroke="currentColor" d="M0.5,6V0.5H1085.5V6"></path><g class="tick" opacity="1" transform="translate(80.79787234042558,0)"><line stroke="currentColor" y2="6"></line><text fill="currentColor" y="9" dy="0.71em">JavaScript</text></g><g class="tick" opacity="1" transform="translate(196.2234042553192,0)"><line stroke="currentColor" y2="6"></line><text fill="currentColor" y="9" dy="0.71em">Dart</text></g><g class="tick" opacity="1" transform="translate(311.6489361702128,0)"><line stroke="currentColor" y2="6"></line><text fill="currentColor" y="9" dy="0.71em">JSX</text></g><g class="tick" opacity="1" transform="translate(427.07446808510645,0)"><line stroke="currentColor" y2="6"></line><text fill="currentColor" y="9" dy="0.71em">TypeScript</text></g><g class="tick" opacity="1" transform="translate(542.5,0)"><line stroke="currentColor" y2="6"></line><text fill="currentColor" y="9" dy="0.71em">JSON</text></g><g class="tick" opacity="1" transform="translate(657.9255319148937,0)"><line stroke="currentColor" y2="6"></line><text fill="currentColor" y="9" dy="0.71em">Java</text></g><g class="tick" opacity="1" transform="translate(773.3510638297872,0)"><line stroke="currentColor" y2="6"></line><text fill="currentColor" y="9" dy="0.71em">Properties</text></g><g class="tick" opacity="1" transform="translate(888.776595744681,0)"><line stroke="currentColor" y2="6"></line><text fill="currentColor" y="9" dy="0.71em">XML</text></g><g class="tick" opacity="1" transform="translate(1004.2021276595746,0)"><line stroke="currentColor" y2="6"></line><text fill="currentColor" y="9" dy="0.71em">Groovy</text></g></g><rect x="46.1702127659575" y="22.471910112359538" height="237.52808988764048" width="69.25531914893617" fill="#D50657"></rect><rect x="161.5957446808511" y="182.02247191011236" height="77.97752808988764" width="69.25531914893617" fill="#049AE6"></rect><rect x="277.0212765957447" y="230.561797752809" height="29.438202247190986" width="69.25531914893617" fill="#F8C41B"></rect><rect x="392.44680851063833" y="247.19101123595505" height="12.808988764044955" width="69.25531914893617" fill="#32465B"></rect><rect x="507.87234042553195" y="255.7303370786517" height="4.269662921348299" width="69.25531914893617" fill="#E45E42"></rect><rect x="623.2978723404256" y="259.3258426966292" height="0.674157303370805" width="69.25531914893617" fill="#007C5A"></rect><rect x="738.7234042553191" y="259.3258426966292" height="0.674157303370805" width="69.25531914893617" fill="#FC69FF"></rect><rect x="854.1489361702129" y="259.7752808988764" height="0.22471910112358273" width="69.25531914893617" fill="#3EC6CF"></rect><rect x="969.5744680851064" y="259.7752808988764" height="0.22471910112358273" width="69.25531914893617" fill="#620A79"></rect><text class="labels" style="fill: #444;" x="46.1702127659575" y="2.471910112359538">10 hrs 57 mins</text><text class="labels" style="fill: #444;" x="161.5957446808511" y="162.02247191011236">3 hrs 47 mins</text><text class="labels" style="fill: #444;" x="277.0212765957447" y="210.561797752809">1 hr 31 mins</text><text class="labels" style="fill: #444;" x="392.44680851063833" y="227.19101123595505">57 mins</text><text class="labels" style="fill: #444;" x="507.87234042553195" y="235.7303370786517">19 mins</text><text class="labels" style="fill: #444;" x="623.2978723404256" y="239.3258426966292">3 mins</text><text class="labels" style="fill: #444;" x="738.7234042553191" y="239.3258426966292">3 mins</text><text class="labels" style="fill: #444;" x="854.1489361702129" y="239.77528089887642">1 min</text><text class="labels" style="fill: #444;" x="969.5744680851064" y="239.77528089887642">1 min</text></g></svg>