<svg xmlns="http://www.w3.org/2000/svg" width="875" height="315"><g transform="translate(20, 20)"><g transform="translate(0, 260)" style="font-size: 15px; font-family: monospace; font-weight: 300;" fill="none" font-size="10" font-family="sans-serif" text-anchor="middle"><path class="domain" stroke="currentColor" d="M0.5,6V0.5H835.5V6"></path><g class="tick" opacity="1" transform="translate(78.98648648648646,0)"><line stroke="currentColor" y2="6"></line><text fill="currentColor" y="9" dy="0.71em">JavaScript</text></g><g class="tick" opacity="1" transform="translate(191.82432432432432,0)"><line stroke="currentColor" y2="6"></line><text fill="currentColor" y="9" dy="0.71em">TypeScript</text></g><g class="tick" opacity="1" transform="translate(304.6621621621622,0)"><line stroke="currentColor" y2="6"></line><text fill="currentColor" y="9" dy="0.71em">JSX</text></g><g class="tick" opacity="1" transform="translate(417.5,0)"><line stroke="currentColor" y2="6"></line><text fill="currentColor" y="9" dy="0.71em">JSON</text></g><g class="tick" opacity="1" transform="translate(530.3378378378379,0)"><line stroke="currentColor" y2="6"></line><text fill="currentColor" y="9" dy="0.71em">Dart</text></g><g class="tick" opacity="1" transform="translate(643.1756756756757,0)"><line stroke="currentColor" y2="6"></line><text fill="currentColor" y="9" dy="0.71em">Bash</text></g><g class="tick" opacity="1" transform="translate(756.0135135135135,0)"><line stroke="currentColor" y2="6"></line><text fill="currentColor" y="9" dy="0.71em">Properties</text></g></g><rect x="45.1351351351351" y="28.35332606324974" height="231.64667393675026" width="67.70270270270271" fill="#D50657"></rect><rect x="157.97297297297297" y="195.0708833151581" height="64.92911668484189" width="67.70270270270271" fill="#049AE6"></rect><rect x="270.81081081081084" y="219.7382769901854" height="40.2617230098146" width="67.70270270270271" fill="#F8C41B"></rect><rect x="383.64864864864865" y="254.04580152671755" height="5.954198473282446" width="67.70270270270271" fill="#32465B"></rect><rect x="496.4864864864865" y="258.5823336968375" height="1.4176663031624912" width="67.70270270270271" fill="#E45E42"></rect><rect x="609.3243243243244" y="258.86586695747" height="1.1341330425299816" width="67.70270270270271" fill="#007C5A"></rect><rect x="722.1621621621622" y="259.7164667393675" height="0.2835332606325096" width="67.70270270270271" fill="#FC69FF"></rect><text class="labels" style="fill: #444;" x="45.1351351351351" y="8.353326063249739">8 hrs 17 mins</text><text class="labels" style="fill: #444;" x="157.97297297297297" y="175.0708833151581">2 hrs 29 mins</text><text class="labels" style="fill: #444;" x="270.81081081081084" y="199.7382769901854">1 hr 42 mins</text><text class="labels" style="fill: #444;" x="383.64864864864865" y="234.04580152671755">21 mins</text><text class="labels" style="fill: #444;" x="496.4864864864865" y="238.5823336968375">5 mins</text><text class="labels" style="fill: #444;" x="609.3243243243244" y="238.86586695747002">4 mins</text><text class="labels" style="fill: #444;" x="722.1621621621622" y="239.7164667393675">1 min</text></g></svg>