<svg xmlns="http://www.w3.org/2000/svg" width="625" height="315"><g transform="translate(20, 20)"><g transform="translate(0, 260)" style="font-size: 15px; font-family: monospace; font-weight: 300;" fill="none" font-size="10" font-family="sans-serif" text-anchor="middle"><path class="domain" stroke="currentColor" d="M0.5,6V0.5H585.5V6"></path><g class="tick" opacity="1" transform="translate(75.83333333333334,0)"><line stroke="currentColor" y2="6"></line><text fill="currentColor" y="9" dy="0.71em">JSX</text></g><g class="tick" opacity="1" transform="translate(184.16666666666669,0)"><line stroke="currentColor" y2="6"></line><text fill="currentColor" y="9" dy="0.71em">TypeScript</text></g><g class="tick" opacity="1" transform="translate(292.5,0)"><line stroke="currentColor" y2="6"></line><text fill="currentColor" y="9" dy="0.71em">JavaScript</text></g><g class="tick" opacity="1" transform="translate(400.83333333333337,0)"><line stroke="currentColor" y2="6"></line><text fill="currentColor" y="9" dy="0.71em">YAML</text></g><g class="tick" opacity="1" transform="translate(509.16666666666674,0)"><line stroke="currentColor" y2="6"></line><text fill="currentColor" y="9" dy="0.71em">HTML</text></g></g><rect x="43.33333333333334" y="30.73286052009458" height="229.2671394799054" width="65" fill="#D50657"></rect><rect x="151.66666666666669" y="212.36406619385343" height="47.63593380614657" width="65" fill="#049AE6"></rect><rect x="260" y="218.51063829787236" height="41.48936170212764" width="65" fill="#F8C41B"></rect><rect x="368.33333333333337" y="258.1560283687943" height="1.8439716312057044" width="65" fill="#32465B"></rect><rect x="476.66666666666674" y="258.4633569739953" height="1.5366430260046968" width="65" fill="#E45E42"></rect><text class="labels" style="fill: #444;" x="43.33333333333334" y="10.73286052009458">7 hrs 46 mins</text><text class="labels" style="fill: #444;" x="151.66666666666669" y="192.36406619385343">1 hr 55 mins</text><text class="labels" style="fill: #444;" x="260" y="198.51063829787236">1 hr 35 mins</text><text class="labels" style="fill: #444;" x="368.33333333333337" y="238.1560283687943">6 mins</text><text class="labels" style="fill: #444;" x="476.66666666666674" y="238.4633569739953">5 mins</text></g></svg>