<svg xmlns="http://www.w3.org/2000/svg" width="750" height="315"><g transform="translate(20, 20)"><g transform="translate(0, 260)" style="font-size: 15px; font-family: monospace; font-weight: 300;" fill="none" font-size="10" font-family="sans-serif" text-anchor="middle"><path class="domain" stroke="currentColor" d="M0.5,6V0.5H710.5V6"></path><g class="tick" opacity="1" transform="translate(77.65625,0)"><line stroke="currentColor" y2="6"></line><text fill="currentColor" y="9" dy="0.71em">JavaScript</text></g><g class="tick" opacity="1" transform="translate(188.59375,0)"><line stroke="currentColor" y2="6"></line><text fill="currentColor" y="9" dy="0.71em">JSX</text></g><g class="tick" opacity="1" transform="translate(299.53125,0)"><line stroke="currentColor" y2="6"></line><text fill="currentColor" y="9" dy="0.71em">Dart</text></g><g class="tick" opacity="1" transform="translate(410.46875000000006,0)"><line stroke="currentColor" y2="6"></line><text fill="currentColor" y="9" dy="0.71em">XML</text></g><g class="tick" opacity="1" transform="translate(521.40625,0)"><line stroke="currentColor" y2="6"></line><text fill="currentColor" y="9" dy="0.71em">YAML</text></g><g class="tick" opacity="1" transform="translate(632.3437500000001,0)"><line stroke="currentColor" y2="6"></line><text fill="currentColor" y="9" dy="0.71em">Git Config</text></g></g><rect x="44.375" y="50.682261208576996" height="209.317738791423" width="66.5625" fill="#D50657"></rect><rect x="155.3125" y="99.33723196881091" height="160.6627680311891" width="66.5625" fill="#049AE6"></rect><rect x="266.25" y="256.9590643274854" height="3.0409356725145926" width="66.5625" fill="#F8C41B"></rect><rect x="377.18750000000006" y="258.4795321637427" height="1.5204678362572963" width="66.5625" fill="#32465B"></rect><rect x="488.12500000000006" y="259.4931773879142" height="0.5068226120857844" width="66.5625" fill="#E45E42"></rect><rect x="599.0625000000001" y="259.4931773879142" height="0.5068226120857844" width="66.5625" fill="#007C5A"></rect><text class="labels" style="fill: #444;" x="44.375" y="30.682261208576996">4 hrs 13 mins</text><text class="labels" style="fill: #444;" x="155.3125" y="79.33723196881091">3 hrs 17 mins</text><text class="labels" style="fill: #444;" x="266.25" y="236.9590643274854">6 mins</text><text class="labels" style="fill: #444;" x="377.18750000000006" y="238.4795321637427">3 mins</text><text class="labels" style="fill: #444;" x="488.12500000000006" y="239.49317738791422">1 min</text><text class="labels" style="fill: #444;" x="599.0625000000001" y="239.49317738791422">1 min</text></g></svg>