<svg xmlns="http://www.w3.org/2000/svg" width="750" height="315"><g transform="translate(20, 20)"><g transform="translate(0, 260)" style="font-size: 15px; font-family: monospace; font-weight: 300;" fill="none" font-size="10" font-family="sans-serif" text-anchor="middle"><path class="domain" stroke="currentColor" d="M0.5,6V0.5H710.5V6"></path><g class="tick" opacity="1" transform="translate(77.65625,0)"><line stroke="currentColor" y2="6"></line><text fill="currentColor" y="9" dy="0.71em">JSX</text></g><g class="tick" opacity="1" transform="translate(188.59375,0)"><line stroke="currentColor" y2="6"></line><text fill="currentColor" y="9" dy="0.71em">JavaScript</text></g><g class="tick" opacity="1" transform="translate(299.53125,0)"><line stroke="currentColor" y2="6"></line><text fill="currentColor" y="9" dy="0.71em">CSS</text></g><g class="tick" opacity="1" transform="translate(410.46875000000006,0)"><line stroke="currentColor" y2="6"></line><text fill="currentColor" y="9" dy="0.71em">LESS</text></g><g class="tick" opacity="1" transform="translate(521.40625,0)"><line stroke="currentColor" y2="6"></line><text fill="currentColor" y="9" dy="0.71em">TypeScript</text></g><g class="tick" opacity="1" transform="translate(632.3437500000001,0)"><line stroke="currentColor" y2="6"></line><text fill="currentColor" y="9" dy="0.71em">JSON</text></g></g><rect x="44.375" y="16.87216093445815" height="243.12783906554185" width="66.5625" fill="#D50657"></rect><rect x="155.3125" y="188.79948085658665" height="71.20051914341335" width="66.5625" fill="#049AE6"></rect><rect x="266.25" y="224.56846203763791" height="35.431537962362086" width="66.5625" fill="#F8C41B"></rect><rect x="377.18750000000006" y="255.44451654769628" height="4.555483452303719" width="66.5625" fill="#32465B"></rect><rect x="488.12500000000006" y="257.4691758598313" height="2.530824140168704" width="66.5625" fill="#E45E42"></rect><rect x="599.0625000000001" y="257.975340687865" height="2.024659312134986" width="66.5625" fill="#007C5A"></rect><text class="labels" style="fill: #444;" x="44.375" y="-3.127839065541849">14 hrs 41 mins</text><text class="labels" style="fill: #444;" x="155.3125" y="168.79948085658665">4 hrs 22 mins</text><text class="labels" style="fill: #444;" x="266.25" y="204.56846203763791">2 hrs 10 mins</text><text class="labels" style="fill: #444;" x="377.18750000000006" y="235.44451654769628">27 mins</text><text class="labels" style="fill: #444;" x="488.12500000000006" y="237.4691758598313">15 mins</text><text class="labels" style="fill: #444;" x="599.0625000000001" y="237.975340687865">12 mins</text></g></svg>