<svg xmlns="http://www.w3.org/2000/svg" width="750" height="315"><g transform="translate(20, 20)"><g transform="translate(0, 260)" style="font-size: 15px; font-family: monospace; font-weight: 300;" fill="none" font-size="10" font-family="sans-serif" text-anchor="middle"><path class="domain" stroke="currentColor" d="M0.5,6V0.5H710.5V6"></path><g class="tick" opacity="1" transform="translate(77.65625,0)"><line stroke="currentColor" y2="6"></line><text fill="currentColor" y="9" dy="0.71em">JSX</text></g><g class="tick" opacity="1" transform="translate(188.59375,0)"><line stroke="currentColor" y2="6"></line><text fill="currentColor" y="9" dy="0.71em">JavaScript</text></g><g class="tick" opacity="1" transform="translate(299.53125,0)"><line stroke="currentColor" y2="6"></line><text fill="currentColor" y="9" dy="0.71em">TypeScript</text></g><g class="tick" opacity="1" transform="translate(410.46875000000006,0)"><line stroke="currentColor" y2="6"></line><text fill="currentColor" y="9" dy="0.71em">JSON</text></g><g class="tick" opacity="1" transform="translate(521.40625,0)"><line stroke="currentColor" y2="6"></line><text fill="currentColor" y="9" dy="0.71em">LESS</text></g><g class="tick" opacity="1" transform="translate(632.3437500000001,0)"><line stroke="currentColor" y2="6"></line><text fill="currentColor" y="9" dy="0.71em">CSS</text></g></g><rect x="44.375" y="15.738498789346238" height="244.26150121065376" width="66.5625" fill="#D50657"></rect><rect x="155.3125" y="80.1089588377724" height="179.8910411622276" width="66.5625" fill="#049AE6"></rect><rect x="266.25" y="237.17917675544794" height="22.82082324455206" width="66.5625" fill="#F8C41B"></rect><rect x="377.18750000000006" y="252.28813559322032" height="7.711864406779682" width="66.5625" fill="#32465B"></rect><rect x="488.12500000000006" y="254.64891041162227" height="5.351089588377732" width="66.5625" fill="#E45E42"></rect><rect x="599.0625000000001" y="258.89830508474574" height="1.1016949152542566" width="66.5625" fill="#007C5A"></rect><text class="labels" style="fill: #444;" x="44.375" y="-4.261501210653762">15 hrs 52 mins</text><text class="labels" style="fill: #444;" x="155.3125" y="60.108958837772406">11 hrs 43 mins</text><text class="labels" style="fill: #444;" x="266.25" y="217.17917675544794">1 hr 45 mins</text><text class="labels" style="fill: #444;" x="377.18750000000006" y="232.28813559322032">49 mins</text><text class="labels" style="fill: #444;" x="488.12500000000006" y="234.64891041162227">34 mins</text><text class="labels" style="fill: #444;" x="599.0625000000001" y="238.89830508474574">7 mins</text></g></svg>