<svg xmlns="http://www.w3.org/2000/svg" width="625" height="315"><g transform="translate(20, 20)"><g transform="translate(0, 260)" style="font-size: 15px; font-family: monospace; font-weight: 300;" fill="none" font-size="10" font-family="sans-serif" text-anchor="middle"><path class="domain" stroke="currentColor" d="M0.5,6V0.5H585.5V6"></path><g class="tick" opacity="1" transform="translate(75.83333333333334,0)"><line stroke="currentColor" y2="6"></line><text fill="currentColor" y="9" dy="0.71em">TypeScript</text></g><g class="tick" opacity="1" transform="translate(184.16666666666669,0)"><line stroke="currentColor" y2="6"></line><text fill="currentColor" y="9" dy="0.71em">JSX</text></g><g class="tick" opacity="1" transform="translate(292.5,0)"><line stroke="currentColor" y2="6"></line><text fill="currentColor" y="9" dy="0.71em">JavaScript</text></g><g class="tick" opacity="1" transform="translate(400.83333333333337,0)"><line stroke="currentColor" y2="6"></line><text fill="currentColor" y="9" dy="0.71em">LESS</text></g><g class="tick" opacity="1" transform="translate(509.16666666666674,0)"><line stroke="currentColor" y2="6"></line><text fill="currentColor" y="9" dy="0.71em">Markdown</text></g></g><rect x="43.33333333333334" y="24.904214559386983" height="235.095785440613" width="65" fill="#D50657"></rect><rect x="151.66666666666669" y="183.04597701149427" height="76.95402298850573" width="65" fill="#049AE6"></rect><rect x="260" y="224.88505747126436" height="35.11494252873564" width="65" fill="#F8C41B"></rect><rect x="368.33333333333337" y="258.00766283524905" height="1.9923371647509498" width="65" fill="#32465B"></rect><rect x="476.66666666666674" y="259.2528735632184" height="0.7471264367816275" width="65" fill="#E45E42"></rect><text class="labels" style="fill: #444;" x="43.33333333333334" y="4.904214559386983">9 hrs 44 mins</text><text class="labels" style="fill: #444;" x="151.66666666666669" y="163.04597701149427">3 hrs 9 mins</text><text class="labels" style="fill: #444;" x="260" y="204.88505747126436">1 hr 41 mins</text><text class="labels" style="fill: #444;" x="368.33333333333337" y="238.00766283524905">8 mins</text><text class="labels" style="fill: #444;" x="476.66666666666674" y="239.25287356321837">3 mins</text></g></svg>