<svg xmlns="http://www.w3.org/2000/svg" width="875" height="315"><g transform="translate(20, 20)"><g transform="translate(0, 260)" style="font-size: 15px; font-family: monospace; font-weight: 300;" fill="none" font-size="10" font-family="sans-serif" text-anchor="middle"><path class="domain" stroke="currentColor" d="M0.5,6V0.5H835.5V6"></path><g class="tick" opacity="1" transform="translate(78.98648648648646,0)"><line stroke="currentColor" y2="6"></line><text fill="currentColor" y="9" dy="0.71em">TypeScript</text></g><g class="tick" opacity="1" transform="translate(191.82432432432432,0)"><line stroke="currentColor" y2="6"></line><text fill="currentColor" y="9" dy="0.71em">JSX</text></g><g class="tick" opacity="1" transform="translate(304.6621621621622,0)"><line stroke="currentColor" y2="6"></line><text fill="currentColor" y="9" dy="0.71em">JavaScript</text></g><g class="tick" opacity="1" transform="translate(417.5,0)"><line stroke="currentColor" y2="6"></line><text fill="currentColor" y="9" dy="0.71em">YAML</text></g><g class="tick" opacity="1" transform="translate(530.3378378378379,0)"><line stroke="currentColor" y2="6"></line><text fill="currentColor" y="9" dy="0.71em">Python</text></g><g class="tick" opacity="1" transform="translate(643.1756756756757,0)"><line stroke="currentColor" y2="6"></line><text fill="currentColor" y="9" dy="0.71em">CSS</text></g><g class="tick" opacity="1" transform="translate(756.0135135135135,0)"><line stroke="currentColor" y2="6"></line><text fill="currentColor" y="9" dy="0.71em">JSON</text></g></g><rect x="45.1351351351351" y="31.784841075794624" height="228.21515892420538" width="67.70270270270271" fill="#D50657"></rect><rect x="157.97297297297297" y="116.9682151589242" height="143.03178484107582" width="67.70270270270271" fill="#049AE6"></rect><rect x="270.81081081081084" y="224.40097799511003" height="35.599022004889974" width="67.70270270270271" fill="#F8C41B"></rect><rect x="383.64864864864865" y="246.01466992665036" height="13.985330073349644" width="67.70270270270271" fill="#32465B"></rect><rect x="496.4864864864865" y="253.64303178484107" height="6.356968215158929" width="67.70270270270271" fill="#E45E42"></rect><rect x="609.3243243243244" y="256.82151589242056" height="3.178484107579436" width="67.70270270270271" fill="#007C5A"></rect><rect x="722.1621621621622" y="259.68215158924204" height="0.31784841075796066" width="67.70270270270271" fill="#FC69FF"></rect><text class="labels" style="fill: #444;" x="45.1351351351351" y="11.784841075794624">7 hrs 18 mins</text><text class="labels" style="fill: #444;" x="157.97297297297297" y="96.9682151589242">4 hrs 50 mins</text><text class="labels" style="fill: #444;" x="270.81081081081084" y="204.40097799511003">1 hr 12 mins</text><text class="labels" style="fill: #444;" x="383.64864864864865" y="226.01466992665036">44 mins</text><text class="labels" style="fill: #444;" x="496.4864864864865" y="233.64303178484107">20 mins</text><text class="labels" style="fill: #444;" x="609.3243243243244" y="236.82151589242056">10 mins</text><text class="labels" style="fill: #444;" x="722.1621621621622" y="239.68215158924204">1 min</text></g></svg>