<svg xmlns="http://www.w3.org/2000/svg" width="875" height="315"><g transform="translate(20, 20)"><g transform="translate(0, 260)" style="font-size: 15px; font-family: monospace; font-weight: 300;" fill="none" font-size="10" font-family="sans-serif" text-anchor="middle"><path class="domain" stroke="currentColor" d="M0.5,6V0.5H835.5V6"></path><g class="tick" opacity="1" transform="translate(78.98648648648646,0)"><line stroke="currentColor" y2="6"></line><text fill="currentColor" y="9" dy="0.71em">JSX</text></g><g class="tick" opacity="1" transform="translate(191.82432432432432,0)"><line stroke="currentColor" y2="6"></line><text fill="currentColor" y="9" dy="0.71em">JavaScript</text></g><g class="tick" opacity="1" transform="translate(304.6621621621622,0)"><line stroke="currentColor" y2="6"></line><text fill="currentColor" y="9" dy="0.71em">LESS</text></g><g class="tick" opacity="1" transform="translate(417.5,0)"><line stroke="currentColor" y2="6"></line><text fill="currentColor" y="9" dy="0.71em">YAML</text></g><g class="tick" opacity="1" transform="translate(530.3378378378379,0)"><line stroke="currentColor" y2="6"></line><text fill="currentColor" y="9" dy="0.71em">Bash</text></g><g class="tick" opacity="1" transform="translate(643.1756756756757,0)"><line stroke="currentColor" y2="6"></line><text fill="currentColor" y="9" dy="0.71em">JSON</text></g><g class="tick" opacity="1" transform="translate(756.0135135135135,0)"><line stroke="currentColor" y2="6"></line><text fill="currentColor" y="9" dy="0.71em">Docker</text></g></g><rect x="45.1351351351351" y="30.8056872037915" height="229.1943127962085" width="67.70270270270271" fill="#D50657"></rect><rect x="157.97297297297297" y="215.6398104265403" height="44.36018957345971" width="67.70270270270271" fill="#049AE6"></rect><rect x="270.81081081081084" y="252.29857819905214" height="7.7014218009478554" width="67.70270270270271" fill="#F8C41B"></rect><rect x="383.64864864864865" y="257.8436018957346" height="2.1563981042654063" width="67.70270270270271" fill="#32465B"></rect><rect x="496.4864864864865" y="258.45971563981044" height="1.5402843601895597" width="67.70270270270271" fill="#E45E42"></rect><rect x="609.3243243243244" y="259.38388625592415" height="0.6161137440758466" width="67.70270270270271" fill="#007C5A"></rect><rect x="722.1621621621622" y="259.38388625592415" height="0.6161137440758466" width="67.70270270270271" fill="#FC69FF"></rect><text class="labels" style="fill: #444;" x="45.1351351351351" y="10.8056872037915">7 hrs 44 mins</text><text class="labels" style="fill: #444;" x="157.97297297297297" y="195.6398104265403">1 hr 44 mins</text><text class="labels" style="fill: #444;" x="270.81081081081084" y="232.29857819905214">25 mins</text><text class="labels" style="fill: #444;" x="383.64864864864865" y="237.8436018957346">7 mins</text><text class="labels" style="fill: #444;" x="496.4864864864865" y="238.45971563981044">5 mins</text><text class="labels" style="fill: #444;" x="609.3243243243244" y="239.38388625592415">2 mins</text><text class="labels" style="fill: #444;" x="722.1621621621622" y="239.38388625592415">2 mins</text></g></svg>