<svg xmlns="http://www.w3.org/2000/svg" width="750" height="315"><g transform="translate(20, 20)"><g transform="translate(0, 260)" style="font-size: 15px; font-family: monospace; font-weight: 300;" fill="none" font-size="10" font-family="sans-serif" text-anchor="middle"><path class="domain" stroke="currentColor" d="M0.5,6V0.5H710.5V6"></path><g class="tick" opacity="1" transform="translate(77.65625,0)"><line stroke="currentColor" y2="6"></line><text fill="currentColor" y="9" dy="0.71em">JavaScript</text></g><g class="tick" opacity="1" transform="translate(188.59375,0)"><line stroke="currentColor" y2="6"></line><text fill="currentColor" y="9" dy="0.71em">TypeScript</text></g><g class="tick" opacity="1" transform="translate(299.53125,0)"><line stroke="currentColor" y2="6"></line><text fill="currentColor" y="9" dy="0.71em">JSON</text></g><g class="tick" opacity="1" transform="translate(410.46875000000006,0)"><line stroke="currentColor" y2="6"></line><text fill="currentColor" y="9" dy="0.71em">Git Config</text></g><g class="tick" opacity="1" transform="translate(521.40625,0)"><line stroke="currentColor" y2="6"></line><text fill="currentColor" y="9" dy="0.71em">HTML</text></g><g class="tick" opacity="1" transform="translate(632.3437500000001,0)"><line stroke="currentColor" y2="6"></line><text fill="currentColor" y="9" dy="0.71em">Markdown</text></g></g><rect x="44.375" y="62.0525059665871" height="197.9474940334129" width="66.5625" fill="#D50657"></rect><rect x="155.3125" y="132.79236276849642" height="127.20763723150358" width="66.5625" fill="#049AE6"></rect><rect x="266.25" y="228.97374701670643" height="31.026252983293574" width="66.5625" fill="#F8C41B"></rect><rect x="377.18750000000006" y="253.17422434367543" height="6.825775656324566" width="66.5625" fill="#32465B"></rect><rect x="488.12500000000006" y="254.41527446300717" height="5.584725536992835" width="66.5625" fill="#E45E42"></rect><rect x="599.0625000000001" y="258.1384248210024" height="1.8615751789976116" width="66.5625" fill="#007C5A"></rect><text class="labels" style="fill: #444;" x="44.375" y="42.0525059665871">3 hrs 19 mins</text><text class="labels" style="fill: #444;" x="155.3125" y="112.79236276849642">2 hrs 5 mins</text><text class="labels" style="fill: #444;" x="266.25" y="208.97374701670643">50 mins</text><text class="labels" style="fill: #444;" x="377.18750000000006" y="233.17422434367543">11 mins</text><text class="labels" style="fill: #444;" x="488.12500000000006" y="234.41527446300717">9 mins</text><text class="labels" style="fill: #444;" x="599.0625000000001" y="238.1384248210024">3 mins</text></g></svg>