<svg xmlns="http://www.w3.org/2000/svg" width="750" height="315"><g transform="translate(20, 20)"><g transform="translate(0, 260)" style="font-size: 15px; font-family: monospace; font-weight: 300;" fill="none" font-size="10" font-family="sans-serif" text-anchor="middle"><path class="domain" stroke="currentColor" d="M0.5,6V0.5H710.5V6"></path><g class="tick" opacity="1" transform="translate(77.65625,0)"><line stroke="currentColor" y2="6"></line><text fill="currentColor" y="9" dy="0.71em">JSX</text></g><g class="tick" opacity="1" transform="translate(188.59375,0)"><line stroke="currentColor" y2="6"></line><text fill="currentColor" y="9" dy="0.71em">JavaScript</text></g><g class="tick" opacity="1" transform="translate(299.53125,0)"><line stroke="currentColor" y2="6"></line><text fill="currentColor" y="9" dy="0.71em">TypeScript</text></g><g class="tick" opacity="1" transform="translate(410.46875000000006,0)"><line stroke="currentColor" y2="6"></line><text fill="currentColor" y="9" dy="0.71em">Git Config</text></g><g class="tick" opacity="1" transform="translate(521.40625,0)"><line stroke="currentColor" y2="6"></line><text fill="currentColor" y="9" dy="0.71em">Dart</text></g><g class="tick" opacity="1" transform="translate(632.3437500000001,0)"><line stroke="currentColor" y2="6"></line><text fill="currentColor" y="9" dy="0.71em">XML</text></g></g><rect x="44.375" y="21.207177814029357" height="238.79282218597064" width="66.5625" fill="#D50657"></rect><rect x="155.3125" y="88.85807504078304" height="171.14192495921696" width="66.5625" fill="#049AE6"></rect><rect x="266.25" y="234.97553017944534" height="25.024469820554657" width="66.5625" fill="#F8C41B"></rect><rect x="377.18750000000006" y="258.72756933115824" height="1.2724306688417641" width="66.5625" fill="#32465B"></rect><rect x="488.12500000000006" y="259.1517128874388" height="0.848287112561195" width="66.5625" fill="#E45E42"></rect><rect x="599.0625000000001" y="259.57585644371943" height="0.4241435562805691" width="66.5625" fill="#007C5A"></rect><text class="labels" style="fill: #444;" x="44.375" y="1.2071778140293574">11 hrs 26 mins</text><text class="labels" style="fill: #444;" x="155.3125" y="68.85807504078304">8 hrs 7 mins</text><text class="labels" style="fill: #444;" x="266.25" y="214.97553017944534">1 hr 18 mins</text><text class="labels" style="fill: #444;" x="377.18750000000006" y="238.72756933115824">6 mins</text><text class="labels" style="fill: #444;" x="488.12500000000006" y="239.1517128874388">4 mins</text><text class="labels" style="fill: #444;" x="599.0625000000001" y="239.57585644371943">2 mins</text></g></svg>