<svg xmlns="http://www.w3.org/2000/svg" width="1125" height="315"><g transform="translate(20, 20)"><g transform="translate(0, 260)" style="font-size: 15px; font-family: monospace; font-weight: 300;" fill="none" font-size="10" font-family="sans-serif" text-anchor="middle"><path class="domain" stroke="currentColor" d="M0.5,6V0.5H1085.5V6"></path><g class="tick" opacity="1" transform="translate(80.79787234042558,0)"><line stroke="currentColor" y2="6"></line><text fill="currentColor" y="9" dy="0.71em">JavaScript</text></g><g class="tick" opacity="1" transform="translate(196.2234042553192,0)"><line stroke="currentColor" y2="6"></line><text fill="currentColor" y="9" dy="0.71em">Dart</text></g><g class="tick" opacity="1" transform="translate(311.6489361702128,0)"><line stroke="currentColor" y2="6"></line><text fill="currentColor" y="9" dy="0.71em">TypeScript</text></g><g class="tick" opacity="1" transform="translate(427.07446808510645,0)"><line stroke="currentColor" y2="6"></line><text fill="currentColor" y="9" dy="0.71em">JSX</text></g><g class="tick" opacity="1" transform="translate(542.5,0)"><line stroke="currentColor" y2="6"></line><text fill="currentColor" y="9" dy="0.71em">LESS</text></g><g class="tick" opacity="1" transform="translate(657.9255319148937,0)"><line stroke="currentColor" y2="6"></line><text fill="currentColor" y="9" dy="0.71em">JSON</text></g><g class="tick" opacity="1" transform="translate(773.3510638297872,0)"><line stroke="currentColor" y2="6"></line><text fill="currentColor" y="9" dy="0.71em">Java</text></g><g class="tick" opacity="1" transform="translate(888.776595744681,0)"><line stroke="currentColor" y2="6"></line><text fill="currentColor" y="9" dy="0.71em">XML</text></g><g class="tick" opacity="1" transform="translate(1004.2021276595746,0)"><line stroke="currentColor" y2="6"></line><text fill="currentColor" y="9" dy="0.71em">Groovy</text></g></g><rect x="46.1702127659575" y="23.46570397111912" height="236.53429602888087" width="69.25531914893617" fill="#D50657"></rect><rect x="161.5957446808511" y="178.5740072202166" height="81.4259927797834" width="69.25531914893617" fill="#049AE6"></rect><rect x="277.0212765957447" y="228.79061371841155" height="31.20938628158845" width="69.25531914893617" fill="#F8C41B"></rect><rect x="392.44680851063833" y="233.014440433213" height="26.985559566787003" width="69.25531914893617" fill="#32465B"></rect><rect x="507.87234042553195" y="256.4801444043321" height="3.5198555956678774" width="69.25531914893617" fill="#E45E42"></rect><rect x="623.2978723404256" y="257.4187725631769" height="2.5812274368230987" width="69.25531914893617" fill="#007C5A"></rect><rect x="738.7234042553191" y="259.2960288808664" height="0.7039711191335982" width="69.25531914893617" fill="#FC69FF"></rect><rect x="854.1489361702129" y="259.7653429602888" height="0.23465703971118046" width="69.25531914893617" fill="#3EC6CF"></rect><rect x="969.5744680851064" y="259.7653429602888" height="0.23465703971118046" width="69.25531914893617" fill="#620A79"></rect><text class="labels" style="fill: #444;" x="46.1702127659575" y="3.465703971119119">10 hrs 8 mins</text><text class="labels" style="fill: #444;" x="161.5957446808511" y="158.5740072202166">3 hrs 47 mins</text><text class="labels" style="fill: #444;" x="277.0212765957447" y="208.79061371841155">1 hr 33 mins</text><text class="labels" style="fill: #444;" x="392.44680851063833" y="213.014440433213">1 hr 15 mins</text><text class="labels" style="fill: #444;" x="507.87234042553195" y="236.48014440433212">15 mins</text><text class="labels" style="fill: #444;" x="623.2978723404256" y="237.4187725631769">11 mins</text><text class="labels" style="fill: #444;" x="738.7234042553191" y="239.2960288808664">3 mins</text><text class="labels" style="fill: #444;" x="854.1489361702129" y="239.76534296028882">1 min</text><text class="labels" style="fill: #444;" x="969.5744680851064" y="239.76534296028882">1 min</text></g></svg>