<svg xmlns="http://www.w3.org/2000/svg" width="875" height="315"><g transform="translate(20, 20)"><g transform="translate(0, 260)" style="font-size: 15px; font-family: monospace; font-weight: 300;" fill="none" font-size="10" font-family="sans-serif" text-anchor="middle"><path class="domain" stroke="currentColor" d="M0.5,6V0.5H835.5V6"></path><g class="tick" opacity="1" transform="translate(78.98648648648646,0)"><line stroke="currentColor" y2="6"></line><text fill="currentColor" y="9" dy="0.71em">JSX</text></g><g class="tick" opacity="1" transform="translate(191.82432432432432,0)"><line stroke="currentColor" y2="6"></line><text fill="currentColor" y="9" dy="0.71em">JavaScript</text></g><g class="tick" opacity="1" transform="translate(304.6621621621622,0)"><line stroke="currentColor" y2="6"></line><text fill="currentColor" y="9" dy="0.71em">TypeScript</text></g><g class="tick" opacity="1" transform="translate(417.5,0)"><line stroke="currentColor" y2="6"></line><text fill="currentColor" y="9" dy="0.71em">Dart</text></g><g class="tick" opacity="1" transform="translate(530.3378378378379,0)"><line stroke="currentColor" y2="6"></line><text fill="currentColor" y="9" dy="0.71em">JSON</text></g><g class="tick" opacity="1" transform="translate(643.1756756756757,0)"><line stroke="currentColor" y2="6"></line><text fill="currentColor" y="9" dy="0.71em">XML</text></g><g class="tick" opacity="1" transform="translate(756.0135135135135,0)"><line stroke="currentColor" y2="6"></line><text fill="currentColor" y="9" dy="0.71em">YAML</text></g></g><rect x="45.1351351351351" y="48.327137546468414" height="211.6728624535316" width="67.70270270270271" fill="#D50657"></rect><rect x="157.97297297297297" y="235.8364312267658" height="24.163568773234203" width="67.70270270270271" fill="#049AE6"></rect><rect x="270.81081081081084" y="240.18587360594796" height="19.81412639405204" width="67.70270270270271" fill="#F8C41B"></rect><rect x="383.64864864864865" y="245.98513011152417" height="14.014869888475829" width="67.70270270270271" fill="#32465B"></rect><rect x="496.4864864864865" y="255.16728624535318" height="4.832713754646818" width="67.70270270270271" fill="#E45E42"></rect><rect x="609.3243243243244" y="258.550185873606" height="1.449814126394017" width="67.70270270270271" fill="#007C5A"></rect><rect x="722.1621621621622" y="259.51672862453535" height="0.4832713754646534" width="67.70270270270271" fill="#FC69FF"></rect><text class="labels" style="fill: #444;" x="45.1351351351351" y="28.327137546468414">4 hrs 38 mins</text><text class="labels" style="fill: #444;" x="157.97297297297297" y="215.8364312267658">50 mins</text><text class="labels" style="fill: #444;" x="270.81081081081084" y="220.18587360594796">41 mins</text><text class="labels" style="fill: #444;" x="383.64864864864865" y="225.98513011152417">29 mins</text><text class="labels" style="fill: #444;" x="496.4864864864865" y="235.16728624535318">10 mins</text><text class="labels" style="fill: #444;" x="609.3243243243244" y="238.55018587360598">3 mins</text><text class="labels" style="fill: #444;" x="722.1621621621622" y="239.51672862453535">1 min</text></g></svg>