<svg xmlns="http://www.w3.org/2000/svg" width="750" height="315"><g transform="translate(20, 20)"><g transform="translate(0, 260)" style="font-size: 15px; font-family: monospace; font-weight: 300;" fill="none" font-size="10" font-family="sans-serif" text-anchor="middle"><path class="domain" stroke="currentColor" d="M0.5,6V0.5H710.5V6"></path><g class="tick" opacity="1" transform="translate(77.65625,0)"><line stroke="currentColor" y2="6"></line><text fill="currentColor" y="9" dy="0.71em">JSX</text></g><g class="tick" opacity="1" transform="translate(188.59375,0)"><line stroke="currentColor" y2="6"></line><text fill="currentColor" y="9" dy="0.71em">JavaScript</text></g><g class="tick" opacity="1" transform="translate(299.53125,0)"><line stroke="currentColor" y2="6"></line><text fill="currentColor" y="9" dy="0.71em">TypeScript</text></g><g class="tick" opacity="1" transform="translate(410.46875000000006,0)"><line stroke="currentColor" y2="6"></line><text fill="currentColor" y="9" dy="0.71em">LESS</text></g><g class="tick" opacity="1" transform="translate(521.40625,0)"><line stroke="currentColor" y2="6"></line><text fill="currentColor" y="9" dy="0.71em">CSS</text></g><g class="tick" opacity="1" transform="translate(632.3437500000001,0)"><line stroke="currentColor" y2="6"></line><text fill="currentColor" y="9" dy="0.71em">JSON</text></g></g><rect x="44.375" y="19.23076923076924" height="240.76923076923077" width="66.5625" fill="#D50657"></rect><rect x="155.3125" y="120.96153846153845" height="139.03846153846155" width="66.5625" fill="#049AE6"></rect><rect x="266.25" y="237.30769230769232" height="22.69230769230768" width="66.5625" fill="#F8C41B"></rect><rect x="377.18750000000006" y="252.88461538461536" height="7.115384615384642" width="66.5625" fill="#32465B"></rect><rect x="488.12500000000006" y="259.4230769230769" height="0.5769230769230944" width="66.5625" fill="#E45E42"></rect><rect x="599.0625000000001" y="259.8076923076923" height="0.1923076923076792" width="66.5625" fill="#007C5A"></rect><text class="labels" style="fill: #444;" x="44.375" y="-0.7692307692307594">12 hrs 52 mins</text><text class="labels" style="fill: #444;" x="155.3125" y="100.96153846153845">7 hrs 23 mins</text><text class="labels" style="fill: #444;" x="266.25" y="217.30769230769232">1 hr 18 mins</text><text class="labels" style="fill: #444;" x="377.18750000000006" y="232.88461538461536">37 mins</text><text class="labels" style="fill: #444;" x="488.12500000000006" y="239.4230769230769">3 mins</text><text class="labels" style="fill: #444;" x="599.0625000000001" y="239.80769230769232">1 min</text></g></svg>