<svg xmlns="http://www.w3.org/2000/svg" width="1125" height="315"><g transform="translate(20, 20)"><g transform="translate(0, 260)" style="font-size: 15px; font-family: monospace; font-weight: 300;" fill="none" font-size="10" font-family="sans-serif" text-anchor="middle"><path class="domain" stroke="currentColor" d="M0.5,6V0.5H1085.5V6"></path><g class="tick" opacity="1" transform="translate(80.79787234042558,0)"><line stroke="currentColor" y2="6"></line><text fill="currentColor" y="9" dy="0.71em">JavaScript</text></g><g class="tick" opacity="1" transform="translate(196.2234042553192,0)"><line stroke="currentColor" y2="6"></line><text fill="currentColor" y="9" dy="0.71em">JSX</text></g><g class="tick" opacity="1" transform="translate(311.6489361702128,0)"><line stroke="currentColor" y2="6"></line><text fill="currentColor" y="9" dy="0.71em">Solidity</text></g><g class="tick" opacity="1" transform="translate(427.07446808510645,0)"><line stroke="currentColor" y2="6"></line><text fill="currentColor" y="9" dy="0.71em">JSON</text></g><g class="tick" opacity="1" transform="translate(542.5,0)"><line stroke="currentColor" y2="6"></line><text fill="currentColor" y="9" dy="0.71em">Svelte</text></g><g class="tick" opacity="1" transform="translate(657.9255319148937,0)"><line stroke="currentColor" y2="6"></line><text fill="currentColor" y="9" dy="0.71em">Markdown</text></g><g class="tick" opacity="1" transform="translate(773.3510638297872,0)"><line stroke="currentColor" y2="6"></line><text fill="currentColor" y="9" dy="0.71em">HTML</text></g><g class="tick" opacity="1" transform="translate(888.776595744681,0)"><line stroke="currentColor" y2="6"></line><text fill="currentColor" y="9" dy="0.71em">Git Config</text></g><g class="tick" opacity="1" transform="translate(1004.2021276595746,0)"><line stroke="currentColor" y2="6"></line><text fill="currentColor" y="9" dy="0.71em">Text</text></g></g><rect x="46.1702127659575" y="36.011080332409975" height="223.98891966759004" width="69.25531914893617" fill="#D50657"></rect><rect x="161.5957446808511" y="74.54293628808863" height="185.45706371191136" width="69.25531914893617" fill="#049AE6"></rect><rect x="277.0212765957447" y="251.3573407202216" height="8.6426592797784" width="69.25531914893617" fill="#F8C41B"></rect><rect x="392.44680851063833" y="252.07756232686978" height="7.922437673130219" width="69.25531914893617" fill="#32465B"></rect><rect x="507.87234042553195" y="255.31855955678668" height="4.681440443213319" width="69.25531914893617" fill="#E45E42"></rect><rect x="623.2978723404256" y="257.8393351800554" height="2.1606648199446" width="69.25531914893617" fill="#007C5A"></rect><rect x="738.7234042553191" y="259.2797783933518" height="0.720221606648181" width="69.25531914893617" fill="#FC69FF"></rect><rect x="854.1489361702129" y="259.6398891966759" height="0.36011080332411893" width="69.25531914893617" fill="#3EC6CF"></rect><rect x="969.5744680851064" y="259.6398891966759" height="0.36011080332411893" width="69.25531914893617" fill="#620A79"></rect><text class="labels" style="fill: #444;" x="46.1702127659575" y="16.011080332409975">6 hrs 22 mins</text><text class="labels" style="fill: #444;" x="161.5957446808511" y="54.542936288088626">5 hrs 15 mins</text><text class="labels" style="fill: #444;" x="277.0212765957447" y="231.3573407202216">24 mins</text><text class="labels" style="fill: #444;" x="392.44680851063833" y="232.07756232686978">22 mins</text><text class="labels" style="fill: #444;" x="507.87234042553195" y="235.31855955678668">13 mins</text><text class="labels" style="fill: #444;" x="623.2978723404256" y="237.8393351800554">6 mins</text><text class="labels" style="fill: #444;" x="738.7234042553191" y="239.27977839335182">2 mins</text><text class="labels" style="fill: #444;" x="854.1489361702129" y="239.63988919667588">1 min</text><text class="labels" style="fill: #444;" x="969.5744680851064" y="239.63988919667588">1 min</text></g></svg>