<svg xmlns="http://www.w3.org/2000/svg" width="750" height="315"><g transform="translate(20, 20)"><g transform="translate(0, 260)" style="font-size: 15px; font-family: monospace; font-weight: 300;" fill="none" font-size="10" font-family="sans-serif" text-anchor="middle"><path class="domain" stroke="currentColor" d="M0.5,6V0.5H710.5V6"></path><g class="tick" opacity="1" transform="translate(77.65625,0)"><line stroke="currentColor" y2="6"></line><text fill="currentColor" y="9" dy="0.71em">JavaScript</text></g><g class="tick" opacity="1" transform="translate(188.59375,0)"><line stroke="currentColor" y2="6"></line><text fill="currentColor" y="9" dy="0.71em">JSX</text></g><g class="tick" opacity="1" transform="translate(299.53125,0)"><line stroke="currentColor" y2="6"></line><text fill="currentColor" y="9" dy="0.71em">TypeScript</text></g><g class="tick" opacity="1" transform="translate(410.46875000000006,0)"><line stroke="currentColor" y2="6"></line><text fill="currentColor" y="9" dy="0.71em">LESS</text></g><g class="tick" opacity="1" transform="translate(521.40625,0)"><line stroke="currentColor" y2="6"></line><text fill="currentColor" y="9" dy="0.71em">JSON</text></g><g class="tick" opacity="1" transform="translate(632.3437500000001,0)"><line stroke="currentColor" y2="6"></line><text fill="currentColor" y="9" dy="0.71em">Text</text></g></g><rect x="44.375" y="25.390625" height="234.609375" width="66.5625" fill="#D50657"></rect><rect x="155.3125" y="26.40625000000003" height="233.59374999999997" width="66.5625" fill="#049AE6"></rect><rect x="266.25" y="172.65625" height="87.34375" width="66.5625" fill="#F8C41B"></rect><rect x="377.18750000000006" y="255.9375" height="4.0625" width="66.5625" fill="#32465B"></rect><rect x="488.12500000000006" y="259.23828125" height="0.76171875" width="66.5625" fill="#E45E42"></rect><rect x="599.0625000000001" y="259.4921875" height="0.5078125" width="66.5625" fill="#007C5A"></rect><text class="labels" style="fill: #444;" x="44.375" y="5.390625">9 hrs 24 mins</text><text class="labels" style="fill: #444;" x="155.3125" y="6.406250000000028">9 hrs 20 mins</text><text class="labels" style="fill: #444;" x="266.25" y="152.65625">3 hrs 44 mins</text><text class="labels" style="fill: #444;" x="377.18750000000006" y="235.9375">16 mins</text><text class="labels" style="fill: #444;" x="488.12500000000006" y="239.23828125">3 mins</text><text class="labels" style="fill: #444;" x="599.0625000000001" y="239.4921875">2 mins</text></g></svg>