<svg xmlns="http://www.w3.org/2000/svg" width="625" height="315"><g transform="translate(20, 20)"><g transform="translate(0, 260)" style="font-size: 15px; font-family: monospace; font-weight: 300;" fill="none" font-size="10" font-family="sans-serif" text-anchor="middle"><path class="domain" stroke="currentColor" d="M0.5,6V0.5H585.5V6"></path><g class="tick" opacity="1" transform="translate(75.83333333333334,0)"><line stroke="currentColor" y2="6"></line><text fill="currentColor" y="9" dy="0.71em">JSX</text></g><g class="tick" opacity="1" transform="translate(184.16666666666669,0)"><line stroke="currentColor" y2="6"></line><text fill="currentColor" y="9" dy="0.71em">JavaScript</text></g><g class="tick" opacity="1" transform="translate(292.5,0)"><line stroke="currentColor" y2="6"></line><text fill="currentColor" y="9" dy="0.71em">CSS</text></g><g class="tick" opacity="1" transform="translate(400.83333333333337,0)"><line stroke="currentColor" y2="6"></line><text fill="currentColor" y="9" dy="0.71em">JSON</text></g><g class="tick" opacity="1" transform="translate(509.16666666666674,0)"><line stroke="currentColor" y2="6"></line><text fill="currentColor" y="9" dy="0.71em">TypeScript</text></g></g><rect x="43.33333333333334" y="213.11475409836066" height="46.88524590163934" width="65" fill="#D50657"></rect><rect x="151.66666666666669" y="219.50819672131146" height="40.491803278688536" width="65" fill="#049AE6"></rect><rect x="260" y="245.08196721311478" height="14.91803278688522" width="65" fill="#F8C41B"></rect><rect x="368.33333333333337" y="253.60655737704917" height="6.393442622950829" width="65" fill="#32465B"></rect><rect x="476.66666666666674" y="257.8688524590164" height="2.1311475409835907" width="65" fill="#E45E42"></rect><text class="labels" style="fill: #444;" x="43.33333333333334" y="193.11475409836066">22 mins</text><text class="labels" style="fill: #444;" x="151.66666666666669" y="199.50819672131146">19 mins</text><text class="labels" style="fill: #444;" x="260" y="225.08196721311478">7 mins</text><text class="labels" style="fill: #444;" x="368.33333333333337" y="233.60655737704917">3 mins</text><text class="labels" style="fill: #444;" x="476.66666666666674" y="237.8688524590164">1 min</text></g></svg>