<svg xmlns="http://www.w3.org/2000/svg" width="750" height="315"><g transform="translate(20, 20)"><g transform="translate(0, 260)" style="font-size: 15px; font-family: monospace; font-weight: 300;" fill="none" font-size="10" font-family="sans-serif" text-anchor="middle"><path class="domain" stroke="currentColor" d="M0.5,6V0.5H710.5V6"></path><g class="tick" opacity="1" transform="translate(77.65625,0)"><line stroke="currentColor" y2="6"></line><text fill="currentColor" y="9" dy="0.71em">JSX</text></g><g class="tick" opacity="1" transform="translate(188.59375,0)"><line stroke="currentColor" y2="6"></line><text fill="currentColor" y="9" dy="0.71em">JavaScript</text></g><g class="tick" opacity="1" transform="translate(299.53125,0)"><line stroke="currentColor" y2="6"></line><text fill="currentColor" y="9" dy="0.71em">TypeScript</text></g><g class="tick" opacity="1" transform="translate(410.46875000000006,0)"><line stroke="currentColor" y2="6"></line><text fill="currentColor" y="9" dy="0.71em">YAML</text></g><g class="tick" opacity="1" transform="translate(521.40625,0)"><line stroke="currentColor" y2="6"></line><text fill="currentColor" y="9" dy="0.71em">HTML</text></g><g class="tick" opacity="1" transform="translate(632.3437500000001,0)"><line stroke="currentColor" y2="6"></line><text fill="currentColor" y="9" dy="0.71em">CSS</text></g></g><rect x="44.375" y="60.88992974238874" height="199.11007025761126" width="66.5625" fill="#D50657"></rect><rect x="155.3125" y="174.75409836065572" height="85.24590163934428" width="66.5625" fill="#049AE6"></rect><rect x="266.25" y="242.34192037470726" height="17.658079625292743" width="66.5625" fill="#F8C41B"></rect><rect x="377.18750000000006" y="256.3466042154567" height="3.6533957845433065" width="66.5625" fill="#32465B"></rect><rect x="488.12500000000006" y="256.95550351288057" height="3.0444964871194315" width="66.5625" fill="#E45E42"></rect><rect x="599.0625000000001" y="258.1733021077283" height="1.8266978922716817" width="66.5625" fill="#007C5A"></rect><text class="labels" style="fill: #444;" x="44.375" y="40.88992974238874">3 hrs 27 mins</text><text class="labels" style="fill: #444;" x="155.3125" y="154.75409836065572">1 hr 40 mins</text><text class="labels" style="fill: #444;" x="266.25" y="222.34192037470726">29 mins</text><text class="labels" style="fill: #444;" x="377.18750000000006" y="236.3466042154567">6 mins</text><text class="labels" style="fill: #444;" x="488.12500000000006" y="236.95550351288057">5 mins</text><text class="labels" style="fill: #444;" x="599.0625000000001" y="238.17330210772832">3 mins</text></g></svg>