<svg xmlns="http://www.w3.org/2000/svg" width="1000" height="315"><g transform="translate(20, 20)"><g transform="translate(0, 260)" style="font-size: 15px; font-family: monospace; font-weight: 300;" fill="none" font-size="10" font-family="sans-serif" text-anchor="middle"><path class="domain" stroke="currentColor" d="M0.5,6V0.5H960.5V6"></path><g class="tick" opacity="1" transform="translate(80.00000000000006,0)"><line stroke="currentColor" y2="6"></line><text fill="currentColor" y="9" dy="0.71em">TypeScript</text></g><g class="tick" opacity="1" transform="translate(194.28571428571433,0)"><line stroke="currentColor" y2="6"></line><text fill="currentColor" y="9" dy="0.71em">JavaScript</text></g><g class="tick" opacity="1" transform="translate(308.5714285714286,0)"><line stroke="currentColor" y2="6"></line><text fill="currentColor" y="9" dy="0.71em">JSX</text></g><g class="tick" opacity="1" transform="translate(422.8571428571429,0)"><line stroke="currentColor" y2="6"></line><text fill="currentColor" y="9" dy="0.71em">HTML</text></g><g class="tick" opacity="1" transform="translate(537.1428571428572,0)"><line stroke="currentColor" y2="6"></line><text fill="currentColor" y="9" dy="0.71em">Text</text></g><g class="tick" opacity="1" transform="translate(651.4285714285714,0)"><line stroke="currentColor" y2="6"></line><text fill="currentColor" y="9" dy="0.71em">JSON</text></g><g class="tick" opacity="1" transform="translate(765.7142857142858,0)"><line stroke="currentColor" y2="6"></line><text fill="currentColor" y="9" dy="0.71em">YAML</text></g><g class="tick" opacity="1" transform="translate(880.0000000000001,0)"><line stroke="currentColor" y2="6"></line><text fill="currentColor" y="9" dy="0.71em">Docker</text></g></g><rect x="45.71428571428578" y="14.031300593631952" height="245.96869940636805" width="68.57142857142857" fill="#D50657"></rect><rect x="160.00000000000006" y="198.40259039395576" height="61.59740960604424" width="68.57142857142857" fill="#049AE6"></rect><rect x="274.28571428571433" y="199.5250944414463" height="60.4749055585537" width="68.57142857142857" fill="#F8C41B"></rect><rect x="388.5714285714286" y="253.96654074473827" height="6.033459255261732" width="68.57142857142857" fill="#32465B"></rect><rect x="502.8571428571429" y="256.35186184565566" height="3.6481381543443376" width="68.57142857142857" fill="#E45E42"></rect><rect x="617.1428571428571" y="256.63248785752836" height="3.3675121424716394" width="68.57142857142857" fill="#007C5A"></rect><rect x="731.4285714285714" y="257.3340528872099" height="2.665947112790093" width="68.57142857142857" fill="#FC69FF"></rect><rect x="845.7142857142858" y="257.89530491095525" height="2.1046950890447533" width="68.57142857142857" fill="#3EC6CF"></rect><text class="labels" style="fill: #444;" x="45.71428571428578" y="-5.968699406368048">17 hrs 53 mins</text><text class="labels" style="fill: #444;" x="160.00000000000006" y="178.40259039395576">4 hrs 39 mins</text><text class="labels" style="fill: #444;" x="274.28571428571433" y="179.5250944414463">4 hrs 31 mins</text><text class="labels" style="fill: #444;" x="388.5714285714286" y="233.96654074473827">43 mins</text><text class="labels" style="fill: #444;" x="502.8571428571429" y="236.35186184565566">26 mins</text><text class="labels" style="fill: #444;" x="617.1428571428571" y="236.63248785752836">24 mins</text><text class="labels" style="fill: #444;" x="731.4285714285714" y="237.3340528872099">19 mins</text><text class="labels" style="fill: #444;" x="845.7142857142858" y="237.89530491095525">15 mins</text></g></svg>