<svg xmlns="http://www.w3.org/2000/svg" width="625" height="315"><g transform="translate(20, 20)"><g transform="translate(0, 260)" style="font-size: 15px; font-family: monospace; font-weight: 300;" fill="none" font-size="10" font-family="sans-serif" text-anchor="middle"><path class="domain" stroke="currentColor" d="M0.5,6V0.5H585.5V6"></path><g class="tick" opacity="1" transform="translate(75.83333333333334,0)"><line stroke="currentColor" y2="6"></line><text fill="currentColor" y="9" dy="0.71em">JavaScript</text></g><g class="tick" opacity="1" transform="translate(184.16666666666669,0)"><line stroke="currentColor" y2="6"></line><text fill="currentColor" y="9" dy="0.71em">JSX</text></g><g class="tick" opacity="1" transform="translate(292.5,0)"><line stroke="currentColor" y2="6"></line><text fill="currentColor" y="9" dy="0.71em">TypeScript</text></g><g class="tick" opacity="1" transform="translate(400.83333333333337,0)"><line stroke="currentColor" y2="6"></line><text fill="currentColor" y="9" dy="0.71em">JSON</text></g><g class="tick" opacity="1" transform="translate(509.16666666666674,0)"><line stroke="currentColor" y2="6"></line><text fill="currentColor" y="9" dy="0.71em">LESS</text></g></g><rect x="43.33333333333334" y="27.600849256900204" height="232.3991507430998" width="65" fill="#D50657"></rect><rect x="151.66666666666669" y="135.52016985138005" height="124.47983014861995" width="65" fill="#049AE6"></rect><rect x="260" y="139.93630573248407" height="120.06369426751593" width="65" fill="#F8C41B"></rect><rect x="368.33333333333337" y="258.343949044586" height="1.6560509554140026" width="65" fill="#32465B"></rect><rect x="476.66666666666674" y="259.447983014862" height="0.5520169851379819" width="65" fill="#E45E42"></rect><text class="labels" style="fill: #444;" x="43.33333333333334" y="7.600849256900204">8 hrs 42 mins</text><text class="labels" style="fill: #444;" x="151.66666666666669" y="115.52016985138005">4 hrs 51 mins</text><text class="labels" style="fill: #444;" x="260" y="119.93630573248407">4 hrs 35 mins</text><text class="labels" style="fill: #444;" x="368.33333333333337" y="238.343949044586">6 mins</text><text class="labels" style="fill: #444;" x="476.66666666666674" y="239.44798301486202">2 mins</text></g></svg>