<svg xmlns="http://www.w3.org/2000/svg" width="750" height="315"><g transform="translate(20, 20)"><g transform="translate(0, 260)" style="font-size: 15px; font-family: monospace; font-weight: 300;" fill="none" font-size="10" font-family="sans-serif" text-anchor="middle"><path class="domain" stroke="currentColor" d="M0.5,6V0.5H710.5V6"></path><g class="tick" opacity="1" transform="translate(77.65625,0)"><line stroke="currentColor" y2="6"></line><text fill="currentColor" y="9" dy="0.71em">JSX</text></g><g class="tick" opacity="1" transform="translate(188.59375,0)"><line stroke="currentColor" y2="6"></line><text fill="currentColor" y="9" dy="0.71em">JavaScript</text></g><g class="tick" opacity="1" transform="translate(299.53125,0)"><line stroke="currentColor" y2="6"></line><text fill="currentColor" y="9" dy="0.71em">YAML</text></g><g class="tick" opacity="1" transform="translate(410.46875000000006,0)"><line stroke="currentColor" y2="6"></line><text fill="currentColor" y="9" dy="0.71em">TypeScript</text></g><g class="tick" opacity="1" transform="translate(521.40625,0)"><line stroke="currentColor" y2="6"></line><text fill="currentColor" y="9" dy="0.71em">LESS</text></g><g class="tick" opacity="1" transform="translate(632.3437500000001,0)"><line stroke="currentColor" y2="6"></line><text fill="currentColor" y="9" dy="0.71em">Docker</text></g></g><rect x="44.375" y="80.9968847352025" height="179.0031152647975" width="66.5625" fill="#D50657"></rect><rect x="155.3125" y="237.3208722741433" height="22.679127725856688" width="66.5625" fill="#049AE6"></rect><rect x="266.25" y="244.61059190031153" height="15.389408099688467" width="66.5625" fill="#F8C41B"></rect><rect x="377.18750000000006" y="251.09034267912773" height="8.90965732087227" width="66.5625" fill="#32465B"></rect><rect x="488.12500000000006" y="257.5700934579439" height="2.4299065420560737" width="66.5625" fill="#E45E42"></rect><rect x="599.0625000000001" y="259.190031152648" height="0.8099688473520246" width="66.5625" fill="#007C5A"></rect><text class="labels" style="fill: #444;" x="44.375" y="60.9968847352025">2 hrs 21 mins</text><text class="labels" style="fill: #444;" x="155.3125" y="217.3208722741433">28 mins</text><text class="labels" style="fill: #444;" x="266.25" y="224.61059190031153">19 mins</text><text class="labels" style="fill: #444;" x="377.18750000000006" y="231.09034267912773">11 mins</text><text class="labels" style="fill: #444;" x="488.12500000000006" y="237.57009345794393">3 mins</text><text class="labels" style="fill: #444;" x="599.0625000000001" y="239.19003115264798">1 min</text></g></svg>