<svg xmlns="http://www.w3.org/2000/svg" width="625" height="315"><g transform="translate(20, 20)"><g transform="translate(0, 260)" style="font-size: 15px; font-family: monospace; font-weight: 300;" fill="none" font-size="10" font-family="sans-serif" text-anchor="middle"><path class="domain" stroke="currentColor" d="M0.5,6V0.5H585.5V6"></path><g class="tick" opacity="1" transform="translate(75.83333333333334,0)"><line stroke="currentColor" y2="6"></line><text fill="currentColor" y="9" dy="0.71em">JSX</text></g><g class="tick" opacity="1" transform="translate(184.16666666666669,0)"><line stroke="currentColor" y2="6"></line><text fill="currentColor" y="9" dy="0.71em">CSS</text></g><g class="tick" opacity="1" transform="translate(292.5,0)"><line stroke="currentColor" y2="6"></line><text fill="currentColor" y="9" dy="0.71em">JavaScript</text></g><g class="tick" opacity="1" transform="translate(400.83333333333337,0)"><line stroke="currentColor" y2="6"></line><text fill="currentColor" y="9" dy="0.71em">LESS</text></g><g class="tick" opacity="1" transform="translate(509.16666666666674,0)"><line stroke="currentColor" y2="6"></line><text fill="currentColor" y="9" dy="0.71em">TypeScript</text></g></g><rect x="43.33333333333334" y="15.990159901599002" height="244.00984009840099" width="65" fill="#D50657"></rect><rect x="151.66666666666669" y="203.55473554735545" height="56.44526445264455" width="65" fill="#049AE6"></rect><rect x="260" y="206.4329643296433" height="53.56703567035669" width="65" fill="#F8C41B"></rect><rect x="368.33333333333337" y="242.57072570725708" height="17.429274292742917" width="65" fill="#32465B"></rect><rect x="476.66666666666674" y="259.3603936039361" height="0.6396063960639253" width="65" fill="#E45E42"></rect><text class="labels" style="fill: #444;" x="43.33333333333334" y="-4.009840098400998">15 hrs 26 mins</text><text class="labels" style="fill: #444;" x="151.66666666666669" y="183.55473554735545">3 hrs 53 mins</text><text class="labels" style="fill: #444;" x="260" y="186.4329643296433">3 hrs 35 mins</text><text class="labels" style="fill: #444;" x="368.33333333333337" y="222.57072570725708">1 hr 9 mins</text><text class="labels" style="fill: #444;" x="476.66666666666674" y="239.36039360393607">4 mins</text></g></svg>