<svg xmlns="http://www.w3.org/2000/svg" width="875" height="315"><g transform="translate(20, 20)"><g transform="translate(0, 260)" style="font-size: 15px; font-family: monospace; font-weight: 300;" fill="none" font-size="10" font-family="sans-serif" text-anchor="middle"><path class="domain" stroke="currentColor" d="M0.5,6V0.5H835.5V6"></path><g class="tick" opacity="1" transform="translate(78.98648648648646,0)"><line stroke="currentColor" y2="6"></line><text fill="currentColor" y="9" dy="0.71em">TypeScript</text></g><g class="tick" opacity="1" transform="translate(191.82432432432432,0)"><line stroke="currentColor" y2="6"></line><text fill="currentColor" y="9" dy="0.71em">Text</text></g><g class="tick" opacity="1" transform="translate(304.6621621621622,0)"><line stroke="currentColor" y2="6"></line><text fill="currentColor" y="9" dy="0.71em">JavaScript</text></g><g class="tick" opacity="1" transform="translate(417.5,0)"><line stroke="currentColor" y2="6"></line><text fill="currentColor" y="9" dy="0.71em">CSS</text></g><g class="tick" opacity="1" transform="translate(530.3378378378379,0)"><line stroke="currentColor" y2="6"></line><text fill="currentColor" y="9" dy="0.71em">JSON</text></g><g class="tick" opacity="1" transform="translate(643.1756756756757,0)"><line stroke="currentColor" y2="6"></line><text fill="currentColor" y="9" dy="0.71em">Markdown</text></g><g class="tick" opacity="1" transform="translate(756.0135135135135,0)"><line stroke="currentColor" y2="6"></line><text fill="currentColor" y="9" dy="0.71em">XML</text></g></g><rect x="45.1351351351351" y="5.495666878038479" height="254.5043331219615" width="67.70270270270271" fill="#D50657"></rect><rect x="157.97297297297297" y="258.3512999365885" height="1.6487000634115248" width="67.70270270270271" fill="#049AE6"></rect><rect x="270.81081081081084" y="258.6260832804904" height="1.373916719509623" width="67.70270270270271" fill="#F8C41B"></rect><rect x="383.64864864864865" y="259.17564996829424" height="0.8243500317057624" width="67.70270270270271" fill="#32465B"></rect><rect x="496.4864864864865" y="259.285563305855" height="0.7144366941449789" width="67.70270270270271" fill="#E45E42"></rect><rect x="609.3243243243244" y="259.7252166560981" height="0.27478334390190184" width="67.70270270270271" fill="#007C5A"></rect><rect x="722.1621621621622" y="259.9450433312196" height="0.05495666878039174" width="67.70270270270271" fill="#FC69FF"></rect><text class="labels" style="fill: #444;" x="45.1351351351351" y="-14.50433312196152">46 hrs 31 mins</text><text class="labels" style="fill: #444;" x="157.97297297297297" y="238.35129993658848">30 mins</text><text class="labels" style="fill: #444;" x="270.81081081081084" y="238.62608328049038">25 mins</text><text class="labels" style="fill: #444;" x="383.64864864864865" y="239.17564996829424">15 mins</text><text class="labels" style="fill: #444;" x="496.4864864864865" y="239.28556330585502">13 mins</text><text class="labels" style="fill: #444;" x="609.3243243243244" y="239.7252166560981">5 mins</text><text class="labels" style="fill: #444;" x="722.1621621621622" y="239.9450433312196">1 min</text></g></svg>