<svg xmlns="http://www.w3.org/2000/svg" width="750" height="315"><g transform="translate(20, 20)"><g transform="translate(0, 260)" style="font-size: 15px; font-family: monospace; font-weight: 300;" fill="none" font-size="10" font-family="sans-serif" text-anchor="middle"><path class="domain" stroke="currentColor" d="M0.5,6V0.5H710.5V6"></path><g class="tick" opacity="1" transform="translate(77.65625,0)"><line stroke="currentColor" y2="6"></line><text fill="currentColor" y="9" dy="0.71em">JavaScript</text></g><g class="tick" opacity="1" transform="translate(188.59375,0)"><line stroke="currentColor" y2="6"></line><text fill="currentColor" y="9" dy="0.71em">Dart</text></g><g class="tick" opacity="1" transform="translate(299.53125,0)"><line stroke="currentColor" y2="6"></line><text fill="currentColor" y="9" dy="0.71em">JSX</text></g><g class="tick" opacity="1" transform="translate(410.46875000000006,0)"><line stroke="currentColor" y2="6"></line><text fill="currentColor" y="9" dy="0.71em">JSON</text></g><g class="tick" opacity="1" transform="translate(521.40625,0)"><line stroke="currentColor" y2="6"></line><text fill="currentColor" y="9" dy="0.71em">LESS</text></g><g class="tick" opacity="1" transform="translate(632.3437500000001,0)"><line stroke="currentColor" y2="6"></line><text fill="currentColor" y="9" dy="0.71em">XML</text></g></g><rect x="44.375" y="101.96078431372547" height="158.03921568627453" width="66.5625" fill="#D50657"></rect><rect x="155.3125" y="113.17647058823529" height="146.8235294117647" width="66.5625" fill="#049AE6"></rect><rect x="266.25" y="206.98039215686273" height="53.019607843137265" width="66.5625" fill="#F8C41B"></rect><rect x="377.18750000000006" y="253.88235294117646" height="6.117647058823536" width="66.5625" fill="#32465B"></rect><rect x="488.12500000000006" y="256.94117647058823" height="3.058823529411768" width="66.5625" fill="#E45E42"></rect><rect x="599.0625000000001" y="258.98039215686276" height="1.019607843137237" width="66.5625" fill="#007C5A"></rect><text class="labels" style="fill: #444;" x="44.375" y="81.96078431372547">1 hr 55 mins</text><text class="labels" style="fill: #444;" x="155.3125" y="93.17647058823529">1 hr 44 mins</text><text class="labels" style="fill: #444;" x="266.25" y="186.98039215686273">52 mins</text><text class="labels" style="fill: #444;" x="377.18750000000006" y="233.88235294117646">6 mins</text><text class="labels" style="fill: #444;" x="488.12500000000006" y="236.94117647058823">3 mins</text><text class="labels" style="fill: #444;" x="599.0625000000001" y="238.98039215686276">1 min</text></g></svg>