<svg xmlns="http://www.w3.org/2000/svg" width="625" height="315"><g transform="translate(20, 20)"><g transform="translate(0, 260)" style="font-size: 15px; font-family: monospace; font-weight: 300;" fill="none" font-size="10" font-family="sans-serif" text-anchor="middle"><path class="domain" stroke="currentColor" d="M0.5,6V0.5H585.5V6"></path><g class="tick" opacity="1" transform="translate(75.83333333333334,0)"><line stroke="currentColor" y2="6"></line><text fill="currentColor" y="9" dy="0.71em">TypeScript</text></g><g class="tick" opacity="1" transform="translate(184.16666666666669,0)"><line stroke="currentColor" y2="6"></line><text fill="currentColor" y="9" dy="0.71em">JSX</text></g><g class="tick" opacity="1" transform="translate(292.5,0)"><line stroke="currentColor" y2="6"></line><text fill="currentColor" y="9" dy="0.71em">JavaScript</text></g><g class="tick" opacity="1" transform="translate(400.83333333333337,0)"><line stroke="currentColor" y2="6"></line><text fill="currentColor" y="9" dy="0.71em">LESS</text></g><g class="tick" opacity="1" transform="translate(509.16666666666674,0)"><line stroke="currentColor" y2="6"></line><text fill="currentColor" y="9" dy="0.71em">JSON</text></g></g><rect x="43.33333333333334" y="25.92223330009969" height="234.0777666999003" width="65" fill="#D50657"></rect><rect x="151.66666666666669" y="95.13459621136589" height="164.86540378863413" width="65" fill="#049AE6"></rect><rect x="260" y="129.61116650049848" height="130.38883349950152" width="65" fill="#F8C41B"></rect><rect x="368.33333333333337" y="254.03788634097705" height="5.962113659022947" width="65" fill="#32465B"></rect><rect x="476.66666666666674" y="254.81555333998006" height="5.184446660019944" width="65" fill="#E45E42"></rect><text class="labels" style="fill: #444;" x="43.33333333333334" y="5.922233300099691">9 hrs 3 mins</text><text class="labels" style="fill: #444;" x="151.66666666666669" y="75.13459621136589">6 hrs 36 mins</text><text class="labels" style="fill: #444;" x="260" y="109.61116650049848">5 hrs 3 mins</text><text class="labels" style="fill: #444;" x="368.33333333333337" y="234.03788634097705">23 mins</text><text class="labels" style="fill: #444;" x="476.66666666666674" y="234.81555333998006">20 mins</text></g></svg>