<svg xmlns="http://www.w3.org/2000/svg" width="1000" height="315"><g transform="translate(20, 20)"><g transform="translate(0, 260)" style="font-size: 15px; font-family: monospace; font-weight: 300;" fill="none" font-size="10" font-family="sans-serif" text-anchor="middle"><path class="domain" stroke="currentColor" d="M0.5,6V0.5H960.5V6"></path><g class="tick" opacity="1" transform="translate(80.00000000000006,0)"><line stroke="currentColor" y2="6"></line><text fill="currentColor" y="9" dy="0.71em">JSX</text></g><g class="tick" opacity="1" transform="translate(194.28571428571433,0)"><line stroke="currentColor" y2="6"></line><text fill="currentColor" y="9" dy="0.71em">TypeScript</text></g><g class="tick" opacity="1" transform="translate(308.5714285714286,0)"><line stroke="currentColor" y2="6"></line><text fill="currentColor" y="9" dy="0.71em">JavaScript</text></g><g class="tick" opacity="1" transform="translate(422.8571428571429,0)"><line stroke="currentColor" y2="6"></line><text fill="currentColor" y="9" dy="0.71em">LESS</text></g><g class="tick" opacity="1" transform="translate(537.1428571428572,0)"><line stroke="currentColor" y2="6"></line><text fill="currentColor" y="9" dy="0.71em">JSON</text></g><g class="tick" opacity="1" transform="translate(651.4285714285714,0)"><line stroke="currentColor" y2="6"></line><text fill="currentColor" y="9" dy="0.71em">YAML</text></g><g class="tick" opacity="1" transform="translate(765.7142857142858,0)"><line stroke="currentColor" y2="6"></line><text fill="currentColor" y="9" dy="0.71em">Bash</text></g><g class="tick" opacity="1" transform="translate(880.0000000000001,0)"><line stroke="currentColor" y2="6"></line><text fill="currentColor" y="9" dy="0.71em">Docker</text></g></g><rect x="45.71428571428578" y="51.08055009823184" height="208.91944990176816" width="68.57142857142857" fill="#D50657"></rect><rect x="160.00000000000006" y="144.04715127701377" height="115.95284872298623" width="68.57142857142857" fill="#049AE6"></rect><rect x="274.28571428571433" y="152.73084479371315" height="107.26915520628685" width="68.57142857142857" fill="#F8C41B"></rect><rect x="388.5714285714286" y="243.65422396856582" height="16.345776031434184" width="68.57142857142857" fill="#32465B"></rect><rect x="502.8571428571429" y="255.91355599214145" height="4.086444007858546" width="68.57142857142857" fill="#E45E42"></rect><rect x="617.1428571428571" y="256.42436149312374" height="3.5756385068762597" width="68.57142857142857" fill="#007C5A"></rect><rect x="731.4285714285714" y="257.4459724950884" height="2.5540275049115735" width="68.57142857142857" fill="#FC69FF"></rect><rect x="845.7142857142858" y="258.97838899803537" height="1.0216110019646294" width="68.57142857142857" fill="#3EC6CF"></rect><text class="labels" style="fill: #444;" x="45.71428571428578" y="31.08055009823184">4 hrs 9 mins</text><text class="labels" style="fill: #444;" x="160.00000000000006" y="124.04715127701377">2 hrs 27 mins</text><text class="labels" style="fill: #444;" x="274.28571428571433" y="132.73084479371315">2 hrs 10 mins</text><text class="labels" style="fill: #444;" x="388.5714285714286" y="223.65422396856582">32 mins</text><text class="labels" style="fill: #444;" x="502.8571428571429" y="235.91355599214145">8 mins</text><text class="labels" style="fill: #444;" x="617.1428571428571" y="236.42436149312374">7 mins</text><text class="labels" style="fill: #444;" x="731.4285714285714" y="237.44597249508843">5 mins</text><text class="labels" style="fill: #444;" x="845.7142857142858" y="238.97838899803537">2 mins</text></g></svg>