<svg xmlns="http://www.w3.org/2000/svg" width="750" height="315"><g transform="translate(20, 20)"><g transform="translate(0, 260)" style="font-size: 15px; font-family: monospace; font-weight: 300;" fill="none" font-size="10" font-family="sans-serif" text-anchor="middle"><path class="domain" stroke="currentColor" d="M0.5,6V0.5H710.5V6"></path><g class="tick" opacity="1" transform="translate(77.65625,0)"><line stroke="currentColor" y2="6"></line><text fill="currentColor" y="9" dy="0.71em">TypeScript</text></g><g class="tick" opacity="1" transform="translate(188.59375,0)"><line stroke="currentColor" y2="6"></line><text fill="currentColor" y="9" dy="0.71em">JavaScript</text></g><g class="tick" opacity="1" transform="translate(299.53125,0)"><line stroke="currentColor" y2="6"></line><text fill="currentColor" y="9" dy="0.71em">JSX</text></g><g class="tick" opacity="1" transform="translate(410.46875000000006,0)"><line stroke="currentColor" y2="6"></line><text fill="currentColor" y="9" dy="0.71em">JSON</text></g><g class="tick" opacity="1" transform="translate(521.40625,0)"><line stroke="currentColor" y2="6"></line><text fill="currentColor" y="9" dy="0.71em">LESS</text></g><g class="tick" opacity="1" transform="translate(632.3437500000001,0)"><line stroke="currentColor" y2="6"></line><text fill="currentColor" y="9" dy="0.71em">CSS</text></g></g><rect x="44.375" y="21.594684385382056" height="238.40531561461793" width="66.5625" fill="#D50657"></rect><rect x="155.3125" y="206.6611295681063" height="53.338870431893696" width="66.5625" fill="#049AE6"></rect><rect x="266.25" y="235.81395348837208" height="24.18604651162792" width="66.5625" fill="#F8C41B"></rect><rect x="377.18750000000006" y="256.9767441860465" height="3.023255813953483" width="66.5625" fill="#32465B"></rect><rect x="488.12500000000006" y="258.7043189368771" height="1.2956810631229132" width="66.5625" fill="#E45E42"></rect><rect x="599.0625000000001" y="259.1362126245847" height="0.8637873754153134" width="66.5625" fill="#007C5A"></rect><text class="labels" style="fill: #444;" x="44.375" y="1.594684385382056">11 hrs 4 mins</text><text class="labels" style="fill: #444;" x="155.3125" y="186.6611295681063">2 hrs 47 mins</text><text class="labels" style="fill: #444;" x="266.25" y="215.81395348837208">1 hr 12 mins</text><text class="labels" style="fill: #444;" x="377.18750000000006" y="236.97674418604652">14 mins</text><text class="labels" style="fill: #444;" x="488.12500000000006" y="238.7043189368771">6 mins</text><text class="labels" style="fill: #444;" x="599.0625000000001" y="239.1362126245847">4 mins</text></g></svg>