<svg xmlns="http://www.w3.org/2000/svg" width="750" height="315"><g transform="translate(20, 20)"><g transform="translate(0, 260)" style="font-size: 15px; font-family: monospace; font-weight: 300;" fill="none" font-size="10" font-family="sans-serif" text-anchor="middle"><path class="domain" stroke="currentColor" d="M0.5,6V0.5H710.5V6"></path><g class="tick" opacity="1" transform="translate(77.65625,0)"><line stroke="currentColor" y2="6"></line><text fill="currentColor" y="9" dy="0.71em">JavaScript</text></g><g class="tick" opacity="1" transform="translate(188.59375,0)"><line stroke="currentColor" y2="6"></line><text fill="currentColor" y="9" dy="0.71em">TypeScript</text></g><g class="tick" opacity="1" transform="translate(299.53125,0)"><line stroke="currentColor" y2="6"></line><text fill="currentColor" y="9" dy="0.71em">CSS</text></g><g class="tick" opacity="1" transform="translate(410.46875000000006,0)"><line stroke="currentColor" y2="6"></line><text fill="currentColor" y="9" dy="0.71em">JSX</text></g><g class="tick" opacity="1" transform="translate(521.40625,0)"><line stroke="currentColor" y2="6"></line><text fill="currentColor" y="9" dy="0.71em">JSON</text></g><g class="tick" opacity="1" transform="translate(632.3437500000001,0)"><line stroke="currentColor" y2="6"></line><text fill="currentColor" y="9" dy="0.71em">Markdown</text></g></g><rect x="44.375" y="57.3951434878587" height="202.6048565121413" width="66.5625" fill="#D50657"></rect><rect x="155.3125" y="178.4988962472406" height="81.5011037527594" width="66.5625" fill="#049AE6"></rect><rect x="266.25" y="245.07726269315674" height="14.92273730684326" width="66.5625" fill="#F8C41B"></rect><rect x="377.18750000000006" y="246.2251655629139" height="13.7748344370861" width="66.5625" fill="#32465B"></rect><rect x="488.12500000000006" y="251.96467991169976" height="8.035320088300239" width="66.5625" fill="#E45E42"></rect><rect x="599.0625000000001" y="258.27814569536423" height="1.7218543046357695" width="66.5625" fill="#007C5A"></rect><text class="labels" style="fill: #444;" x="44.375" y="37.3951434878587">3 hrs 53 mins</text><text class="labels" style="fill: #444;" x="155.3125" y="158.4988962472406">1 hr 42 mins</text><text class="labels" style="fill: #444;" x="266.25" y="225.07726269315674">26 mins</text><text class="labels" style="fill: #444;" x="377.18750000000006" y="226.2251655629139">24 mins</text><text class="labels" style="fill: #444;" x="488.12500000000006" y="231.96467991169976">14 mins</text><text class="labels" style="fill: #444;" x="599.0625000000001" y="238.27814569536423">3 mins</text></g></svg>