<svg xmlns="http://www.w3.org/2000/svg" width="625" height="315"><g transform="translate(20, 20)"><g transform="translate(0, 260)" style="font-size: 15px; font-family: monospace; font-weight: 300;" fill="none" font-size="10" font-family="sans-serif" text-anchor="middle"><path class="domain" stroke="currentColor" d="M0.5,6V0.5H585.5V6"></path><g class="tick" opacity="1" transform="translate(75.83333333333334,0)"><line stroke="currentColor" y2="6"></line><text fill="currentColor" y="9" dy="0.71em">JSX</text></g><g class="tick" opacity="1" transform="translate(184.16666666666669,0)"><line stroke="currentColor" y2="6"></line><text fill="currentColor" y="9" dy="0.71em">TypeScript</text></g><g class="tick" opacity="1" transform="translate(292.5,0)"><line stroke="currentColor" y2="6"></line><text fill="currentColor" y="9" dy="0.71em">JavaScript</text></g><g class="tick" opacity="1" transform="translate(400.83333333333337,0)"><line stroke="currentColor" y2="6"></line><text fill="currentColor" y="9" dy="0.71em">YAML</text></g><g class="tick" opacity="1" transform="translate(509.16666666666674,0)"><line stroke="currentColor" y2="6"></line><text fill="currentColor" y="9" dy="0.71em">HTML</text></g></g><rect x="43.33333333333334" y="31.553398058252412" height="228.4466019417476" width="65" fill="#D50657"></rect><rect x="151.66666666666669" y="131.57766990291262" height="128.42233009708738" width="65" fill="#049AE6"></rect><rect x="260" y="215.5097087378641" height="44.49029126213591" width="65" fill="#F8C41B"></rect><rect x="368.33333333333337" y="258.1067961165049" height="1.8932038834951186" width="65" fill="#32465B"></rect><rect x="476.66666666666674" y="258.42233009708735" height="1.5776699029126462" width="65" fill="#E45E42"></rect><text class="labels" style="fill: #444;" x="43.33333333333334" y="11.553398058252412">7 hrs 24 mins</text><text class="labels" style="fill: #444;" x="151.66666666666669" y="111.57766990291262">4 hrs 7 mins</text><text class="labels" style="fill: #444;" x="260" y="195.5097087378641">1 hr 41 mins</text><text class="labels" style="fill: #444;" x="368.33333333333337" y="238.10679611650488">6 mins</text><text class="labels" style="fill: #444;" x="476.66666666666674" y="238.42233009708735">5 mins</text></g></svg>