<svg xmlns="http://www.w3.org/2000/svg" width="750" height="315"><g transform="translate(20, 20)"><g transform="translate(0, 260)" style="font-size: 15px; font-family: monospace; font-weight: 300;" fill="none" font-size="10" font-family="sans-serif" text-anchor="middle"><path class="domain" stroke="currentColor" d="M0.5,6V0.5H710.5V6"></path><g class="tick" opacity="1" transform="translate(77.65625,0)"><line stroke="currentColor" y2="6"></line><text fill="currentColor" y="9" dy="0.71em">JavaScript</text></g><g class="tick" opacity="1" transform="translate(188.59375,0)"><line stroke="currentColor" y2="6"></line><text fill="currentColor" y="9" dy="0.71em">JSX</text></g><g class="tick" opacity="1" transform="translate(299.53125,0)"><line stroke="currentColor" y2="6"></line><text fill="currentColor" y="9" dy="0.71em">TypeScript</text></g><g class="tick" opacity="1" transform="translate(410.46875000000006,0)"><line stroke="currentColor" y2="6"></line><text fill="currentColor" y="9" dy="0.71em">LESS</text></g><g class="tick" opacity="1" transform="translate(521.40625,0)"><line stroke="currentColor" y2="6"></line><text fill="currentColor" y="9" dy="0.71em">YAML</text></g><g class="tick" opacity="1" transform="translate(632.3437500000001,0)"><line stroke="currentColor" y2="6"></line><text fill="currentColor" y="9" dy="0.71em">JSON</text></g></g><rect x="44.375" y="42.345276872964156" height="217.65472312703585" width="66.5625" fill="#D50657"></rect><rect x="155.3125" y="45.309446254071624" height="214.69055374592838" width="66.5625" fill="#049AE6"></rect><rect x="266.25" y="150.3257328990228" height="109.6742671009772" width="66.5625" fill="#F8C41B"></rect><rect x="377.18750000000006" y="240.94462540716611" height="19.055374592833886" width="66.5625" fill="#32465B"></rect><rect x="488.12500000000006" y="255.7654723127036" height="4.234527687296406" width="66.5625" fill="#E45E42"></rect><rect x="599.0625000000001" y="259.1530944625407" height="0.8469055374592926" width="66.5625" fill="#007C5A"></rect><text class="labels" style="fill: #444;" x="44.375" y="22.345276872964156">5 hrs 14 mins</text><text class="labels" style="fill: #444;" x="155.3125" y="25.309446254071624">5 hrs 7 mins</text><text class="labels" style="fill: #444;" x="266.25" y="130.3257328990228">2 hrs 59 mins</text><text class="labels" style="fill: #444;" x="377.18750000000006" y="220.94462540716611">45 mins</text><text class="labels" style="fill: #444;" x="488.12500000000006" y="235.7654723127036">10 mins</text><text class="labels" style="fill: #444;" x="599.0625000000001" y="239.1530944625407">2 mins</text></g></svg>