<svg xmlns="http://www.w3.org/2000/svg" width="875" height="315"><g transform="translate(20, 20)"><g transform="translate(0, 260)" style="font-size: 15px; font-family: monospace; font-weight: 300;" fill="none" font-size="10" font-family="sans-serif" text-anchor="middle"><path class="domain" stroke="currentColor" d="M0.5,6V0.5H835.5V6"></path><g class="tick" opacity="1" transform="translate(78.98648648648646,0)"><line stroke="currentColor" y2="6"></line><text fill="currentColor" y="9" dy="0.71em">JSX</text></g><g class="tick" opacity="1" transform="translate(191.82432432432432,0)"><line stroke="currentColor" y2="6"></line><text fill="currentColor" y="9" dy="0.71em">LESS</text></g><g class="tick" opacity="1" transform="translate(304.6621621621622,0)"><line stroke="currentColor" y2="6"></line><text fill="currentColor" y="9" dy="0.71em">JavaScript</text></g><g class="tick" opacity="1" transform="translate(417.5,0)"><line stroke="currentColor" y2="6"></line><text fill="currentColor" y="9" dy="0.71em">Bash</text></g><g class="tick" opacity="1" transform="translate(530.3378378378379,0)"><line stroke="currentColor" y2="6"></line><text fill="currentColor" y="9" dy="0.71em">YAML</text></g><g class="tick" opacity="1" transform="translate(643.1756756756757,0)"><line stroke="currentColor" y2="6"></line><text fill="currentColor" y="9" dy="0.71em">Docker</text></g><g class="tick" opacity="1" transform="translate(756.0135135135135,0)"><line stroke="currentColor" y2="6"></line><text fill="currentColor" y="9" dy="0.71em">TypeScript</text></g></g><rect x="45.1351351351351" y="20.85004009623094" height="239.14995990376906" width="67.70270270270271" fill="#D50657"></rect><rect x="157.97297297297297" y="230.60144346431434" height="29.398556535685657" width="67.70270270270271" fill="#049AE6"></rect><rect x="270.81081081081084" y="232.0609462710505" height="27.93905372894949" width="67.70270270270271" fill="#F8C41B"></rect><rect x="383.64864864864865" y="248.53247794707298" height="11.467522052927023" width="67.70270270270271" fill="#32465B"></rect><rect x="496.4864864864865" y="250.82598235765838" height="9.174017642341624" width="67.70270270270271" fill="#E45E42"></rect><rect x="609.3243243243244" y="256.03849238171614" height="3.9615076182838607" width="67.70270270270271" fill="#007C5A"></rect><rect x="722.1621621621622" y="259.5829991980754" height="0.417000801924587" width="67.70270270270271" fill="#FC69FF"></rect><text class="labels" style="fill: #444;" x="45.1351351351351" y="0.8500400962309413">11 hrs 47 mins</text><text class="labels" style="fill: #444;" x="157.97297297297297" y="210.60144346431434">1 hr 41 mins</text><text class="labels" style="fill: #444;" x="270.81081081081084" y="212.0609462710505">1 hr 34 mins</text><text class="labels" style="fill: #444;" x="383.64864864864865" y="228.53247794707298">55 mins</text><text class="labels" style="fill: #444;" x="496.4864864864865" y="230.82598235765838">44 mins</text><text class="labels" style="fill: #444;" x="609.3243243243244" y="236.03849238171614">19 mins</text><text class="labels" style="fill: #444;" x="722.1621621621622" y="239.5829991980754">2 mins</text></g></svg>