<svg xmlns="http://www.w3.org/2000/svg" width="750" height="315"><g transform="translate(20, 20)"><g transform="translate(0, 260)" style="font-size: 15px; font-family: monospace; font-weight: 300;" fill="none" font-size="10" font-family="sans-serif" text-anchor="middle"><path class="domain" stroke="currentColor" d="M0.5,6V0.5H710.5V6"></path><g class="tick" opacity="1" transform="translate(77.65625,0)"><line stroke="currentColor" y2="6"></line><text fill="currentColor" y="9" dy="0.71em">Dart</text></g><g class="tick" opacity="1" transform="translate(188.59375,0)"><line stroke="currentColor" y2="6"></line><text fill="currentColor" y="9" dy="0.71em">JavaScript</text></g><g class="tick" opacity="1" transform="translate(299.53125,0)"><line stroke="currentColor" y2="6"></line><text fill="currentColor" y="9" dy="0.71em">JSON</text></g><g class="tick" opacity="1" transform="translate(410.46875000000006,0)"><line stroke="currentColor" y2="6"></line><text fill="currentColor" y="9" dy="0.71em">JSX</text></g><g class="tick" opacity="1" transform="translate(521.40625,0)"><line stroke="currentColor" y2="6"></line><text fill="currentColor" y="9" dy="0.71em">TypeScript</text></g><g class="tick" opacity="1" transform="translate(632.3437500000001,0)"><line stroke="currentColor" y2="6"></line><text fill="currentColor" y="9" dy="0.71em">YAML</text></g></g><rect x="44.375" y="115.0442477876106" height="144.9557522123894" width="66.5625" fill="#D50657"></rect><rect x="155.3125" y="227.78761061946904" height="32.212389380530965" width="66.5625" fill="#049AE6"></rect><rect x="266.25" y="232.38938053097343" height="27.610619469026574" width="66.5625" fill="#F8C41B"></rect><rect x="377.18750000000006" y="250.79646017699113" height="9.203539823008867" width="66.5625" fill="#32465B"></rect><rect x="488.12500000000006" y="253.09734513274336" height="6.9026548672566435" width="66.5625" fill="#E45E42"></rect><rect x="599.0625000000001" y="258.8495575221239" height="1.1504424778760836" width="66.5625" fill="#007C5A"></rect><text class="labels" style="fill: #444;" x="44.375" y="95.0442477876106">1 hr 26 mins</text><text class="labels" style="fill: #444;" x="155.3125" y="207.78761061946904">28 mins</text><text class="labels" style="fill: #444;" x="266.25" y="212.38938053097343">24 mins</text><text class="labels" style="fill: #444;" x="377.18750000000006" y="230.79646017699113">8 mins</text><text class="labels" style="fill: #444;" x="488.12500000000006" y="233.09734513274336">6 mins</text><text class="labels" style="fill: #444;" x="599.0625000000001" y="238.84955752212392">1 min</text></g></svg>