<svg xmlns="http://www.w3.org/2000/svg" width="1000" height="315"><g transform="translate(20, 20)"><g transform="translate(0, 260)" style="font-size: 15px; font-family: monospace; font-weight: 300;" fill="none" font-size="10" font-family="sans-serif" text-anchor="middle"><path class="domain" stroke="currentColor" d="M0.5,6V0.5H960.5V6"></path><g class="tick" opacity="1" transform="translate(80.00000000000006,0)"><line stroke="currentColor" y2="6"></line><text fill="currentColor" y="9" dy="0.71em">JavaScript</text></g><g class="tick" opacity="1" transform="translate(194.28571428571433,0)"><line stroke="currentColor" y2="6"></line><text fill="currentColor" y="9" dy="0.71em">Dart</text></g><g class="tick" opacity="1" transform="translate(308.5714285714286,0)"><line stroke="currentColor" y2="6"></line><text fill="currentColor" y="9" dy="0.71em">JSON</text></g><g class="tick" opacity="1" transform="translate(422.8571428571429,0)"><line stroke="currentColor" y2="6"></line><text fill="currentColor" y="9" dy="0.71em">JSX</text></g><g class="tick" opacity="1" transform="translate(537.1428571428572,0)"><line stroke="currentColor" y2="6"></line><text fill="currentColor" y="9" dy="0.71em">TypeScript</text></g><g class="tick" opacity="1" transform="translate(651.4285714285714,0)"><line stroke="currentColor" y2="6"></line><text fill="currentColor" y="9" dy="0.71em">LESS</text></g><g class="tick" opacity="1" transform="translate(765.7142857142858,0)"><line stroke="currentColor" y2="6"></line><text fill="currentColor" y="9" dy="0.71em">Properties</text></g><g class="tick" opacity="1" transform="translate(880.0000000000001,0)"><line stroke="currentColor" y2="6"></line><text fill="currentColor" y="9" dy="0.71em">Git Config</text></g></g><rect x="45.71428571428578" y="40.688575899843514" height="219.3114241001565" width="68.57142857142857" fill="#D50657"></rect><rect x="160.00000000000006" y="162.34741784037558" height="97.65258215962442" width="68.57142857142857" fill="#049AE6"></rect><rect x="274.28571428571433" y="218.0907668231612" height="41.9092331768388" width="68.57142857142857" fill="#F8C41B"></rect><rect x="388.5714285714286" y="247.79342723004694" height="12.206572769953056" width="68.57142857142857" fill="#32465B"></rect><rect x="502.8571428571429" y="248.2003129890454" height="11.799687010954614" width="68.57142857142857" fill="#E45E42"></rect><rect x="617.1428571428571" y="255.93114241001564" height="4.068857589984361" width="68.57142857142857" fill="#007C5A"></rect><rect x="731.4285714285714" y="255.93114241001564" height="4.068857589984361" width="68.57142857142857" fill="#FC69FF"></rect><rect x="845.7142857142858" y="259.59311424100156" height="0.4068857589984418" width="68.57142857142857" fill="#3EC6CF"></rect><text class="labels" style="fill: #444;" x="45.71428571428578" y="20.688575899843514">5 hrs 39 mins</text><text class="labels" style="fill: #444;" x="160.00000000000006" y="142.34741784037558">2 hrs 40 mins</text><text class="labels" style="fill: #444;" x="274.28571428571433" y="198.0907668231612">1 hr 3 mins</text><text class="labels" style="fill: #444;" x="388.5714285714286" y="227.79342723004694">30 mins</text><text class="labels" style="fill: #444;" x="502.8571428571429" y="228.2003129890454">29 mins</text><text class="labels" style="fill: #444;" x="617.1428571428571" y="235.93114241001564">10 mins</text><text class="labels" style="fill: #444;" x="731.4285714285714" y="235.93114241001564">10 mins</text><text class="labels" style="fill: #444;" x="845.7142857142858" y="239.59311424100156">1 min</text></g></svg>