<svg xmlns="http://www.w3.org/2000/svg" width="625" height="315"><g transform="translate(20, 20)"><g transform="translate(0, 260)" style="font-size: 15px; font-family: monospace; font-weight: 300;" fill="none" font-size="10" font-family="sans-serif" text-anchor="middle"><path class="domain" stroke="currentColor" d="M0.5,6V0.5H585.5V6"></path><g class="tick" opacity="1" transform="translate(75.83333333333334,0)"><line stroke="currentColor" y2="6"></line><text fill="currentColor" y="9" dy="0.71em">JavaScript</text></g><g class="tick" opacity="1" transform="translate(184.16666666666669,0)"><line stroke="currentColor" y2="6"></line><text fill="currentColor" y="9" dy="0.71em">JSX</text></g><g class="tick" opacity="1" transform="translate(292.5,0)"><line stroke="currentColor" y2="6"></line><text fill="currentColor" y="9" dy="0.71em">Bash</text></g><g class="tick" opacity="1" transform="translate(400.83333333333337,0)"><line stroke="currentColor" y2="6"></line><text fill="currentColor" y="9" dy="0.71em">TypeScript</text></g><g class="tick" opacity="1" transform="translate(509.16666666666674,0)"><line stroke="currentColor" y2="6"></line><text fill="currentColor" y="9" dy="0.71em">JSON</text></g></g><rect x="43.33333333333334" y="15.160349854227398" height="244.8396501457726" width="65" fill="#D50657"></rect><rect x="151.66666666666669" y="228.16326530612244" height="31.83673469387756" width="65" fill="#049AE6"></rect><rect x="260" y="255.60349854227405" height="4.396501457725947" width="65" fill="#F8C41B"></rect><rect x="368.33333333333337" y="255.75510204081633" height="4.244897959183675" width="65" fill="#32465B"></rect><rect x="476.66666666666674" y="256.96793002915456" height="3.0320699708454413" width="65" fill="#E45E42"></rect><text class="labels" style="fill: #444;" x="43.33333333333334" y="-4.839650145772602">16 hrs 15 mins</text><text class="labels" style="fill: #444;" x="151.66666666666669" y="208.16326530612244">2 hrs 10 mins</text><text class="labels" style="fill: #444;" x="260" y="235.60349854227405">29 mins</text><text class="labels" style="fill: #444;" x="368.33333333333337" y="235.75510204081633">28 mins</text><text class="labels" style="fill: #444;" x="476.66666666666674" y="236.96793002915456">20 mins</text></g></svg>