<svg xmlns="http://www.w3.org/2000/svg" width="1000" height="315"><g transform="translate(20, 20)"><g transform="translate(0, 260)" style="font-size: 15px; font-family: monospace; font-weight: 300;" fill="none" font-size="10" font-family="sans-serif" text-anchor="middle"><path class="domain" stroke="currentColor" d="M0.5,6V0.5H960.5V6"></path><g class="tick" opacity="1" transform="translate(80.00000000000006,0)"><line stroke="currentColor" y2="6"></line><text fill="currentColor" y="9" dy="0.71em">JavaScript</text></g><g class="tick" opacity="1" transform="translate(194.28571428571433,0)"><line stroke="currentColor" y2="6"></line><text fill="currentColor" y="9" dy="0.71em">JSON</text></g><g class="tick" opacity="1" transform="translate(308.5714285714286,0)"><line stroke="currentColor" y2="6"></line><text fill="currentColor" y="9" dy="0.71em">TypeScript</text></g><g class="tick" opacity="1" transform="translate(422.8571428571429,0)"><line stroke="currentColor" y2="6"></line><text fill="currentColor" y="9" dy="0.71em">Markdown</text></g><g class="tick" opacity="1" transform="translate(537.1428571428572,0)"><line stroke="currentColor" y2="6"></line><text fill="currentColor" y="9" dy="0.71em">YAML</text></g><g class="tick" opacity="1" transform="translate(651.4285714285714,0)"><line stroke="currentColor" y2="6"></line><text fill="currentColor" y="9" dy="0.71em">Git Config</text></g><g class="tick" opacity="1" transform="translate(765.7142857142858,0)"><line stroke="currentColor" y2="6"></line><text fill="currentColor" y="9" dy="0.71em">XML</text></g><g class="tick" opacity="1" transform="translate(880.0000000000001,0)"><line stroke="currentColor" y2="6"></line><text fill="currentColor" y="9" dy="0.71em">Groovy</text></g></g><rect x="45.71428571428578" y="61.03286384976527" height="198.96713615023472" width="68.57142857142857" fill="#D50657"></rect><rect x="160.00000000000006" y="115.35211267605632" height="144.64788732394368" width="68.57142857142857" fill="#049AE6"></rect><rect x="274.28571428571433" y="117.79342723004694" height="142.20657276995306" width="68.57142857142857" fill="#F8C41B"></rect><rect x="388.5714285714286" y="172.72300469483565" height="87.27699530516435" width="68.57142857142857" fill="#32465B"></rect><rect x="502.8571428571429" y="252.6760563380282" height="7.323943661971811" width="68.57142857142857" fill="#E45E42"></rect><rect x="617.1428571428571" y="252.6760563380282" height="7.323943661971811" width="68.57142857142857" fill="#007C5A"></rect><rect x="731.4285714285714" y="257.5586854460094" height="2.441314553990594" width="68.57142857142857" fill="#FC69FF"></rect><rect x="845.7142857142858" y="258.77934272300473" height="1.2206572769952686" width="68.57142857142857" fill="#3EC6CF"></rect><text class="labels" style="fill: #444;" x="45.71428571428578" y="41.03286384976527">3 hrs 26 mins</text><text class="labels" style="fill: #444;" x="160.00000000000006" y="95.35211267605632">2 hrs 37 mins</text><text class="labels" style="fill: #444;" x="274.28571428571433" y="97.79342723004694">2 hrs 33 mins</text><text class="labels" style="fill: #444;" x="388.5714285714286" y="152.72300469483565">1 hr 43 mins</text><text class="labels" style="fill: #444;" x="502.8571428571429" y="232.6760563380282">12 mins</text><text class="labels" style="fill: #444;" x="617.1428571428571" y="232.6760563380282">12 mins</text><text class="labels" style="fill: #444;" x="731.4285714285714" y="237.5586854460094">4 mins</text><text class="labels" style="fill: #444;" x="845.7142857142858" y="238.77934272300473">2 mins</text></g></svg>