<svg xmlns="http://www.w3.org/2000/svg" width="750" height="315"><g transform="translate(20, 20)"><g transform="translate(0, 260)" style="font-size: 15px; font-family: monospace; font-weight: 300;" fill="none" font-size="10" font-family="sans-serif" text-anchor="middle"><path class="domain" stroke="currentColor" d="M0.5,6V0.5H710.5V6"></path><g class="tick" opacity="1" transform="translate(77.65625,0)"><line stroke="currentColor" y2="6"></line><text fill="currentColor" y="9" dy="0.71em">JSX</text></g><g class="tick" opacity="1" transform="translate(188.59375,0)"><line stroke="currentColor" y2="6"></line><text fill="currentColor" y="9" dy="0.71em">JavaScript</text></g><g class="tick" opacity="1" transform="translate(299.53125,0)"><line stroke="currentColor" y2="6"></line><text fill="currentColor" y="9" dy="0.71em">Dart</text></g><g class="tick" opacity="1" transform="translate(410.46875000000006,0)"><line stroke="currentColor" y2="6"></line><text fill="currentColor" y="9" dy="0.71em">JSON</text></g><g class="tick" opacity="1" transform="translate(521.40625,0)"><line stroke="currentColor" y2="6"></line><text fill="currentColor" y="9" dy="0.71em">TypeScript</text></g><g class="tick" opacity="1" transform="translate(632.3437500000001,0)"><line stroke="currentColor" y2="6"></line><text fill="currentColor" y="9" dy="0.71em">LESS</text></g></g><rect x="44.375" y="32.2180916976456" height="227.7819083023544" width="66.5625" fill="#D50657"></rect><rect x="155.3125" y="180.74349442379182" height="79.25650557620818" width="66.5625" fill="#049AE6"></rect><rect x="266.25" y="182.67657992565057" height="77.32342007434943" width="66.5625" fill="#F8C41B"></rect><rect x="377.18750000000006" y="244.53531598513013" height="15.464684014869874" width="66.5625" fill="#32465B"></rect><rect x="488.12500000000006" y="246.46840148698885" height="13.531598513011147" width="66.5625" fill="#E45E42"></rect><rect x="599.0625000000001" y="256.7781908302355" height="3.2218091697645264" width="66.5625" fill="#007C5A"></rect><text class="labels" style="fill: #444;" x="44.375" y="12.218091697645598">7 hrs 7 mins</text><text class="labels" style="fill: #444;" x="155.3125" y="160.74349442379182">2 hrs 46 mins</text><text class="labels" style="fill: #444;" x="266.25" y="162.67657992565057">2 hrs 40 mins</text><text class="labels" style="fill: #444;" x="377.18750000000006" y="224.53531598513013">48 mins</text><text class="labels" style="fill: #444;" x="488.12500000000006" y="226.46840148698885">42 mins</text><text class="labels" style="fill: #444;" x="599.0625000000001" y="236.77819083023547">10 mins</text></g></svg>