<svg xmlns="http://www.w3.org/2000/svg" width="625" height="315"><g transform="translate(20, 20)"><g transform="translate(0, 260)" style="font-size: 15px; font-family: monospace; font-weight: 300;" fill="none" font-size="10" font-family="sans-serif" text-anchor="middle"><path class="domain" stroke="currentColor" d="M0.5,6V0.5H585.5V6"></path><g class="tick" opacity="1" transform="translate(75.83333333333334,0)"><line stroke="currentColor" y2="6"></line><text fill="currentColor" y="9" dy="0.71em">JavaScript</text></g><g class="tick" opacity="1" transform="translate(184.16666666666669,0)"><line stroke="currentColor" y2="6"></line><text fill="currentColor" y="9" dy="0.71em">TypeScript</text></g><g class="tick" opacity="1" transform="translate(292.5,0)"><line stroke="currentColor" y2="6"></line><text fill="currentColor" y="9" dy="0.71em">JSX</text></g><g class="tick" opacity="1" transform="translate(400.83333333333337,0)"><line stroke="currentColor" y2="6"></line><text fill="currentColor" y="9" dy="0.71em">JSON</text></g><g class="tick" opacity="1" transform="translate(509.16666666666674,0)"><line stroke="currentColor" y2="6"></line><text fill="currentColor" y="9" dy="0.71em">LESS</text></g></g><rect x="43.33333333333334" y="65" height="195" width="65" fill="#D50657"></rect><rect x="151.66666666666669" y="161.2" height="98.80000000000001" width="65" fill="#049AE6"></rect><rect x="260" y="185.90000000000003" height="74.09999999999997" width="65" fill="#F8C41B"></rect><rect x="368.33333333333337" y="257.4" height="2.6000000000000227" width="65" fill="#32465B"></rect><rect x="476.66666666666674" y="259.35" height="0.6499999999999773" width="65" fill="#E45E42"></rect><text class="labels" style="fill: #444;" x="43.33333333333334" y="45">3 hrs</text><text class="labels" style="fill: #444;" x="151.66666666666669" y="141.2">1 hr 52 mins</text><text class="labels" style="fill: #444;" x="260" y="165.90000000000003">1 hr 14 mins</text><text class="labels" style="fill: #444;" x="368.33333333333337" y="237.39999999999998">4 mins</text><text class="labels" style="fill: #444;" x="476.66666666666674" y="239.35000000000002">1 min</text></g></svg>