<svg xmlns="http://www.w3.org/2000/svg" width="875" height="315"><g transform="translate(20, 20)"><g transform="translate(0, 260)" style="font-size: 15px; font-family: monospace; font-weight: 300;" fill="none" font-size="10" font-family="sans-serif" text-anchor="middle"><path class="domain" stroke="currentColor" d="M0.5,6V0.5H835.5V6"></path><g class="tick" opacity="1" transform="translate(78.98648648648646,0)"><line stroke="currentColor" y2="6"></line><text fill="currentColor" y="9" dy="0.71em">JavaScript</text></g><g class="tick" opacity="1" transform="translate(191.82432432432432,0)"><line stroke="currentColor" y2="6"></line><text fill="currentColor" y="9" dy="0.71em">Dart</text></g><g class="tick" opacity="1" transform="translate(304.6621621621622,0)"><line stroke="currentColor" y2="6"></line><text fill="currentColor" y="9" dy="0.71em">TypeScript</text></g><g class="tick" opacity="1" transform="translate(417.5,0)"><line stroke="currentColor" y2="6"></line><text fill="currentColor" y="9" dy="0.71em">JSX</text></g><g class="tick" opacity="1" transform="translate(530.3378378378379,0)"><line stroke="currentColor" y2="6"></line><text fill="currentColor" y="9" dy="0.71em">Bash</text></g><g class="tick" opacity="1" transform="translate(643.1756756756757,0)"><line stroke="currentColor" y2="6"></line><text fill="currentColor" y="9" dy="0.71em">JSON</text></g><g class="tick" opacity="1" transform="translate(756.0135135135135,0)"><line stroke="currentColor" y2="6"></line><text fill="currentColor" y="9" dy="0.71em">LESS</text></g></g><rect x="45.1351351351351" y="21.55887230514095" height="238.44112769485906" width="67.70270270270271" fill="#D50657"></rect><rect x="157.97297297297297" y="214.5107794361526" height="45.4892205638474" width="67.70270270270271" fill="#049AE6"></rect><rect x="270.81081081081084" y="228.0928689883914" height="31.907131011608612" width="67.70270270270271" fill="#F8C41B"></rect><rect x="383.64864864864865" y="247.49585406301824" height="12.504145936981757" width="67.70270270270271" fill="#32465B"></rect><rect x="496.4864864864865" y="254.17910447761196" height="5.820895522388042" width="67.70270270270271" fill="#E45E42"></rect><rect x="609.3243243243244" y="255.25704809286898" height="4.742951907131015" width="67.70270270270271" fill="#007C5A"></rect><rect x="722.1621621621622" y="255.6882255389718" height="4.311774461028193" width="67.70270270270271" fill="#FC69FF"></rect><text class="labels" style="fill: #444;" x="45.1351351351351" y="1.5588723051409517">11 hrs 6 mins</text><text class="labels" style="fill: #444;" x="157.97297297297297" y="194.5107794361526">2 hrs 11 mins</text><text class="labels" style="fill: #444;" x="270.81081081081084" y="208.0928689883914">1 hr 48 mins</text><text class="labels" style="fill: #444;" x="383.64864864864865" y="227.49585406301824">58 mins</text><text class="labels" style="fill: #444;" x="496.4864864864865" y="234.17910447761196">27 mins</text><text class="labels" style="fill: #444;" x="609.3243243243244" y="235.25704809286898">22 mins</text><text class="labels" style="fill: #444;" x="722.1621621621622" y="235.6882255389718">20 mins</text></g></svg>