<svg xmlns="http://www.w3.org/2000/svg" width="625" height="315"><g transform="translate(20, 20)"><g transform="translate(0, 260)" style="font-size: 15px; font-family: monospace; font-weight: 300;" fill="none" font-size="10" font-family="sans-serif" text-anchor="middle"><path class="domain" stroke="currentColor" d="M0.5,6V0.5H585.5V6"></path><g class="tick" opacity="1" transform="translate(75.83333333333334,0)"><line stroke="currentColor" y2="6"></line><text fill="currentColor" y="9" dy="0.71em">JSX</text></g><g class="tick" opacity="1" transform="translate(184.16666666666669,0)"><line stroke="currentColor" y2="6"></line><text fill="currentColor" y="9" dy="0.71em">CSS</text></g><g class="tick" opacity="1" transform="translate(292.5,0)"><line stroke="currentColor" y2="6"></line><text fill="currentColor" y="9" dy="0.71em">JavaScript</text></g><g class="tick" opacity="1" transform="translate(400.83333333333337,0)"><line stroke="currentColor" y2="6"></line><text fill="currentColor" y="9" dy="0.71em">LESS</text></g><g class="tick" opacity="1" transform="translate(509.16666666666674,0)"><line stroke="currentColor" y2="6"></line><text fill="currentColor" y="9" dy="0.71em">TypeScript</text></g></g><rect x="43.33333333333334" y="13.395157135497172" height="246.6048428645028" width="65" fill="#D50657"></rect><rect x="151.66666666666669" y="205.74961360123646" height="54.25038639876354" width="65" fill="#049AE6"></rect><rect x="260" y="214.4564657393096" height="45.54353426069039" width="65" fill="#F8C41B"></rect><rect x="368.33333333333337" y="231.33436373003607" height="28.665636269963926" width="65" fill="#32465B"></rect><rect x="476.66666666666674" y="257.1870170015456" height="2.8129829984544017" width="65" fill="#E45E42"></rect><text class="labels" style="fill: #444;" x="43.33333333333334" y="-6.604842864502828">18 hrs 41 mins</text><text class="labels" style="fill: #444;" x="151.66666666666669" y="185.74961360123646">4 hrs 5 mins</text><text class="labels" style="fill: #444;" x="260" y="194.4564657393096">3 hrs 40 mins</text><text class="labels" style="fill: #444;" x="368.33333333333337" y="211.33436373003607">2 hrs 14 mins</text><text class="labels" style="fill: #444;" x="476.66666666666674" y="237.1870170015456">21 mins</text></g></svg>