<svg xmlns="http://www.w3.org/2000/svg" width="625" height="315"><g transform="translate(20, 20)"><g transform="translate(0, 260)" style="font-size: 15px; font-family: monospace; font-weight: 300;" fill="none" font-size="10" font-family="sans-serif" text-anchor="middle"><path class="domain" stroke="currentColor" d="M0.5,6V0.5H585.5V6"></path><g class="tick" opacity="1" transform="translate(75.83333333333334,0)"><line stroke="currentColor" y2="6"></line><text fill="currentColor" y="9" dy="0.71em">TypeScript</text></g><g class="tick" opacity="1" transform="translate(184.16666666666669,0)"><line stroke="currentColor" y2="6"></line><text fill="currentColor" y="9" dy="0.71em">JavaScript</text></g><g class="tick" opacity="1" transform="translate(292.5,0)"><line stroke="currentColor" y2="6"></line><text fill="currentColor" y="9" dy="0.71em">JSX</text></g><g class="tick" opacity="1" transform="translate(400.83333333333337,0)"><line stroke="currentColor" y2="6"></line><text fill="currentColor" y="9" dy="0.71em">JSON</text></g><g class="tick" opacity="1" transform="translate(509.16666666666674,0)"><line stroke="currentColor" y2="6"></line><text fill="currentColor" y="9" dy="0.71em">Dart</text></g></g><rect x="43.33333333333334" y="72.82913165266106" height="187.17086834733894" width="65" fill="#D50657"></rect><rect x="151.66666666666669" y="96.1344537815126" height="163.8655462184874" width="65" fill="#049AE6"></rect><rect x="260" y="162.40896358543418" height="97.59103641456582" width="65" fill="#F8C41B"></rect><rect x="368.33333333333337" y="246.890756302521" height="13.109243697479002" width="65" fill="#32465B"></rect><rect x="476.66666666666674" y="256.35854341736695" height="3.6414565826330545" width="65" fill="#E45E42"></rect><text class="labels" style="fill: #444;" x="43.33333333333334" y="52.82913165266106">2 hrs 57 mins</text><text class="labels" style="fill: #444;" x="151.66666666666669" y="76.1344537815126">2 hrs 25 mins</text><text class="labels" style="fill: #444;" x="260" y="142.40896358543418">1 hr 34 mins</text><text class="labels" style="fill: #444;" x="368.33333333333337" y="226.890756302521">18 mins</text><text class="labels" style="fill: #444;" x="476.66666666666674" y="236.35854341736695">5 mins</text></g></svg>