<svg xmlns="http://www.w3.org/2000/svg" width="625" height="315"><g transform="translate(20, 20)"><g transform="translate(0, 260)" style="font-size: 15px; font-family: monospace; font-weight: 300;" fill="none" font-size="10" font-family="sans-serif" text-anchor="middle"><path class="domain" stroke="currentColor" d="M0.5,6V0.5H585.5V6"></path><g class="tick" opacity="1" transform="translate(75.83333333333334,0)"><line stroke="currentColor" y2="6"></line><text fill="currentColor" y="9" dy="0.71em">TypeScript</text></g><g class="tick" opacity="1" transform="translate(184.16666666666669,0)"><line stroke="currentColor" y2="6"></line><text fill="currentColor" y="9" dy="0.71em">JavaScript</text></g><g class="tick" opacity="1" transform="translate(292.5,0)"><line stroke="currentColor" y2="6"></line><text fill="currentColor" y="9" dy="0.71em">Groovy</text></g><g class="tick" opacity="1" transform="translate(400.83333333333337,0)"><line stroke="currentColor" y2="6"></line><text fill="currentColor" y="9" dy="0.71em">JSON</text></g><g class="tick" opacity="1" transform="translate(509.16666666666674,0)"><line stroke="currentColor" y2="6"></line><text fill="currentColor" y="9" dy="0.71em">Properties</text></g></g><rect x="43.33333333333334" y="21.612635078969245" height="238.38736492103075" width="65" fill="#D50657"></rect><rect x="151.66666666666669" y="228.8778054862843" height="31.122194513715698" width="65" fill="#049AE6"></rect><rect x="260" y="256.3258520365752" height="3.6741479634247867" width="65" fill="#F8C41B"></rect><rect x="368.33333333333337" y="259.3516209476309" height="0.64837905236908" width="65" fill="#32465B"></rect><rect x="476.66666666666674" y="259.7838736492103" height="0.21612635078969333" width="65" fill="#E45E42"></rect><text class="labels" style="fill: #444;" x="43.33333333333334" y="1.6126350789692445">11 hrs 3 mins</text><text class="labels" style="fill: #444;" x="151.66666666666669" y="208.8778054862843">1 hr 44 mins</text><text class="labels" style="fill: #444;" x="260" y="236.3258520365752">17 mins</text><text class="labels" style="fill: #444;" x="368.33333333333337" y="239.35162094763092">3 mins</text><text class="labels" style="fill: #444;" x="476.66666666666674" y="239.7838736492103">1 min</text></g></svg>