<svg xmlns="http://www.w3.org/2000/svg" width="750" height="315"><g transform="translate(20, 20)"><g transform="translate(0, 260)" style="font-size: 15px; font-family: monospace; font-weight: 300;" fill="none" font-size="10" font-family="sans-serif" text-anchor="middle"><path class="domain" stroke="currentColor" d="M0.5,6V0.5H710.5V6"></path><g class="tick" opacity="1" transform="translate(77.65625,0)"><line stroke="currentColor" y2="6"></line><text fill="currentColor" y="9" dy="0.71em">JavaScript</text></g><g class="tick" opacity="1" transform="translate(188.59375,0)"><line stroke="currentColor" y2="6"></line><text fill="currentColor" y="9" dy="0.71em">JSX</text></g><g class="tick" opacity="1" transform="translate(299.53125,0)"><line stroke="currentColor" y2="6"></line><text fill="currentColor" y="9" dy="0.71em">TypeScript</text></g><g class="tick" opacity="1" transform="translate(410.46875000000006,0)"><line stroke="currentColor" y2="6"></line><text fill="currentColor" y="9" dy="0.71em">LESS</text></g><g class="tick" opacity="1" transform="translate(521.40625,0)"><line stroke="currentColor" y2="6"></line><text fill="currentColor" y="9" dy="0.71em">Text</text></g><g class="tick" opacity="1" transform="translate(632.3437500000001,0)"><line stroke="currentColor" y2="6"></line><text fill="currentColor" y="9" dy="0.71em">JSON</text></g></g><rect x="44.375" y="21.3991769547325" height="238.6008230452675" width="66.5625" fill="#D50657"></rect><rect x="155.3125" y="56.70781893004116" height="203.29218106995884" width="66.5625" fill="#049AE6"></rect><rect x="266.25" y="99.07818930041152" height="160.9218106995885" width="66.5625" fill="#F8C41B"></rect><rect x="377.18750000000006" y="258.28806584362144" height="1.711934156378561" width="66.5625" fill="#32465B"></rect><rect x="488.12500000000006" y="259.57201646090533" height="0.4279835390946687" width="66.5625" fill="#E45E42"></rect><rect x="599.0625000000001" y="259.7860082304527" height="0.21399176954730592" width="66.5625" fill="#007C5A"></rect><text class="labels" style="fill: #444;" x="44.375" y="1.3991769547325">11 hrs 15 mins</text><text class="labels" style="fill: #444;" x="155.3125" y="36.70781893004116">9 hrs 50 mins</text><text class="labels" style="fill: #444;" x="266.25" y="79.07818930041152">7 hrs 52 mins</text><text class="labels" style="fill: #444;" x="377.18750000000006" y="238.28806584362144">8 mins</text><text class="labels" style="fill: #444;" x="488.12500000000006" y="239.57201646090533">2 mins</text><text class="labels" style="fill: #444;" x="599.0625000000001" y="239.7860082304527">1 min</text></g></svg>