<svg xmlns="http://www.w3.org/2000/svg" width="625" height="315"><g transform="translate(20, 20)"><g transform="translate(0, 260)" style="font-size: 15px; font-family: monospace; font-weight: 300;" fill="none" font-size="10" font-family="sans-serif" text-anchor="middle"><path class="domain" stroke="currentColor" d="M0.5,6V0.5H585.5V6"></path><g class="tick" opacity="1" transform="translate(75.83333333333334,0)"><line stroke="currentColor" y2="6"></line><text fill="currentColor" y="9" dy="0.71em">JSX</text></g><g class="tick" opacity="1" transform="translate(184.16666666666669,0)"><line stroke="currentColor" y2="6"></line><text fill="currentColor" y="9" dy="0.71em">JavaScript</text></g><g class="tick" opacity="1" transform="translate(292.5,0)"><line stroke="currentColor" y2="6"></line><text fill="currentColor" y="9" dy="0.71em">TypeScript</text></g><g class="tick" opacity="1" transform="translate(400.83333333333337,0)"><line stroke="currentColor" y2="6"></line><text fill="currentColor" y="9" dy="0.71em">LESS</text></g><g class="tick" opacity="1" transform="translate(509.16666666666674,0)"><line stroke="currentColor" y2="6"></line><text fill="currentColor" y="9" dy="0.71em">CSS</text></g></g><rect x="43.33333333333334" y="30.516431924882635" height="229.48356807511738" width="65" fill="#D50657"></rect><rect x="151.66666666666669" y="135.18779342723005" height="124.81220657276995" width="65" fill="#049AE6"></rect><rect x="260" y="213.30985915492957" height="46.69014084507043" width="65" fill="#F8C41B"></rect><rect x="368.33333333333337" y="228.56807511737088" height="31.43192488262912" width="65" fill="#32465B"></rect><rect x="476.66666666666674" y="259.0845070422535" height="0.9154929577464941" width="65" fill="#E45E42"></rect><text class="labels" style="fill: #444;" x="43.33333333333334" y="10.516431924882635">7 hrs 52 mins</text><text class="labels" style="fill: #444;" x="151.66666666666669" y="115.18779342723005">4 hrs 9 mins</text><text class="labels" style="fill: #444;" x="260" y="193.30985915492957">1 hr 53 mins</text><text class="labels" style="fill: #444;" x="368.33333333333337" y="208.56807511737088">1 hr 3 mins</text><text class="labels" style="fill: #444;" x="476.66666666666674" y="239.0845070422535">3 mins</text></g></svg>