<svg xmlns="http://www.w3.org/2000/svg" width="875" height="315"><g transform="translate(20, 20)"><g transform="translate(0, 260)" style="font-size: 15px; font-family: monospace; font-weight: 300;" fill="none" font-size="10" font-family="sans-serif" text-anchor="middle"><path class="domain" stroke="currentColor" d="M0.5,6V0.5H835.5V6"></path><g class="tick" opacity="1" transform="translate(78.98648648648646,0)"><line stroke="currentColor" y2="6"></line><text fill="currentColor" y="9" dy="0.71em">JSX</text></g><g class="tick" opacity="1" transform="translate(191.82432432432432,0)"><line stroke="currentColor" y2="6"></line><text fill="currentColor" y="9" dy="0.71em">TypeScript</text></g><g class="tick" opacity="1" transform="translate(304.6621621621622,0)"><line stroke="currentColor" y2="6"></line><text fill="currentColor" y="9" dy="0.71em">JavaScript</text></g><g class="tick" opacity="1" transform="translate(417.5,0)"><line stroke="currentColor" y2="6"></line><text fill="currentColor" y="9" dy="0.71em">LESS</text></g><g class="tick" opacity="1" transform="translate(530.3378378378379,0)"><line stroke="currentColor" y2="6"></line><text fill="currentColor" y="9" dy="0.71em">Text</text></g><g class="tick" opacity="1" transform="translate(643.1756756756757,0)"><line stroke="currentColor" y2="6"></line><text fill="currentColor" y="9" dy="0.71em">JSON</text></g><g class="tick" opacity="1" transform="translate(756.0135135135135,0)"><line stroke="currentColor" y2="6"></line><text fill="currentColor" y="9" dy="0.71em">Docker</text></g></g><rect x="45.1351351351351" y="18.030513176144236" height="241.96948682385576" width="67.70270270270271" fill="#D50657"></rect><rect x="157.97297297297297" y="183.19001386962552" height="76.80998613037448" width="67.70270270270271" fill="#049AE6"></rect><rect x="270.81081081081084" y="215.8252427184466" height="44.17475728155341" width="67.70270270270271" fill="#F8C41B"></rect><rect x="383.64864864864865" y="220.69348127600554" height="39.30651872399446" width="67.70270270270271" fill="#32465B"></rect><rect x="496.4864864864865" y="259.63938973647714" height="0.3606102635228581" width="67.70270270270271" fill="#E45E42"></rect><rect x="609.3243243243244" y="259.63938973647714" height="0.3606102635228581" width="67.70270270270271" fill="#007C5A"></rect><rect x="722.1621621621622" y="259.81969486823857" height="0.18030513176142904" width="67.70270270270271" fill="#FC69FF"></rect><text class="labels" style="fill: #444;" x="45.1351351351351" y="-1.969486823855764">13 hrs 42 mins</text><text class="labels" style="fill: #444;" x="157.97297297297297" y="163.19001386962552">4 hrs 26 mins</text><text class="labels" style="fill: #444;" x="270.81081081081084" y="195.8252427184466">2 hrs 45 mins</text><text class="labels" style="fill: #444;" x="383.64864864864865" y="200.69348127600554">2 hrs 18 mins</text><text class="labels" style="fill: #444;" x="496.4864864864865" y="239.63938973647714">2 mins</text><text class="labels" style="fill: #444;" x="609.3243243243244" y="239.63938973647714">2 mins</text><text class="labels" style="fill: #444;" x="722.1621621621622" y="239.81969486823857">1 min</text></g></svg>