<svg xmlns="http://www.w3.org/2000/svg" width="750" height="315"><g transform="translate(20, 20)"><g transform="translate(0, 260)" style="font-size: 15px; font-family: monospace; font-weight: 300;" fill="none" font-size="10" font-family="sans-serif" text-anchor="middle"><path class="domain" stroke="currentColor" d="M0.5,6V0.5H710.5V6"></path><g class="tick" opacity="1" transform="translate(77.65625,0)"><line stroke="currentColor" y2="6"></line><text fill="currentColor" y="9" dy="0.71em">JavaScript</text></g><g class="tick" opacity="1" transform="translate(188.59375,0)"><line stroke="currentColor" y2="6"></line><text fill="currentColor" y="9" dy="0.71em">JSX</text></g><g class="tick" opacity="1" transform="translate(299.53125,0)"><line stroke="currentColor" y2="6"></line><text fill="currentColor" y="9" dy="0.71em">TypeScript</text></g><g class="tick" opacity="1" transform="translate(410.46875000000006,0)"><line stroke="currentColor" y2="6"></line><text fill="currentColor" y="9" dy="0.71em">LESS</text></g><g class="tick" opacity="1" transform="translate(521.40625,0)"><line stroke="currentColor" y2="6"></line><text fill="currentColor" y="9" dy="0.71em">JSON</text></g><g class="tick" opacity="1" transform="translate(632.3437500000001,0)"><line stroke="currentColor" y2="6"></line><text fill="currentColor" y="9" dy="0.71em">Text</text></g></g><rect x="44.375" y="21.346469622331693" height="238.65353037766832" width="66.5625" fill="#D50657"></rect><rect x="155.3125" y="106.0919540229885" height="153.9080459770115" width="66.5625" fill="#049AE6"></rect><rect x="266.25" y="173.97372742200326" height="86.02627257799674" width="66.5625" fill="#F8C41B"></rect><rect x="377.18750000000006" y="258.07881773399015" height="1.9211822660098505" width="66.5625" fill="#32465B"></rect><rect x="488.12500000000006" y="259.35960591133005" height="0.6403940886699502" width="66.5625" fill="#E45E42"></rect><rect x="599.0625000000001" y="259.57307060755335" height="0.4269293924466524" width="66.5625" fill="#007C5A"></rect><text class="labels" style="fill: #444;" x="44.375" y="1.3464696223316928">11 hrs 18 mins</text><text class="labels" style="fill: #444;" x="155.3125" y="86.0919540229885">7 hrs 21 mins</text><text class="labels" style="fill: #444;" x="266.25" y="153.97372742200326">4 hrs 3 mins</text><text class="labels" style="fill: #444;" x="377.18750000000006" y="238.07881773399015">9 mins</text><text class="labels" style="fill: #444;" x="488.12500000000006" y="239.35960591133005">3 mins</text><text class="labels" style="fill: #444;" x="599.0625000000001" y="239.57307060755335">2 mins</text></g></svg>