<svg xmlns="http://www.w3.org/2000/svg" width="750" height="315"><g transform="translate(20, 20)"><g transform="translate(0, 260)" style="font-size: 15px; font-family: monospace; font-weight: 300;" fill="none" font-size="10" font-family="sans-serif" text-anchor="middle"><path class="domain" stroke="currentColor" d="M0.5,6V0.5H710.5V6"></path><g class="tick" opacity="1" transform="translate(77.65625,0)"><line stroke="currentColor" y2="6"></line><text fill="currentColor" y="9" dy="0.71em">JavaScript</text></g><g class="tick" opacity="1" transform="translate(188.59375,0)"><line stroke="currentColor" y2="6"></line><text fill="currentColor" y="9" dy="0.71em">TypeScript</text></g><g class="tick" opacity="1" transform="translate(299.53125,0)"><line stroke="currentColor" y2="6"></line><text fill="currentColor" y="9" dy="0.71em">Dart</text></g><g class="tick" opacity="1" transform="translate(410.46875000000006,0)"><line stroke="currentColor" y2="6"></line><text fill="currentColor" y="9" dy="0.71em">YAML</text></g><g class="tick" opacity="1" transform="translate(521.40625,0)"><line stroke="currentColor" y2="6"></line><text fill="currentColor" y="9" dy="0.71em">HTML</text></g><g class="tick" opacity="1" transform="translate(632.3437500000001,0)"><line stroke="currentColor" y2="6"></line><text fill="currentColor" y="9" dy="0.71em">XML</text></g></g><rect x="44.375" y="176.87074829931976" height="83.12925170068024" width="66.5625" fill="#D50657"></rect><rect x="155.3125" y="215.7823129251701" height="44.21768707482991" width="66.5625" fill="#049AE6"></rect><rect x="266.25" y="238.77551020408163" height="21.224489795918373" width="66.5625" fill="#F8C41B"></rect><rect x="377.18750000000006" y="247.6190476190476" height="12.380952380952408" width="66.5625" fill="#32465B"></rect><rect x="488.12500000000006" y="249.3877551020408" height="10.612244897959187" width="66.5625" fill="#E45E42"></rect><rect x="599.0625000000001" y="254.6938775510204" height="5.3061224489796075" width="66.5625" fill="#007C5A"></rect><text class="labels" style="fill: #444;" x="44.375" y="156.87074829931976">47 mins</text><text class="labels" style="fill: #444;" x="155.3125" y="195.7823129251701">25 mins</text><text class="labels" style="fill: #444;" x="266.25" y="218.77551020408163">12 mins</text><text class="labels" style="fill: #444;" x="377.18750000000006" y="227.6190476190476">7 mins</text><text class="labels" style="fill: #444;" x="488.12500000000006" y="229.3877551020408">6 mins</text><text class="labels" style="fill: #444;" x="599.0625000000001" y="234.6938775510204">3 mins</text></g></svg>