<svg xmlns="http://www.w3.org/2000/svg" width="1000" height="315"><g transform="translate(20, 20)"><g transform="translate(0, 260)" style="font-size: 15px; font-family: monospace; font-weight: 300;" fill="none" font-size="10" font-family="sans-serif" text-anchor="middle"><path class="domain" stroke="currentColor" d="M0.5,6V0.5H960.5V6"></path><g class="tick" opacity="1" transform="translate(80.00000000000006,0)"><line stroke="currentColor" y2="6"></line><text fill="currentColor" y="9" dy="0.71em">JSX</text></g><g class="tick" opacity="1" transform="translate(194.28571428571433,0)"><line stroke="currentColor" y2="6"></line><text fill="currentColor" y="9" dy="0.71em">Dart</text></g><g class="tick" opacity="1" transform="translate(308.5714285714286,0)"><line stroke="currentColor" y2="6"></line><text fill="currentColor" y="9" dy="0.71em">TypeScript</text></g><g class="tick" opacity="1" transform="translate(422.8571428571429,0)"><line stroke="currentColor" y2="6"></line><text fill="currentColor" y="9" dy="0.71em">LESS</text></g><g class="tick" opacity="1" transform="translate(537.1428571428572,0)"><line stroke="currentColor" y2="6"></line><text fill="currentColor" y="9" dy="0.71em">JavaScript</text></g><g class="tick" opacity="1" transform="translate(651.4285714285714,0)"><line stroke="currentColor" y2="6"></line><text fill="currentColor" y="9" dy="0.71em">JSON</text></g><g class="tick" opacity="1" transform="translate(765.7142857142858,0)"><line stroke="currentColor" y2="6"></line><text fill="currentColor" y="9" dy="0.71em">CSS</text></g><g class="tick" opacity="1" transform="translate(880.0000000000001,0)"><line stroke="currentColor" y2="6"></line><text fill="currentColor" y="9" dy="0.71em">YAML</text></g></g><rect x="45.71428571428578" y="80.9968847352025" height="179.0031152647975" width="68.57142857142857" fill="#D50657"></rect><rect x="160.00000000000006" y="157.94392523364485" height="102.05607476635515" width="68.57142857142857" fill="#049AE6"></rect><rect x="274.28571428571433" y="174.95327102803736" height="85.04672897196264" width="68.57142857142857" fill="#F8C41B"></rect><rect x="388.5714285714286" y="217.8816199376947" height="42.118380062305306" width="68.57142857142857" fill="#32465B"></rect><rect x="502.8571428571429" y="226.79127725856696" height="33.208722741433036" width="68.57142857142857" fill="#E45E42"></rect><rect x="617.1428571428571" y="237.3208722741433" height="22.679127725856688" width="68.57142857142857" fill="#007C5A"></rect><rect x="731.4285714285714" y="258.38006230529595" height="1.6199376947040491" width="68.57142857142857" fill="#FC69FF"></rect><rect x="845.7142857142858" y="259.190031152648" height="0.8099688473520246" width="68.57142857142857" fill="#3EC6CF"></rect><text class="labels" style="fill: #444;" x="45.71428571428578" y="60.9968847352025">2 hrs 21 mins</text><text class="labels" style="fill: #444;" x="160.00000000000006" y="137.94392523364485">1 hr 26 mins</text><text class="labels" style="fill: #444;" x="274.28571428571433" y="154.95327102803736">1 hr 5 mins</text><text class="labels" style="fill: #444;" x="388.5714285714286" y="197.8816199376947">52 mins</text><text class="labels" style="fill: #444;" x="502.8571428571429" y="206.79127725856696">41 mins</text><text class="labels" style="fill: #444;" x="617.1428571428571" y="217.3208722741433">28 mins</text><text class="labels" style="fill: #444;" x="731.4285714285714" y="238.38006230529595">2 mins</text><text class="labels" style="fill: #444;" x="845.7142857142858" y="239.19003115264798">1 min</text></g></svg>