<svg xmlns="http://www.w3.org/2000/svg" width="625" height="315"><g transform="translate(20, 20)"><g transform="translate(0, 260)" style="font-size: 15px; font-family: monospace; font-weight: 300;" fill="none" font-size="10" font-family="sans-serif" text-anchor="middle"><path class="domain" stroke="currentColor" d="M0.5,6V0.5H585.5V6"></path><g class="tick" opacity="1" transform="translate(75.83333333333334,0)"><line stroke="currentColor" y2="6"></line><text fill="currentColor" y="9" dy="0.71em">JSX</text></g><g class="tick" opacity="1" transform="translate(184.16666666666669,0)"><line stroke="currentColor" y2="6"></line><text fill="currentColor" y="9" dy="0.71em">CSS</text></g><g class="tick" opacity="1" transform="translate(292.5,0)"><line stroke="currentColor" y2="6"></line><text fill="currentColor" y="9" dy="0.71em">JavaScript</text></g><g class="tick" opacity="1" transform="translate(400.83333333333337,0)"><line stroke="currentColor" y2="6"></line><text fill="currentColor" y="9" dy="0.71em">LESS</text></g><g class="tick" opacity="1" transform="translate(509.16666666666674,0)"><line stroke="currentColor" y2="6"></line><text fill="currentColor" y="9" dy="0.71em">TypeScript</text></g></g><rect x="43.33333333333334" y="14.285714285714292" height="245.71428571428572" width="65" fill="#D50657"></rect><rect x="151.66666666666669" y="209.57142857142858" height="50.428571428571416" width="65" fill="#049AE6"></rect><rect x="260" y="211.42857142857142" height="48.571428571428584" width="65" fill="#F8C41B"></rect><rect x="368.33333333333337" y="230.28571428571428" height="29.714285714285722" width="65" fill="#32465B"></rect><rect x="476.66666666666674" y="257.14285714285717" height="2.857142857142833" width="65" fill="#E45E42"></rect><text class="labels" style="fill: #444;" x="43.33333333333334" y="-5.714285714285708">17 hrs 20 mins</text><text class="labels" style="fill: #444;" x="151.66666666666669" y="189.57142857142858">3 hrs 53 mins</text><text class="labels" style="fill: #444;" x="260" y="191.42857142857142">3 hrs 40 mins</text><text class="labels" style="fill: #444;" x="368.33333333333337" y="210.28571428571428">2 hrs 8 mins</text><text class="labels" style="fill: #444;" x="476.66666666666674" y="237.14285714285717">20 mins</text></g></svg>