<svg xmlns="http://www.w3.org/2000/svg" width="875" height="315"><g transform="translate(20, 20)"><g transform="translate(0, 260)" style="font-size: 15px; font-family: monospace; font-weight: 300;" fill="none" font-size="10" font-family="sans-serif" text-anchor="middle"><path class="domain" stroke="currentColor" d="M0.5,6V0.5H835.5V6"></path><g class="tick" opacity="1" transform="translate(78.98648648648646,0)"><line stroke="currentColor" y2="6"></line><text fill="currentColor" y="9" dy="0.71em">JSX</text></g><g class="tick" opacity="1" transform="translate(191.82432432432432,0)"><line stroke="currentColor" y2="6"></line><text fill="currentColor" y="9" dy="0.71em">JavaScript</text></g><g class="tick" opacity="1" transform="translate(304.6621621621622,0)"><line stroke="currentColor" y2="6"></line><text fill="currentColor" y="9" dy="0.71em">TypeScript</text></g><g class="tick" opacity="1" transform="translate(417.5,0)"><line stroke="currentColor" y2="6"></line><text fill="currentColor" y="9" dy="0.71em">LESS</text></g><g class="tick" opacity="1" transform="translate(530.3378378378379,0)"><line stroke="currentColor" y2="6"></line><text fill="currentColor" y="9" dy="0.71em">CSS</text></g><g class="tick" opacity="1" transform="translate(643.1756756756757,0)"><line stroke="currentColor" y2="6"></line><text fill="currentColor" y="9" dy="0.71em">YAML</text></g><g class="tick" opacity="1" transform="translate(756.0135135135135,0)"><line stroke="currentColor" y2="6"></line><text fill="currentColor" y="9" dy="0.71em">JSON</text></g></g><rect x="45.1351351351351" y="27.600849256900204" height="232.3991507430998" width="67.70270270270271" fill="#D50657"></rect><rect x="157.97297297297297" y="31.464968152866263" height="228.53503184713372" width="67.70270270270271" fill="#049AE6"></rect><rect x="270.81081081081084" y="198.7261146496815" height="61.273885350318494" width="67.70270270270271" fill="#F8C41B"></rect><rect x="383.64864864864865" y="227.15498938428877" height="32.84501061571123" width="67.70270270270271" fill="#32465B"></rect><rect x="496.4864864864865" y="257.23991507431" height="2.7600849256900233" width="67.70270270270271" fill="#E45E42"></rect><rect x="609.3243243243244" y="257.79193205944796" height="2.2080679405520414" width="67.70270270270271" fill="#007C5A"></rect><rect x="722.1621621621622" y="258.619957537155" height="1.3800424628449832" width="67.70270270270271" fill="#FC69FF"></rect><text class="labels" style="fill: #444;" x="45.1351351351351" y="7.600849256900204">8 hrs 42 mins</text><text class="labels" style="fill: #444;" x="157.97297297297297" y="11.464968152866263">8 hrs 28 mins</text><text class="labels" style="fill: #444;" x="270.81081081081084" y="178.7261146496815">2 hrs 22 mins</text><text class="labels" style="fill: #444;" x="383.64864864864865" y="207.15498938428877">1 hr 19 mins</text><text class="labels" style="fill: #444;" x="496.4864864864865" y="237.23991507430998">10 mins</text><text class="labels" style="fill: #444;" x="609.3243243243244" y="237.79193205944796">8 mins</text><text class="labels" style="fill: #444;" x="722.1621621621622" y="238.61995753715502">5 mins</text></g></svg>