<svg xmlns="http://www.w3.org/2000/svg" width="625" height="315"><g transform="translate(20, 20)"><g transform="translate(0, 260)" style="font-size: 15px; font-family: monospace; font-weight: 300;" fill="none" font-size="10" font-family="sans-serif" text-anchor="middle"><path class="domain" stroke="currentColor" d="M0.5,6V0.5H585.5V6"></path><g class="tick" opacity="1" transform="translate(75.83333333333334,0)"><line stroke="currentColor" y2="6"></line><text fill="currentColor" y="9" dy="0.71em">JavaScript</text></g><g class="tick" opacity="1" transform="translate(184.16666666666669,0)"><line stroke="currentColor" y2="6"></line><text fill="currentColor" y="9" dy="0.71em">JSX</text></g><g class="tick" opacity="1" transform="translate(292.5,0)"><line stroke="currentColor" y2="6"></line><text fill="currentColor" y="9" dy="0.71em">Dart</text></g><g class="tick" opacity="1" transform="translate(400.83333333333337,0)"><line stroke="currentColor" y2="6"></line><text fill="currentColor" y="9" dy="0.71em">TypeScript</text></g><g class="tick" opacity="1" transform="translate(509.16666666666674,0)"><line stroke="currentColor" y2="6"></line><text fill="currentColor" y="9" dy="0.71em">LESS</text></g></g><rect x="43.33333333333334" y="42.00323101777058" height="217.9967689822294" width="65" fill="#D50657"></rect><rect x="151.66666666666669" y="86.10662358642975" height="173.89337641357025" width="65" fill="#049AE6"></rect><rect x="260" y="87.36672051696283" height="172.63327948303717" width="65" fill="#F8C41B"></rect><rect x="368.33333333333337" y="202.45557350565429" height="57.544426494345714" width="65" fill="#32465B"></rect><rect x="476.66666666666674" y="252.01938610662359" height="7.980613893376415" width="65" fill="#E45E42"></rect><text class="labels" style="fill: #444;" x="43.33333333333334" y="22.00323101777058">5 hrs 19 mins</text><text class="labels" style="fill: #444;" x="151.66666666666669" y="66.10662358642975">4 hrs 14 mins</text><text class="labels" style="fill: #444;" x="260" y="67.36672051696283">4 hrs 11 mins</text><text class="labels" style="fill: #444;" x="368.33333333333337" y="182.45557350565429">1 hr 37 mins</text><text class="labels" style="fill: #444;" x="476.66666666666674" y="232.01938610662359">19 mins</text></g></svg>