<svg xmlns="http://www.w3.org/2000/svg" width="625" height="315"><g transform="translate(20, 20)"><g transform="translate(0, 260)" style="font-size: 15px; font-family: monospace; font-weight: 300;" fill="none" font-size="10" font-family="sans-serif" text-anchor="middle"><path class="domain" stroke="currentColor" d="M0.5,6V0.5H585.5V6"></path><g class="tick" opacity="1" transform="translate(75.83333333333334,0)"><line stroke="currentColor" y2="6"></line><text fill="currentColor" y="9" dy="0.71em">TypeScript</text></g><g class="tick" opacity="1" transform="translate(184.16666666666669,0)"><line stroke="currentColor" y2="6"></line><text fill="currentColor" y="9" dy="0.71em">JSX</text></g><g class="tick" opacity="1" transform="translate(292.5,0)"><line stroke="currentColor" y2="6"></line><text fill="currentColor" y="9" dy="0.71em">JavaScript</text></g><g class="tick" opacity="1" transform="translate(400.83333333333337,0)"><line stroke="currentColor" y2="6"></line><text fill="currentColor" y="9" dy="0.71em">YAML</text></g><g class="tick" opacity="1" transform="translate(509.16666666666674,0)"><line stroke="currentColor" y2="6"></line><text fill="currentColor" y="9" dy="0.71em">CSS</text></g></g><rect x="43.33333333333334" y="34.3461030383091" height="225.6538969616909" width="65" fill="#D50657"></rect><rect x="151.66666666666669" y="105.44253632760898" height="154.557463672391" width="65" fill="#049AE6"></rect><rect x="260" y="221.53236459709376" height="38.46763540290624" width="65" fill="#F8C41B"></rect><rect x="368.33333333333337" y="244.88771466314398" height="15.112285336856019" width="65" fill="#32465B"></rect><rect x="476.66666666666674" y="256.56538969616906" height="3.4346103038309366" width="65" fill="#E45E42"></rect><text class="labels" style="fill: #444;" x="43.33333333333334" y="14.346103038309103">6 hrs 57 mins</text><text class="labels" style="fill: #444;" x="151.66666666666669" y="85.44253632760898">4 hrs 50 mins</text><text class="labels" style="fill: #444;" x="260" y="201.53236459709376">1 hr 12 mins</text><text class="labels" style="fill: #444;" x="368.33333333333337" y="224.88771466314398">44 mins</text><text class="labels" style="fill: #444;" x="476.66666666666674" y="236.56538969616906">10 mins</text></g></svg>