<svg xmlns="http://www.w3.org/2000/svg" width="750" height="315"><g transform="translate(20, 20)"><g transform="translate(0, 260)" style="font-size: 15px; font-family: monospace; font-weight: 300;" fill="none" font-size="10" font-family="sans-serif" text-anchor="middle"><path class="domain" stroke="currentColor" d="M0.5,6V0.5H710.5V6"></path><g class="tick" opacity="1" transform="translate(77.65625,0)"><line stroke="currentColor" y2="6"></line><text fill="currentColor" y="9" dy="0.71em">JavaScript</text></g><g class="tick" opacity="1" transform="translate(188.59375,0)"><line stroke="currentColor" y2="6"></line><text fill="currentColor" y="9" dy="0.71em">JSON</text></g><g class="tick" opacity="1" transform="translate(299.53125,0)"><line stroke="currentColor" y2="6"></line><text fill="currentColor" y="9" dy="0.71em">TypeScript</text></g><g class="tick" opacity="1" transform="translate(410.46875000000006,0)"><line stroke="currentColor" y2="6"></line><text fill="currentColor" y="9" dy="0.71em">CSS</text></g><g class="tick" opacity="1" transform="translate(521.40625,0)"><line stroke="currentColor" y2="6"></line><text fill="currentColor" y="9" dy="0.71em">HTML</text></g><g class="tick" opacity="1" transform="translate(632.3437500000001,0)"><line stroke="currentColor" y2="6"></line><text fill="currentColor" y="9" dy="0.71em">Java</text></g></g><rect x="44.375" y="31.438935912938334" height="228.56106408706165" width="66.5625" fill="#D50657"></rect><rect x="155.3125" y="251.51148730350667" height="8.48851269649333" width="66.5625" fill="#049AE6"></rect><rect x="266.25" y="252.4546553808948" height="7.545344619105208" width="66.5625" fill="#F8C41B"></rect><rect x="377.18750000000006" y="253.71221281741234" height="6.287787182587664" width="66.5625" fill="#32465B"></rect><rect x="488.12500000000006" y="256.2273276904474" height="3.772672309552604" width="66.5625" fill="#E45E42"></rect><rect x="599.0625000000001" y="259.0568319226119" height="0.9431680773881226" width="66.5625" fill="#007C5A"></rect><text class="labels" style="fill: #444;" x="44.375" y="11.438935912938334">7 hrs 27 mins</text><text class="labels" style="fill: #444;" x="155.3125" y="231.51148730350667">27 mins</text><text class="labels" style="fill: #444;" x="266.25" y="232.4546553808948">24 mins</text><text class="labels" style="fill: #444;" x="377.18750000000006" y="233.71221281741234">20 mins</text><text class="labels" style="fill: #444;" x="488.12500000000006" y="236.2273276904474">12 mins</text><text class="labels" style="fill: #444;" x="599.0625000000001" y="239.05683192261188">3 mins</text></g></svg>