<svg xmlns="http://www.w3.org/2000/svg" width="1000" height="315"><g transform="translate(20, 20)"><g transform="translate(0, 260)" style="font-size: 15px; font-family: monospace; font-weight: 300;" fill="none" font-size="10" font-family="sans-serif" text-anchor="middle"><path class="domain" stroke="currentColor" d="M0.5,6V0.5H960.5V6"></path><g class="tick" opacity="1" transform="translate(80.00000000000006,0)"><line stroke="currentColor" y2="6"></line><text fill="currentColor" y="9" dy="0.71em">JavaScript</text></g><g class="tick" opacity="1" transform="translate(194.28571428571433,0)"><line stroke="currentColor" y2="6"></line><text fill="currentColor" y="9" dy="0.71em">JSX</text></g><g class="tick" opacity="1" transform="translate(308.5714285714286,0)"><line stroke="currentColor" y2="6"></line><text fill="currentColor" y="9" dy="0.71em">LESS</text></g><g class="tick" opacity="1" transform="translate(422.8571428571429,0)"><line stroke="currentColor" y2="6"></line><text fill="currentColor" y="9" dy="0.71em">TypeScript</text></g><g class="tick" opacity="1" transform="translate(537.1428571428572,0)"><line stroke="currentColor" y2="6"></line><text fill="currentColor" y="9" dy="0.71em">JSON</text></g><g class="tick" opacity="1" transform="translate(651.4285714285714,0)"><line stroke="currentColor" y2="6"></line><text fill="currentColor" y="9" dy="0.71em">Java</text></g><g class="tick" opacity="1" transform="translate(765.7142857142858,0)"><line stroke="currentColor" y2="6"></line><text fill="currentColor" y="9" dy="0.71em">XML</text></g><g class="tick" opacity="1" transform="translate(880.0000000000001,0)"><line stroke="currentColor" y2="6"></line><text fill="currentColor" y="9" dy="0.71em">Text</text></g></g><rect x="45.71428571428578" y="21.666666666666675" height="238.33333333333331" width="68.57142857142857" fill="#D50657"></rect><rect x="160.00000000000006" y="61.099999999999994" height="198.9" width="68.57142857142857" fill="#049AE6"></rect><rect x="274.28571428571433" y="249.81666666666666" height="10.183333333333337" width="68.57142857142857" fill="#F8C41B"></rect><rect x="388.5714285714286" y="250.03333333333333" height="9.966666666666669" width="68.57142857142857" fill="#32465B"></rect><rect x="502.8571428571429" y="250.6833333333333" height="9.316666666666691" width="68.57142857142857" fill="#E45E42"></rect><rect x="617.1428571428571" y="259.1333333333333" height="0.8666666666666742" width="68.57142857142857" fill="#007C5A"></rect><rect x="731.4285714285714" y="259.35" height="0.6499999999999773" width="68.57142857142857" fill="#FC69FF"></rect><rect x="845.7142857142858" y="259.7833333333333" height="0.21666666666669698" width="68.57142857142857" fill="#3EC6CF"></rect><text class="labels" style="fill: #444;" x="45.71428571428578" y="1.666666666666675">11 hrs</text><text class="labels" style="fill: #444;" x="160.00000000000006" y="41.099999999999994">9 hrs 18 mins</text><text class="labels" style="fill: #444;" x="274.28571428571433" y="229.81666666666666">47 mins</text><text class="labels" style="fill: #444;" x="388.5714285714286" y="230.03333333333333">46 mins</text><text class="labels" style="fill: #444;" x="502.8571428571429" y="230.6833333333333">43 mins</text><text class="labels" style="fill: #444;" x="617.1428571428571" y="239.13333333333333">4 mins</text><text class="labels" style="fill: #444;" x="731.4285714285714" y="239.35000000000002">3 mins</text><text class="labels" style="fill: #444;" x="845.7142857142858" y="239.7833333333333">1 min</text></g></svg>