<svg xmlns="http://www.w3.org/2000/svg" width="625" height="315"><g transform="translate(20, 20)"><g transform="translate(0, 260)" style="font-size: 15px; font-family: monospace; font-weight: 300;" fill="none" font-size="10" font-family="sans-serif" text-anchor="middle"><path class="domain" stroke="currentColor" d="M0.5,6V0.5H585.5V6"></path><g class="tick" opacity="1" transform="translate(75.83333333333334,0)"><line stroke="currentColor" y2="6"></line><text fill="currentColor" y="9" dy="0.71em">JavaScript</text></g><g class="tick" opacity="1" transform="translate(184.16666666666669,0)"><line stroke="currentColor" y2="6"></line><text fill="currentColor" y="9" dy="0.71em">JSX</text></g><g class="tick" opacity="1" transform="translate(292.5,0)"><line stroke="currentColor" y2="6"></line><text fill="currentColor" y="9" dy="0.71em">TypeScript</text></g><g class="tick" opacity="1" transform="translate(400.83333333333337,0)"><line stroke="currentColor" y2="6"></line><text fill="currentColor" y="9" dy="0.71em">XML</text></g><g class="tick" opacity="1" transform="translate(509.16666666666674,0)"><line stroke="currentColor" y2="6"></line><text fill="currentColor" y="9" dy="0.71em">JSON</text></g></g><rect x="43.33333333333334" y="46.76258992805755" height="213.23741007194246" width="65" fill="#D50657"></rect><rect x="151.66666666666669" y="235.68345323741008" height="24.316546762589923" width="65" fill="#049AE6"></rect><rect x="260" y="251.11510791366905" height="8.88489208633095" width="65" fill="#F8C41B"></rect><rect x="368.33333333333337" y="258.59712230215825" height="1.4028776978417454" width="65" fill="#32465B"></rect><rect x="476.66666666666674" y="259.53237410071944" height="0.46762589928056286" width="65" fill="#E45E42"></rect><text class="labels" style="fill: #444;" x="43.33333333333334" y="26.76258992805755">4 hrs 56 mins</text><text class="labels" style="fill: #444;" x="151.66666666666669" y="215.68345323741008">52 mins</text><text class="labels" style="fill: #444;" x="260" y="231.11510791366905">19 mins</text><text class="labels" style="fill: #444;" x="368.33333333333337" y="238.59712230215825">3 mins</text><text class="labels" style="fill: #444;" x="476.66666666666674" y="239.53237410071944">1 min</text></g></svg>