<svg xmlns="http://www.w3.org/2000/svg" width="625" height="315"><g transform="translate(20, 20)"><g transform="translate(0, 260)" style="font-size: 15px; font-family: monospace; font-weight: 300;" fill="none" font-size="10" font-family="sans-serif" text-anchor="middle"><path class="domain" stroke="currentColor" d="M0.5,6V0.5H585.5V6"></path><g class="tick" opacity="1" transform="translate(75.83333333333334,0)"><line stroke="currentColor" y2="6"></line><text fill="currentColor" y="9" dy="0.71em">TypeScript</text></g><g class="tick" opacity="1" transform="translate(184.16666666666669,0)"><line stroke="currentColor" y2="6"></line><text fill="currentColor" y="9" dy="0.71em">JavaScript</text></g><g class="tick" opacity="1" transform="translate(292.5,0)"><line stroke="currentColor" y2="6"></line><text fill="currentColor" y="9" dy="0.71em">JSX</text></g><g class="tick" opacity="1" transform="translate(400.83333333333337,0)"><line stroke="currentColor" y2="6"></line><text fill="currentColor" y="9" dy="0.71em">JSON</text></g><g class="tick" opacity="1" transform="translate(509.16666666666674,0)"><line stroke="currentColor" y2="6"></line><text fill="currentColor" y="9" dy="0.71em">LESS</text></g></g><rect x="43.33333333333334" y="34.437086092715234" height="225.56291390728478" width="65" fill="#D50657"></rect><rect x="151.66666666666669" y="209.37748344370863" height="50.62251655629137" width="65" fill="#049AE6"></rect><rect x="260" y="241.4039735099338" height="18.59602649006621" width="65" fill="#F8C41B"></rect><rect x="368.33333333333337" y="255.52317880794703" height="4.476821192052967" width="65" fill="#32465B"></rect><rect x="476.66666666666674" y="257.9337748344371" height="2.066225165562912" width="65" fill="#E45E42"></rect><text class="labels" style="fill: #444;" x="43.33333333333334" y="14.437086092715234">6 hrs 55 mins</text><text class="labels" style="fill: #444;" x="151.66666666666669" y="189.37748344370863">1 hr 47 mins</text><text class="labels" style="fill: #444;" x="260" y="221.4039735099338">54 mins</text><text class="labels" style="fill: #444;" x="368.33333333333337" y="235.52317880794703">13 mins</text><text class="labels" style="fill: #444;" x="476.66666666666674" y="237.9337748344371">6 mins</text></g></svg>