<svg xmlns="http://www.w3.org/2000/svg" width="750" height="315"><g transform="translate(20, 20)"><g transform="translate(0, 260)" style="font-size: 15px; font-family: monospace; font-weight: 300;" fill="none" font-size="10" font-family="sans-serif" text-anchor="middle"><path class="domain" stroke="currentColor" d="M0.5,6V0.5H710.5V6"></path><g class="tick" opacity="1" transform="translate(77.65625,0)"><line stroke="currentColor" y2="6"></line><text fill="currentColor" y="9" dy="0.71em">JSX</text></g><g class="tick" opacity="1" transform="translate(188.59375,0)"><line stroke="currentColor" y2="6"></line><text fill="currentColor" y="9" dy="0.71em">JavaScript</text></g><g class="tick" opacity="1" transform="translate(299.53125,0)"><line stroke="currentColor" y2="6"></line><text fill="currentColor" y="9" dy="0.71em">LESS</text></g><g class="tick" opacity="1" transform="translate(410.46875000000006,0)"><line stroke="currentColor" y2="6"></line><text fill="currentColor" y="9" dy="0.71em">TypeScript</text></g><g class="tick" opacity="1" transform="translate(521.40625,0)"><line stroke="currentColor" y2="6"></line><text fill="currentColor" y="9" dy="0.71em">YAML</text></g><g class="tick" opacity="1" transform="translate(632.3437500000001,0)"><line stroke="currentColor" y2="6"></line><text fill="currentColor" y="9" dy="0.71em">JSON</text></g></g><rect x="44.375" y="47.970479704797064" height="212.02952029520293" width="66.5625" fill="#D50657"></rect><rect x="155.3125" y="151.1070110701107" height="108.8929889298893" width="66.5625" fill="#049AE6"></rect><rect x="266.25" y="159.2619926199262" height="100.73800738007381" width="66.5625" fill="#F8C41B"></rect><rect x="377.18750000000006" y="191.8819188191882" height="68.1180811808118" width="66.5625" fill="#32465B"></rect><rect x="488.12500000000006" y="255.2029520295203" height="4.797047970479696" width="66.5625" fill="#E45E42"></rect><rect x="599.0625000000001" y="259.0405904059041" height="0.9594095940959164" width="66.5625" fill="#007C5A"></rect><text class="labels" style="fill: #444;" x="44.375" y="27.970479704797064">4 hrs 42 mins</text><text class="labels" style="fill: #444;" x="155.3125" y="131.1070110701107">2 hrs 27 mins</text><text class="labels" style="fill: #444;" x="266.25" y="139.2619926199262">2 hrs 10 mins</text><text class="labels" style="fill: #444;" x="377.18750000000006" y="171.8819188191882">1 hr 42 mins</text><text class="labels" style="fill: #444;" x="488.12500000000006" y="235.2029520295203">10 mins</text><text class="labels" style="fill: #444;" x="599.0625000000001" y="239.04059040590408">2 mins</text></g></svg>