<svg xmlns="http://www.w3.org/2000/svg" width="625" height="315"><g transform="translate(20, 20)"><g transform="translate(0, 260)" style="font-size: 15px; font-family: monospace; font-weight: 300;" fill="none" font-size="10" font-family="sans-serif" text-anchor="middle"><path class="domain" stroke="currentColor" d="M0.5,6V0.5H585.5V6"></path><g class="tick" opacity="1" transform="translate(75.83333333333334,0)"><line stroke="currentColor" y2="6"></line><text fill="currentColor" y="9" dy="0.71em">JavaScript</text></g><g class="tick" opacity="1" transform="translate(184.16666666666669,0)"><line stroke="currentColor" y2="6"></line><text fill="currentColor" y="9" dy="0.71em">TypeScript</text></g><g class="tick" opacity="1" transform="translate(292.5,0)"><line stroke="currentColor" y2="6"></line><text fill="currentColor" y="9" dy="0.71em">JSX</text></g><g class="tick" opacity="1" transform="translate(400.83333333333337,0)"><line stroke="currentColor" y2="6"></line><text fill="currentColor" y="9" dy="0.71em">Dart</text></g><g class="tick" opacity="1" transform="translate(509.16666666666674,0)"><line stroke="currentColor" y2="6"></line><text fill="currentColor" y="9" dy="0.71em">JSON</text></g></g><rect x="43.33333333333334" y="62.801932367149774" height="197.1980676328502" width="65" fill="#D50657"></rect><rect x="151.66666666666669" y="108.6473429951691" height="151.35265700483092" width="65" fill="#049AE6"></rect><rect x="260" y="229.85507246376812" height="30.144927536231876" width="65" fill="#F8C41B"></rect><rect x="368.33333333333337" y="256.8599033816425" height="3.140096618357518" width="65" fill="#32465B"></rect><rect x="476.66666666666674" y="257.487922705314" height="2.51207729468598" width="65" fill="#E45E42"></rect><text class="labels" style="fill: #444;" x="43.33333333333334" y="42.801932367149774">3 hrs 14 mins</text><text class="labels" style="fill: #444;" x="151.66666666666669" y="88.6473429951691">2 hrs 41 mins</text><text class="labels" style="fill: #444;" x="260" y="209.85507246376812">48 mins</text><text class="labels" style="fill: #444;" x="368.33333333333337" y="236.85990338164248">5 mins</text><text class="labels" style="fill: #444;" x="476.66666666666674" y="237.48792270531402">4 mins</text></g></svg>