<svg xmlns="http://www.w3.org/2000/svg" width="750" height="315"><g transform="translate(20, 20)"><g transform="translate(0, 260)" style="font-size: 15px; font-family: monospace; font-weight: 300;" fill="none" font-size="10" font-family="sans-serif" text-anchor="middle"><path class="domain" stroke="currentColor" d="M0.5,6V0.5H710.5V6"></path><g class="tick" opacity="1" transform="translate(77.65625,0)"><line stroke="currentColor" y2="6"></line><text fill="currentColor" y="9" dy="0.71em">TypeScript</text></g><g class="tick" opacity="1" transform="translate(188.59375,0)"><line stroke="currentColor" y2="6"></line><text fill="currentColor" y="9" dy="0.71em">JavaScript</text></g><g class="tick" opacity="1" transform="translate(299.53125,0)"><line stroke="currentColor" y2="6"></line><text fill="currentColor" y="9" dy="0.71em">JSX</text></g><g class="tick" opacity="1" transform="translate(410.46875000000006,0)"><line stroke="currentColor" y2="6"></line><text fill="currentColor" y="9" dy="0.71em">JSON</text></g><g class="tick" opacity="1" transform="translate(521.40625,0)"><line stroke="currentColor" y2="6"></line><text fill="currentColor" y="9" dy="0.71em">LESS</text></g><g class="tick" opacity="1" transform="translate(632.3437500000001,0)"><line stroke="currentColor" y2="6"></line><text fill="currentColor" y="9" dy="0.71em">CSS</text></g></g><rect x="44.375" y="25.1207729468599" height="234.87922705314008" width="66.5625" fill="#D50657"></rect><rect x="155.3125" y="202.47342995169083" height="57.52657004830917" width="66.5625" fill="#049AE6"></rect><rect x="266.25" y="230.10628019323673" height="29.893719806763272" width="66.5625" fill="#F8C41B"></rect><rect x="377.18750000000006" y="256.4830917874396" height="3.516908212560395" width="66.5625" fill="#32465B"></rect><rect x="488.12500000000006" y="258.4927536231884" height="1.5072463768116222" width="66.5625" fill="#E45E42"></rect><rect x="599.0625000000001" y="258.9951690821256" height="1.0048309178744148" width="66.5625" fill="#007C5A"></rect><text class="labels" style="fill: #444;" x="44.375" y="5.120772946859901">9 hrs 35 mins</text><text class="labels" style="fill: #444;" x="155.3125" y="182.47342995169083">2 hrs 29 mins</text><text class="labels" style="fill: #444;" x="266.25" y="210.10628019323673">1 hr 19 mins</text><text class="labels" style="fill: #444;" x="377.18750000000006" y="236.4830917874396">14 mins</text><text class="labels" style="fill: #444;" x="488.12500000000006" y="238.49275362318838">6 mins</text><text class="labels" style="fill: #444;" x="599.0625000000001" y="238.99516908212559">4 mins</text></g></svg>