<svg xmlns="http://www.w3.org/2000/svg" width="1000" height="315"><g transform="translate(20, 20)"><g transform="translate(0, 260)" style="font-size: 15px; font-family: monospace; font-weight: 300;" fill="none" font-size="10" font-family="sans-serif" text-anchor="middle"><path class="domain" stroke="currentColor" d="M0.5,6V0.5H960.5V6"></path><g class="tick" opacity="1" transform="translate(80.00000000000006,0)"><line stroke="currentColor" y2="6"></line><text fill="currentColor" y="9" dy="0.71em">JavaScript</text></g><g class="tick" opacity="1" transform="translate(194.28571428571433,0)"><line stroke="currentColor" y2="6"></line><text fill="currentColor" y="9" dy="0.71em">TypeScript</text></g><g class="tick" opacity="1" transform="translate(308.5714285714286,0)"><line stroke="currentColor" y2="6"></line><text fill="currentColor" y="9" dy="0.71em">XML</text></g><g class="tick" opacity="1" transform="translate(422.8571428571429,0)"><line stroke="currentColor" y2="6"></line><text fill="currentColor" y="9" dy="0.71em">YAML</text></g><g class="tick" opacity="1" transform="translate(537.1428571428572,0)"><line stroke="currentColor" y2="6"></line><text fill="currentColor" y="9" dy="0.71em">Groovy</text></g><g class="tick" opacity="1" transform="translate(651.4285714285714,0)"><line stroke="currentColor" y2="6"></line><text fill="currentColor" y="9" dy="0.71em">HTML</text></g><g class="tick" opacity="1" transform="translate(765.7142857142858,0)"><line stroke="currentColor" y2="6"></line><text fill="currentColor" y="9" dy="0.71em">CSS</text></g><g class="tick" opacity="1" transform="translate(880.0000000000001,0)"><line stroke="currentColor" y2="6"></line><text fill="currentColor" y="9" dy="0.71em">Dart</text></g></g><rect x="45.71428571428578" y="75.5813953488372" height="184.4186046511628" width="68.57142857142857" fill="#D50657"></rect><rect x="160.00000000000006" y="96.74418604651163" height="163.25581395348837" width="68.57142857142857" fill="#049AE6"></rect><rect x="274.28571428571433" y="235.8139534883721" height="24.186046511627893" width="68.57142857142857" fill="#F8C41B"></rect><rect x="388.5714285714286" y="241.86046511627907" height="18.139534883720927" width="68.57142857142857" fill="#32465B"></rect><rect x="502.8571428571429" y="253.953488372093" height="6.046511627906995" width="68.57142857142857" fill="#E45E42"></rect><rect x="617.1428571428571" y="254.70930232558138" height="5.290697674418624" width="68.57142857142857" fill="#007C5A"></rect><rect x="731.4285714285714" y="256.9767441860465" height="3.023255813953483" width="68.57142857142857" fill="#FC69FF"></rect><rect x="845.7142857142858" y="257.7325581395349" height="2.2674418604651123" width="68.57142857142857" fill="#3EC6CF"></rect><text class="labels" style="fill: #444;" x="45.71428571428578" y="55.581395348837205">2 hrs 44 mins</text><text class="labels" style="fill: #444;" x="160.00000000000006" y="76.74418604651163">2 hrs 16 mins</text><text class="labels" style="fill: #444;" x="274.28571428571433" y="215.8139534883721">32 mins</text><text class="labels" style="fill: #444;" x="388.5714285714286" y="221.86046511627907">24 mins</text><text class="labels" style="fill: #444;" x="502.8571428571429" y="233.953488372093">8 mins</text><text class="labels" style="fill: #444;" x="617.1428571428571" y="234.70930232558138">7 mins</text><text class="labels" style="fill: #444;" x="731.4285714285714" y="236.97674418604652">4 mins</text><text class="labels" style="fill: #444;" x="845.7142857142858" y="237.7325581395349">3 mins</text></g></svg>