<svg xmlns="http://www.w3.org/2000/svg" width="750" height="315"><g transform="translate(20, 20)"><g transform="translate(0, 260)" style="font-size: 15px; font-family: monospace; font-weight: 300;" fill="none" font-size="10" font-family="sans-serif" text-anchor="middle"><path class="domain" stroke="currentColor" d="M0.5,6V0.5H710.5V6"></path><g class="tick" opacity="1" transform="translate(77.65625,0)"><line stroke="currentColor" y2="6"></line><text fill="currentColor" y="9" dy="0.71em">JSX</text></g><g class="tick" opacity="1" transform="translate(188.59375,0)"><line stroke="currentColor" y2="6"></line><text fill="currentColor" y="9" dy="0.71em">JavaScript</text></g><g class="tick" opacity="1" transform="translate(299.53125,0)"><line stroke="currentColor" y2="6"></line><text fill="currentColor" y="9" dy="0.71em">LESS</text></g><g class="tick" opacity="1" transform="translate(410.46875000000006,0)"><line stroke="currentColor" y2="6"></line><text fill="currentColor" y="9" dy="0.71em">TypeScript</text></g><g class="tick" opacity="1" transform="translate(521.40625,0)"><line stroke="currentColor" y2="6"></line><text fill="currentColor" y="9" dy="0.71em">CSS</text></g><g class="tick" opacity="1" transform="translate(632.3437500000001,0)"><line stroke="currentColor" y2="6"></line><text fill="currentColor" y="9" dy="0.71em">JSON</text></g></g><rect x="44.375" y="18.479033404406533" height="241.52096659559348" width="66.5625" fill="#D50657"></rect><rect x="155.3125" y="185.52949538024163" height="74.47050461975837" width="66.5625" fill="#049AE6"></rect><rect x="266.25" y="255.01066098081023" height="4.989339019189771" width="66.5625" fill="#F8C41B"></rect><rect x="377.18750000000006" y="255.19545131485432" height="4.804548685145676" width="66.5625" fill="#32465B"></rect><rect x="488.12500000000006" y="256.4889836531628" height="3.5110163468372093" width="66.5625" fill="#E45E42"></rect><rect x="599.0625000000001" y="257.7825159914712" height="2.2174840085287997" width="66.5625" fill="#007C5A"></rect><text class="labels" style="fill: #444;" x="44.375" y="-1.5209665955934675">13 hrs 7 mins</text><text class="labels" style="fill: #444;" x="155.3125" y="165.52949538024163">4 hrs 3 mins</text><text class="labels" style="fill: #444;" x="266.25" y="235.01066098081023">27 mins</text><text class="labels" style="fill: #444;" x="377.18750000000006" y="235.19545131485432">26 mins</text><text class="labels" style="fill: #444;" x="488.12500000000006" y="236.4889836531628">19 mins</text><text class="labels" style="fill: #444;" x="599.0625000000001" y="237.7825159914712">12 mins</text></g></svg>