<svg xmlns="http://www.w3.org/2000/svg" width="625" height="315"><g transform="translate(20, 20)"><g transform="translate(0, 260)" style="font-size: 15px; font-family: monospace; font-weight: 300;" fill="none" font-size="10" font-family="sans-serif" text-anchor="middle"><path class="domain" stroke="currentColor" d="M0.5,6V0.5H585.5V6"></path><g class="tick" opacity="1" transform="translate(75.83333333333334,0)"><line stroke="currentColor" y2="6"></line><text fill="currentColor" y="9" dy="0.71em">JavaScript</text></g><g class="tick" opacity="1" transform="translate(184.16666666666669,0)"><line stroke="currentColor" y2="6"></line><text fill="currentColor" y="9" dy="0.71em">TypeScript</text></g><g class="tick" opacity="1" transform="translate(292.5,0)"><line stroke="currentColor" y2="6"></line><text fill="currentColor" y="9" dy="0.71em">JSX</text></g><g class="tick" opacity="1" transform="translate(400.83333333333337,0)"><line stroke="currentColor" y2="6"></line><text fill="currentColor" y="9" dy="0.71em">JSON</text></g><g class="tick" opacity="1" transform="translate(509.16666666666674,0)"><line stroke="currentColor" y2="6"></line><text fill="currentColor" y="9" dy="0.71em">LESS</text></g></g><rect x="43.33333333333334" y="57.01754385964916" height="202.98245614035085" width="65" fill="#D50657"></rect><rect x="151.66666666666669" y="174.4736842105263" height="85.5263157894737" width="65" fill="#049AE6"></rect><rect x="260" y="175.04385964912282" height="84.95614035087718" width="65" fill="#F8C41B"></rect><rect x="368.33333333333337" y="257.719298245614" height="2.280701754385973" width="65" fill="#32465B"></rect><rect x="476.66666666666674" y="258.859649122807" height="1.1403508771929864" width="65" fill="#E45E42"></rect><text class="labels" style="fill: #444;" x="43.33333333333334" y="37.01754385964916">3 hrs 56 mins</text><text class="labels" style="fill: #444;" x="151.66666666666669" y="154.4736842105263">1 hr 50 mins</text><text class="labels" style="fill: #444;" x="260" y="155.04385964912282">1 hr 49 mins</text><text class="labels" style="fill: #444;" x="368.33333333333337" y="237.71929824561403">4 mins</text><text class="labels" style="fill: #444;" x="476.66666666666674" y="238.859649122807">2 mins</text></g></svg>