<svg xmlns="http://www.w3.org/2000/svg" width="625" height="315"><g transform="translate(20, 20)"><g transform="translate(0, 260)" style="font-size: 15px; font-family: monospace; font-weight: 300;" fill="none" font-size="10" font-family="sans-serif" text-anchor="middle"><path class="domain" stroke="currentColor" d="M0.5,6V0.5H585.5V6"></path><g class="tick" opacity="1" transform="translate(75.83333333333334,0)"><line stroke="currentColor" y2="6"></line><text fill="currentColor" y="9" dy="0.71em">JavaScript</text></g><g class="tick" opacity="1" transform="translate(184.16666666666669,0)"><line stroke="currentColor" y2="6"></line><text fill="currentColor" y="9" dy="0.71em">JSX</text></g><g class="tick" opacity="1" transform="translate(292.5,0)"><line stroke="currentColor" y2="6"></line><text fill="currentColor" y="9" dy="0.71em">Bash</text></g><g class="tick" opacity="1" transform="translate(400.83333333333337,0)"><line stroke="currentColor" y2="6"></line><text fill="currentColor" y="9" dy="0.71em">TypeScript</text></g><g class="tick" opacity="1" transform="translate(509.16666666666674,0)"><line stroke="currentColor" y2="6"></line><text fill="currentColor" y="9" dy="0.71em">JSON</text></g></g><rect x="43.33333333333334" y="27.28226652675762" height="232.7177334732424" width="65" fill="#D50657"></rect><rect x="151.66666666666669" y="122.49737670514166" height="137.50262329485832" width="65" fill="#049AE6"></rect><rect x="260" y="252.36096537250788" height="7.639034627492123" width="65" fill="#F8C41B"></rect><rect x="368.33333333333337" y="252.90661070304304" height="7.093389296956957" width="65" fill="#32465B"></rect><rect x="476.66666666666674" y="258.36306400839453" height="1.636935991605469" width="65" fill="#E45E42"></rect><text class="labels" style="fill: #444;" x="43.33333333333334" y="7.2822665267576205">8 hrs 53 mins</text><text class="labels" style="fill: #444;" x="151.66666666666669" y="102.49737670514166">5 hrs 4 mins</text><text class="labels" style="fill: #444;" x="260" y="232.36096537250788">28 mins</text><text class="labels" style="fill: #444;" x="368.33333333333337" y="232.90661070304304">26 mins</text><text class="labels" style="fill: #444;" x="476.66666666666674" y="238.36306400839453">6 mins</text></g></svg>