<svg xmlns="http://www.w3.org/2000/svg" width="1000" height="315"><g transform="translate(20, 20)"><g transform="translate(0, 260)" style="font-size: 15px; font-family: monospace; font-weight: 300;" fill="none" font-size="10" font-family="sans-serif" text-anchor="middle"><path class="domain" stroke="currentColor" d="M0.5,6V0.5H960.5V6"></path><g class="tick" opacity="1" transform="translate(80.00000000000006,0)"><line stroke="currentColor" y2="6"></line><text fill="currentColor" y="9" dy="0.71em">JSX</text></g><g class="tick" opacity="1" transform="translate(194.28571428571433,0)"><line stroke="currentColor" y2="6"></line><text fill="currentColor" y="9" dy="0.71em">JavaScript</text></g><g class="tick" opacity="1" transform="translate(308.5714285714286,0)"><line stroke="currentColor" y2="6"></line><text fill="currentColor" y="9" dy="0.71em">LESS</text></g><g class="tick" opacity="1" transform="translate(422.8571428571429,0)"><line stroke="currentColor" y2="6"></line><text fill="currentColor" y="9" dy="0.71em">YAML</text></g><g class="tick" opacity="1" transform="translate(537.1428571428572,0)"><line stroke="currentColor" y2="6"></line><text fill="currentColor" y="9" dy="0.71em">Docker</text></g><g class="tick" opacity="1" transform="translate(651.4285714285714,0)"><line stroke="currentColor" y2="6"></line><text fill="currentColor" y="9" dy="0.71em">Bash</text></g><g class="tick" opacity="1" transform="translate(765.7142857142858,0)"><line stroke="currentColor" y2="6"></line><text fill="currentColor" y="9" dy="0.71em">JSON</text></g><g class="tick" opacity="1" transform="translate(880.0000000000001,0)"><line stroke="currentColor" y2="6"></line><text fill="currentColor" y="9" dy="0.71em">TypeScript</text></g></g><rect x="45.71428571428578" y="23.593466424682404" height="236.4065335753176" width="68.57142857142857" fill="#D50657"></rect><rect x="160.00000000000006" y="211.6333938294011" height="48.366606170598914" width="68.57142857142857" fill="#049AE6"></rect><rect x="274.28571428571433" y="226.02540834845735" height="33.97459165154265" width="68.57142857142857" fill="#F8C41B"></rect><rect x="388.5714285714286" y="258.3484573502722" height="1.6515426497277872" width="68.57142857142857" fill="#32465B"></rect><rect x="502.8571428571429" y="258.82032667876587" height="1.1796733212341337" width="68.57142857142857" fill="#E45E42"></rect><rect x="617.1428571428571" y="258.82032667876587" height="1.1796733212341337" width="68.57142857142857" fill="#007C5A"></rect><rect x="731.4285714285714" y="259.52813067150635" height="0.4718693284936535" width="68.57142857142857" fill="#FC69FF"></rect><rect x="845.7142857142858" y="259.7640653357532" height="0.23593466424682674" width="68.57142857142857" fill="#3EC6CF"></rect><text class="labels" style="fill: #444;" x="45.71428571428578" y="3.593466424682404">10 hrs 2 mins</text><text class="labels" style="fill: #444;" x="160.00000000000006" y="191.6333938294011">2 hrs 5 mins</text><text class="labels" style="fill: #444;" x="274.28571428571433" y="206.02540834845735">1 hr 44 mins</text><text class="labels" style="fill: #444;" x="388.5714285714286" y="238.3484573502722">7 mins</text><text class="labels" style="fill: #444;" x="502.8571428571429" y="238.82032667876587">5 mins</text><text class="labels" style="fill: #444;" x="617.1428571428571" y="238.82032667876587">5 mins</text><text class="labels" style="fill: #444;" x="731.4285714285714" y="239.52813067150635">2 mins</text><text class="labels" style="fill: #444;" x="845.7142857142858" y="239.76406533575317">1 min</text></g></svg>