<svg xmlns="http://www.w3.org/2000/svg" width="625" height="315"><g transform="translate(20, 20)"><g transform="translate(0, 260)" style="font-size: 15px; font-family: monospace; font-weight: 300;" fill="none" font-size="10" font-family="sans-serif" text-anchor="middle"><path class="domain" stroke="currentColor" d="M0.5,6V0.5H585.5V6"></path><g class="tick" opacity="1" transform="translate(75.83333333333334,0)"><line stroke="currentColor" y2="6"></line><text fill="currentColor" y="9" dy="0.71em">JavaScript</text></g><g class="tick" opacity="1" transform="translate(184.16666666666669,0)"><line stroke="currentColor" y2="6"></line><text fill="currentColor" y="9" dy="0.71em">JSX</text></g><g class="tick" opacity="1" transform="translate(292.5,0)"><line stroke="currentColor" y2="6"></line><text fill="currentColor" y="9" dy="0.71em">TypeScript</text></g><g class="tick" opacity="1" transform="translate(400.83333333333337,0)"><line stroke="currentColor" y2="6"></line><text fill="currentColor" y="9" dy="0.71em">Bash</text></g><g class="tick" opacity="1" transform="translate(509.16666666666674,0)"><line stroke="currentColor" y2="6"></line><text fill="currentColor" y="9" dy="0.71em">JSON</text></g></g><rect x="43.33333333333334" y="42.692939244663386" height="217.3070607553366" width="65" fill="#D50657"></rect><rect x="151.66666666666669" y="128.93267651888343" height="131.06732348111657" width="65" fill="#049AE6"></rect><rect x="260" y="254.44991789819377" height="5.550082101806225" width="65" fill="#F8C41B"></rect><rect x="368.33333333333337" y="256.1576354679803" height="3.842364532019701" width="65" fill="#32465B"></rect><rect x="476.66666666666674" y="257.86535303776685" height="2.1346469622331483" width="65" fill="#E45E42"></rect><text class="labels" style="fill: #444;" x="43.33333333333334" y="22.692939244663386">5 hrs 9 mins</text><text class="labels" style="fill: #444;" x="151.66666666666669" y="108.93267651888343">3 hrs 7 mins</text><text class="labels" style="fill: #444;" x="260" y="234.44991789819377">13 mins</text><text class="labels" style="fill: #444;" x="368.33333333333337" y="236.1576354679803">9 mins</text><text class="labels" style="fill: #444;" x="476.66666666666674" y="237.86535303776685">5 mins</text></g></svg>