<svg xmlns="http://www.w3.org/2000/svg" width="625" height="315"><g transform="translate(20, 20)"><g transform="translate(0, 260)" style="font-size: 15px; font-family: monospace; font-weight: 300;" fill="none" font-size="10" font-family="sans-serif" text-anchor="middle"><path class="domain" stroke="currentColor" d="M0.5,6V0.5H585.5V6"></path><g class="tick" opacity="1" transform="translate(75.83333333333334,0)"><line stroke="currentColor" y2="6"></line><text fill="currentColor" y="9" dy="0.71em">JavaScript</text></g><g class="tick" opacity="1" transform="translate(184.16666666666669,0)"><line stroke="currentColor" y2="6"></line><text fill="currentColor" y="9" dy="0.71em">JSX</text></g><g class="tick" opacity="1" transform="translate(292.5,0)"><line stroke="currentColor" y2="6"></line><text fill="currentColor" y="9" dy="0.71em">Bash</text></g><g class="tick" opacity="1" transform="translate(400.83333333333337,0)"><line stroke="currentColor" y2="6"></line><text fill="currentColor" y="9" dy="0.71em">TypeScript</text></g><g class="tick" opacity="1" transform="translate(509.16666666666674,0)"><line stroke="currentColor" y2="6"></line><text fill="currentColor" y="9" dy="0.71em">JSON</text></g></g><rect x="43.33333333333334" y="23.15227070347285" height="236.84772929652715" width="65" fill="#D50657"></rect><rect x="151.66666666666669" y="228.74443455031167" height="31.255565449688334" width="65" fill="#049AE6"></rect><rect x="260" y="247.72929652715942" height="12.27070347284058" width="65" fill="#F8C41B"></rect><rect x="368.33333333333337" y="252.59127337488871" height="7.408726625111285" width="65" fill="#32465B"></rect><rect x="476.66666666666674" y="259.3054318788958" height="0.6945681211042256" width="65" fill="#E45E42"></rect><text class="labels" style="fill: #444;" x="43.33333333333334" y="3.152270703472851">10 hrs 23 mins</text><text class="labels" style="fill: #444;" x="151.66666666666669" y="208.74443455031167">1 hr 35 mins</text><text class="labels" style="fill: #444;" x="260" y="227.72929652715942">53 mins</text><text class="labels" style="fill: #444;" x="368.33333333333337" y="232.59127337488871">32 mins</text><text class="labels" style="fill: #444;" x="476.66666666666674" y="239.30543187889577">3 mins</text></g></svg>