<svg xmlns="http://www.w3.org/2000/svg" width="875" height="315"><g transform="translate(20, 20)"><g transform="translate(0, 260)" style="font-size: 15px; font-family: monospace; font-weight: 300;" fill="none" font-size="10" font-family="sans-serif" text-anchor="middle"><path class="domain" stroke="currentColor" d="M0.5,6V0.5H835.5V6"></path><g class="tick" opacity="1" transform="translate(78.98648648648646,0)"><line stroke="currentColor" y2="6"></line><text fill="currentColor" y="9" dy="0.71em">JSX</text></g><g class="tick" opacity="1" transform="translate(191.82432432432432,0)"><line stroke="currentColor" y2="6"></line><text fill="currentColor" y="9" dy="0.71em">JavaScript</text></g><g class="tick" opacity="1" transform="translate(304.6621621621622,0)"><line stroke="currentColor" y2="6"></line><text fill="currentColor" y="9" dy="0.71em">TypeScript</text></g><g class="tick" opacity="1" transform="translate(417.5,0)"><line stroke="currentColor" y2="6"></line><text fill="currentColor" y="9" dy="0.71em">JSON</text></g><g class="tick" opacity="1" transform="translate(530.3378378378379,0)"><line stroke="currentColor" y2="6"></line><text fill="currentColor" y="9" dy="0.71em">HTML</text></g><g class="tick" opacity="1" transform="translate(643.1756756756757,0)"><line stroke="currentColor" y2="6"></line><text fill="currentColor" y="9" dy="0.71em">CSS</text></g><g class="tick" opacity="1" transform="translate(756.0135135135135,0)"><line stroke="currentColor" y2="6"></line><text fill="currentColor" y="9" dy="0.71em">BrightScript</text></g></g><rect x="45.1351351351351" y="62.801932367149774" height="197.1980676328502" width="67.70270270270271" fill="#D50657"></rect><rect x="157.97297297297297" y="63.42995169082128" height="196.57004830917873" width="67.70270270270271" fill="#049AE6"></rect><rect x="270.81081081081084" y="240.53140096618358" height="19.468599033816417" width="67.70270270270271" fill="#F8C41B"></rect><rect x="383.64864864864865" y="247.43961352657004" height="12.560386473429958" width="67.70270270270271" fill="#32465B"></rect><rect x="496.4864864864865" y="256.8599033816425" height="3.140096618357518" width="67.70270270270271" fill="#E45E42"></rect><rect x="609.3243243243244" y="258.1159420289855" height="1.8840579710144993" width="67.70270270270271" fill="#007C5A"></rect><rect x="722.1621621621622" y="258.743961352657" height="1.2560386473430185" width="67.70270270270271" fill="#FC69FF"></rect><text class="labels" style="fill: #444;" x="45.1351351351351" y="42.801932367149774">3 hrs 14 mins</text><text class="labels" style="fill: #444;" x="157.97297297297297" y="43.42995169082128">3 hrs 13 mins</text><text class="labels" style="fill: #444;" x="270.81081081081084" y="220.53140096618358">31 mins</text><text class="labels" style="fill: #444;" x="383.64864864864865" y="227.43961352657004">20 mins</text><text class="labels" style="fill: #444;" x="496.4864864864865" y="236.85990338164248">5 mins</text><text class="labels" style="fill: #444;" x="609.3243243243244" y="238.1159420289855">3 mins</text><text class="labels" style="fill: #444;" x="722.1621621621622" y="238.74396135265698">2 mins</text></g></svg>