<svg xmlns="http://www.w3.org/2000/svg" width="750" height="315"><g transform="translate(20, 20)"><g transform="translate(0, 260)" style="font-size: 15px; font-family: monospace; font-weight: 300;" fill="none" font-size="10" font-family="sans-serif" text-anchor="middle"><path class="domain" stroke="currentColor" d="M0.5,6V0.5H710.5V6"></path><g class="tick" opacity="1" transform="translate(77.65625,0)"><line stroke="currentColor" y2="6"></line><text fill="currentColor" y="9" dy="0.71em">JSX</text></g><g class="tick" opacity="1" transform="translate(188.59375,0)"><line stroke="currentColor" y2="6"></line><text fill="currentColor" y="9" dy="0.71em">TypeScript</text></g><g class="tick" opacity="1" transform="translate(299.53125,0)"><line stroke="currentColor" y2="6"></line><text fill="currentColor" y="9" dy="0.71em">JavaScript</text></g><g class="tick" opacity="1" transform="translate(410.46875000000006,0)"><line stroke="currentColor" y2="6"></line><text fill="currentColor" y="9" dy="0.71em">LESS</text></g><g class="tick" opacity="1" transform="translate(521.40625,0)"><line stroke="currentColor" y2="6"></line><text fill="currentColor" y="9" dy="0.71em">JSON</text></g><g class="tick" opacity="1" transform="translate(632.3437500000001,0)"><line stroke="currentColor" y2="6"></line><text fill="currentColor" y="9" dy="0.71em">Dart</text></g></g><rect x="44.375" y="19.23076923076924" height="240.76923076923077" width="66.5625" fill="#D50657"></rect><rect x="155.3125" y="176.53846153846155" height="83.46153846153845" width="66.5625" fill="#049AE6"></rect><rect x="266.25" y="199.99999999999997" height="60.00000000000003" width="66.5625" fill="#F8C41B"></rect><rect x="377.18750000000006" y="239.03846153846155" height="20.961538461538453" width="66.5625" fill="#32465B"></rect><rect x="488.12500000000006" y="258.2692307692308" height="1.7307692307692264" width="66.5625" fill="#E45E42"></rect><rect x="599.0625000000001" y="259.61538461538464" height="0.3846153846153584" width="66.5625" fill="#007C5A"></rect><text class="labels" style="fill: #444;" x="44.375" y="-0.7692307692307594">12 hrs 52 mins</text><text class="labels" style="fill: #444;" x="155.3125" y="156.53846153846155">4 hrs 34 mins</text><text class="labels" style="fill: #444;" x="266.25" y="179.99999999999997">3 hrs 12 mins</text><text class="labels" style="fill: #444;" x="377.18750000000006" y="219.03846153846155">1 hr 9 mins</text><text class="labels" style="fill: #444;" x="488.12500000000006" y="238.26923076923077">9 mins</text><text class="labels" style="fill: #444;" x="599.0625000000001" y="239.61538461538464">2 mins</text></g></svg>