<svg xmlns="http://www.w3.org/2000/svg" width="875" height="315"><g transform="translate(20, 20)"><g transform="translate(0, 260)" style="font-size: 15px; font-family: monospace; font-weight: 300;" fill="none" font-size="10" font-family="sans-serif" text-anchor="middle"><path class="domain" stroke="currentColor" d="M0.5,6V0.5H835.5V6"></path><g class="tick" opacity="1" transform="translate(78.98648648648646,0)"><line stroke="currentColor" y2="6"></line><text fill="currentColor" y="9" dy="0.71em">JavaScript</text></g><g class="tick" opacity="1" transform="translate(191.82432432432432,0)"><line stroke="currentColor" y2="6"></line><text fill="currentColor" y="9" dy="0.71em">Dart</text></g><g class="tick" opacity="1" transform="translate(304.6621621621622,0)"><line stroke="currentColor" y2="6"></line><text fill="currentColor" y="9" dy="0.71em">TypeScript</text></g><g class="tick" opacity="1" transform="translate(417.5,0)"><line stroke="currentColor" y2="6"></line><text fill="currentColor" y="9" dy="0.71em">JSX</text></g><g class="tick" opacity="1" transform="translate(530.3378378378379,0)"><line stroke="currentColor" y2="6"></line><text fill="currentColor" y="9" dy="0.71em">JSON</text></g><g class="tick" opacity="1" transform="translate(643.1756756756757,0)"><line stroke="currentColor" y2="6"></line><text fill="currentColor" y="9" dy="0.71em">Bash</text></g><g class="tick" opacity="1" transform="translate(756.0135135135135,0)"><line stroke="currentColor" y2="6"></line><text fill="currentColor" y="9" dy="0.71em">LESS</text></g></g><rect x="45.1351351351351" y="28.10810810810811" height="231.8918918918919" width="67.70270270270271" fill="#D50657"></rect><rect x="157.97297297297297" y="118.61621621621622" height="141.38378378378377" width="67.70270270270271" fill="#049AE6"></rect><rect x="270.81081081081084" y="146.16216216216216" height="113.83783783783784" width="67.70270270270271" fill="#F8C41B"></rect><rect x="383.64864864864865" y="244.25945945945944" height="15.740540540540565" width="67.70270270270271" fill="#32465B"></rect><rect x="496.4864864864865" y="251.84864864864863" height="8.151351351351366" width="67.70270270270271" fill="#E45E42"></rect><rect x="609.3243243243244" y="252.4108108108108" height="7.589189189189199" width="67.70270270270271" fill="#007C5A"></rect><rect x="722.1621621621622" y="254.3783783783784" height="5.621621621621614" width="67.70270270270271" fill="#FC69FF"></rect><text class="labels" style="fill: #444;" x="45.1351351351351" y="8.108108108108109">8 hrs 25 mins</text><text class="labels" style="fill: #444;" x="157.97297297297297" y="98.61621621621622">5 hrs 3 mins</text><text class="labels" style="fill: #444;" x="270.81081081081084" y="126.16216216216216">4 hrs 5 mins</text><text class="labels" style="fill: #444;" x="383.64864864864865" y="224.25945945945944">56 mins</text><text class="labels" style="fill: #444;" x="496.4864864864865" y="231.84864864864863">29 mins</text><text class="labels" style="fill: #444;" x="609.3243243243244" y="232.4108108108108">27 mins</text><text class="labels" style="fill: #444;" x="722.1621621621622" y="234.3783783783784">20 mins</text></g></svg>