<svg xmlns="http://www.w3.org/2000/svg" width="750" height="315"><g transform="translate(20, 20)"><g transform="translate(0, 260)" style="font-size: 15px; font-family: monospace; font-weight: 300;" fill="none" font-size="10" font-family="sans-serif" text-anchor="middle"><path class="domain" stroke="currentColor" d="M0.5,6V0.5H710.5V6"></path><g class="tick" opacity="1" transform="translate(77.65625,0)"><line stroke="currentColor" y2="6"></line><text fill="currentColor" y="9" dy="0.71em">Dart</text></g><g class="tick" opacity="1" transform="translate(188.59375,0)"><line stroke="currentColor" y2="6"></line><text fill="currentColor" y="9" dy="0.71em">JavaScript</text></g><g class="tick" opacity="1" transform="translate(299.53125,0)"><line stroke="currentColor" y2="6"></line><text fill="currentColor" y="9" dy="0.71em">JSX</text></g><g class="tick" opacity="1" transform="translate(410.46875000000006,0)"><line stroke="currentColor" y2="6"></line><text fill="currentColor" y="9" dy="0.71em">TypeScript</text></g><g class="tick" opacity="1" transform="translate(521.40625,0)"><line stroke="currentColor" y2="6"></line><text fill="currentColor" y="9" dy="0.71em">JSON</text></g><g class="tick" opacity="1" transform="translate(632.3437500000001,0)"><line stroke="currentColor" y2="6"></line><text fill="currentColor" y="9" dy="0.71em">YAML</text></g></g><rect x="44.375" y="115.0442477876106" height="144.9557522123894" width="66.5625" fill="#D50657"></rect><rect x="155.3125" y="136.90265486725662" height="123.09734513274338" width="66.5625" fill="#049AE6"></rect><rect x="266.25" y="223.18584070796462" height="36.814159292035384" width="66.5625" fill="#F8C41B"></rect><rect x="377.18750000000006" y="240.44247787610618" height="19.55752212389382" width="66.5625" fill="#32465B"></rect><rect x="488.12500000000006" y="257.6991150442478" height="2.300884955752224" width="66.5625" fill="#E45E42"></rect><rect x="599.0625000000001" y="258.8495575221239" height="1.1504424778760836" width="66.5625" fill="#007C5A"></rect><text class="labels" style="fill: #444;" x="44.375" y="95.0442477876106">1 hr 26 mins</text><text class="labels" style="fill: #444;" x="155.3125" y="116.90265486725662">1 hr 7 mins</text><text class="labels" style="fill: #444;" x="266.25" y="203.18584070796462">32 mins</text><text class="labels" style="fill: #444;" x="377.18750000000006" y="220.44247787610618">17 mins</text><text class="labels" style="fill: #444;" x="488.12500000000006" y="237.69911504424778">2 mins</text><text class="labels" style="fill: #444;" x="599.0625000000001" y="238.84955752212392">1 min</text></g></svg>