<svg xmlns="http://www.w3.org/2000/svg" width="625" height="315"><g transform="translate(20, 20)"><g transform="translate(0, 260)" style="font-size: 15px; font-family: monospace; font-weight: 300;" fill="none" font-size="10" font-family="sans-serif" text-anchor="middle"><path class="domain" stroke="currentColor" d="M0.5,6V0.5H585.5V6"></path><g class="tick" opacity="1" transform="translate(75.83333333333334,0)"><line stroke="currentColor" y2="6"></line><text fill="currentColor" y="9" dy="0.71em">JavaScript</text></g><g class="tick" opacity="1" transform="translate(184.16666666666669,0)"><line stroke="currentColor" y2="6"></line><text fill="currentColor" y="9" dy="0.71em">JSX</text></g><g class="tick" opacity="1" transform="translate(292.5,0)"><line stroke="currentColor" y2="6"></line><text fill="currentColor" y="9" dy="0.71em">TypeScript</text></g><g class="tick" opacity="1" transform="translate(400.83333333333337,0)"><line stroke="currentColor" y2="6"></line><text fill="currentColor" y="9" dy="0.71em">Bash</text></g><g class="tick" opacity="1" transform="translate(509.16666666666674,0)"><line stroke="currentColor" y2="6"></line><text fill="currentColor" y="9" dy="0.71em">JSON</text></g></g><rect x="43.33333333333334" y="30.26775320139699" height="229.732246798603" width="65" fill="#D50657"></rect><rect x="151.66666666666669" y="158.3003492433062" height="101.69965075669381" width="65" fill="#049AE6"></rect><rect x="260" y="215.20372526193248" height="44.796274738067524" width="65" fill="#F8C41B"></rect><rect x="368.33333333333337" y="251.52502910360886" height="8.474970896391142" width="65" fill="#32465B"></rect><rect x="476.66666666666674" y="258.18393480791616" height="1.8160651920838404" width="65" fill="#E45E42"></rect><text class="labels" style="fill: #444;" x="43.33333333333334" y="10.267753201396989">7 hrs 59 mins</text><text class="labels" style="fill: #444;" x="151.66666666666669" y="138.3003492433062">3 hrs 36 mins</text><text class="labels" style="fill: #444;" x="260" y="195.20372526193248">1 hr 48 mins</text><text class="labels" style="fill: #444;" x="368.33333333333337" y="231.52502910360886">28 mins</text><text class="labels" style="fill: #444;" x="476.66666666666674" y="238.18393480791616">6 mins</text></g></svg>