<svg xmlns="http://www.w3.org/2000/svg" width="625" height="315"><g transform="translate(20, 20)"><g transform="translate(0, 260)" style="font-size: 15px; font-family: monospace; font-weight: 300;" fill="none" font-size="10" font-family="sans-serif" text-anchor="middle"><path class="domain" stroke="currentColor" d="M0.5,6V0.5H585.5V6"></path><g class="tick" opacity="1" transform="translate(75.83333333333334,0)"><line stroke="currentColor" y2="6"></line><text fill="currentColor" y="9" dy="0.71em">JavaScript</text></g><g class="tick" opacity="1" transform="translate(184.16666666666669,0)"><line stroke="currentColor" y2="6"></line><text fill="currentColor" y="9" dy="0.71em">JSX</text></g><g class="tick" opacity="1" transform="translate(292.5,0)"><line stroke="currentColor" y2="6"></line><text fill="currentColor" y="9" dy="0.71em">TypeScript</text></g><g class="tick" opacity="1" transform="translate(400.83333333333337,0)"><line stroke="currentColor" y2="6"></line><text fill="currentColor" y="9" dy="0.71em">Bash</text></g><g class="tick" opacity="1" transform="translate(509.16666666666674,0)"><line stroke="currentColor" y2="6"></line><text fill="currentColor" y="9" dy="0.71em">JSON</text></g></g><rect x="43.33333333333334" y="40.185471406491516" height="219.8145285935085" width="65" fill="#D50657"></rect><rect x="151.66666666666669" y="80.370942812983" height="179.629057187017" width="65" fill="#049AE6"></rect><rect x="260" y="248.7480680061824" height="11.251931993817607" width="65" fill="#F8C41B"></rect><rect x="368.33333333333337" y="256.3833075734158" height="3.6166924265842226" width="65" fill="#32465B"></rect><rect x="476.66666666666674" y="257.9907264296754" height="2.0092735703245808" width="65" fill="#E45E42"></rect><text class="labels" style="fill: #444;" x="43.33333333333334" y="20.185471406491516">5 hrs 47 mins</text><text class="labels" style="fill: #444;" x="151.66666666666669" y="60.370942812983">4 hrs 47 mins</text><text class="labels" style="fill: #444;" x="260" y="228.7480680061824">28 mins</text><text class="labels" style="fill: #444;" x="368.33333333333337" y="236.38330757341578">9 mins</text><text class="labels" style="fill: #444;" x="476.66666666666674" y="237.99072642967542">5 mins</text></g></svg>