<svg xmlns="http://www.w3.org/2000/svg" width="625" height="315"><g transform="translate(20, 20)"><g transform="translate(0, 260)" style="font-size: 15px; font-family: monospace; font-weight: 300;" fill="none" font-size="10" font-family="sans-serif" text-anchor="middle"><path class="domain" stroke="currentColor" d="M0.5,6V0.5H585.5V6"></path><g class="tick" opacity="1" transform="translate(75.83333333333334,0)"><line stroke="currentColor" y2="6"></line><text fill="currentColor" y="9" dy="0.71em">TypeScript</text></g><g class="tick" opacity="1" transform="translate(184.16666666666669,0)"><line stroke="currentColor" y2="6"></line><text fill="currentColor" y="9" dy="0.71em">JavaScript</text></g><g class="tick" opacity="1" transform="translate(292.5,0)"><line stroke="currentColor" y2="6"></line><text fill="currentColor" y="9" dy="0.71em">JSX</text></g><g class="tick" opacity="1" transform="translate(400.83333333333337,0)"><line stroke="currentColor" y2="6"></line><text fill="currentColor" y="9" dy="0.71em">JSON</text></g><g class="tick" opacity="1" transform="translate(509.16666666666674,0)"><line stroke="currentColor" y2="6"></line><text fill="currentColor" y="9" dy="0.71em">Dart</text></g></g><rect x="43.33333333333334" y="74.28571428571428" height="185.71428571428572" width="65" fill="#D50657"></rect><rect x="151.66666666666669" y="94.34285714285714" height="165.65714285714284" width="65" fill="#049AE6"></rect><rect x="260" y="166.4" height="93.6" width="65" fill="#F8C41B"></rect><rect x="368.33333333333337" y="246.62857142857143" height="13.371428571428567" width="65" fill="#32465B"></rect><rect x="476.66666666666674" y="256.2857142857143" height="3.7142857142857224" width="65" fill="#E45E42"></rect><text class="labels" style="fill: #444;" x="43.33333333333334" y="54.28571428571428">2 hrs 50 mins</text><text class="labels" style="fill: #444;" x="151.66666666666669" y="74.34285714285714">2 hrs 23 mins</text><text class="labels" style="fill: #444;" x="260" y="146.4">1 hr 26 mins</text><text class="labels" style="fill: #444;" x="368.33333333333337" y="226.62857142857143">18 mins</text><text class="labels" style="fill: #444;" x="476.66666666666674" y="236.28571428571428">5 mins</text></g></svg>