<svg xmlns="http://www.w3.org/2000/svg" width="625" height="315"><g transform="translate(20, 20)"><g transform="translate(0, 260)" style="font-size: 15px; font-family: monospace; font-weight: 300;" fill="none" font-size="10" font-family="sans-serif" text-anchor="middle"><path class="domain" stroke="currentColor" d="M0.5,6V0.5H585.5V6"></path><g class="tick" opacity="1" transform="translate(75.83333333333334,0)"><line stroke="currentColor" y2="6"></line><text fill="currentColor" y="9" dy="0.71em">JavaScript</text></g><g class="tick" opacity="1" transform="translate(184.16666666666669,0)"><line stroke="currentColor" y2="6"></line><text fill="currentColor" y="9" dy="0.71em">JSX</text></g><g class="tick" opacity="1" transform="translate(292.5,0)"><line stroke="currentColor" y2="6"></line><text fill="currentColor" y="9" dy="0.71em">Bash</text></g><g class="tick" opacity="1" transform="translate(400.83333333333337,0)"><line stroke="currentColor" y2="6"></line><text fill="currentColor" y="9" dy="0.71em">TypeScript</text></g><g class="tick" opacity="1" transform="translate(509.16666666666674,0)"><line stroke="currentColor" y2="6"></line><text fill="currentColor" y="9" dy="0.71em">JSON</text></g></g><rect x="43.33333333333334" y="16.089108910891103" height="243.9108910891089" width="65" fill="#D50657"></rect><rect x="151.66666666666669" y="226.85643564356437" height="33.14356435643563" width="65" fill="#049AE6"></rect><rect x="260" y="252.4381188118812" height="7.561881188118804" width="65" fill="#F8C41B"></rect><rect x="368.33333333333337" y="254.2079207920792" height="5.792079207920807" width="65" fill="#32465B"></rect><rect x="476.66666666666674" y="256.2995049504951" height="3.700495049504923" width="65" fill="#E45E42"></rect><text class="labels" style="fill: #444;" x="43.33333333333334" y="-3.9108910891088975">15 hrs 16 mins</text><text class="labels" style="fill: #444;" x="151.66666666666669" y="206.85643564356437">2 hrs 6 mins</text><text class="labels" style="fill: #444;" x="260" y="232.4381188118812">47 mins</text><text class="labels" style="fill: #444;" x="368.33333333333337" y="234.2079207920792">36 mins</text><text class="labels" style="fill: #444;" x="476.66666666666674" y="236.29950495049508">23 mins</text></g></svg>