<svg xmlns="http://www.w3.org/2000/svg" width="750" height="315"><g transform="translate(20, 20)"><g transform="translate(0, 260)" style="font-size: 15px; font-family: monospace; font-weight: 300;" fill="none" font-size="10" font-family="sans-serif" text-anchor="middle"><path class="domain" stroke="currentColor" d="M0.5,6V0.5H710.5V6"></path><g class="tick" opacity="1" transform="translate(77.65625,0)"><line stroke="currentColor" y2="6"></line><text fill="currentColor" y="9" dy="0.71em">JSX</text></g><g class="tick" opacity="1" transform="translate(188.59375,0)"><line stroke="currentColor" y2="6"></line><text fill="currentColor" y="9" dy="0.71em">JavaScript</text></g><g class="tick" opacity="1" transform="translate(299.53125,0)"><line stroke="currentColor" y2="6"></line><text fill="currentColor" y="9" dy="0.71em">TypeScript</text></g><g class="tick" opacity="1" transform="translate(410.46875000000006,0)"><line stroke="currentColor" y2="6"></line><text fill="currentColor" y="9" dy="0.71em">Git Config</text></g><g class="tick" opacity="1" transform="translate(521.40625,0)"><line stroke="currentColor" y2="6"></line><text fill="currentColor" y="9" dy="0.71em">LESS</text></g><g class="tick" opacity="1" transform="translate(632.3437500000001,0)"><line stroke="currentColor" y2="6"></line><text fill="currentColor" y="9" dy="0.71em">Dart</text></g></g><rect x="44.375" y="19.23076923076924" height="240.76923076923077" width="66.5625" fill="#D50657"></rect><rect x="155.3125" y="117.88461538461539" height="142.1153846153846" width="66.5625" fill="#049AE6"></rect><rect x="266.25" y="238.46153846153845" height="21.538461538461547" width="66.5625" fill="#F8C41B"></rect><rect x="377.18750000000006" y="258.84615384615387" height="1.153846153846132" width="66.5625" fill="#32465B"></rect><rect x="488.12500000000006" y="258.84615384615387" height="1.153846153846132" width="66.5625" fill="#E45E42"></rect><rect x="599.0625000000001" y="259.2307692307692" height="0.7692307692307736" width="66.5625" fill="#007C5A"></rect><text class="labels" style="fill: #444;" x="44.375" y="-0.7692307692307594">12 hrs 52 mins</text><text class="labels" style="fill: #444;" x="155.3125" y="97.88461538461539">7 hrs 39 mins</text><text class="labels" style="fill: #444;" x="266.25" y="218.46153846153845">1 hr 12 mins</text><text class="labels" style="fill: #444;" x="377.18750000000006" y="238.84615384615387">6 mins</text><text class="labels" style="fill: #444;" x="488.12500000000006" y="238.84615384615387">6 mins</text><text class="labels" style="fill: #444;" x="599.0625000000001" y="239.23076923076923">4 mins</text></g></svg>