<svg xmlns="http://www.w3.org/2000/svg" width="625" height="315"><g transform="translate(20, 20)"><g transform="translate(0, 260)" style="font-size: 15px; font-family: monospace; font-weight: 300;" fill="none" font-size="10" font-family="sans-serif" text-anchor="middle"><path class="domain" stroke="currentColor" d="M0.5,6V0.5H585.5V6"></path><g class="tick" opacity="1" transform="translate(75.83333333333334,0)"><line stroke="currentColor" y2="6"></line><text fill="currentColor" y="9" dy="0.71em">JSX</text></g><g class="tick" opacity="1" transform="translate(184.16666666666669,0)"><line stroke="currentColor" y2="6"></line><text fill="currentColor" y="9" dy="0.71em">TypeScript</text></g><g class="tick" opacity="1" transform="translate(292.5,0)"><line stroke="currentColor" y2="6"></line><text fill="currentColor" y="9" dy="0.71em">JavaScript</text></g><g class="tick" opacity="1" transform="translate(400.83333333333337,0)"><line stroke="currentColor" y2="6"></line><text fill="currentColor" y="9" dy="0.71em">LESS</text></g><g class="tick" opacity="1" transform="translate(509.16666666666674,0)"><line stroke="currentColor" y2="6"></line><text fill="currentColor" y="9" dy="0.71em">JSON</text></g></g><rect x="43.33333333333334" y="31.515151515151516" height="228.4848484848485" width="65" fill="#D50657"></rect><rect x="151.66666666666669" y="124.16969696969699" height="135.830303030303" width="65" fill="#049AE6"></rect><rect x="260" y="178.6909090909091" height="81.30909090909091" width="65" fill="#F8C41B"></rect><rect x="368.33333333333337" y="226.27878787878788" height="33.72121212121212" width="65" fill="#32465B"></rect><rect x="476.66666666666674" y="254.95757575757577" height="5.042424242424232" width="65" fill="#E45E42"></rect><text class="labels" style="fill: #444;" x="43.33333333333334" y="11.515151515151516">7 hrs 25 mins</text><text class="labels" style="fill: #444;" x="151.66666666666669" y="104.16969696969699">4 hrs 31 mins</text><text class="labels" style="fill: #444;" x="260" y="158.6909090909091">2 hrs 58 mins</text><text class="labels" style="fill: #444;" x="368.33333333333337" y="206.27878787878788">1 hr 7 mins</text><text class="labels" style="fill: #444;" x="476.66666666666674" y="234.95757575757577">16 mins</text></g></svg>