<svg xmlns="http://www.w3.org/2000/svg" width="875" height="315"><g transform="translate(20, 20)"><g transform="translate(0, 260)" style="font-size: 15px; font-family: monospace; font-weight: 300;" fill="none" font-size="10" font-family="sans-serif" text-anchor="middle"><path class="domain" stroke="currentColor" d="M0.5,6V0.5H835.5V6"></path><g class="tick" opacity="1" transform="translate(78.98648648648646,0)"><line stroke="currentColor" y2="6"></line><text fill="currentColor" y="9" dy="0.71em">JavaScript</text></g><g class="tick" opacity="1" transform="translate(191.82432432432432,0)"><line stroke="currentColor" y2="6"></line><text fill="currentColor" y="9" dy="0.71em">JSX</text></g><g class="tick" opacity="1" transform="translate(304.6621621621622,0)"><line stroke="currentColor" y2="6"></line><text fill="currentColor" y="9" dy="0.71em">TypeScript</text></g><g class="tick" opacity="1" transform="translate(417.5,0)"><line stroke="currentColor" y2="6"></line><text fill="currentColor" y="9" dy="0.71em">Properties</text></g><g class="tick" opacity="1" transform="translate(530.3378378378379,0)"><line stroke="currentColor" y2="6"></line><text fill="currentColor" y="9" dy="0.71em">JSON</text></g><g class="tick" opacity="1" transform="translate(643.1756756756757,0)"><line stroke="currentColor" y2="6"></line><text fill="currentColor" y="9" dy="0.71em">LESS</text></g><g class="tick" opacity="1" transform="translate(756.0135135135135,0)"><line stroke="currentColor" y2="6"></line><text fill="currentColor" y="9" dy="0.71em">Java</text></g></g><rect x="45.1351351351351" y="23.529411764705884" height="236.47058823529412" width="67.70270270270271" fill="#D50657"></rect><rect x="157.97297297297297" y="187.05882352941177" height="72.94117647058823" width="67.70270270270271" fill="#049AE6"></rect><rect x="270.81081081081084" y="210.35294117647058" height="49.64705882352942" width="67.70270270270271" fill="#F8C41B"></rect><rect x="383.64864864864865" y="248.94117647058823" height="11.058823529411768" width="67.70270270270271" fill="#32465B"></rect><rect x="496.4864864864865" y="253.6470588235294" height="6.352941176470608" width="67.70270270270271" fill="#E45E42"></rect><rect x="609.3243243243244" y="253.88235294117646" height="6.117647058823536" width="67.70270270270271" fill="#007C5A"></rect><rect x="722.1621621621622" y="259.29411764705884" height="0.7058823529411598" width="67.70270270270271" fill="#FC69FF"></rect><text class="labels" style="fill: #444;" x="45.1351351351351" y="3.529411764705884">10 hrs 5 mins</text><text class="labels" style="fill: #444;" x="157.97297297297297" y="167.05882352941177">3 hrs 10 mins</text><text class="labels" style="fill: #444;" x="270.81081081081084" y="190.35294117647058">2 hrs 11 mins</text><text class="labels" style="fill: #444;" x="383.64864864864865" y="228.94117647058823">47 mins</text><text class="labels" style="fill: #444;" x="496.4864864864865" y="233.6470588235294">27 mins</text><text class="labels" style="fill: #444;" x="609.3243243243244" y="233.88235294117646">26 mins</text><text class="labels" style="fill: #444;" x="722.1621621621622" y="239.29411764705884">3 mins</text></g></svg>