<svg xmlns="http://www.w3.org/2000/svg" width="750" height="315"><g transform="translate(20, 20)"><g transform="translate(0, 260)" style="font-size: 15px; font-family: monospace; font-weight: 300;" fill="none" font-size="10" font-family="sans-serif" text-anchor="middle"><path class="domain" stroke="currentColor" d="M0.5,6V0.5H710.5V6"></path><g class="tick" opacity="1" transform="translate(77.65625,0)"><line stroke="currentColor" y2="6"></line><text fill="currentColor" y="9" dy="0.71em">JSX</text></g><g class="tick" opacity="1" transform="translate(188.59375,0)"><line stroke="currentColor" y2="6"></line><text fill="currentColor" y="9" dy="0.71em">JavaScript</text></g><g class="tick" opacity="1" transform="translate(299.53125,0)"><line stroke="currentColor" y2="6"></line><text fill="currentColor" y="9" dy="0.71em">TypeScript</text></g><g class="tick" opacity="1" transform="translate(410.46875000000006,0)"><line stroke="currentColor" y2="6"></line><text fill="currentColor" y="9" dy="0.71em">CSS</text></g><g class="tick" opacity="1" transform="translate(521.40625,0)"><line stroke="currentColor" y2="6"></line><text fill="currentColor" y="9" dy="0.71em">JSON</text></g><g class="tick" opacity="1" transform="translate(632.3437500000001,0)"><line stroke="currentColor" y2="6"></line><text fill="currentColor" y="9" dy="0.71em">LESS</text></g></g><rect x="44.375" y="19.287833827893177" height="240.71216617210683" width="66.5625" fill="#D50657"></rect><rect x="155.3125" y="60.17804154302674" height="199.82195845697328" width="66.5625" fill="#049AE6"></rect><rect x="266.25" y="124.40652818991099" height="135.593471810089" width="66.5625" fill="#F8C41B"></rect><rect x="377.18750000000006" y="256.1424332344214" height="3.8575667655786106" width="66.5625" fill="#32465B"></rect><rect x="488.12500000000006" y="258.64985163204744" height="1.3501483679525563" width="66.5625" fill="#E45E42"></rect><rect x="599.0625000000001" y="258.64985163204744" height="1.3501483679525563" width="66.5625" fill="#007C5A"></rect><text class="labels" style="fill: #444;" x="44.375" y="-0.7121661721068229">12 hrs 48 mins</text><text class="labels" style="fill: #444;" x="155.3125" y="40.17804154302674">10 hrs 36 mins</text><text class="labels" style="fill: #444;" x="266.25" y="104.40652818991099">7 hrs 3 mins</text><text class="labels" style="fill: #444;" x="377.18750000000006" y="236.1424332344214">20 mins</text><text class="labels" style="fill: #444;" x="488.12500000000006" y="238.64985163204744">7 mins</text><text class="labels" style="fill: #444;" x="599.0625000000001" y="238.64985163204744">7 mins</text></g></svg>