<svg xmlns="http://www.w3.org/2000/svg" width="625" height="315"><g transform="translate(20, 20)"><g transform="translate(0, 260)" style="font-size: 15px; font-family: monospace; font-weight: 300;" fill="none" font-size="10" font-family="sans-serif" text-anchor="middle"><path class="domain" stroke="currentColor" d="M0.5,6V0.5H585.5V6"></path><g class="tick" opacity="1" transform="translate(75.83333333333334,0)"><line stroke="currentColor" y2="6"></line><text fill="currentColor" y="9" dy="0.71em">JSX</text></g><g class="tick" opacity="1" transform="translate(184.16666666666669,0)"><line stroke="currentColor" y2="6"></line><text fill="currentColor" y="9" dy="0.71em">JavaScript</text></g><g class="tick" opacity="1" transform="translate(292.5,0)"><line stroke="currentColor" y2="6"></line><text fill="currentColor" y="9" dy="0.71em">TypeScript</text></g><g class="tick" opacity="1" transform="translate(400.83333333333337,0)"><line stroke="currentColor" y2="6"></line><text fill="currentColor" y="9" dy="0.71em">CSS</text></g><g class="tick" opacity="1" transform="translate(509.16666666666674,0)"><line stroke="currentColor" y2="6"></line><text fill="currentColor" y="9" dy="0.71em">JSON</text></g></g><rect x="43.33333333333334" y="21.46985962014864" height="238.53014037985136" width="65" fill="#D50657"></rect><rect x="151.66666666666669" y="82.2295623451693" height="177.7704376548307" width="65" fill="#049AE6"></rect><rect x="260" y="150.074318744839" height="109.92568125516101" width="65" fill="#F8C41B"></rect><rect x="368.33333333333337" y="255.70602807597027" height="4.293971924029734" width="65" fill="#32465B"></rect><rect x="476.66666666666674" y="258.49710982658956" height="1.5028901734104352" width="65" fill="#E45E42"></rect><text class="labels" style="fill: #444;" x="43.33333333333334" y="1.4698596201486396">11 hrs 11 mins</text><text class="labels" style="fill: #444;" x="151.66666666666669" y="62.2295623451693">8 hrs 28 mins</text><text class="labels" style="fill: #444;" x="260" y="130.074318744839">5 hrs 12 mins</text><text class="labels" style="fill: #444;" x="368.33333333333337" y="235.70602807597027">20 mins</text><text class="labels" style="fill: #444;" x="476.66666666666674" y="238.49710982658956">7 mins</text></g></svg>