<svg xmlns="http://www.w3.org/2000/svg" width="1000" height="315"><g transform="translate(20, 20)"><g transform="translate(0, 260)" style="font-size: 15px; font-family: monospace; font-weight: 300;" fill="none" font-size="10" font-family="sans-serif" text-anchor="middle"><path class="domain" stroke="currentColor" d="M0.5,6V0.5H960.5V6"></path><g class="tick" opacity="1" transform="translate(80.00000000000006,0)"><line stroke="currentColor" y2="6"></line><text fill="currentColor" y="9" dy="0.71em">JSX</text></g><g class="tick" opacity="1" transform="translate(194.28571428571433,0)"><line stroke="currentColor" y2="6"></line><text fill="currentColor" y="9" dy="0.71em">JavaScript</text></g><g class="tick" opacity="1" transform="translate(308.5714285714286,0)"><line stroke="currentColor" y2="6"></line><text fill="currentColor" y="9" dy="0.71em">Groovy</text></g><g class="tick" opacity="1" transform="translate(422.8571428571429,0)"><line stroke="currentColor" y2="6"></line><text fill="currentColor" y="9" dy="0.71em">TypeScript</text></g><g class="tick" opacity="1" transform="translate(537.1428571428572,0)"><line stroke="currentColor" y2="6"></line><text fill="currentColor" y="9" dy="0.71em">Dart</text></g><g class="tick" opacity="1" transform="translate(651.4285714285714,0)"><line stroke="currentColor" y2="6"></line><text fill="currentColor" y="9" dy="0.71em">XML</text></g><g class="tick" opacity="1" transform="translate(765.7142857142858,0)"><line stroke="currentColor" y2="6"></line><text fill="currentColor" y="9" dy="0.71em">JSON</text></g><g class="tick" opacity="1" transform="translate(880.0000000000001,0)"><line stroke="currentColor" y2="6"></line><text fill="currentColor" y="9" dy="0.71em">YAML</text></g></g><rect x="45.71428571428578" y="59.63302752293577" height="200.36697247706422" width="68.57142857142857" fill="#D50657"></rect><rect x="160.00000000000006" y="190.8256880733945" height="69.1743119266055" width="68.57142857142857" fill="#049AE6"></rect><rect x="274.28571428571433" y="242.70642201834863" height="17.293577981651367" width="68.57142857142857" fill="#F8C41B"></rect><rect x="388.5714285714286" y="245.6880733944954" height="14.311926605504595" width="68.57142857142857" fill="#32465B"></rect><rect x="502.8571428571429" y="246.28440366972478" height="13.715596330275218" width="68.57142857142857" fill="#E45E42"></rect><rect x="617.1428571428571" y="254.63302752293578" height="5.366972477064223" width="68.57142857142857" fill="#007C5A"></rect><rect x="731.4285714285714" y="257.61467889908255" height="2.3853211009174515" width="68.57142857142857" fill="#FC69FF"></rect><rect x="845.7142857142858" y="259.4036697247706" height="0.5963302752293771" width="68.57142857142857" fill="#3EC6CF"></rect><text class="labels" style="fill: #444;" x="45.71428571428578" y="39.63302752293577">3 hrs 36 mins</text><text class="labels" style="fill: #444;" x="160.00000000000006" y="170.8256880733945">1 hr 16 mins</text><text class="labels" style="fill: #444;" x="274.28571428571433" y="222.70642201834863">29 mins</text><text class="labels" style="fill: #444;" x="388.5714285714286" y="225.6880733944954">24 mins</text><text class="labels" style="fill: #444;" x="502.8571428571429" y="226.28440366972478">23 mins</text><text class="labels" style="fill: #444;" x="617.1428571428571" y="234.63302752293578">9 mins</text><text class="labels" style="fill: #444;" x="731.4285714285714" y="237.61467889908255">4 mins</text><text class="labels" style="fill: #444;" x="845.7142857142858" y="239.40366972477062">1 min</text></g></svg>