<svg xmlns="http://www.w3.org/2000/svg" width="1000" height="315"><g transform="translate(20, 20)"><g transform="translate(0, 260)" style="font-size: 15px; font-family: monospace; font-weight: 300;" fill="none" font-size="10" font-family="sans-serif" text-anchor="middle"><path class="domain" stroke="currentColor" d="M0.5,6V0.5H960.5V6"></path><g class="tick" opacity="1" transform="translate(80.00000000000006,0)"><line stroke="currentColor" y2="6"></line><text fill="currentColor" y="9" dy="0.71em">JSX</text></g><g class="tick" opacity="1" transform="translate(194.28571428571433,0)"><line stroke="currentColor" y2="6"></line><text fill="currentColor" y="9" dy="0.71em">JavaScript</text></g><g class="tick" opacity="1" transform="translate(308.5714285714286,0)"><line stroke="currentColor" y2="6"></line><text fill="currentColor" y="9" dy="0.71em">Dart</text></g><g class="tick" opacity="1" transform="translate(422.8571428571429,0)"><line stroke="currentColor" y2="6"></line><text fill="currentColor" y="9" dy="0.71em">JSON</text></g><g class="tick" opacity="1" transform="translate(537.1428571428572,0)"><line stroke="currentColor" y2="6"></line><text fill="currentColor" y="9" dy="0.71em">XML</text></g><g class="tick" opacity="1" transform="translate(651.4285714285714,0)"><line stroke="currentColor" y2="6"></line><text fill="currentColor" y="9" dy="0.71em">TypeScript</text></g><g class="tick" opacity="1" transform="translate(765.7142857142858,0)"><line stroke="currentColor" y2="6"></line><text fill="currentColor" y="9" dy="0.71em">LESS</text></g><g class="tick" opacity="1" transform="translate(880.0000000000001,0)"><line stroke="currentColor" y2="6"></line><text fill="currentColor" y="9" dy="0.71em">YAML</text></g></g><rect x="45.71428571428578" y="62.20095693779902" height="197.79904306220098" width="68.57142857142857" fill="#D50657"></rect><rect x="160.00000000000006" y="109.47368421052632" height="150.5263157894737" width="68.57142857142857" fill="#049AE6"></rect><rect x="274.28571428571433" y="187.8468899521531" height="72.1531100478469" width="68.57142857142857" fill="#F8C41B"></rect><rect x="388.5714285714286" y="245.6937799043062" height="14.306220095693789" width="68.57142857142857" fill="#32465B"></rect><rect x="502.8571428571429" y="246.9377990430622" height="13.0622009569378" width="68.57142857142857" fill="#E45E42"></rect><rect x="617.1428571428571" y="250.04784688995215" height="9.952153110047846" width="68.57142857142857" fill="#007C5A"></rect><rect x="731.4285714285714" y="258.75598086124404" height="1.2440191387559594" width="68.57142857142857" fill="#FC69FF"></rect><rect x="845.7142857142858" y="259.37799043062205" height="0.6220095693779513" width="68.57142857142857" fill="#3EC6CF"></rect><text class="labels" style="fill: #444;" x="45.71428571428578" y="42.20095693779902">3 hrs 18 mins</text><text class="labels" style="fill: #444;" x="160.00000000000006" y="89.47368421052632">2 hrs 42 mins</text><text class="labels" style="fill: #444;" x="274.28571428571433" y="167.8468899521531">1 hr 16 mins</text><text class="labels" style="fill: #444;" x="388.5714285714286" y="225.6937799043062">23 mins</text><text class="labels" style="fill: #444;" x="502.8571428571429" y="226.9377990430622">21 mins</text><text class="labels" style="fill: #444;" x="617.1428571428571" y="230.04784688995215">16 mins</text><text class="labels" style="fill: #444;" x="731.4285714285714" y="238.75598086124404">2 mins</text><text class="labels" style="fill: #444;" x="845.7142857142858" y="239.37799043062205">1 min</text></g></svg>