<svg xmlns="http://www.w3.org/2000/svg" width="625" height="315"><g transform="translate(20, 20)"><g transform="translate(0, 260)" style="font-size: 15px; font-family: monospace; font-weight: 300;" fill="none" font-size="10" font-family="sans-serif" text-anchor="middle"><path class="domain" stroke="currentColor" d="M0.5,6V0.5H585.5V6"></path><g class="tick" opacity="1" transform="translate(75.83333333333334,0)"><line stroke="currentColor" y2="6"></line><text fill="currentColor" y="9" dy="0.71em">JavaScript</text></g><g class="tick" opacity="1" transform="translate(184.16666666666669,0)"><line stroke="currentColor" y2="6"></line><text fill="currentColor" y="9" dy="0.71em">TypeScript</text></g><g class="tick" opacity="1" transform="translate(292.5,0)"><line stroke="currentColor" y2="6"></line><text fill="currentColor" y="9" dy="0.71em">JSON</text></g><g class="tick" opacity="1" transform="translate(400.83333333333337,0)"><line stroke="currentColor" y2="6"></line><text fill="currentColor" y="9" dy="0.71em">HTML</text></g><g class="tick" opacity="1" transform="translate(509.16666666666674,0)"><line stroke="currentColor" y2="6"></line><text fill="currentColor" y="9" dy="0.71em">Markdown</text></g></g><rect x="43.33333333333334" y="49.0566037735849" height="210.9433962264151" width="65" fill="#D50657"></rect><rect x="151.66666666666669" y="185.43396226415095" height="74.56603773584905" width="65" fill="#049AE6"></rect><rect x="260" y="251.16981132075472" height="8.830188679245282" width="65" fill="#F8C41B"></rect><rect x="368.33333333333337" y="257.0566037735849" height="2.943396226415075" width="65" fill="#32465B"></rect><rect x="476.66666666666674" y="258.52830188679246" height="1.4716981132075375" width="65" fill="#E45E42"></rect><text class="labels" style="fill: #444;" x="43.33333333333334" y="29.056603773584897">4 hrs 30 mins</text><text class="labels" style="fill: #444;" x="151.66666666666669" y="165.43396226415095">1 hr 52 mins</text><text class="labels" style="fill: #444;" x="260" y="231.16981132075472">18 mins</text><text class="labels" style="fill: #444;" x="368.33333333333337" y="237.05660377358492">6 mins</text><text class="labels" style="fill: #444;" x="476.66666666666674" y="238.52830188679246">3 mins</text></g></svg>