<svg xmlns="http://www.w3.org/2000/svg" width="1625" height="315"><g transform="translate(20, 20)"><g transform="translate(0, 260)" style="font-size: 15px; font-family: monospace; font-weight: 300;" fill="none" font-size="10" font-family="sans-serif" text-anchor="middle"><path class="domain" stroke="currentColor" d="M0.5,6V0.5H1585.5V6"></path><g class="tick" opacity="1" transform="translate(82.79850746268656,0)"><line stroke="currentColor" y2="6"></line><text fill="currentColor" y="9" dy="0.71em">JSX</text></g><g class="tick" opacity="1" transform="translate(201.08208955223878,0)"><line stroke="currentColor" y2="6"></line><text fill="currentColor" y="9" dy="0.71em">JavaScript</text></g><g class="tick" opacity="1" transform="translate(319.365671641791,0)"><line stroke="currentColor" y2="6"></line><text fill="currentColor" y="9" dy="0.71em">CSS</text></g><g class="tick" opacity="1" transform="translate(437.64925373134326,0)"><line stroke="currentColor" y2="6"></line><text fill="currentColor" y="9" dy="0.71em">LESS</text></g><g class="tick" opacity="1" transform="translate(555.9328358208955,0)"><line stroke="currentColor" y2="6"></line><text fill="currentColor" y="9" dy="0.71em">JSON</text></g><g class="tick" opacity="1" transform="translate(674.2164179104477,0)"><line stroke="currentColor" y2="6"></line><text fill="currentColor" y="9" dy="0.71em">Git Config</text></g><g class="tick" opacity="1" transform="translate(792.5,0)"><line stroke="currentColor" y2="6"></line><text fill="currentColor" y="9" dy="0.71em">YAML</text></g><g class="tick" opacity="1" transform="translate(910.7835820895522,0)"><line stroke="currentColor" y2="6"></line><text fill="currentColor" y="9" dy="0.71em">TypeScript</text></g><g class="tick" opacity="1" transform="translate(1029.0671641791046,0)"><line stroke="currentColor" y2="6"></line><text fill="currentColor" y="9" dy="0.71em">Markdown</text></g><g class="tick" opacity="1" transform="translate(1147.3507462686566,0)"><line stroke="currentColor" y2="6"></line><text fill="currentColor" y="9" dy="0.71em">Docker</text></g><g class="tick" opacity="1" transform="translate(1265.6343283582091,0)"><line stroke="currentColor" y2="6"></line><text fill="currentColor" y="9" dy="0.71em">HTML</text></g><g class="tick" opacity="1" transform="translate(1383.9179104477612,0)"><line stroke="currentColor" y2="6"></line><text fill="currentColor" y="9" dy="0.71em">Makefile</text></g><g class="tick" opacity="1" transform="translate(1502.2014925373137,0)"><line stroke="currentColor" y2="6"></line><text fill="currentColor" y="9" dy="0.71em">Bash</text></g></g><rect x="47.31343283582089" y="19.245003700962243" height="240.75499629903777" width="70.97014925373134" fill="#D50657"></rect><rect x="165.59701492537312" y="56.05107327905256" height="203.94892672094744" width="70.97014925373134" fill="#049AE6"></rect><rect x="283.88059701492534" y="234.78904515173946" height="25.210954848260542" width="70.97014925373134" fill="#F8C41B"></rect><rect x="402.1641791044776" y="254.41894892672093" height="5.58105107327907" width="70.97014925373134" fill="#32465B"></rect><rect x="520.4477611940299" y="258.1236121391562" height="1.8763878608438063" width="70.97014925373134" fill="#E45E42"></rect><rect x="638.7313432835821" y="258.70096225018506" height="1.2990377498149428" width="70.97014925373134" fill="#007C5A"></rect><rect x="757.0149253731344" y="258.8452997779423" height="1.154700222057727" width="70.97014925373134" fill="#FC69FF"></rect><rect x="875.2985074626865" y="258.8452997779423" height="1.154700222057727" width="70.97014925373134" fill="#3EC6CF"></rect><rect x="993.5820895522388" y="259.1339748334567" height="0.8660251665432952" width="70.97014925373134" fill="#620A79"></rect><rect x="1111.8656716417909" y="259.1820873427091" height="0.8179126572908899" width="70.97014925373134" fill="#D50657"></rect><rect x="1230.1492537313434" y="259.9037749814952" height="0.09622501850481058" width="70.97014925373134" fill="#049AE6"></rect><rect x="1348.4328358208954" y="259.9037749814952" height="0.09622501850481058" width="70.97014925373134" fill="#F8C41B"></rect><rect x="1466.716417910448" y="259.9518874907476" height="0.04811250925240529" width="70.97014925373134" fill="#32465B"></rect><text class="labels" style="fill: #444;" x="47.31343283582089" y="-0.7549962990377566">50 hrs 4 mins</text><text class="labels" style="fill: #444;" x="165.59701492537312" y="36.05107327905256">42 hrs 39 mins</text><text class="labels" style="fill: #444;" x="283.88059701492534" y="214.78904515173946">5 hrs 24 mins</text><text class="labels" style="fill: #444;" x="402.1641791044776" y="234.41894892672093">1 hr 16 mins</text><text class="labels" style="fill: #444;" x="520.4477611940299" y="238.1236121391562">39 mins</text><text class="labels" style="fill: #444;" x="638.7313432835821" y="238.70096225018506">27 mins</text><text class="labels" style="fill: #444;" x="757.0149253731344" y="238.84529977794227">24 mins</text><text class="labels" style="fill: #444;" x="875.2985074626865" y="238.84529977794227">24 mins</text><text class="labels" style="fill: #444;" x="993.5820895522388" y="239.1339748334567">18 mins</text><text class="labels" style="fill: #444;" x="1111.8656716417909" y="239.1820873427091">17 mins</text><text class="labels" style="fill: #444;" x="1230.1492537313434" y="239.9037749814952">2 mins</text><text class="labels" style="fill: #444;" x="1348.4328358208954" y="239.9037749814952">2 mins</text><text class="labels" style="fill: #444;" x="1466.716417910448" y="239.9518874907476">1 min</text></g></svg>