<svg xmlns="http://www.w3.org/2000/svg" width="750" height="315"><g transform="translate(20, 20)"><g transform="translate(0, 260)" style="font-size: 15px; font-family: monospace; font-weight: 300;" fill="none" font-size="10" font-family="sans-serif" text-anchor="middle"><path class="domain" stroke="currentColor" d="M0.5,6V0.5H710.5V6"></path><g class="tick" opacity="1" transform="translate(77.65625,0)"><line stroke="currentColor" y2="6"></line><text fill="currentColor" y="9" dy="0.71em">JSX</text></g><g class="tick" opacity="1" transform="translate(188.59375,0)"><line stroke="currentColor" y2="6"></line><text fill="currentColor" y="9" dy="0.71em">Dart</text></g><g class="tick" opacity="1" transform="translate(299.53125,0)"><line stroke="currentColor" y2="6"></line><text fill="currentColor" y="9" dy="0.71em">JavaScript</text></g><g class="tick" opacity="1" transform="translate(410.46875000000006,0)"><line stroke="currentColor" y2="6"></line><text fill="currentColor" y="9" dy="0.71em">TypeScript</text></g><g class="tick" opacity="1" transform="translate(521.40625,0)"><line stroke="currentColor" y2="6"></line><text fill="currentColor" y="9" dy="0.71em">YAML</text></g><g class="tick" opacity="1" transform="translate(632.3437500000001,0)"><line stroke="currentColor" y2="6"></line><text fill="currentColor" y="9" dy="0.71em">XML</text></g></g><rect x="44.375" y="201.55038759689924" height="58.44961240310076" width="66.5625" fill="#D50657"></rect><rect x="155.3125" y="235.8139534883721" height="24.186046511627893" width="66.5625" fill="#049AE6"></rect><rect x="266.25" y="237.82945736434107" height="22.170542635658933" width="66.5625" fill="#F8C41B"></rect><rect x="377.18750000000006" y="245.89147286821705" height="14.10852713178295" width="66.5625" fill="#32465B"></rect><rect x="488.12500000000006" y="245.89147286821705" height="14.10852713178295" width="66.5625" fill="#E45E42"></rect><rect x="599.0625000000001" y="253.953488372093" height="6.046511627906995" width="66.5625" fill="#007C5A"></rect><text class="labels" style="fill: #444;" x="44.375" y="181.55038759689924">29 mins</text><text class="labels" style="fill: #444;" x="155.3125" y="215.8139534883721">12 mins</text><text class="labels" style="fill: #444;" x="266.25" y="217.82945736434107">11 mins</text><text class="labels" style="fill: #444;" x="377.18750000000006" y="225.89147286821705">7 mins</text><text class="labels" style="fill: #444;" x="488.12500000000006" y="225.89147286821705">7 mins</text><text class="labels" style="fill: #444;" x="599.0625000000001" y="233.953488372093">3 mins</text></g></svg>