<svg xmlns="http://www.w3.org/2000/svg" width="750" height="315"><g transform="translate(20, 20)"><g transform="translate(0, 260)" style="font-size: 15px; font-family: monospace; font-weight: 300;" fill="none" font-size="10" font-family="sans-serif" text-anchor="middle"><path class="domain" stroke="currentColor" d="M0.5,6V0.5H710.5V6"></path><g class="tick" opacity="1" transform="translate(77.65625,0)"><line stroke="currentColor" y2="6"></line><text fill="currentColor" y="9" dy="0.71em">JavaScript</text></g><g class="tick" opacity="1" transform="translate(188.59375,0)"><line stroke="currentColor" y2="6"></line><text fill="currentColor" y="9" dy="0.71em">JSX</text></g><g class="tick" opacity="1" transform="translate(299.53125,0)"><line stroke="currentColor" y2="6"></line><text fill="currentColor" y="9" dy="0.71em">TypeScript</text></g><g class="tick" opacity="1" transform="translate(410.46875000000006,0)"><line stroke="currentColor" y2="6"></line><text fill="currentColor" y="9" dy="0.71em">JSON</text></g><g class="tick" opacity="1" transform="translate(521.40625,0)"><line stroke="currentColor" y2="6"></line><text fill="currentColor" y="9" dy="0.71em">LESS</text></g><g class="tick" opacity="1" transform="translate(632.3437500000001,0)"><line stroke="currentColor" y2="6"></line><text fill="currentColor" y="9" dy="0.71em">Git Config</text></g></g><rect x="44.375" y="25.717111770524244" height="234.28288822947576" width="66.5625" fill="#D50657"></rect><rect x="155.3125" y="124.21364985163204" height="135.78635014836794" width="66.5625" fill="#049AE6"></rect><rect x="266.25" y="148.13056379821958" height="111.86943620178042" width="66.5625" fill="#F8C41B"></rect><rect x="377.18750000000006" y="258.45697329376856" height="1.5430267062314442" width="66.5625" fill="#32465B"></rect><rect x="488.12500000000006" y="259.2284866468843" height="0.7715133531157221" width="66.5625" fill="#E45E42"></rect><rect x="599.0625000000001" y="259.74282888229476" height="0.2571711177052407" width="66.5625" fill="#007C5A"></rect><text class="labels" style="fill: #444;" x="44.375" y="5.7171117705242445">9 hrs 11 mins</text><text class="labels" style="fill: #444;" x="155.3125" y="104.21364985163204">5 hrs 28 mins</text><text class="labels" style="fill: #444;" x="266.25" y="128.13056379821958">4 hrs 35 mins</text><text class="labels" style="fill: #444;" x="377.18750000000006" y="238.45697329376856">6 mins</text><text class="labels" style="fill: #444;" x="488.12500000000006" y="239.22848664688428">3 mins</text><text class="labels" style="fill: #444;" x="599.0625000000001" y="239.74282888229476">1 min</text></g></svg>