<svg xmlns="http://www.w3.org/2000/svg" width="750" height="315"><g transform="translate(20, 20)"><g transform="translate(0, 260)" style="font-size: 15px; font-family: monospace; font-weight: 300;" fill="none" font-size="10" font-family="sans-serif" text-anchor="middle"><path class="domain" stroke="currentColor" d="M0.5,6V0.5H710.5V6"></path><g class="tick" opacity="1" transform="translate(77.65625,0)"><line stroke="currentColor" y2="6"></line><text fill="currentColor" y="9" dy="0.71em">TypeScript</text></g><g class="tick" opacity="1" transform="translate(188.59375,0)"><line stroke="currentColor" y2="6"></line><text fill="currentColor" y="9" dy="0.71em">JavaScript</text></g><g class="tick" opacity="1" transform="translate(299.53125,0)"><line stroke="currentColor" y2="6"></line><text fill="currentColor" y="9" dy="0.71em">JSX</text></g><g class="tick" opacity="1" transform="translate(410.46875000000006,0)"><line stroke="currentColor" y2="6"></line><text fill="currentColor" y="9" dy="0.71em">Python</text></g><g class="tick" opacity="1" transform="translate(521.40625,0)"><line stroke="currentColor" y2="6"></line><text fill="currentColor" y="9" dy="0.71em">CSS</text></g><g class="tick" opacity="1" transform="translate(632.3437500000001,0)"><line stroke="currentColor" y2="6"></line><text fill="currentColor" y="9" dy="0.71em">JSON</text></g></g><rect x="44.375" y="25.666337611056257" height="234.33366238894374" width="66.5625" fill="#D50657"></rect><rect x="155.3125" y="223.5538005923001" height="36.44619940769991" width="66.5625" fill="#049AE6"></rect><rect x="266.25" y="252.30009871668312" height="7.699901283316876" width="66.5625" fill="#F8C41B"></rect><rect x="377.18750000000006" y="255.38005923000986" height="4.619940769990137" width="66.5625" fill="#32465B"></rect><rect x="488.12500000000006" y="259.2300098716683" height="0.769990128331699" width="66.5625" fill="#E45E42"></rect><rect x="599.0625000000001" y="259.74333662388943" height="0.25666337611056633" width="66.5625" fill="#007C5A"></rect><text class="labels" style="fill: #444;" x="44.375" y="5.666337611056257">9 hrs 13 mins</text><text class="labels" style="fill: #444;" x="155.3125" y="203.5538005923001">1 hr 42 mins</text><text class="labels" style="fill: #444;" x="266.25" y="232.30009871668312">30 mins</text><text class="labels" style="fill: #444;" x="377.18750000000006" y="235.38005923000986">18 mins</text><text class="labels" style="fill: #444;" x="488.12500000000006" y="239.2300098716683">3 mins</text><text class="labels" style="fill: #444;" x="599.0625000000001" y="239.74333662388943">1 min</text></g></svg>