<svg xmlns="http://www.w3.org/2000/svg" width="1250" height="315"><g transform="translate(20, 20)"><g transform="translate(0, 260)" style="font-size: 15px; font-family: monospace; font-weight: 300;" fill="none" font-size="10" font-family="sans-serif" text-anchor="middle"><path class="domain" stroke="currentColor" d="M0.5,6V0.5H1210.5V6"></path><g class="tick" opacity="1" transform="translate(81.44230769230771,0)"><line stroke="currentColor" y2="6"></line><text fill="currentColor" y="9" dy="0.71em">JavaScript</text></g><g class="tick" opacity="1" transform="translate(197.78846153846155,0)"><line stroke="currentColor" y2="6"></line><text fill="currentColor" y="9" dy="0.71em">JSX</text></g><g class="tick" opacity="1" transform="translate(314.13461538461536,0)"><line stroke="currentColor" y2="6"></line><text fill="currentColor" y="9" dy="0.71em">Svelte</text></g><g class="tick" opacity="1" transform="translate(430.4807692307692,0)"><line stroke="currentColor" y2="6"></line><text fill="currentColor" y="9" dy="0.71em">JSON</text></g><g class="tick" opacity="1" transform="translate(546.8269230769231,0)"><line stroke="currentColor" y2="6"></line><text fill="currentColor" y="9" dy="0.71em">CSS</text></g><g class="tick" opacity="1" transform="translate(663.1730769230769,0)"><line stroke="currentColor" y2="6"></line><text fill="currentColor" y="9" dy="0.71em">Solidity</text></g><g class="tick" opacity="1" transform="translate(779.5192307692308,0)"><line stroke="currentColor" y2="6"></line><text fill="currentColor" y="9" dy="0.71em">Markdown</text></g><g class="tick" opacity="1" transform="translate(895.8653846153846,0)"><line stroke="currentColor" y2="6"></line><text fill="currentColor" y="9" dy="0.71em">HTML</text></g><g class="tick" opacity="1" transform="translate(1012.2115384615385,0)"><line stroke="currentColor" y2="6"></line><text fill="currentColor" y="9" dy="0.71em">Git Config</text></g><g class="tick" opacity="1" transform="translate(1128.5576923076924,0)"><line stroke="currentColor" y2="6"></line><text fill="currentColor" y="9" dy="0.71em">Text</text></g></g><rect x="46.53846153846155" y="27.542372881355945" height="232.45762711864404" width="69.8076923076923" fill="#D50657"></rect><rect x="162.8846153846154" y="139.364406779661" height="120.63559322033899" width="69.8076923076923" fill="#049AE6"></rect><rect x="279.2307692307692" y="224.1949152542373" height="35.80508474576271" width="69.8076923076923" fill="#F8C41B"></rect><rect x="395.5769230769231" y="246.50423728813558" height="13.495762711864415" width="69.8076923076923" fill="#32465B"></rect><rect x="511.9230769230769" y="250.36016949152543" height="9.639830508474574" width="69.8076923076923" fill="#E45E42"></rect><rect x="628.2692307692307" y="253.38983050847457" height="6.610169491525426" width="69.8076923076923" fill="#007C5A"></rect><rect x="744.6153846153846" y="257.521186440678" height="2.4788135593220204" width="69.8076923076923" fill="#FC69FF"></rect><rect x="860.9615384615385" y="258.6228813559322" height="1.3771186440678207" width="69.8076923076923" fill="#3EC6CF"></rect><rect x="977.3076923076923" y="259.72457627118644" height="0.27542372881356414" width="69.8076923076923" fill="#620A79"></rect><rect x="1093.6538461538462" y="259.72457627118644" height="0.27542372881356414" width="69.8076923076923" fill="#D50657"></rect><text class="labels" style="fill: #444;" x="46.53846153846155" y="7.542372881355945">8 hrs 44 mins</text><text class="labels" style="fill: #444;" x="162.8846153846154" y="119.36440677966101">4 hrs 38 mins</text><text class="labels" style="fill: #444;" x="279.2307692307692" y="204.1949152542373">1 hr 30 mins</text><text class="labels" style="fill: #444;" x="395.5769230769231" y="226.50423728813558">49 mins</text><text class="labels" style="fill: #444;" x="511.9230769230769" y="230.36016949152543">35 mins</text><text class="labels" style="fill: #444;" x="628.2692307692307" y="233.38983050847457">24 mins</text><text class="labels" style="fill: #444;" x="744.6153846153846" y="237.52118644067798">9 mins</text><text class="labels" style="fill: #444;" x="860.9615384615385" y="238.62288135593218">5 mins</text><text class="labels" style="fill: #444;" x="977.3076923076923" y="239.72457627118644">1 min</text><text class="labels" style="fill: #444;" x="1093.6538461538462" y="239.72457627118644">1 min</text></g></svg>