<svg xmlns="http://www.w3.org/2000/svg" width="625" height="315"><g transform="translate(20, 20)"><g transform="translate(0, 260)" style="font-size: 15px; font-family: monospace; font-weight: 300;" fill="none" font-size="10" font-family="sans-serif" text-anchor="middle"><path class="domain" stroke="currentColor" d="M0.5,6V0.5H585.5V6"></path><g class="tick" opacity="1" transform="translate(75.83333333333334,0)"><line stroke="currentColor" y2="6"></line><text fill="currentColor" y="9" dy="0.71em">JavaScript</text></g><g class="tick" opacity="1" transform="translate(184.16666666666669,0)"><line stroke="currentColor" y2="6"></line><text fill="currentColor" y="9" dy="0.71em">TypeScript</text></g><g class="tick" opacity="1" transform="translate(292.5,0)"><line stroke="currentColor" y2="6"></line><text fill="currentColor" y="9" dy="0.71em">Dart</text></g><g class="tick" opacity="1" transform="translate(400.83333333333337,0)"><line stroke="currentColor" y2="6"></line><text fill="currentColor" y="9" dy="0.71em">XML</text></g><g class="tick" opacity="1" transform="translate(509.16666666666674,0)"><line stroke="currentColor" y2="6"></line><text fill="currentColor" y="9" dy="0.71em">JSON</text></g></g><rect x="43.33333333333334" y="117.64705882352942" height="142.35294117647058" width="65" fill="#D50657"></rect><rect x="151.66666666666669" y="127.05882352941177" height="132.94117647058823" width="65" fill="#049AE6"></rect><rect x="260" y="202.35294117647058" height="57.64705882352942" width="65" fill="#F8C41B"></rect><rect x="368.33333333333337" y="251.76470588235293" height="8.235294117647072" width="65" fill="#32465B"></rect><rect x="476.66666666666674" y="256.47058823529414" height="3.5294117647058556" width="65" fill="#E45E42"></rect><text class="labels" style="fill: #444;" x="43.33333333333334" y="97.64705882352942">1 hr 21 mins</text><text class="labels" style="fill: #444;" x="151.66666666666669" y="107.05882352941177">1 hr 13 mins</text><text class="labels" style="fill: #444;" x="260" y="182.35294117647058">49 mins</text><text class="labels" style="fill: #444;" x="368.33333333333337" y="231.76470588235293">7 mins</text><text class="labels" style="fill: #444;" x="476.66666666666674" y="236.47058823529414">3 mins</text></g></svg>