<svg xmlns="http://www.w3.org/2000/svg" width="750" height="315"><g transform="translate(20, 20)"><g transform="translate(0, 260)" style="font-size: 15px; font-family: monospace; font-weight: 300;" fill="none" font-size="10" font-family="sans-serif" text-anchor="middle"><path class="domain" stroke="currentColor" d="M0.5,6V0.5H710.5V6"></path><g class="tick" opacity="1" transform="translate(77.65625,0)"><line stroke="currentColor" y2="6"></line><text fill="currentColor" y="9" dy="0.71em">JavaScript</text></g><g class="tick" opacity="1" transform="translate(188.59375,0)"><line stroke="currentColor" y2="6"></line><text fill="currentColor" y="9" dy="0.71em">JSX</text></g><g class="tick" opacity="1" transform="translate(299.53125,0)"><line stroke="currentColor" y2="6"></line><text fill="currentColor" y="9" dy="0.71em">Bash</text></g><g class="tick" opacity="1" transform="translate(410.46875000000006,0)"><line stroke="currentColor" y2="6"></line><text fill="currentColor" y="9" dy="0.71em">TypeScript</text></g><g class="tick" opacity="1" transform="translate(521.40625,0)"><line stroke="currentColor" y2="6"></line><text fill="currentColor" y="9" dy="0.71em">LESS</text></g><g class="tick" opacity="1" transform="translate(632.3437500000001,0)"><line stroke="currentColor" y2="6"></line><text fill="currentColor" y="9" dy="0.71em">JSON</text></g></g><rect x="44.375" y="59.63302752293577" height="200.36697247706422" width="66.5625" fill="#D50657"></rect><rect x="155.3125" y="239.12844036697248" height="20.871559633027516" width="66.5625" fill="#049AE6"></rect><rect x="266.25" y="243.30275229357795" height="16.697247706422047" width="66.5625" fill="#F8C41B"></rect><rect x="377.18750000000006" y="245.6880733944954" height="14.311926605504595" width="66.5625" fill="#32465B"></rect><rect x="488.12500000000006" y="255.22935779816513" height="4.770642201834875" width="66.5625" fill="#E45E42"></rect><rect x="599.0625000000001" y="258.8073394495413" height="1.1926605504586973" width="66.5625" fill="#007C5A"></rect><text class="labels" style="fill: #444;" x="44.375" y="39.63302752293577">3 hrs 36 mins</text><text class="labels" style="fill: #444;" x="155.3125" y="219.12844036697248">35 mins</text><text class="labels" style="fill: #444;" x="266.25" y="223.30275229357795">28 mins</text><text class="labels" style="fill: #444;" x="377.18750000000006" y="225.6880733944954">24 mins</text><text class="labels" style="fill: #444;" x="488.12500000000006" y="235.22935779816513">8 mins</text><text class="labels" style="fill: #444;" x="599.0625000000001" y="238.8073394495413">2 mins</text></g></svg>