<svg xmlns="http://www.w3.org/2000/svg" width="625" height="315"><g transform="translate(20, 20)"><g transform="translate(0, 260)" style="font-size: 15px; font-family: monospace; font-weight: 300;" fill="none" font-size="10" font-family="sans-serif" text-anchor="middle"><path class="domain" stroke="currentColor" d="M0.5,6V0.5H585.5V6"></path><g class="tick" opacity="1" transform="translate(75.83333333333334,0)"><line stroke="currentColor" y2="6"></line><text fill="currentColor" y="9" dy="0.71em">JSX</text></g><g class="tick" opacity="1" transform="translate(184.16666666666669,0)"><line stroke="currentColor" y2="6"></line><text fill="currentColor" y="9" dy="0.71em">JavaScript</text></g><g class="tick" opacity="1" transform="translate(292.5,0)"><line stroke="currentColor" y2="6"></line><text fill="currentColor" y="9" dy="0.71em">TypeScript</text></g><g class="tick" opacity="1" transform="translate(400.83333333333337,0)"><line stroke="currentColor" y2="6"></line><text fill="currentColor" y="9" dy="0.71em">XML</text></g><g class="tick" opacity="1" transform="translate(509.16666666666674,0)"><line stroke="currentColor" y2="6"></line><text fill="currentColor" y="9" dy="0.71em">Docker</text></g></g><rect x="43.33333333333334" y="28.602860286028594" height="231.3971397139714" width="65" fill="#D50657"></rect><rect x="151.66666666666669" y="140.15401540154014" height="119.84598459845986" width="65" fill="#049AE6"></rect><rect x="260" y="258.2838283828383" height="1.7161716171617059" width="65" fill="#F8C41B"></rect><rect x="368.33333333333337" y="259.42794279427943" height="0.5720572057205686" width="65" fill="#32465B"></rect><rect x="476.66666666666674" y="259.71397139713974" height="0.2860286028602559" width="65" fill="#E45E42"></rect><text class="labels" style="fill: #444;" x="43.33333333333334" y="8.602860286028594">8 hrs 9 mins</text><text class="labels" style="fill: #444;" x="151.66666666666669" y="120.15401540154014">4 hrs 19 mins</text><text class="labels" style="fill: #444;" x="260" y="238.2838283828383">6 mins</text><text class="labels" style="fill: #444;" x="368.33333333333337" y="239.42794279427943">2 mins</text><text class="labels" style="fill: #444;" x="476.66666666666674" y="239.71397139713974">1 min</text></g></svg>