<svg xmlns="http://www.w3.org/2000/svg" width="625" height="315"><g transform="translate(20, 20)"><g transform="translate(0, 260)" style="font-size: 15px; font-family: monospace; font-weight: 300;" fill="none" font-size="10" font-family="sans-serif" text-anchor="middle"><path class="domain" stroke="currentColor" d="M0.5,6V0.5H585.5V6"></path><g class="tick" opacity="1" transform="translate(75.83333333333334,0)"><line stroke="currentColor" y2="6"></line><text fill="currentColor" y="9" dy="0.71em">JSX</text></g><g class="tick" opacity="1" transform="translate(184.16666666666669,0)"><line stroke="currentColor" y2="6"></line><text fill="currentColor" y="9" dy="0.71em">JavaScript</text></g><g class="tick" opacity="1" transform="translate(292.5,0)"><line stroke="currentColor" y2="6"></line><text fill="currentColor" y="9" dy="0.71em">TypeScript</text></g><g class="tick" opacity="1" transform="translate(400.83333333333337,0)"><line stroke="currentColor" y2="6"></line><text fill="currentColor" y="9" dy="0.71em">LESS</text></g><g class="tick" opacity="1" transform="translate(509.16666666666674,0)"><line stroke="currentColor" y2="6"></line><text fill="currentColor" y="9" dy="0.71em">JSON</text></g></g><rect x="43.33333333333334" y="25.844930417495043" height="234.15506958250495" width="65" fill="#D50657"></rect><rect x="151.66666666666669" y="98.21073558648112" height="161.78926441351888" width="65" fill="#049AE6"></rect><rect x="260" y="173.67793240556662" height="86.32206759443338" width="65" fill="#F8C41B"></rect><rect x="368.33333333333337" y="255.8648111332008" height="4.135188866799211" width="65" fill="#32465B"></rect><rect x="476.66666666666674" y="259.4831013916501" height="0.5168986083498908" width="65" fill="#E45E42"></rect><text class="labels" style="fill: #444;" x="43.33333333333334" y="5.844930417495043">9 hrs 6 mins</text><text class="labels" style="fill: #444;" x="151.66666666666669" y="78.21073558648112">6 hrs 26 mins</text><text class="labels" style="fill: #444;" x="260" y="153.67793240556662">3 hrs 34 mins</text><text class="labels" style="fill: #444;" x="368.33333333333337" y="235.8648111332008">16 mins</text><text class="labels" style="fill: #444;" x="476.66666666666674" y="239.4831013916501">2 mins</text></g></svg>