<svg xmlns="http://www.w3.org/2000/svg" width="625" height="315"><g transform="translate(20, 20)"><g transform="translate(0, 260)" style="font-size: 15px; font-family: monospace; font-weight: 300;" fill="none" font-size="10" font-family="sans-serif" text-anchor="middle"><path class="domain" stroke="currentColor" d="M0.5,6V0.5H585.5V6"></path><g class="tick" opacity="1" transform="translate(75.83333333333334,0)"><line stroke="currentColor" y2="6"></line><text fill="currentColor" y="9" dy="0.71em">TypeScript</text></g><g class="tick" opacity="1" transform="translate(184.16666666666669,0)"><line stroke="currentColor" y2="6"></line><text fill="currentColor" y="9" dy="0.71em">JavaScript</text></g><g class="tick" opacity="1" transform="translate(292.5,0)"><line stroke="currentColor" y2="6"></line><text fill="currentColor" y="9" dy="0.71em">JSX</text></g><g class="tick" opacity="1" transform="translate(400.83333333333337,0)"><line stroke="currentColor" y2="6"></line><text fill="currentColor" y="9" dy="0.71em">YAML</text></g><g class="tick" opacity="1" transform="translate(509.16666666666674,0)"><line stroke="currentColor" y2="6"></line><text fill="currentColor" y="9" dy="0.71em">JSON</text></g></g><rect x="43.33333333333334" y="40.43545878693624" height="219.56454121306376" width="65" fill="#D50657"></rect><rect x="151.66666666666669" y="137.4805598755832" height="122.5194401244168" width="65" fill="#049AE6"></rect><rect x="260" y="208.64696734059095" height="51.35303265940905" width="65" fill="#F8C41B"></rect><rect x="368.33333333333337" y="242.20839813374806" height="17.791601866251938" width="65" fill="#32465B"></rect><rect x="476.66666666666674" y="256.3608087091757" height="3.6391912908242716" width="65" fill="#E45E42"></rect><text class="labels" style="fill: #444;" x="43.33333333333334" y="20.435458786936238">5 hrs 43 mins</text><text class="labels" style="fill: #444;" x="151.66666666666669" y="117.4805598755832">3 hrs 3 mins</text><text class="labels" style="fill: #444;" x="260" y="188.64696734059095">1 hr 27 mins</text><text class="labels" style="fill: #444;" x="368.33333333333337" y="222.20839813374806">44 mins</text><text class="labels" style="fill: #444;" x="476.66666666666674" y="236.36080870917573">9 mins</text></g></svg>