<svg xmlns="http://www.w3.org/2000/svg" width="625" height="315"><g transform="translate(20, 20)"><g transform="translate(0, 260)" style="font-size: 15px; font-family: monospace; font-weight: 300;" fill="none" font-size="10" font-family="sans-serif" text-anchor="middle"><path class="domain" stroke="currentColor" d="M0.5,6V0.5H585.5V6"></path><g class="tick" opacity="1" transform="translate(75.83333333333334,0)"><line stroke="currentColor" y2="6"></line><text fill="currentColor" y="9" dy="0.71em">JSX</text></g><g class="tick" opacity="1" transform="translate(184.16666666666669,0)"><line stroke="currentColor" y2="6"></line><text fill="currentColor" y="9" dy="0.71em">JavaScript</text></g><g class="tick" opacity="1" transform="translate(292.5,0)"><line stroke="currentColor" y2="6"></line><text fill="currentColor" y="9" dy="0.71em">Dart</text></g><g class="tick" opacity="1" transform="translate(400.83333333333337,0)"><line stroke="currentColor" y2="6"></line><text fill="currentColor" y="9" dy="0.71em">TypeScript</text></g><g class="tick" opacity="1" transform="translate(509.16666666666674,0)"><line stroke="currentColor" y2="6"></line><text fill="currentColor" y="9" dy="0.71em">JSON</text></g></g><rect x="43.33333333333334" y="32.2180916976456" height="227.7819083023544" width="65" fill="#D50657"></rect><rect x="151.66666666666669" y="121.46220570012392" height="138.53779429987608" width="65" fill="#049AE6"></rect><rect x="260" y="182.67657992565057" height="77.32342007434943" width="65" fill="#F8C41B"></rect><rect x="368.33333333333337" y="242.92441140024783" height="17.075588599752166" width="65" fill="#32465B"></rect><rect x="476.66666666666674" y="247.75712515489468" height="12.24287484510532" width="65" fill="#E45E42"></rect><text class="labels" style="fill: #444;" x="43.33333333333334" y="12.218091697645598">7 hrs 7 mins</text><text class="labels" style="fill: #444;" x="151.66666666666669" y="101.46220570012392">4 hrs 30 mins</text><text class="labels" style="fill: #444;" x="260" y="162.67657992565057">2 hrs 40 mins</text><text class="labels" style="fill: #444;" x="368.33333333333337" y="222.92441140024783">53 mins</text><text class="labels" style="fill: #444;" x="476.66666666666674" y="227.75712515489468">38 mins</text></g></svg>