<svg xmlns="http://www.w3.org/2000/svg" width="1625" height="315"><g transform="translate(20, 20)"><g transform="translate(0, 260)" style="font-size: 15px; font-family: monospace; font-weight: 300;" fill="none" font-size="10" font-family="sans-serif" text-anchor="middle"><path class="domain" stroke="currentColor" d="M0.5,6V0.5H1585.5V6"></path><g class="tick" opacity="1" transform="translate(82.79850746268656,0)"><line stroke="currentColor" y2="6"></line><text fill="currentColor" y="9" dy="0.71em">JavaScript</text></g><g class="tick" opacity="1" transform="translate(201.08208955223878,0)"><line stroke="currentColor" y2="6"></line><text fill="currentColor" y="9" dy="0.71em">JSX</text></g><g class="tick" opacity="1" transform="translate(319.365671641791,0)"><line stroke="currentColor" y2="6"></line><text fill="currentColor" y="9" dy="0.71em">CSS</text></g><g class="tick" opacity="1" transform="translate(437.64925373134326,0)"><line stroke="currentColor" y2="6"></line><text fill="currentColor" y="9" dy="0.71em">JSON</text></g><g class="tick" opacity="1" transform="translate(555.9328358208955,0)"><line stroke="currentColor" y2="6"></line><text fill="currentColor" y="9" dy="0.71em">Svelte</text></g><g class="tick" opacity="1" transform="translate(674.2164179104477,0)"><line stroke="currentColor" y2="6"></line><text fill="currentColor" y="9" dy="0.71em">Solidity</text></g><g class="tick" opacity="1" transform="translate(792.5,0)"><line stroke="currentColor" y2="6"></line><text fill="currentColor" y="9" dy="0.71em">Groovy</text></g><g class="tick" opacity="1" transform="translate(910.7835820895522,0)"><line stroke="currentColor" y2="6"></line><text fill="currentColor" y="9" dy="0.71em">Dart</text></g><g class="tick" opacity="1" transform="translate(1029.0671641791046,0)"><line stroke="currentColor" y2="6"></line><text fill="currentColor" y="9" dy="0.71em">XML</text></g><g class="tick" opacity="1" transform="translate(1147.3507462686566,0)"><line stroke="currentColor" y2="6"></line><text fill="currentColor" y="9" dy="0.71em">TypeScript</text></g><g class="tick" opacity="1" transform="translate(1265.6343283582091,0)"><line stroke="currentColor" y2="6"></line><text fill="currentColor" y="9" dy="0.71em">Markdown</text></g><g class="tick" opacity="1" transform="translate(1383.9179104477612,0)"><line stroke="currentColor" y2="6"></line><text fill="currentColor" y="9" dy="0.71em">HTML</text></g><g class="tick" opacity="1" transform="translate(1502.2014925373137,0)"><line stroke="currentColor" y2="6"></line><text fill="currentColor" y="9" dy="0.71em">YAML</text></g></g><rect x="47.31343283582089" y="31.175059952038378" height="228.82494004796163" width="70.97014925373134" fill="#D50657"></rect><rect x="165.59701492537312" y="195.77937649880096" height="64.22062350119904" width="70.97014925373134" fill="#049AE6"></rect><rect x="283.88059701492534" y="196.7146282973621" height="63.28537170263789" width="70.97014925373134" fill="#F8C41B"></rect><rect x="402.1641791044776" y="223.21342925659474" height="36.786570743405264" width="70.97014925373134" fill="#32465B"></rect><rect x="520.4477611940299" y="223.8369304556355" height="36.163069544364504" width="70.97014925373134" fill="#E45E42"></rect><rect x="638.7313432835821" y="247.84172661870502" height="12.158273381294975" width="70.97014925373134" fill="#007C5A"></rect><rect x="757.0149253731344" y="250.95923261390888" height="9.040767386091119" width="70.97014925373134" fill="#FC69FF"></rect><rect x="875.2985074626865" y="252.82973621103116" height="7.170263788968839" width="70.97014925373134" fill="#3EC6CF"></rect><rect x="993.5820895522388" y="257.1942446043165" height="2.805755395683491" width="70.97014925373134" fill="#620A79"></rect><rect x="1111.8656716417909" y="259.0647482014389" height="0.9352517985611257" width="70.97014925373134" fill="#D50657"></rect><rect x="1230.1492537313434" y="259.0647482014389" height="0.9352517985611257" width="70.97014925373134" fill="#049AE6"></rect><rect x="1348.4328358208954" y="259.3764988009592" height="0.6235011990407884" width="70.97014925373134" fill="#F8C41B"></rect><rect x="1466.716417910448" y="259.6882494004796" height="0.3117505995203942" width="70.97014925373134" fill="#32465B"></rect><text class="labels" style="fill: #444;" x="47.31343283582089" y="11.175059952038378">7 hrs 34 mins</text><text class="labels" style="fill: #444;" x="165.59701492537312" y="175.77937649880096">2 hrs 6 mins</text><text class="labels" style="fill: #444;" x="283.88059701492534" y="176.7146282973621">2 hrs 3 mins</text><text class="labels" style="fill: #444;" x="402.1641791044776" y="203.21342925659474">1 hr 18 mins</text><text class="labels" style="fill: #444;" x="520.4477611940299" y="203.8369304556355">1 hr 16 mins</text><text class="labels" style="fill: #444;" x="638.7313432835821" y="227.84172661870502">39 mins</text><text class="labels" style="fill: #444;" x="757.0149253731344" y="230.95923261390888">29 mins</text><text class="labels" style="fill: #444;" x="875.2985074626865" y="232.82973621103116">23 mins</text><text class="labels" style="fill: #444;" x="993.5820895522388" y="237.1942446043165">9 mins</text><text class="labels" style="fill: #444;" x="1111.8656716417909" y="239.06474820143887">3 mins</text><text class="labels" style="fill: #444;" x="1230.1492537313434" y="239.06474820143887">3 mins</text><text class="labels" style="fill: #444;" x="1348.4328358208954" y="239.3764988009592">2 mins</text><text class="labels" style="fill: #444;" x="1466.716417910448" y="239.6882494004796">1 min</text></g></svg>