<svg xmlns="http://www.w3.org/2000/svg" width="875" height="315"><g transform="translate(20, 20)"><g transform="translate(0, 260)" style="font-size: 15px; font-family: monospace; font-weight: 300;" fill="none" font-size="10" font-family="sans-serif" text-anchor="middle"><path class="domain" stroke="currentColor" d="M0.5,6V0.5H835.5V6"></path><g class="tick" opacity="1" transform="translate(78.98648648648646,0)"><line stroke="currentColor" y2="6"></line><text fill="currentColor" y="9" dy="0.71em">JSX</text></g><g class="tick" opacity="1" transform="translate(191.82432432432432,0)"><line stroke="currentColor" y2="6"></line><text fill="currentColor" y="9" dy="0.71em">JavaScript</text></g><g class="tick" opacity="1" transform="translate(304.6621621621622,0)"><line stroke="currentColor" y2="6"></line><text fill="currentColor" y="9" dy="0.71em">Dart</text></g><g class="tick" opacity="1" transform="translate(417.5,0)"><line stroke="currentColor" y2="6"></line><text fill="currentColor" y="9" dy="0.71em">TypeScript</text></g><g class="tick" opacity="1" transform="translate(530.3378378378379,0)"><line stroke="currentColor" y2="6"></line><text fill="currentColor" y="9" dy="0.71em">LESS</text></g><g class="tick" opacity="1" transform="translate(643.1756756756757,0)"><line stroke="currentColor" y2="6"></line><text fill="currentColor" y="9" dy="0.71em">JSON</text></g><g class="tick" opacity="1" transform="translate(756.0135135135135,0)"><line stroke="currentColor" y2="6"></line><text fill="currentColor" y="9" dy="0.71em">YAML</text></g></g><rect x="45.1351351351351" y="103.17460317460318" height="156.8253968253968" width="67.70270270270271" fill="#D50657"></rect><rect x="157.97297297297297" y="105.23809523809524" height="154.76190476190476" width="67.70270270270271" fill="#049AE6"></rect><rect x="270.81081081081084" y="130" height="130" width="67.70270270270271" fill="#F8C41B"></rect><rect x="383.64864864864865" y="218.73015873015873" height="41.269841269841265" width="67.70270270270271" fill="#32465B"></rect><rect x="496.4864864864865" y="257.93650793650795" height="2.063492063492049" width="67.70270270270271" fill="#E45E42"></rect><rect x="609.3243243243244" y="257.93650793650795" height="2.063492063492049" width="67.70270270270271" fill="#007C5A"></rect><rect x="722.1621621621622" y="258.968253968254" height="1.0317460317460245" width="67.70270270270271" fill="#FC69FF"></rect><text class="labels" style="fill: #444;" x="45.1351351351351" y="83.17460317460318">1 hr 52 mins</text><text class="labels" style="fill: #444;" x="157.97297297297297" y="85.23809523809524">1 hr 50 mins</text><text class="labels" style="fill: #444;" x="270.81081081081084" y="110">1 hr 26 mins</text><text class="labels" style="fill: #444;" x="383.64864864864865" y="198.73015873015873">40 mins</text><text class="labels" style="fill: #444;" x="496.4864864864865" y="237.93650793650795">2 mins</text><text class="labels" style="fill: #444;" x="609.3243243243244" y="237.93650793650795">2 mins</text><text class="labels" style="fill: #444;" x="722.1621621621622" y="238.96825396825398">1 min</text></g></svg>