<svg xmlns="http://www.w3.org/2000/svg" width="625" height="315"><g transform="translate(20, 20)"><g transform="translate(0, 260)" style="font-size: 15px; font-family: monospace; font-weight: 300;" fill="none" font-size="10" font-family="sans-serif" text-anchor="middle"><path class="domain" stroke="currentColor" d="M0.5,6V0.5H585.5V6"></path><g class="tick" opacity="1" transform="translate(75.83333333333334,0)"><line stroke="currentColor" y2="6"></line><text fill="currentColor" y="9" dy="0.71em">JavaScript</text></g><g class="tick" opacity="1" transform="translate(184.16666666666669,0)"><line stroke="currentColor" y2="6"></line><text fill="currentColor" y="9" dy="0.71em">JSX</text></g><g class="tick" opacity="1" transform="translate(292.5,0)"><line stroke="currentColor" y2="6"></line><text fill="currentColor" y="9" dy="0.71em">TypeScript</text></g><g class="tick" opacity="1" transform="translate(400.83333333333337,0)"><line stroke="currentColor" y2="6"></line><text fill="currentColor" y="9" dy="0.71em">JSON</text></g><g class="tick" opacity="1" transform="translate(509.16666666666674,0)"><line stroke="currentColor" y2="6"></line><text fill="currentColor" y="9" dy="0.71em">LESS</text></g></g><rect x="43.33333333333334" y="59.49656750572083" height="200.50343249427917" width="65" fill="#D50657"></rect><rect x="151.66666666666669" y="136.24713958810068" height="123.75286041189932" width="65" fill="#049AE6"></rect><rect x="260" y="182.65446224256294" height="77.34553775743706" width="65" fill="#F8C41B"></rect><rect x="368.33333333333337" y="257.62013729977116" height="2.3798627002288413" width="65" fill="#32465B"></rect><rect x="476.66666666666674" y="259.4050343249428" height="0.5949656750572103" width="65" fill="#E45E42"></rect><text class="labels" style="fill: #444;" x="43.33333333333334" y="39.49656750572083">3 hrs 37 mins</text><text class="labels" style="fill: #444;" x="151.66666666666669" y="116.24713958810068">2 hrs 8 mins</text><text class="labels" style="fill: #444;" x="260" y="162.65446224256294">1 hr 30 mins</text><text class="labels" style="fill: #444;" x="368.33333333333337" y="237.62013729977116">4 mins</text><text class="labels" style="fill: #444;" x="476.66666666666674" y="239.4050343249428">1 min</text></g></svg>