<svg xmlns="http://www.w3.org/2000/svg" width="750" height="315"><g transform="translate(20, 20)"><g transform="translate(0, 260)" style="font-size: 15px; font-family: monospace; font-weight: 300;" fill="none" font-size="10" font-family="sans-serif" text-anchor="middle"><path class="domain" stroke="currentColor" d="M0.5,6V0.5H710.5V6"></path><g class="tick" opacity="1" transform="translate(77.65625,0)"><line stroke="currentColor" y2="6"></line><text fill="currentColor" y="9" dy="0.71em">JavaScript</text></g><g class="tick" opacity="1" transform="translate(188.59375,0)"><line stroke="currentColor" y2="6"></line><text fill="currentColor" y="9" dy="0.71em">Dart</text></g><g class="tick" opacity="1" transform="translate(299.53125,0)"><line stroke="currentColor" y2="6"></line><text fill="currentColor" y="9" dy="0.71em">JSX</text></g><g class="tick" opacity="1" transform="translate(410.46875000000006,0)"><line stroke="currentColor" y2="6"></line><text fill="currentColor" y="9" dy="0.71em">TypeScript</text></g><g class="tick" opacity="1" transform="translate(521.40625,0)"><line stroke="currentColor" y2="6"></line><text fill="currentColor" y="9" dy="0.71em">JSON</text></g><g class="tick" opacity="1" transform="translate(632.3437500000001,0)"><line stroke="currentColor" y2="6"></line><text fill="currentColor" y="9" dy="0.71em">LESS</text></g></g><rect x="44.375" y="58.823529411764696" height="201.1764705882353" width="66.5625" fill="#D50657"></rect><rect x="155.3125" y="118.82352941176471" height="141.1764705882353" width="66.5625" fill="#049AE6"></rect><rect x="266.25" y="196.47058823529412" height="63.529411764705884" width="66.5625" fill="#F8C41B"></rect><rect x="377.18750000000006" y="236.47058823529412" height="23.529411764705884" width="66.5625" fill="#32465B"></rect><rect x="488.12500000000006" y="241.76470588235296" height="18.235294117647044" width="66.5625" fill="#E45E42"></rect><rect x="599.0625000000001" y="254.1176470588235" height="5.882352941176492" width="66.5625" fill="#007C5A"></rect><text class="labels" style="fill: #444;" x="44.375" y="38.823529411764696">3 hrs 42 mins</text><text class="labels" style="fill: #444;" x="155.3125" y="98.82352941176471">2 hrs 40 mins</text><text class="labels" style="fill: #444;" x="266.25" y="176.47058823529412">1 hr 8 mins</text><text class="labels" style="fill: #444;" x="377.18750000000006" y="216.47058823529412">40 mins</text><text class="labels" style="fill: #444;" x="488.12500000000006" y="221.76470588235296">31 mins</text><text class="labels" style="fill: #444;" x="599.0625000000001" y="234.1176470588235">10 mins</text></g></svg>