<svg xmlns="http://www.w3.org/2000/svg" width="625" height="315"><g transform="translate(20, 20)"><g transform="translate(0, 260)" style="font-size: 15px; font-family: monospace; font-weight: 300;" fill="none" font-size="10" font-family="sans-serif" text-anchor="middle"><path class="domain" stroke="currentColor" d="M0.5,6V0.5H585.5V6"></path><g class="tick" opacity="1" transform="translate(75.83333333333334,0)"><line stroke="currentColor" y2="6"></line><text fill="currentColor" y="9" dy="0.71em">TypeScript</text></g><g class="tick" opacity="1" transform="translate(184.16666666666669,0)"><line stroke="currentColor" y2="6"></line><text fill="currentColor" y="9" dy="0.71em">JSX</text></g><g class="tick" opacity="1" transform="translate(292.5,0)"><line stroke="currentColor" y2="6"></line><text fill="currentColor" y="9" dy="0.71em">JavaScript</text></g><g class="tick" opacity="1" transform="translate(400.83333333333337,0)"><line stroke="currentColor" y2="6"></line><text fill="currentColor" y="9" dy="0.71em">JSON</text></g><g class="tick" opacity="1" transform="translate(509.16666666666674,0)"><line stroke="currentColor" y2="6"></line><text fill="currentColor" y="9" dy="0.71em">LESS</text></g></g><rect x="43.33333333333334" y="47.27272727272726" height="212.72727272727275" width="65" fill="#D50657"></rect><rect x="151.66666666666669" y="59.09090909090909" height="200.9090909090909" width="65" fill="#049AE6"></rect><rect x="260" y="97.85454545454544" height="162.14545454545456" width="65" fill="#F8C41B"></rect><rect x="368.33333333333337" y="253.85454545454544" height="6.145454545454555" width="65" fill="#32465B"></rect><rect x="476.66666666666674" y="254.79999999999998" height="5.200000000000017" width="65" fill="#E45E42"></rect><text class="labels" style="fill: #444;" x="43.33333333333334" y="27.27272727272726">4 hrs 50 mins</text><text class="labels" style="fill: #444;" x="151.66666666666669" y="39.09090909090909">4 hrs 25 mins</text><text class="labels" style="fill: #444;" x="260" y="77.85454545454544">3 hrs 43 mins</text><text class="labels" style="fill: #444;" x="368.33333333333337" y="233.85454545454544">13 mins</text><text class="labels" style="fill: #444;" x="476.66666666666674" y="234.79999999999998">11 mins</text></g></svg>