<svg xmlns="http://www.w3.org/2000/svg" width="750" height="315"><g transform="translate(20, 20)"><g transform="translate(0, 260)" style="font-size: 15px; font-family: monospace; font-weight: 300;" fill="none" font-size="10" font-family="sans-serif" text-anchor="middle"><path class="domain" stroke="currentColor" d="M0.5,6V0.5H710.5V6"></path><g class="tick" opacity="1" transform="translate(77.65625,0)"><line stroke="currentColor" y2="6"></line><text fill="currentColor" y="9" dy="0.71em">JavaScript</text></g><g class="tick" opacity="1" transform="translate(188.59375,0)"><line stroke="currentColor" y2="6"></line><text fill="currentColor" y="9" dy="0.71em">JSX</text></g><g class="tick" opacity="1" transform="translate(299.53125,0)"><line stroke="currentColor" y2="6"></line><text fill="currentColor" y="9" dy="0.71em">Dart</text></g><g class="tick" opacity="1" transform="translate(410.46875000000006,0)"><line stroke="currentColor" y2="6"></line><text fill="currentColor" y="9" dy="0.71em">TypeScript</text></g><g class="tick" opacity="1" transform="translate(521.40625,0)"><line stroke="currentColor" y2="6"></line><text fill="currentColor" y="9" dy="0.71em">JSON</text></g><g class="tick" opacity="1" transform="translate(632.3437500000001,0)"><line stroke="currentColor" y2="6"></line><text fill="currentColor" y="9" dy="0.71em">LESS</text></g></g><rect x="44.375" y="62.65060240963858" height="197.34939759036143" width="66.5625" fill="#D50657"></rect><rect x="155.3125" y="109.0120481927711" height="150.9879518072289" width="66.5625" fill="#049AE6"></rect><rect x="266.25" y="109.63855421686748" height="150.36144578313252" width="66.5625" fill="#F8C41B"></rect><rect x="377.18750000000006" y="237.44578313253012" height="22.554216867469876" width="66.5625" fill="#32465B"></rect><rect x="488.12500000000006" y="243.0843373493976" height="16.9156626506024" width="66.5625" fill="#E45E42"></rect><rect x="599.0625000000001" y="253.73493975903617" height="6.265060240963834" width="66.5625" fill="#007C5A"></rect><text class="labels" style="fill: #444;" x="44.375" y="42.65060240963858">3 hrs 15 mins</text><text class="labels" style="fill: #444;" x="155.3125" y="89.0120481927711">2 hrs 41 mins</text><text class="labels" style="fill: #444;" x="266.25" y="89.63855421686748">2 hrs 40 mins</text><text class="labels" style="fill: #444;" x="377.18750000000006" y="217.44578313253012">36 mins</text><text class="labels" style="fill: #444;" x="488.12500000000006" y="223.0843373493976">27 mins</text><text class="labels" style="fill: #444;" x="599.0625000000001" y="233.73493975903617">10 mins</text></g></svg>