<svg xmlns="http://www.w3.org/2000/svg" width="875" height="315"><g transform="translate(20, 20)"><g transform="translate(0, 260)" style="font-size: 15px; font-family: monospace; font-weight: 300;" fill="none" font-size="10" font-family="sans-serif" text-anchor="middle"><path class="domain" stroke="currentColor" d="M0.5,6V0.5H835.5V6"></path><g class="tick" opacity="1" transform="translate(78.98648648648646,0)"><line stroke="currentColor" y2="6"></line><text fill="currentColor" y="9" dy="0.71em">JSX</text></g><g class="tick" opacity="1" transform="translate(191.82432432432432,0)"><line stroke="currentColor" y2="6"></line><text fill="currentColor" y="9" dy="0.71em">TypeScript</text></g><g class="tick" opacity="1" transform="translate(304.6621621621622,0)"><line stroke="currentColor" y2="6"></line><text fill="currentColor" y="9" dy="0.71em">JavaScript</text></g><g class="tick" opacity="1" transform="translate(417.5,0)"><line stroke="currentColor" y2="6"></line><text fill="currentColor" y="9" dy="0.71em">LESS</text></g><g class="tick" opacity="1" transform="translate(530.3378378378379,0)"><line stroke="currentColor" y2="6"></line><text fill="currentColor" y="9" dy="0.71em">Text</text></g><g class="tick" opacity="1" transform="translate(643.1756756756757,0)"><line stroke="currentColor" y2="6"></line><text fill="currentColor" y="9" dy="0.71em">JSON</text></g><g class="tick" opacity="1" transform="translate(756.0135135135135,0)"><line stroke="currentColor" y2="6"></line><text fill="currentColor" y="9" dy="0.71em">Docker</text></g></g><rect x="45.1351351351351" y="19.245003700962243" height="240.75499629903777" width="67.70270270270271" fill="#D50657"></rect><rect x="157.97297297297297" y="173.58993338267948" height="86.41006661732052" width="67.70270270270271" fill="#049AE6"></rect><rect x="270.81081081081084" y="220.16284233900814" height="39.83715766099186" width="67.70270270270271" fill="#F8C41B"></rect><rect x="383.64864864864865" y="254.2264988897113" height="5.7735011102886915" width="67.70270270270271" fill="#32465B"></rect><rect x="496.4864864864865" y="259.61509992598076" height="0.3849000740192423" width="67.70270270270271" fill="#E45E42"></rect><rect x="609.3243243243244" y="259.61509992598076" height="0.3849000740192423" width="67.70270270270271" fill="#007C5A"></rect><rect x="722.1621621621622" y="259.8075499629904" height="0.19245003700962116" width="67.70270270270271" fill="#FC69FF"></rect><text class="labels" style="fill: #444;" x="45.1351351351351" y="-0.7549962990377566">12 hrs 51 mins</text><text class="labels" style="fill: #444;" x="157.97297297297297" y="153.58993338267948">4 hrs 49 mins</text><text class="labels" style="fill: #444;" x="270.81081081081084" y="200.16284233900814">2 hrs 7 mins</text><text class="labels" style="fill: #444;" x="383.64864864864865" y="234.2264988897113">30 mins</text><text class="labels" style="fill: #444;" x="496.4864864864865" y="239.61509992598076">2 mins</text><text class="labels" style="fill: #444;" x="609.3243243243244" y="239.61509992598076">2 mins</text><text class="labels" style="fill: #444;" x="722.1621621621622" y="239.80754996299038">1 min</text></g></svg>