<svg xmlns="http://www.w3.org/2000/svg" width="875" height="315"><g transform="translate(20, 20)"><g transform="translate(0, 260)" style="font-size: 15px; font-family: monospace; font-weight: 300;" fill="none" font-size="10" font-family="sans-serif" text-anchor="middle"><path class="domain" stroke="currentColor" d="M0.5,6V0.5H835.5V6"></path><g class="tick" opacity="1" transform="translate(78.98648648648646,0)"><line stroke="currentColor" y2="6"></line><text fill="currentColor" y="9" dy="0.71em">JavaScript</text></g><g class="tick" opacity="1" transform="translate(191.82432432432432,0)"><line stroke="currentColor" y2="6"></line><text fill="currentColor" y="9" dy="0.71em">TypeScript</text></g><g class="tick" opacity="1" transform="translate(304.6621621621622,0)"><line stroke="currentColor" y2="6"></line><text fill="currentColor" y="9" dy="0.71em">XML</text></g><g class="tick" opacity="1" transform="translate(417.5,0)"><line stroke="currentColor" y2="6"></line><text fill="currentColor" y="9" dy="0.71em">YAML</text></g><g class="tick" opacity="1" transform="translate(530.3378378378379,0)"><line stroke="currentColor" y2="6"></line><text fill="currentColor" y="9" dy="0.71em">Groovy</text></g><g class="tick" opacity="1" transform="translate(643.1756756756757,0)"><line stroke="currentColor" y2="6"></line><text fill="currentColor" y="9" dy="0.71em">HTML</text></g><g class="tick" opacity="1" transform="translate(756.0135135135135,0)"><line stroke="currentColor" y2="6"></line><text fill="currentColor" y="9" dy="0.71em">Dart</text></g></g><rect x="45.1351351351351" y="51.792828685258975" height="208.20717131474103" width="67.70270270270271" fill="#D50657"></rect><rect x="157.97297297297297" y="149.1633466135458" height="110.8366533864542" width="67.70270270270271" fill="#049AE6"></rect><rect x="270.81081081081084" y="243.42629482071712" height="16.573705179282882" width="67.70270270270271" fill="#F8C41B"></rect><rect x="383.64864864864865" y="247.56972111553785" height="12.430278884462155" width="67.70270270270271" fill="#32465B"></rect><rect x="496.4864864864865" y="255.8565737051793" height="4.143426294820699" width="67.70270270270271" fill="#E45E42"></rect><rect x="609.3243243243244" y="256.8924302788845" height="3.10756972111551" width="67.70270270270271" fill="#007C5A"></rect><rect x="722.1621621621622" y="258.44621513944224" height="1.553784860557755" width="67.70270270270271" fill="#FC69FF"></rect><text class="labels" style="fill: #444;" x="45.1351351351351" y="31.792828685258975">4 hrs 2 mins</text><text class="labels" style="fill: #444;" x="157.97297297297297" y="129.1633466135458">2 hrs 14 mins</text><text class="labels" style="fill: #444;" x="270.81081081081084" y="223.42629482071712">32 mins</text><text class="labels" style="fill: #444;" x="383.64864864864865" y="227.56972111553785">24 mins</text><text class="labels" style="fill: #444;" x="496.4864864864865" y="235.8565737051793">8 mins</text><text class="labels" style="fill: #444;" x="609.3243243243244" y="236.8924302788845">6 mins</text><text class="labels" style="fill: #444;" x="722.1621621621622" y="238.44621513944224">3 mins</text></g></svg>