<svg xmlns="http://www.w3.org/2000/svg" width="625" height="315"><g transform="translate(20, 20)"><g transform="translate(0, 260)" style="font-size: 15px; font-family: monospace; font-weight: 300;" fill="none" font-size="10" font-family="sans-serif" text-anchor="middle"><path class="domain" stroke="currentColor" d="M0.5,6V0.5H585.5V6"></path><g class="tick" opacity="1" transform="translate(75.83333333333334,0)"><line stroke="currentColor" y2="6"></line><text fill="currentColor" y="9" dy="0.71em">JSX</text></g><g class="tick" opacity="1" transform="translate(184.16666666666669,0)"><line stroke="currentColor" y2="6"></line><text fill="currentColor" y="9" dy="0.71em">JavaScript</text></g><g class="tick" opacity="1" transform="translate(292.5,0)"><line stroke="currentColor" y2="6"></line><text fill="currentColor" y="9" dy="0.71em">TypeScript</text></g><g class="tick" opacity="1" transform="translate(400.83333333333337,0)"><line stroke="currentColor" y2="6"></line><text fill="currentColor" y="9" dy="0.71em">JSON</text></g><g class="tick" opacity="1" transform="translate(509.16666666666674,0)"><line stroke="currentColor" y2="6"></line><text fill="currentColor" y="9" dy="0.71em">LESS</text></g></g><rect x="43.33333333333334" y="40.247678018575854" height="219.75232198142413" width="65" fill="#D50657"></rect><rect x="151.66666666666669" y="83.31269349845202" height="176.687306501548" width="65" fill="#049AE6"></rect><rect x="260" y="237.8637770897833" height="22.136222910216702" width="65" fill="#F8C41B"></rect><rect x="368.33333333333337" y="244.70588235294116" height="15.29411764705884" width="65" fill="#32465B"></rect><rect x="476.66666666666674" y="245.10835913312692" height="14.891640866873075" width="65" fill="#E45E42"></rect><text class="labels" style="fill: #444;" x="43.33333333333334" y="20.247678018575854">5 hrs 46 mins</text><text class="labels" style="fill: #444;" x="151.66666666666669" y="63.31269349845202">4 hrs 39 mins</text><text class="labels" style="fill: #444;" x="260" y="217.8637770897833">55 mins</text><text class="labels" style="fill: #444;" x="368.33333333333337" y="224.70588235294116">38 mins</text><text class="labels" style="fill: #444;" x="476.66666666666674" y="225.10835913312692">37 mins</text></g></svg>