<svg xmlns="http://www.w3.org/2000/svg" width="1000" height="315"><g transform="translate(20, 20)"><g transform="translate(0, 260)" style="font-size: 15px; font-family: monospace; font-weight: 300;" fill="none" font-size="10" font-family="sans-serif" text-anchor="middle"><path class="domain" stroke="currentColor" d="M0.5,6V0.5H960.5V6"></path><g class="tick" opacity="1" transform="translate(80.00000000000006,0)"><line stroke="currentColor" y2="6"></line><text fill="currentColor" y="9" dy="0.71em">JavaScript</text></g><g class="tick" opacity="1" transform="translate(194.28571428571433,0)"><line stroke="currentColor" y2="6"></line><text fill="currentColor" y="9" dy="0.71em">JSX</text></g><g class="tick" opacity="1" transform="translate(308.5714285714286,0)"><line stroke="currentColor" y2="6"></line><text fill="currentColor" y="9" dy="0.71em">TypeScript</text></g><g class="tick" opacity="1" transform="translate(422.8571428571429,0)"><line stroke="currentColor" y2="6"></line><text fill="currentColor" y="9" dy="0.71em">LESS</text></g><g class="tick" opacity="1" transform="translate(537.1428571428572,0)"><line stroke="currentColor" y2="6"></line><text fill="currentColor" y="9" dy="0.71em">HTML</text></g><g class="tick" opacity="1" transform="translate(651.4285714285714,0)"><line stroke="currentColor" y2="6"></line><text fill="currentColor" y="9" dy="0.71em">CSS</text></g><g class="tick" opacity="1" transform="translate(765.7142857142858,0)"><line stroke="currentColor" y2="6"></line><text fill="currentColor" y="9" dy="0.71em">YAML</text></g><g class="tick" opacity="1" transform="translate(880.0000000000001,0)"><line stroke="currentColor" y2="6"></line><text fill="currentColor" y="9" dy="0.71em">JSON</text></g></g><rect x="45.71428571428578" y="19.622641509433958" height="240.37735849056605" width="68.57142857142857" fill="#D50657"></rect><rect x="160.00000000000006" y="116.36226415094339" height="143.6377358490566" width="68.57142857142857" fill="#049AE6"></rect><rect x="274.28571428571433" y="217.61509433962263" height="42.38490566037737" width="68.57142857142857" fill="#F8C41B"></rect><rect x="388.5714285714286" y="254.89811320754717" height="5.101886792452831" width="68.57142857142857" fill="#32465B"></rect><rect x="502.8571428571429" y="257.84150943396224" height="2.158490566037756" width="68.57142857142857" fill="#E45E42"></rect><rect x="617.1428571428571" y="258.0377358490566" height="1.9622641509433834" width="68.57142857142857" fill="#007C5A"></rect><rect x="731.4285714285714" y="258.43018867924525" height="1.5698113207547522" width="68.57142857142857" fill="#FC69FF"></rect><rect x="845.7142857142858" y="259.0188679245283" height="0.9811320754716917" width="68.57142857142857" fill="#3EC6CF"></rect><text class="labels" style="fill: #444;" x="45.71428571428578" y="-0.3773584905660421">12 hrs 25 mins</text><text class="labels" style="fill: #444;" x="160.00000000000006" y="96.36226415094339">7 hrs 32 mins</text><text class="labels" style="fill: #444;" x="274.28571428571433" y="197.61509433962263">2 hrs 16 mins</text><text class="labels" style="fill: #444;" x="388.5714285714286" y="234.89811320754717">26 mins</text><text class="labels" style="fill: #444;" x="502.8571428571429" y="237.84150943396224">11 mins</text><text class="labels" style="fill: #444;" x="617.1428571428571" y="238.03773584905662">10 mins</text><text class="labels" style="fill: #444;" x="731.4285714285714" y="238.43018867924525">8 mins</text><text class="labels" style="fill: #444;" x="845.7142857142858" y="239.0188679245283">5 mins</text></g></svg>