<svg xmlns="http://www.w3.org/2000/svg" width="625" height="315"><g transform="translate(20, 20)"><g transform="translate(0, 260)" style="font-size: 15px; font-family: monospace; font-weight: 300;" fill="none" font-size="10" font-family="sans-serif" text-anchor="middle"><path class="domain" stroke="currentColor" d="M0.5,6V0.5H585.5V6"></path><g class="tick" opacity="1" transform="translate(75.83333333333334,0)"><line stroke="currentColor" y2="6"></line><text fill="currentColor" y="9" dy="0.71em">TypeScript</text></g><g class="tick" opacity="1" transform="translate(184.16666666666669,0)"><line stroke="currentColor" y2="6"></line><text fill="currentColor" y="9" dy="0.71em">JSX</text></g><g class="tick" opacity="1" transform="translate(292.5,0)"><line stroke="currentColor" y2="6"></line><text fill="currentColor" y="9" dy="0.71em">JavaScript</text></g><g class="tick" opacity="1" transform="translate(400.83333333333337,0)"><line stroke="currentColor" y2="6"></line><text fill="currentColor" y="9" dy="0.71em">JSON</text></g><g class="tick" opacity="1" transform="translate(509.16666666666674,0)"><line stroke="currentColor" y2="6"></line><text fill="currentColor" y="9" dy="0.71em">LESS</text></g></g><rect x="43.33333333333334" y="25.1207729468599" height="234.87922705314008" width="65" fill="#D50657"></rect><rect x="151.66666666666669" y="104.75362318840578" height="155.24637681159422" width="65" fill="#049AE6"></rect><rect x="260" y="155.49758454106276" height="104.50241545893724" width="65" fill="#F8C41B"></rect><rect x="368.33333333333337" y="254.97584541062804" height="5.02415458937196" width="65" fill="#32465B"></rect><rect x="476.66666666666674" y="257.2367149758454" height="2.763285024154584" width="65" fill="#E45E42"></rect><text class="labels" style="fill: #444;" x="43.33333333333334" y="5.120772946859901">9 hrs 35 mins</text><text class="labels" style="fill: #444;" x="151.66666666666669" y="84.75362318840578">6 hrs 18 mins</text><text class="labels" style="fill: #444;" x="260" y="135.49758454106276">4 hrs 16 mins</text><text class="labels" style="fill: #444;" x="368.33333333333337" y="234.97584541062804">20 mins</text><text class="labels" style="fill: #444;" x="476.66666666666674" y="237.23671497584542">11 mins</text></g></svg>