<svg xmlns="http://www.w3.org/2000/svg" width="625" height="315"><g transform="translate(20, 20)"><g transform="translate(0, 260)" style="font-size: 15px; font-family: monospace; font-weight: 300;" fill="none" font-size="10" font-family="sans-serif" text-anchor="middle"><path class="domain" stroke="currentColor" d="M0.5,6V0.5H585.5V6"></path><g class="tick" opacity="1" transform="translate(75.83333333333334,0)"><line stroke="currentColor" y2="6"></line><text fill="currentColor" y="9" dy="0.71em">JavaScript</text></g><g class="tick" opacity="1" transform="translate(184.16666666666669,0)"><line stroke="currentColor" y2="6"></line><text fill="currentColor" y="9" dy="0.71em">JSX</text></g><g class="tick" opacity="1" transform="translate(292.5,0)"><line stroke="currentColor" y2="6"></line><text fill="currentColor" y="9" dy="0.71em">TypeScript</text></g><g class="tick" opacity="1" transform="translate(400.83333333333337,0)"><line stroke="currentColor" y2="6"></line><text fill="currentColor" y="9" dy="0.71em">JSON</text></g><g class="tick" opacity="1" transform="translate(509.16666666666674,0)"><line stroke="currentColor" y2="6"></line><text fill="currentColor" y="9" dy="0.71em">Git Config</text></g></g><rect x="43.33333333333334" y="30.696576151121583" height="229.30342384887842" width="65" fill="#D50657"></rect><rect x="151.66666666666669" y="104.06139315230223" height="155.93860684769777" width="65" fill="#049AE6"></rect><rect x="260" y="128.0047225501771" height="131.9952774498229" width="65" fill="#F8C41B"></rect><rect x="368.33333333333337" y="258.1582054309327" height="1.8417945690673037" width="65" fill="#32465B"></rect><rect x="476.66666666666674" y="259.6930342384888" height="0.3069657615112078" width="65" fill="#E45E42"></rect><text class="labels" style="fill: #444;" x="43.33333333333334" y="10.696576151121583">7 hrs 47 mins</text><text class="labels" style="fill: #444;" x="151.66666666666669" y="84.06139315230223">5 hrs 8 mins</text><text class="labels" style="fill: #444;" x="260" y="108.00472255017709">4 hrs 30 mins</text><text class="labels" style="fill: #444;" x="368.33333333333337" y="238.1582054309327">6 mins</text><text class="labels" style="fill: #444;" x="476.66666666666674" y="239.6930342384888">1 min</text></g></svg>