<svg xmlns="http://www.w3.org/2000/svg" width="750" height="315"><g transform="translate(20, 20)"><g transform="translate(0, 260)" style="font-size: 15px; font-family: monospace; font-weight: 300;" fill="none" font-size="10" font-family="sans-serif" text-anchor="middle"><path class="domain" stroke="currentColor" d="M0.5,6V0.5H710.5V6"></path><g class="tick" opacity="1" transform="translate(77.65625,0)"><line stroke="currentColor" y2="6"></line><text fill="currentColor" y="9" dy="0.71em">JavaScript</text></g><g class="tick" opacity="1" transform="translate(188.59375,0)"><line stroke="currentColor" y2="6"></line><text fill="currentColor" y="9" dy="0.71em">TypeScript</text></g><g class="tick" opacity="1" transform="translate(299.53125,0)"><line stroke="currentColor" y2="6"></line><text fill="currentColor" y="9" dy="0.71em">Dart</text></g><g class="tick" opacity="1" transform="translate(410.46875000000006,0)"><line stroke="currentColor" y2="6"></line><text fill="currentColor" y="9" dy="0.71em">JSX</text></g><g class="tick" opacity="1" transform="translate(521.40625,0)"><line stroke="currentColor" y2="6"></line><text fill="currentColor" y="9" dy="0.71em">JSON</text></g><g class="tick" opacity="1" transform="translate(632.3437500000001,0)"><line stroke="currentColor" y2="6"></line><text fill="currentColor" y="9" dy="0.71em">XML</text></g></g><rect x="44.375" y="63.88206388206392" height="196.1179361179361" width="66.5625" fill="#D50657"></rect><rect x="155.3125" y="97.10073710073712" height="162.89926289926288" width="66.5625" fill="#049AE6"></rect><rect x="266.25" y="168.009828009828" height="91.990171990172" width="66.5625" fill="#F8C41B"></rect><rect x="377.18750000000006" y="228.69778869778872" height="31.302211302211276" width="66.5625" fill="#32465B"></rect><rect x="488.12500000000006" y="256.8058968058968" height="3.1941031941032065" width="66.5625" fill="#E45E42"></rect><rect x="599.0625000000001" y="259.3611793611794" height="0.6388206388206186" width="66.5625" fill="#007C5A"></rect><text class="labels" style="fill: #444;" x="44.375" y="43.88206388206392">3 hrs 7 mins</text><text class="labels" style="fill: #444;" x="155.3125" y="77.10073710073712">2 hrs 55 mins</text><text class="labels" style="fill: #444;" x="266.25" y="148.009828009828">1 hr 44 mins</text><text class="labels" style="fill: #444;" x="377.18750000000006" y="208.69778869778872">49 mins</text><text class="labels" style="fill: #444;" x="488.12500000000006" y="236.8058968058968">5 mins</text><text class="labels" style="fill: #444;" x="599.0625000000001" y="239.36117936117938">1 min</text></g></svg>