<svg xmlns="http://www.w3.org/2000/svg" width="625" height="315"><g transform="translate(20, 20)"><g transform="translate(0, 260)" style="font-size: 15px; font-family: monospace; font-weight: 300;" fill="none" font-size="10" font-family="sans-serif" text-anchor="middle"><path class="domain" stroke="currentColor" d="M0.5,6V0.5H585.5V6"></path><g class="tick" opacity="1" transform="translate(75.83333333333334,0)"><line stroke="currentColor" y2="6"></line><text fill="currentColor" y="9" dy="0.71em">JavaScript</text></g><g class="tick" opacity="1" transform="translate(184.16666666666669,0)"><line stroke="currentColor" y2="6"></line><text fill="currentColor" y="9" dy="0.71em">JSX</text></g><g class="tick" opacity="1" transform="translate(292.5,0)"><line stroke="currentColor" y2="6"></line><text fill="currentColor" y="9" dy="0.71em">Bash</text></g><g class="tick" opacity="1" transform="translate(400.83333333333337,0)"><line stroke="currentColor" y2="6"></line><text fill="currentColor" y="9" dy="0.71em">TypeScript</text></g><g class="tick" opacity="1" transform="translate(509.16666666666674,0)"><line stroke="currentColor" y2="6"></line><text fill="currentColor" y="9" dy="0.71em">JSON</text></g></g><rect x="43.33333333333334" y="25.096525096525106" height="234.9034749034749" width="65" fill="#D50657"></rect><rect x="151.66666666666669" y="94.86486486486484" height="165.13513513513516" width="65" fill="#049AE6"></rect><rect x="260" y="252.97297297297297" height="7.027027027027032" width="65" fill="#F8C41B"></rect><rect x="368.33333333333337" y="254.7297297297297" height="5.270270270270288" width="65" fill="#32465B"></rect><rect x="476.66666666666674" y="258.4942084942085" height="1.5057915057914784" width="65" fill="#E45E42"></rect><text class="labels" style="fill: #444;" x="43.33333333333334" y="5.096525096525106">9 hrs 36 mins</text><text class="labels" style="fill: #444;" x="151.66666666666669" y="74.86486486486484">6 hrs 58 mins</text><text class="labels" style="fill: #444;" x="260" y="232.97297297297297">28 mins</text><text class="labels" style="fill: #444;" x="368.33333333333337" y="234.7297297297297">21 mins</text><text class="labels" style="fill: #444;" x="476.66666666666674" y="238.49420849420852">6 mins</text></g></svg>