<svg xmlns="http://www.w3.org/2000/svg" width="625" height="315"><g transform="translate(20, 20)"><g transform="translate(0, 260)" style="font-size: 15px; font-family: monospace; font-weight: 300;" fill="none" font-size="10" font-family="sans-serif" text-anchor="middle"><path class="domain" stroke="currentColor" d="M0.5,6V0.5H585.5V6"></path><g class="tick" opacity="1" transform="translate(75.83333333333334,0)"><line stroke="currentColor" y2="6"></line><text fill="currentColor" y="9" dy="0.71em">JSX</text></g><g class="tick" opacity="1" transform="translate(184.16666666666669,0)"><line stroke="currentColor" y2="6"></line><text fill="currentColor" y="9" dy="0.71em">TypeScript</text></g><g class="tick" opacity="1" transform="translate(292.5,0)"><line stroke="currentColor" y2="6"></line><text fill="currentColor" y="9" dy="0.71em">JavaScript</text></g><g class="tick" opacity="1" transform="translate(400.83333333333337,0)"><line stroke="currentColor" y2="6"></line><text fill="currentColor" y="9" dy="0.71em">JSON</text></g><g class="tick" opacity="1" transform="translate(509.16666666666674,0)"><line stroke="currentColor" y2="6"></line><text fill="currentColor" y="9" dy="0.71em">LESS</text></g></g><rect x="43.33333333333334" y="59.90783410138249" height="200.0921658986175" width="65" fill="#D50657"></rect><rect x="151.66666666666669" y="79.07834101382488" height="180.92165898617512" width="65" fill="#049AE6"></rect><rect x="260" y="117.4193548387097" height="142.5806451612903" width="65" fill="#F8C41B"></rect><rect x="368.33333333333337" y="252.21198156682027" height="7.7880184331797295" width="65" fill="#32465B"></rect><rect x="476.66666666666674" y="254.00921658986175" height="5.990783410138249" width="65" fill="#E45E42"></rect><text class="labels" style="fill: #444;" x="43.33333333333334" y="39.90783410138249">3 hrs 34 mins</text><text class="labels" style="fill: #444;" x="151.66666666666669" y="59.07834101382488">3 hrs 2 mins</text><text class="labels" style="fill: #444;" x="260" y="97.4193548387097">2 hrs 38 mins</text><text class="labels" style="fill: #444;" x="368.33333333333337" y="232.21198156682027">13 mins</text><text class="labels" style="fill: #444;" x="476.66666666666674" y="234.00921658986175">10 mins</text></g></svg>