<svg xmlns="http://www.w3.org/2000/svg" width="625" height="315"><g transform="translate(20, 20)"><g transform="translate(0, 260)" style="font-size: 15px; font-family: monospace; font-weight: 300;" fill="none" font-size="10" font-family="sans-serif" text-anchor="middle"><path class="domain" stroke="currentColor" d="M0.5,6V0.5H585.5V6"></path><g class="tick" opacity="1" transform="translate(75.83333333333334,0)"><line stroke="currentColor" y2="6"></line><text fill="currentColor" y="9" dy="0.71em">JavaScript</text></g><g class="tick" opacity="1" transform="translate(184.16666666666669,0)"><line stroke="currentColor" y2="6"></line><text fill="currentColor" y="9" dy="0.71em">TypeScript</text></g><g class="tick" opacity="1" transform="translate(292.5,0)"><line stroke="currentColor" y2="6"></line><text fill="currentColor" y="9" dy="0.71em">CSS</text></g><g class="tick" opacity="1" transform="translate(400.83333333333337,0)"><line stroke="currentColor" y2="6"></line><text fill="currentColor" y="9" dy="0.71em">HTML</text></g><g class="tick" opacity="1" transform="translate(509.16666666666674,0)"><line stroke="currentColor" y2="6"></line><text fill="currentColor" y="9" dy="0.71em">Java</text></g></g><rect x="43.33333333333334" y="34.39153439153441" height="225.6084656084656" width="65" fill="#D50657"></rect><rect x="151.66666666666669" y="189.84126984126982" height="70.15873015873018" width="65" fill="#049AE6"></rect><rect x="260" y="253.1216931216931" height="6.878306878306887" width="65" fill="#F8C41B"></rect><rect x="368.33333333333337" y="255.8730158730159" height="4.126984126984098" width="65" fill="#32465B"></rect><rect x="476.66666666666674" y="258.968253968254" height="1.0317460317460245" width="65" fill="#E45E42"></rect><text class="labels" style="fill: #444;" x="43.33333333333334" y="14.391534391534407">6 hrs 56 mins</text><text class="labels" style="fill: #444;" x="151.66666666666669" y="169.84126984126982">2 hrs 4 mins</text><text class="labels" style="fill: #444;" x="260" y="233.1216931216931">20 mins</text><text class="labels" style="fill: #444;" x="368.33333333333337" y="235.8730158730159">12 mins</text><text class="labels" style="fill: #444;" x="476.66666666666674" y="238.96825396825398">3 mins</text></g></svg>