<svg xmlns="http://www.w3.org/2000/svg" width="875" height="315"><g transform="translate(20, 20)"><g transform="translate(0, 260)" style="font-size: 15px; font-family: monospace; font-weight: 300;" fill="none" font-size="10" font-family="sans-serif" text-anchor="middle"><path class="domain" stroke="currentColor" d="M0.5,6V0.5H835.5V6"></path><g class="tick" opacity="1" transform="translate(78.98648648648646,0)"><line stroke="currentColor" y2="6"></line><text fill="currentColor" y="9" dy="0.71em">JavaScript</text></g><g class="tick" opacity="1" transform="translate(191.82432432432432,0)"><line stroke="currentColor" y2="6"></line><text fill="currentColor" y="9" dy="0.71em">JSON</text></g><g class="tick" opacity="1" transform="translate(304.6621621621622,0)"><line stroke="currentColor" y2="6"></line><text fill="currentColor" y="9" dy="0.71em">JSX</text></g><g class="tick" opacity="1" transform="translate(417.5,0)"><line stroke="currentColor" y2="6"></line><text fill="currentColor" y="9" dy="0.71em">TypeScript</text></g><g class="tick" opacity="1" transform="translate(530.3378378378379,0)"><line stroke="currentColor" y2="6"></line><text fill="currentColor" y="9" dy="0.71em">LESS</text></g><g class="tick" opacity="1" transform="translate(643.1756756756757,0)"><line stroke="currentColor" y2="6"></line><text fill="currentColor" y="9" dy="0.71em">Properties</text></g><g class="tick" opacity="1" transform="translate(756.0135135135135,0)"><line stroke="currentColor" y2="6"></line><text fill="currentColor" y="9" dy="0.71em">Git Config</text></g></g><rect x="45.1351351351351" y="40.688575899843514" height="219.3114241001565" width="67.70270270270271" fill="#D50657"></rect><rect x="157.97297297297297" y="218.0907668231612" height="41.9092331768388" width="67.70270270270271" fill="#049AE6"></rect><rect x="270.81081081081084" y="247.79342723004694" height="12.206572769953056" width="67.70270270270271" fill="#F8C41B"></rect><rect x="383.64864864864865" y="248.2003129890454" height="11.799687010954614" width="67.70270270270271" fill="#32465B"></rect><rect x="496.4864864864865" y="255.93114241001564" height="4.068857589984361" width="67.70270270270271" fill="#E45E42"></rect><rect x="609.3243243243244" y="255.93114241001564" height="4.068857589984361" width="67.70270270270271" fill="#007C5A"></rect><rect x="722.1621621621622" y="259.59311424100156" height="0.4068857589984418" width="67.70270270270271" fill="#FC69FF"></rect><text class="labels" style="fill: #444;" x="45.1351351351351" y="20.688575899843514">5 hrs 39 mins</text><text class="labels" style="fill: #444;" x="157.97297297297297" y="198.0907668231612">1 hr 3 mins</text><text class="labels" style="fill: #444;" x="270.81081081081084" y="227.79342723004694">30 mins</text><text class="labels" style="fill: #444;" x="383.64864864864865" y="228.2003129890454">29 mins</text><text class="labels" style="fill: #444;" x="496.4864864864865" y="235.93114241001564">10 mins</text><text class="labels" style="fill: #444;" x="609.3243243243244" y="235.93114241001564">10 mins</text><text class="labels" style="fill: #444;" x="722.1621621621622" y="239.59311424100156">1 min</text></g></svg>