<svg xmlns="http://www.w3.org/2000/svg" width="625" height="315"><g transform="translate(20, 20)"><g transform="translate(0, 260)" style="font-size: 15px; font-family: monospace; font-weight: 300;" fill="none" font-size="10" font-family="sans-serif" text-anchor="middle"><path class="domain" stroke="currentColor" d="M0.5,6V0.5H585.5V6"></path><g class="tick" opacity="1" transform="translate(75.83333333333334,0)"><line stroke="currentColor" y2="6"></line><text fill="currentColor" y="9" dy="0.71em">Dart</text></g><g class="tick" opacity="1" transform="translate(184.16666666666669,0)"><line stroke="currentColor" y2="6"></line><text fill="currentColor" y="9" dy="0.71em">JavaScript</text></g><g class="tick" opacity="1" transform="translate(292.5,0)"><line stroke="currentColor" y2="6"></line><text fill="currentColor" y="9" dy="0.71em">JSX</text></g><g class="tick" opacity="1" transform="translate(400.83333333333337,0)"><line stroke="currentColor" y2="6"></line><text fill="currentColor" y="9" dy="0.71em">TypeScript</text></g><g class="tick" opacity="1" transform="translate(509.16666666666674,0)"><line stroke="currentColor" y2="6"></line><text fill="currentColor" y="9" dy="0.71em">LESS</text></g></g><rect x="43.33333333333334" y="50.88062622309197" height="209.11937377690802" width="65" fill="#D50657"></rect><rect x="151.66666666666669" y="80.39138943248534" height="179.60861056751466" width="65" fill="#049AE6"></rect><rect x="260" y="98.19960861056752" height="161.8003913894325" width="65" fill="#F8C41B"></rect><rect x="368.33333333333337" y="209.11937377690802" height="50.88062622309198" width="65" fill="#32465B"></rect><rect x="476.66666666666674" y="254.40313111545987" height="5.596868884540129" width="65" fill="#E45E42"></rect><text class="labels" style="fill: #444;" x="43.33333333333334" y="30.880626223091973">4 hrs 11 mins</text><text class="labels" style="fill: #444;" x="151.66666666666669" y="60.39138943248534">3 hrs 53 mins</text><text class="labels" style="fill: #444;" x="260" y="78.19960861056752">3 hrs 18 mins</text><text class="labels" style="fill: #444;" x="368.33333333333337" y="189.11937377690802">1 hr</text><text class="labels" style="fill: #444;" x="476.66666666666674" y="234.40313111545987">11 mins</text></g></svg>