<svg xmlns="http://www.w3.org/2000/svg" width="750" height="315"><g transform="translate(20, 20)"><g transform="translate(0, 260)" style="font-size: 15px; font-family: monospace; font-weight: 300;" fill="none" font-size="10" font-family="sans-serif" text-anchor="middle"><path class="domain" stroke="currentColor" d="M0.5,6V0.5H710.5V6"></path><g class="tick" opacity="1" transform="translate(77.65625,0)"><line stroke="currentColor" y2="6"></line><text fill="currentColor" y="9" dy="0.71em">JavaScript</text></g><g class="tick" opacity="1" transform="translate(188.59375,0)"><line stroke="currentColor" y2="6"></line><text fill="currentColor" y="9" dy="0.71em">JSX</text></g><g class="tick" opacity="1" transform="translate(299.53125,0)"><line stroke="currentColor" y2="6"></line><text fill="currentColor" y="9" dy="0.71em">Dart</text></g><g class="tick" opacity="1" transform="translate(410.46875000000006,0)"><line stroke="currentColor" y2="6"></line><text fill="currentColor" y="9" dy="0.71em">XML</text></g><g class="tick" opacity="1" transform="translate(521.40625,0)"><line stroke="currentColor" y2="6"></line><text fill="currentColor" y="9" dy="0.71em">YAML</text></g><g class="tick" opacity="1" transform="translate(632.3437500000001,0)"><line stroke="currentColor" y2="6"></line><text fill="currentColor" y="9" dy="0.71em">Git Config</text></g></g><rect x="44.375" y="49.90403071017275" height="210.09596928982725" width="66.5625" fill="#D50657"></rect><rect x="155.3125" y="100.80614203454894" height="159.19385796545106" width="66.5625" fill="#049AE6"></rect><rect x="266.25" y="257.00575815738966" height="2.994241842610336" width="66.5625" fill="#F8C41B"></rect><rect x="377.18750000000006" y="258.50287907869483" height="1.497120921305168" width="66.5625" fill="#32465B"></rect><rect x="488.12500000000006" y="259.5009596928983" height="0.49904030710172265" width="66.5625" fill="#E45E42"></rect><rect x="599.0625000000001" y="259.5009596928983" height="0.49904030710172265" width="66.5625" fill="#007C5A"></rect><text class="labels" style="fill: #444;" x="44.375" y="29.904030710172748">4 hrs 21 mins</text><text class="labels" style="fill: #444;" x="155.3125" y="80.80614203454894">3 hrs 19 mins</text><text class="labels" style="fill: #444;" x="266.25" y="237.00575815738966">6 mins</text><text class="labels" style="fill: #444;" x="377.18750000000006" y="238.50287907869483">3 mins</text><text class="labels" style="fill: #444;" x="488.12500000000006" y="239.50095969289828">1 min</text><text class="labels" style="fill: #444;" x="599.0625000000001" y="239.50095969289828">1 min</text></g></svg>