<svg xmlns="http://www.w3.org/2000/svg" width="875" height="315"><g transform="translate(20, 20)"><g transform="translate(0, 260)" style="font-size: 15px; font-family: monospace; font-weight: 300;" fill="none" font-size="10" font-family="sans-serif" text-anchor="middle"><path class="domain" stroke="currentColor" d="M0.5,6V0.5H835.5V6"></path><g class="tick" opacity="1" transform="translate(78.98648648648646,0)"><line stroke="currentColor" y2="6"></line><text fill="currentColor" y="9" dy="0.71em">JavaScript</text></g><g class="tick" opacity="1" transform="translate(191.82432432432432,0)"><line stroke="currentColor" y2="6"></line><text fill="currentColor" y="9" dy="0.71em">TypeScript</text></g><g class="tick" opacity="1" transform="translate(304.6621621621622,0)"><line stroke="currentColor" y2="6"></line><text fill="currentColor" y="9" dy="0.71em">Dart</text></g><g class="tick" opacity="1" transform="translate(417.5,0)"><line stroke="currentColor" y2="6"></line><text fill="currentColor" y="9" dy="0.71em">HTML</text></g><g class="tick" opacity="1" transform="translate(530.3378378378379,0)"><line stroke="currentColor" y2="6"></line><text fill="currentColor" y="9" dy="0.71em">YAML</text></g><g class="tick" opacity="1" transform="translate(643.1756756756757,0)"><line stroke="currentColor" y2="6"></line><text fill="currentColor" y="9" dy="0.71em">CSS</text></g><g class="tick" opacity="1" transform="translate(756.0135135135135,0)"><line stroke="currentColor" y2="6"></line><text fill="currentColor" y="9" dy="0.71em">XML</text></g></g><rect x="45.1351351351351" y="109.2436974789916" height="150.7563025210084" width="67.70270270270271" fill="#D50657"></rect><rect x="157.97297297297297" y="228.31932773109244" height="31.680672268907557" width="67.70270270270271" fill="#049AE6"></rect><rect x="270.81081081081084" y="246.890756302521" height="13.109243697479002" width="67.70270270270271" fill="#F8C41B"></rect><rect x="383.64864864864865" y="252.35294117647058" height="7.64705882352942" width="67.70270270270271" fill="#32465B"></rect><rect x="496.4864864864865" y="252.35294117647058" height="7.64705882352942" width="67.70270270270271" fill="#E45E42"></rect><rect x="609.3243243243244" y="255.63025210084032" height="4.369747899159677" width="67.70270270270271" fill="#007C5A"></rect><rect x="722.1621621621622" y="256.7226890756303" height="3.277310924369715" width="67.70270270270271" fill="#FC69FF"></rect><text class="labels" style="fill: #444;" x="45.1351351351351" y="89.2436974789916">1 hr 38 mins</text><text class="labels" style="fill: #444;" x="157.97297297297297" y="208.31932773109244">29 mins</text><text class="labels" style="fill: #444;" x="270.81081081081084" y="226.890756302521">12 mins</text><text class="labels" style="fill: #444;" x="383.64864864864865" y="232.35294117647058">7 mins</text><text class="labels" style="fill: #444;" x="496.4864864864865" y="232.35294117647058">7 mins</text><text class="labels" style="fill: #444;" x="609.3243243243244" y="235.63025210084032">4 mins</text><text class="labels" style="fill: #444;" x="722.1621621621622" y="236.72268907563029">3 mins</text></g></svg>