<svg xmlns="http://www.w3.org/2000/svg" width="625" height="315"><g transform="translate(20, 20)"><g transform="translate(0, 260)" style="font-size: 15px; font-family: monospace; font-weight: 300;" fill="none" font-size="10" font-family="sans-serif" text-anchor="middle"><path class="domain" stroke="currentColor" d="M0.5,6V0.5H585.5V6"></path><g class="tick" opacity="1" transform="translate(75.83333333333334,0)"><line stroke="currentColor" y2="6"></line><text fill="currentColor" y="9" dy="0.71em">JavaScript</text></g><g class="tick" opacity="1" transform="translate(184.16666666666669,0)"><line stroke="currentColor" y2="6"></line><text fill="currentColor" y="9" dy="0.71em">TypeScript</text></g><g class="tick" opacity="1" transform="translate(292.5,0)"><line stroke="currentColor" y2="6"></line><text fill="currentColor" y="9" dy="0.71em">JSX</text></g><g class="tick" opacity="1" transform="translate(400.83333333333337,0)"><line stroke="currentColor" y2="6"></line><text fill="currentColor" y="9" dy="0.71em">JSON</text></g><g class="tick" opacity="1" transform="translate(509.16666666666674,0)"><line stroke="currentColor" y2="6"></line><text fill="currentColor" y="9" dy="0.71em">CSS</text></g></g><rect x="43.33333333333334" y="107.43801652892564" height="152.56198347107437" width="65" fill="#D50657"></rect><rect x="151.66666666666669" y="215.9504132231405" height="44.04958677685951" width="65" fill="#049AE6"></rect><rect x="260" y="220.2479338842975" height="39.75206611570249" width="65" fill="#F8C41B"></rect><rect x="368.33333333333337" y="240.6611570247934" height="19.338842975206603" width="65" fill="#32465B"></rect><rect x="476.66666666666674" y="256.77685950413223" height="3.223140495867767" width="65" fill="#E45E42"></rect><text class="labels" style="fill: #444;" x="43.33333333333334" y="87.43801652892564">1 hr 42 mins</text><text class="labels" style="fill: #444;" x="151.66666666666669" y="195.9504132231405">41 mins</text><text class="labels" style="fill: #444;" x="260" y="200.2479338842975">37 mins</text><text class="labels" style="fill: #444;" x="368.33333333333337" y="220.6611570247934">18 mins</text><text class="labels" style="fill: #444;" x="476.66666666666674" y="236.77685950413223">3 mins</text></g></svg>