<svg xmlns="http://www.w3.org/2000/svg" width="625" height="315"><g transform="translate(20, 20)"><g transform="translate(0, 260)" style="font-size: 15px; font-family: monospace; font-weight: 300;" fill="none" font-size="10" font-family="sans-serif" text-anchor="middle"><path class="domain" stroke="currentColor" d="M0.5,6V0.5H585.5V6"></path><g class="tick" opacity="1" transform="translate(75.83333333333334,0)"><line stroke="currentColor" y2="6"></line><text fill="currentColor" y="9" dy="0.71em">TypeScript</text></g><g class="tick" opacity="1" transform="translate(184.16666666666669,0)"><line stroke="currentColor" y2="6"></line><text fill="currentColor" y="9" dy="0.71em">JSX</text></g><g class="tick" opacity="1" transform="translate(292.5,0)"><line stroke="currentColor" y2="6"></line><text fill="currentColor" y="9" dy="0.71em">JavaScript</text></g><g class="tick" opacity="1" transform="translate(400.83333333333337,0)"><line stroke="currentColor" y2="6"></line><text fill="currentColor" y="9" dy="0.71em">LESS</text></g><g class="tick" opacity="1" transform="translate(509.16666666666674,0)"><line stroke="currentColor" y2="6"></line><text fill="currentColor" y="9" dy="0.71em">JSON</text></g></g><rect x="43.33333333333334" y="39.694656488549626" height="220.30534351145036" width="65" fill="#D50657"></rect><rect x="151.66666666666669" y="45.64885496183205" height="214.35114503816794" width="65" fill="#049AE6"></rect><rect x="260" y="82.56488549618322" height="177.43511450381678" width="65" fill="#F8C41B"></rect><rect x="368.33333333333337" y="180.21374045801528" height="79.78625954198472" width="65" fill="#32465B"></rect><rect x="476.66666666666674" y="245.31297709923663" height="14.687022900763367" width="65" fill="#E45E42"></rect><text class="labels" style="fill: #444;" x="43.33333333333334" y="19.694656488549626">5 hrs 55 mins</text><text class="labels" style="fill: #444;" x="151.66666666666669" y="25.64885496183205">5 hrs 40 mins</text><text class="labels" style="fill: #444;" x="260" y="62.56488549618322">4 hrs 47 mins</text><text class="labels" style="fill: #444;" x="368.33333333333337" y="160.21374045801528">2 hrs 1 min</text><text class="labels" style="fill: #444;" x="476.66666666666674" y="225.31297709923663">37 mins</text></g></svg>