<svg xmlns="http://www.w3.org/2000/svg" width="750" height="315"><g transform="translate(20, 20)"><g transform="translate(0, 260)" style="font-size: 15px; font-family: monospace; font-weight: 300;" fill="none" font-size="10" font-family="sans-serif" text-anchor="middle"><path class="domain" stroke="currentColor" d="M0.5,6V0.5H710.5V6"></path><g class="tick" opacity="1" transform="translate(77.65625,0)"><line stroke="currentColor" y2="6"></line><text fill="currentColor" y="9" dy="0.71em">JavaScript</text></g><g class="tick" opacity="1" transform="translate(188.59375,0)"><line stroke="currentColor" y2="6"></line><text fill="currentColor" y="9" dy="0.71em">Dart</text></g><g class="tick" opacity="1" transform="translate(299.53125,0)"><line stroke="currentColor" y2="6"></line><text fill="currentColor" y="9" dy="0.71em">XML</text></g><g class="tick" opacity="1" transform="translate(410.46875000000006,0)"><line stroke="currentColor" y2="6"></line><text fill="currentColor" y="9" dy="0.71em">TypeScript</text></g><g class="tick" opacity="1" transform="translate(521.40625,0)"><line stroke="currentColor" y2="6"></line><text fill="currentColor" y="9" dy="0.71em">YAML</text></g><g class="tick" opacity="1" transform="translate(632.3437500000001,0)"><line stroke="currentColor" y2="6"></line><text fill="currentColor" y="9" dy="0.71em">Groovy</text></g></g><rect x="44.375" y="62.35011990407673" height="197.64988009592327" width="66.5625" fill="#D50657"></rect><rect x="155.3125" y="167.72182254196642" height="92.27817745803358" width="66.5625" fill="#049AE6"></rect><rect x="266.25" y="236.9304556354916" height="23.069544364508403" width="66.5625" fill="#F8C41B"></rect><rect x="377.18750000000006" y="240.6714628297362" height="19.328537170263786" width="66.5625" fill="#32465B"></rect><rect x="488.12500000000006" y="245.0359712230216" height="14.96402877697841" width="66.5625" fill="#E45E42"></rect><rect x="599.0625000000001" y="254.3884892086331" height="5.6115107913668965" width="66.5625" fill="#007C5A"></rect><text class="labels" style="fill: #444;" x="44.375" y="42.35011990407673">3 hrs 17 mins</text><text class="labels" style="fill: #444;" x="155.3125" y="147.72182254196642">1 hr 48 mins</text><text class="labels" style="fill: #444;" x="266.25" y="216.9304556354916">37 mins</text><text class="labels" style="fill: #444;" x="377.18750000000006" y="220.6714628297362">31 mins</text><text class="labels" style="fill: #444;" x="488.12500000000006" y="225.0359712230216">24 mins</text><text class="labels" style="fill: #444;" x="599.0625000000001" y="234.3884892086331">9 mins</text></g></svg>