<svg xmlns="http://www.w3.org/2000/svg" width="750" height="315"><g transform="translate(20, 20)"><g transform="translate(0, 260)" style="font-size: 15px; font-family: monospace; font-weight: 300;" fill="none" font-size="10" font-family="sans-serif" text-anchor="middle"><path class="domain" stroke="currentColor" d="M0.5,6V0.5H710.5V6"></path><g class="tick" opacity="1" transform="translate(77.65625,0)"><line stroke="currentColor" y2="6"></line><text fill="currentColor" y="9" dy="0.71em">JavaScript</text></g><g class="tick" opacity="1" transform="translate(188.59375,0)"><line stroke="currentColor" y2="6"></line><text fill="currentColor" y="9" dy="0.71em">JSX</text></g><g class="tick" opacity="1" transform="translate(299.53125,0)"><line stroke="currentColor" y2="6"></line><text fill="currentColor" y="9" dy="0.71em">TypeScript</text></g><g class="tick" opacity="1" transform="translate(410.46875000000006,0)"><line stroke="currentColor" y2="6"></line><text fill="currentColor" y="9" dy="0.71em">JSON</text></g><g class="tick" opacity="1" transform="translate(521.40625,0)"><line stroke="currentColor" y2="6"></line><text fill="currentColor" y="9" dy="0.71em">CSS</text></g><g class="tick" opacity="1" transform="translate(632.3437500000001,0)"><line stroke="currentColor" y2="6"></line><text fill="currentColor" y="9" dy="0.71em">BrightScript</text></g></g><rect x="44.375" y="59.90783410138249" height="200.0921658986175" width="66.5625" fill="#D50657"></rect><rect x="155.3125" y="185.71428571428572" height="74.28571428571428" width="66.5625" fill="#049AE6"></rect><rect x="266.25" y="231.24423963133643" height="28.755760368663573" width="66.5625" fill="#F8C41B"></rect><rect x="377.18750000000006" y="237.83410138248848" height="22.165898617511516" width="66.5625" fill="#32465B"></rect><rect x="488.12500000000006" y="258.2027649769585" height="1.7972350230414804" width="66.5625" fill="#E45E42"></rect><rect x="599.0625000000001" y="258.8018433179723" height="1.1981566820276726" width="66.5625" fill="#007C5A"></rect><text class="labels" style="fill: #444;" x="44.375" y="39.90783410138249">3 hrs 34 mins</text><text class="labels" style="fill: #444;" x="155.3125" y="165.71428571428572">1 hr 24 mins</text><text class="labels" style="fill: #444;" x="266.25" y="211.24423963133643">48 mins</text><text class="labels" style="fill: #444;" x="377.18750000000006" y="217.83410138248848">37 mins</text><text class="labels" style="fill: #444;" x="488.12500000000006" y="238.20276497695852">3 mins</text><text class="labels" style="fill: #444;" x="599.0625000000001" y="238.80184331797233">2 mins</text></g></svg>