<svg xmlns="http://www.w3.org/2000/svg" width="625" height="315"><g transform="translate(20, 20)"><g transform="translate(0, 260)" style="font-size: 15px; font-family: monospace; font-weight: 300;" fill="none" font-size="10" font-family="sans-serif" text-anchor="middle"><path class="domain" stroke="currentColor" d="M0.5,6V0.5H585.5V6"></path><g class="tick" opacity="1" transform="translate(75.83333333333334,0)"><line stroke="currentColor" y2="6"></line><text fill="currentColor" y="9" dy="0.71em">Dart</text></g><g class="tick" opacity="1" transform="translate(184.16666666666669,0)"><line stroke="currentColor" y2="6"></line><text fill="currentColor" y="9" dy="0.71em">JavaScript</text></g><g class="tick" opacity="1" transform="translate(292.5,0)"><line stroke="currentColor" y2="6"></line><text fill="currentColor" y="9" dy="0.71em">TypeScript</text></g><g class="tick" opacity="1" transform="translate(400.83333333333337,0)"><line stroke="currentColor" y2="6"></line><text fill="currentColor" y="9" dy="0.71em">JSX</text></g><g class="tick" opacity="1" transform="translate(509.16666666666674,0)"><line stroke="currentColor" y2="6"></line><text fill="currentColor" y="9" dy="0.71em">JSON</text></g></g><rect x="43.33333333333334" y="43.11774461028193" height="216.88225538971807" width="65" fill="#D50657"></rect><rect x="151.66666666666669" y="127.62852404643452" height="132.3714759535655" width="65" fill="#049AE6"></rect><rect x="260" y="150.04975124378112" height="109.95024875621888" width="65" fill="#F8C41B"></rect><rect x="368.33333333333337" y="238.87230514096186" height="21.127694859038144" width="65" fill="#32465B"></rect><rect x="476.66666666666674" y="255.6882255389718" height="4.311774461028193" width="65" fill="#E45E42"></rect><text class="labels" style="fill: #444;" x="43.33333333333334" y="23.11774461028193">5 hrs 3 mins</text><text class="labels" style="fill: #444;" x="151.66666666666669" y="107.62852404643452">3 hrs 7 mins</text><text class="labels" style="fill: #444;" x="260" y="130.04975124378112">2 hrs 55 mins</text><text class="labels" style="fill: #444;" x="368.33333333333337" y="218.87230514096186">49 mins</text><text class="labels" style="fill: #444;" x="476.66666666666674" y="235.6882255389718">10 mins</text></g></svg>