<svg xmlns="http://www.w3.org/2000/svg" width="875" height="315"><g transform="translate(20, 20)"><g transform="translate(0, 260)" style="font-size: 15px; font-family: monospace; font-weight: 300;" fill="none" font-size="10" font-family="sans-serif" text-anchor="middle"><path class="domain" stroke="currentColor" d="M0.5,6V0.5H835.5V6"></path><g class="tick" opacity="1" transform="translate(78.98648648648646,0)"><line stroke="currentColor" y2="6"></line><text fill="currentColor" y="9" dy="0.71em">JSX</text></g><g class="tick" opacity="1" transform="translate(191.82432432432432,0)"><line stroke="currentColor" y2="6"></line><text fill="currentColor" y="9" dy="0.71em">JavaScript</text></g><g class="tick" opacity="1" transform="translate(304.6621621621622,0)"><line stroke="currentColor" y2="6"></line><text fill="currentColor" y="9" dy="0.71em">Dart</text></g><g class="tick" opacity="1" transform="translate(417.5,0)"><line stroke="currentColor" y2="6"></line><text fill="currentColor" y="9" dy="0.71em">JSON</text></g><g class="tick" opacity="1" transform="translate(530.3378378378379,0)"><line stroke="currentColor" y2="6"></line><text fill="currentColor" y="9" dy="0.71em">TypeScript</text></g><g class="tick" opacity="1" transform="translate(643.1756756756757,0)"><line stroke="currentColor" y2="6"></line><text fill="currentColor" y="9" dy="0.71em">LESS</text></g><g class="tick" opacity="1" transform="translate(756.0135135135135,0)"><line stroke="currentColor" y2="6"></line><text fill="currentColor" y="9" dy="0.71em">XML</text></g></g><rect x="45.1351351351351" y="62.20095693779902" height="197.79904306220098" width="67.70270270270271" fill="#D50657"></rect><rect x="157.97297297297297" y="98.89952153110049" height="161.1004784688995" width="67.70270270270271" fill="#049AE6"></rect><rect x="270.81081081081084" y="170.43062200956936" height="89.56937799043064" width="67.70270270270271" fill="#F8C41B"></rect><rect x="383.64864864864865" y="245.6937799043062" height="14.306220095693789" width="67.70270270270271" fill="#32465B"></rect><rect x="496.4864864864865" y="250.66985645933013" height="9.330143540669866" width="67.70270270270271" fill="#E45E42"></rect><rect x="609.3243243243244" y="258.75598086124404" height="1.2440191387559594" width="67.70270270270271" fill="#007C5A"></rect><rect x="722.1621621621622" y="259.37799043062205" height="0.6220095693779513" width="67.70270270270271" fill="#FC69FF"></rect><text class="labels" style="fill: #444;" x="45.1351351351351" y="42.20095693779902">3 hrs 18 mins</text><text class="labels" style="fill: #444;" x="157.97297297297297" y="78.89952153110049">2 hrs 59 mins</text><text class="labels" style="fill: #444;" x="270.81081081081084" y="150.43062200956936">1 hr 44 mins</text><text class="labels" style="fill: #444;" x="383.64864864864865" y="225.6937799043062">23 mins</text><text class="labels" style="fill: #444;" x="496.4864864864865" y="230.66985645933013">15 mins</text><text class="labels" style="fill: #444;" x="609.3243243243244" y="238.75598086124404">2 mins</text><text class="labels" style="fill: #444;" x="722.1621621621622" y="239.37799043062205">1 min</text></g></svg>