<svg xmlns="http://www.w3.org/2000/svg" width="625" height="315"><g transform="translate(20, 20)"><g transform="translate(0, 260)" style="font-size: 15px; font-family: monospace; font-weight: 300;" fill="none" font-size="10" font-family="sans-serif" text-anchor="middle"><path class="domain" stroke="currentColor" d="M0.5,6V0.5H585.5V6"></path><g class="tick" opacity="1" transform="translate(75.83333333333334,0)"><line stroke="currentColor" y2="6"></line><text fill="currentColor" y="9" dy="0.71em">TypeScript</text></g><g class="tick" opacity="1" transform="translate(184.16666666666669,0)"><line stroke="currentColor" y2="6"></line><text fill="currentColor" y="9" dy="0.71em">JavaScript</text></g><g class="tick" opacity="1" transform="translate(292.5,0)"><line stroke="currentColor" y2="6"></line><text fill="currentColor" y="9" dy="0.71em">Groovy</text></g><g class="tick" opacity="1" transform="translate(400.83333333333337,0)"><line stroke="currentColor" y2="6"></line><text fill="currentColor" y="9" dy="0.71em">JSON</text></g><g class="tick" opacity="1" transform="translate(509.16666666666674,0)"><line stroke="currentColor" y2="6"></line><text fill="currentColor" y="9" dy="0.71em">Properties</text></g></g><rect x="43.33333333333334" y="32.2180916976456" height="227.7819083023544" width="65" fill="#D50657"></rect><rect x="151.66666666666669" y="213.92812887236678" height="46.071871127633216" width="65" fill="#049AE6"></rect><rect x="260" y="254.52292441140025" height="5.477075588599746" width="65" fill="#F8C41B"></rect><rect x="368.33333333333337" y="259.03345724907064" height="0.9665427509293636" width="65" fill="#32465B"></rect><rect x="476.66666666666674" y="259.6778190830235" height="0.3221809169764924" width="65" fill="#E45E42"></rect><text class="labels" style="fill: #444;" x="43.33333333333334" y="12.218091697645598">7 hrs 7 mins</text><text class="labels" style="fill: #444;" x="151.66666666666669" y="193.92812887236678">1 hr 43 mins</text><text class="labels" style="fill: #444;" x="260" y="234.52292441140025">17 mins</text><text class="labels" style="fill: #444;" x="368.33333333333337" y="239.03345724907064">3 mins</text><text class="labels" style="fill: #444;" x="476.66666666666674" y="239.6778190830235">1 min</text></g></svg>