<svg xmlns="http://www.w3.org/2000/svg" width="875" height="315"><g transform="translate(20, 20)"><g transform="translate(0, 260)" style="font-size: 15px; font-family: monospace; font-weight: 300;" fill="none" font-size="10" font-family="sans-serif" text-anchor="middle"><path class="domain" stroke="currentColor" d="M0.5,6V0.5H835.5V6"></path><g class="tick" opacity="1" transform="translate(78.98648648648646,0)"><line stroke="currentColor" y2="6"></line><text fill="currentColor" y="9" dy="0.71em">TypeScript</text></g><g class="tick" opacity="1" transform="translate(191.82432432432432,0)"><line stroke="currentColor" y2="6"></line><text fill="currentColor" y="9" dy="0.71em">JavaScript</text></g><g class="tick" opacity="1" transform="translate(304.6621621621622,0)"><line stroke="currentColor" y2="6"></line><text fill="currentColor" y="9" dy="0.71em">JSON</text></g><g class="tick" opacity="1" transform="translate(417.5,0)"><line stroke="currentColor" y2="6"></line><text fill="currentColor" y="9" dy="0.71em">Groovy</text></g><g class="tick" opacity="1" transform="translate(530.3378378378379,0)"><line stroke="currentColor" y2="6"></line><text fill="currentColor" y="9" dy="0.71em">tsconfig</text></g><g class="tick" opacity="1" transform="translate(643.1756756756757,0)"><line stroke="currentColor" y2="6"></line><text fill="currentColor" y="9" dy="0.71em">Markdown</text></g><g class="tick" opacity="1" transform="translate(756.0135135135135,0)"><line stroke="currentColor" y2="6"></line><text fill="currentColor" y="9" dy="0.71em">Properties</text></g></g><rect x="45.1351351351351" y="19.563581640331073" height="240.43641835966892" width="67.70270270270271" fill="#D50657"></rect><rect x="157.97297297297297" y="217.15575620767495" height="42.844243792325045" width="67.70270270270271" fill="#049AE6"></rect><rect x="270.81081081081084" y="248.65312264860796" height="11.346877351392038" width="67.70270270270271" fill="#F8C41B"></rect><rect x="383.64864864864865" y="256.67419112114374" height="3.3258088788562645" width="67.70270270270271" fill="#32465B"></rect><rect x="496.4864864864865" y="259.21745673438676" height="0.7825432656132421" width="67.70270270270271" fill="#E45E42"></rect><rect x="609.3243243243244" y="259.21745673438676" height="0.7825432656132421" width="67.70270270270271" fill="#007C5A"></rect><rect x="722.1621621621622" y="259.8043641835967" height="0.1956358164032963" width="67.70270270270271" fill="#FC69FF"></rect><text class="labels" style="fill: #444;" x="45.1351351351351" y="-0.4364183596689273">12 hrs 29 mins</text><text class="labels" style="fill: #444;" x="157.97297297297297" y="197.15575620767495">2 hrs 19 mins</text><text class="labels" style="fill: #444;" x="270.81081081081084" y="228.65312264860796">58 mins</text><text class="labels" style="fill: #444;" x="383.64864864864865" y="236.67419112114374">17 mins</text><text class="labels" style="fill: #444;" x="496.4864864864865" y="239.21745673438676">4 mins</text><text class="labels" style="fill: #444;" x="609.3243243243244" y="239.21745673438676">4 mins</text><text class="labels" style="fill: #444;" x="722.1621621621622" y="239.8043641835967">1 min</text></g></svg>