<svg xmlns="http://www.w3.org/2000/svg" width="750" height="315"><g transform="translate(20, 20)"><g transform="translate(0, 260)" style="font-size: 15px; font-family: monospace; font-weight: 300;" fill="none" font-size="10" font-family="sans-serif" text-anchor="middle"><path class="domain" stroke="currentColor" d="M0.5,6V0.5H710.5V6"></path><g class="tick" opacity="1" transform="translate(77.65625,0)"><line stroke="currentColor" y2="6"></line><text fill="currentColor" y="9" dy="0.71em">JSX</text></g><g class="tick" opacity="1" transform="translate(188.59375,0)"><line stroke="currentColor" y2="6"></line><text fill="currentColor" y="9" dy="0.71em">JavaScript</text></g><g class="tick" opacity="1" transform="translate(299.53125,0)"><line stroke="currentColor" y2="6"></line><text fill="currentColor" y="9" dy="0.71em">TypeScript</text></g><g class="tick" opacity="1" transform="translate(410.46875000000006,0)"><line stroke="currentColor" y2="6"></line><text fill="currentColor" y="9" dy="0.71em">LESS</text></g><g class="tick" opacity="1" transform="translate(521.40625,0)"><line stroke="currentColor" y2="6"></line><text fill="currentColor" y="9" dy="0.71em">YAML</text></g><g class="tick" opacity="1" transform="translate(632.3437500000001,0)"><line stroke="currentColor" y2="6"></line><text fill="currentColor" y="9" dy="0.71em">JSON</text></g></g><rect x="44.375" y="48.780487804878035" height="211.21951219512198" width="66.5625" fill="#D50657"></rect><rect x="155.3125" y="50.73170731707316" height="209.26829268292684" width="66.5625" fill="#049AE6"></rect><rect x="266.25" y="142.92682926829266" height="117.07317073170734" width="66.5625" fill="#F8C41B"></rect><rect x="377.18750000000006" y="185.3658536585366" height="74.6341463414634" width="66.5625" fill="#32465B"></rect><rect x="488.12500000000006" y="255.1219512195122" height="4.878048780487802" width="66.5625" fill="#E45E42"></rect><rect x="599.0625000000001" y="259.0243902439024" height="0.9756097560975832" width="66.5625" fill="#007C5A"></rect><text class="labels" style="fill: #444;" x="44.375" y="28.780487804878035">4 hrs 33 mins</text><text class="labels" style="fill: #444;" x="155.3125" y="30.73170731707316">4 hrs 29 mins</text><text class="labels" style="fill: #444;" x="266.25" y="122.92682926829266">2 hrs 40 mins</text><text class="labels" style="fill: #444;" x="377.18750000000006" y="165.3658536585366">1 hr 53 mins</text><text class="labels" style="fill: #444;" x="488.12500000000006" y="235.1219512195122">10 mins</text><text class="labels" style="fill: #444;" x="599.0625000000001" y="239.02439024390242">2 mins</text></g></svg>