<svg xmlns="http://www.w3.org/2000/svg" width="875" height="315"><g transform="translate(20, 20)"><g transform="translate(0, 260)" style="font-size: 15px; font-family: monospace; font-weight: 300;" fill="none" font-size="10" font-family="sans-serif" text-anchor="middle"><path class="domain" stroke="currentColor" d="M0.5,6V0.5H835.5V6"></path><g class="tick" opacity="1" transform="translate(78.98648648648646,0)"><line stroke="currentColor" y2="6"></line><text fill="currentColor" y="9" dy="0.71em">JSX</text></g><g class="tick" opacity="1" transform="translate(191.82432432432432,0)"><line stroke="currentColor" y2="6"></line><text fill="currentColor" y="9" dy="0.71em">TypeScript</text></g><g class="tick" opacity="1" transform="translate(304.6621621621622,0)"><line stroke="currentColor" y2="6"></line><text fill="currentColor" y="9" dy="0.71em">JavaScript</text></g><g class="tick" opacity="1" transform="translate(417.5,0)"><line stroke="currentColor" y2="6"></line><text fill="currentColor" y="9" dy="0.71em">LESS</text></g><g class="tick" opacity="1" transform="translate(530.3378378378379,0)"><line stroke="currentColor" y2="6"></line><text fill="currentColor" y="9" dy="0.71em">Text</text></g><g class="tick" opacity="1" transform="translate(643.1756756756757,0)"><line stroke="currentColor" y2="6"></line><text fill="currentColor" y="9" dy="0.71em">JSON</text></g><g class="tick" opacity="1" transform="translate(756.0135135135135,0)"><line stroke="currentColor" y2="6"></line><text fill="currentColor" y="9" dy="0.71em">Docker</text></g></g><rect x="45.1351351351351" y="28.077753779697616" height="231.92224622030238" width="67.70270270270271" fill="#D50657"></rect><rect x="157.97297297297297" y="175.76673866090712" height="84.23326133909288" width="67.70270270270271" fill="#049AE6"></rect><rect x="270.81081081081084" y="202.1598272138229" height="57.840172786177106" width="67.70270270270271" fill="#F8C41B"></rect><rect x="383.64864864864865" y="221.81425485961122" height="38.185745140388775" width="67.70270270270271" fill="#32465B"></rect><rect x="496.4864864864865" y="259.43844492440604" height="0.561555075593958" width="67.70270270270271" fill="#E45E42"></rect><rect x="609.3243243243244" y="259.43844492440604" height="0.561555075593958" width="67.70270270270271" fill="#007C5A"></rect><rect x="722.1621621621622" y="259.71922246220305" height="0.2807775377969506" width="67.70270270270271" fill="#FC69FF"></rect><text class="labels" style="fill: #444;" x="45.1351351351351" y="8.077753779697616">8 hrs 26 mins</text><text class="labels" style="fill: #444;" x="157.97297297297297" y="155.76673866090712">3 hrs</text><text class="labels" style="fill: #444;" x="270.81081081081084" y="182.1598272138229">2 hrs 6 mins</text><text class="labels" style="fill: #444;" x="383.64864864864865" y="201.81425485961122">1 hr 36 mins</text><text class="labels" style="fill: #444;" x="496.4864864864865" y="239.43844492440604">2 mins</text><text class="labels" style="fill: #444;" x="609.3243243243244" y="239.43844492440604">2 mins</text><text class="labels" style="fill: #444;" x="722.1621621621622" y="239.71922246220305">1 min</text></g></svg>