<svg xmlns="http://www.w3.org/2000/svg" width="875" height="315"><g transform="translate(20, 20)"><g transform="translate(0, 260)" style="font-size: 15px; font-family: monospace; font-weight: 300;" fill="none" font-size="10" font-family="sans-serif" text-anchor="middle"><path class="domain" stroke="currentColor" d="M0.5,6V0.5H835.5V6"></path><g class="tick" opacity="1" transform="translate(78.98648648648646,0)"><line stroke="currentColor" y2="6"></line><text fill="currentColor" y="9" dy="0.71em">JavaScript</text></g><g class="tick" opacity="1" transform="translate(191.82432432432432,0)"><line stroke="currentColor" y2="6"></line><text fill="currentColor" y="9" dy="0.71em">JSX</text></g><g class="tick" opacity="1" transform="translate(304.6621621621622,0)"><line stroke="currentColor" y2="6"></line><text fill="currentColor" y="9" dy="0.71em">TypeScript</text></g><g class="tick" opacity="1" transform="translate(417.5,0)"><line stroke="currentColor" y2="6"></line><text fill="currentColor" y="9" dy="0.71em">JSON</text></g><g class="tick" opacity="1" transform="translate(530.3378378378379,0)"><line stroke="currentColor" y2="6"></line><text fill="currentColor" y="9" dy="0.71em">CSS</text></g><g class="tick" opacity="1" transform="translate(643.1756756756757,0)"><line stroke="currentColor" y2="6"></line><text fill="currentColor" y="9" dy="0.71em">BrightScript</text></g><g class="tick" opacity="1" transform="translate(756.0135135135135,0)"><line stroke="currentColor" y2="6"></line><text fill="currentColor" y="9" dy="0.71em">Markdown</text></g></g><rect x="45.1351351351351" y="58.29596412556053" height="201.70403587443946" width="67.70270270270271" fill="#D50657"></rect><rect x="157.97297297297297" y="167.89237668161434" height="92.10762331838566" width="67.70270270270271" fill="#049AE6"></rect><rect x="270.81081081081084" y="232.01793721973095" height="27.982062780269047" width="67.70270270270271" fill="#F8C41B"></rect><rect x="383.64864864864865" y="246.59192825112106" height="13.408071748878939" width="67.70270270270271" fill="#32465B"></rect><rect x="496.4864864864865" y="257.085201793722" height="2.9147982062780216" width="67.70270270270271" fill="#E45E42"></rect><rect x="609.3243243243244" y="258.8340807174888" height="1.1659192825111973" width="67.70270270270271" fill="#007C5A"></rect><rect x="722.1621621621622" y="259.4170403587444" height="0.582959641255627" width="67.70270270270271" fill="#FC69FF"></rect><text class="labels" style="fill: #444;" x="45.1351351351351" y="38.29596412556053">3 hrs 46 mins</text><text class="labels" style="fill: #444;" x="157.97297297297297" y="147.89237668161434">1 hr 58 mins</text><text class="labels" style="fill: #444;" x="270.81081081081084" y="212.01793721973095">48 mins</text><text class="labels" style="fill: #444;" x="383.64864864864865" y="226.59192825112106">23 mins</text><text class="labels" style="fill: #444;" x="496.4864864864865" y="237.08520179372198">5 mins</text><text class="labels" style="fill: #444;" x="609.3243243243244" y="238.8340807174888">2 mins</text><text class="labels" style="fill: #444;" x="722.1621621621622" y="239.41704035874437">1 min</text></g></svg>