<svg xmlns="http://www.w3.org/2000/svg" width="750" height="315"><g transform="translate(20, 20)"><g transform="translate(0, 260)" style="font-size: 15px; font-family: monospace; font-weight: 300;" fill="none" font-size="10" font-family="sans-serif" text-anchor="middle"><path class="domain" stroke="currentColor" d="M0.5,6V0.5H710.5V6"></path><g class="tick" opacity="1" transform="translate(77.65625,0)"><line stroke="currentColor" y2="6"></line><text fill="currentColor" y="9" dy="0.71em">TypeScript</text></g><g class="tick" opacity="1" transform="translate(188.59375,0)"><line stroke="currentColor" y2="6"></line><text fill="currentColor" y="9" dy="0.71em">JavaScript</text></g><g class="tick" opacity="1" transform="translate(299.53125,0)"><line stroke="currentColor" y2="6"></line><text fill="currentColor" y="9" dy="0.71em">JSX</text></g><g class="tick" opacity="1" transform="translate(410.46875000000006,0)"><line stroke="currentColor" y2="6"></line><text fill="currentColor" y="9" dy="0.71em">Python</text></g><g class="tick" opacity="1" transform="translate(521.40625,0)"><line stroke="currentColor" y2="6"></line><text fill="currentColor" y="9" dy="0.71em">JSON</text></g><g class="tick" opacity="1" transform="translate(632.3437500000001,0)"><line stroke="currentColor" y2="6"></line><text fill="currentColor" y="9" dy="0.71em">CSS</text></g></g><rect x="44.375" y="40.43545878693624" height="219.56454121306376" width="66.5625" fill="#D50657"></rect><rect x="155.3125" y="84.91446345256608" height="175.08553654743392" width="66.5625" fill="#049AE6"></rect><rect x="266.25" y="176.70295489891134" height="83.29704510108866" width="66.5625" fill="#F8C41B"></rect><rect x="377.18750000000006" y="249.89113530326594" height="10.10886469673406" width="66.5625" fill="#32465B"></rect><rect x="488.12500000000006" y="256.7651632970451" height="3.234836702954908" width="66.5625" fill="#E45E42"></rect><rect x="599.0625000000001" y="257.9782270606532" height="2.0217729393468176" width="66.5625" fill="#007C5A"></rect><text class="labels" style="fill: #444;" x="44.375" y="20.435458786936238">5 hrs 43 mins</text><text class="labels" style="fill: #444;" x="155.3125" y="64.91446345256608">4 hrs 33 mins</text><text class="labels" style="fill: #444;" x="266.25" y="156.70295489891134">2 hrs 6 mins</text><text class="labels" style="fill: #444;" x="377.18750000000006" y="229.89113530326594">25 mins</text><text class="labels" style="fill: #444;" x="488.12500000000006" y="236.7651632970451">8 mins</text><text class="labels" style="fill: #444;" x="599.0625000000001" y="237.97822706065318">5 mins</text></g></svg>