<svg xmlns="http://www.w3.org/2000/svg" width="875" height="315"><g transform="translate(20, 20)"><g transform="translate(0, 260)" style="font-size: 15px; font-family: monospace; font-weight: 300;" fill="none" font-size="10" font-family="sans-serif" text-anchor="middle"><path class="domain" stroke="currentColor" d="M0.5,6V0.5H835.5V6"></path><g class="tick" opacity="1" transform="translate(78.98648648648646,0)"><line stroke="currentColor" y2="6"></line><text fill="currentColor" y="9" dy="0.71em">TypeScript</text></g><g class="tick" opacity="1" transform="translate(191.82432432432432,0)"><line stroke="currentColor" y2="6"></line><text fill="currentColor" y="9" dy="0.71em">JSX</text></g><g class="tick" opacity="1" transform="translate(304.6621621621622,0)"><line stroke="currentColor" y2="6"></line><text fill="currentColor" y="9" dy="0.71em">JavaScript</text></g><g class="tick" opacity="1" transform="translate(417.5,0)"><line stroke="currentColor" y2="6"></line><text fill="currentColor" y="9" dy="0.71em">YAML</text></g><g class="tick" opacity="1" transform="translate(530.3378378378379,0)"><line stroke="currentColor" y2="6"></line><text fill="currentColor" y="9" dy="0.71em">Python</text></g><g class="tick" opacity="1" transform="translate(643.1756756756757,0)"><line stroke="currentColor" y2="6"></line><text fill="currentColor" y="9" dy="0.71em">CSS</text></g><g class="tick" opacity="1" transform="translate(756.0135135135135,0)"><line stroke="currentColor" y2="6"></line><text fill="currentColor" y="9" dy="0.71em">JSON</text></g></g><rect x="45.1351351351351" y="28.017241379310335" height="231.98275862068965" width="67.70270270270271" fill="#D50657"></rect><rect x="157.97297297297297" y="133.92241379310346" height="126.07758620689654" width="67.70270270270271" fill="#049AE6"></rect><rect x="270.81081081081084" y="228.6206896551724" height="31.379310344827587" width="67.70270270270271" fill="#F8C41B"></rect><rect x="383.64864864864865" y="247.67241379310346" height="12.327586206896541" width="67.70270270270271" fill="#32465B"></rect><rect x="496.4864864864865" y="254.39655172413794" height="5.603448275862064" width="67.70270270270271" fill="#E45E42"></rect><rect x="609.3243243243244" y="257.19827586206895" height="2.8017241379310462" width="67.70270270270271" fill="#007C5A"></rect><rect x="722.1621621621622" y="259.7198275862069" height="0.2801724137930819" width="67.70270270270271" fill="#FC69FF"></rect><text class="labels" style="fill: #444;" x="45.1351351351351" y="8.017241379310335">8 hrs 28 mins</text><text class="labels" style="fill: #444;" x="157.97297297297297" y="113.92241379310346">4 hrs 50 mins</text><text class="labels" style="fill: #444;" x="270.81081081081084" y="208.6206896551724">1 hr 12 mins</text><text class="labels" style="fill: #444;" x="383.64864864864865" y="227.67241379310346">44 mins</text><text class="labels" style="fill: #444;" x="496.4864864864865" y="234.39655172413794">20 mins</text><text class="labels" style="fill: #444;" x="609.3243243243244" y="237.19827586206895">10 mins</text><text class="labels" style="fill: #444;" x="722.1621621621622" y="239.71982758620692">1 min</text></g></svg>