<svg xmlns="http://www.w3.org/2000/svg" width="1250" height="315"><g transform="translate(20, 20)"><g transform="translate(0, 260)" style="font-size: 15px; font-family: monospace; font-weight: 300;" fill="none" font-size="10" font-family="sans-serif" text-anchor="middle"><path class="domain" stroke="currentColor" d="M0.5,6V0.5H1210.5V6"></path><g class="tick" opacity="1" transform="translate(81.44230769230771,0)"><line stroke="currentColor" y2="6"></line><text fill="currentColor" y="9" dy="0.71em">JavaScript</text></g><g class="tick" opacity="1" transform="translate(197.78846153846155,0)"><line stroke="currentColor" y2="6"></line><text fill="currentColor" y="9" dy="0.71em">JSX</text></g><g class="tick" opacity="1" transform="translate(314.13461538461536,0)"><line stroke="currentColor" y2="6"></line><text fill="currentColor" y="9" dy="0.71em">TypeScript</text></g><g class="tick" opacity="1" transform="translate(430.4807692307692,0)"><line stroke="currentColor" y2="6"></line><text fill="currentColor" y="9" dy="0.71em">Dart</text></g><g class="tick" opacity="1" transform="translate(546.8269230769231,0)"><line stroke="currentColor" y2="6"></line><text fill="currentColor" y="9" dy="0.71em">Properties</text></g><g class="tick" opacity="1" transform="translate(663.1730769230769,0)"><line stroke="currentColor" y2="6"></line><text fill="currentColor" y="9" dy="0.71em">JSON</text></g><g class="tick" opacity="1" transform="translate(779.5192307692308,0)"><line stroke="currentColor" y2="6"></line><text fill="currentColor" y="9" dy="0.71em">LESS</text></g><g class="tick" opacity="1" transform="translate(895.8653846153846,0)"><line stroke="currentColor" y2="6"></line><text fill="currentColor" y="9" dy="0.71em">Java</text></g><g class="tick" opacity="1" transform="translate(1012.2115384615385,0)"><line stroke="currentColor" y2="6"></line><text fill="currentColor" y="9" dy="0.71em">XML</text></g><g class="tick" opacity="1" transform="translate(1128.5576923076924,0)"><line stroke="currentColor" y2="6"></line><text fill="currentColor" y="9" dy="0.71em">Groovy</text></g></g><rect x="46.53846153846155" y="23.529411764705884" height="236.47058823529412" width="69.8076923076923" fill="#D50657"></rect><rect x="162.8846153846154" y="187.05882352941177" height="72.94117647058823" width="69.8076923076923" fill="#049AE6"></rect><rect x="279.2307692307692" y="210.35294117647058" height="49.64705882352942" width="69.8076923076923" fill="#F8C41B"></rect><rect x="395.5769230769231" y="228.23529411764704" height="31.764705882352956" width="69.8076923076923" fill="#32465B"></rect><rect x="511.9230769230769" y="248.7058823529412" height="11.294117647058812" width="69.8076923076923" fill="#E45E42"></rect><rect x="628.2692307692307" y="253.6470588235294" height="6.352941176470608" width="69.8076923076923" fill="#007C5A"></rect><rect x="744.6153846153846" y="253.88235294117646" height="6.117647058823536" width="69.8076923076923" fill="#FC69FF"></rect><rect x="860.9615384615385" y="259.29411764705884" height="0.7058823529411598" width="69.8076923076923" fill="#3EC6CF"></rect><rect x="977.3076923076923" y="259.7647058823529" height="0.2352941176470722" width="69.8076923076923" fill="#620A79"></rect><rect x="1093.6538461538462" y="259.7647058823529" height="0.2352941176470722" width="69.8076923076923" fill="#D50657"></rect><text class="labels" style="fill: #444;" x="46.53846153846155" y="3.529411764705884">10 hrs 5 mins</text><text class="labels" style="fill: #444;" x="162.8846153846154" y="167.05882352941177">3 hrs 10 mins</text><text class="labels" style="fill: #444;" x="279.2307692307692" y="190.35294117647058">2 hrs 11 mins</text><text class="labels" style="fill: #444;" x="395.5769230769231" y="208.23529411764704">1 hr 35 mins</text><text class="labels" style="fill: #444;" x="511.9230769230769" y="228.7058823529412">48 mins</text><text class="labels" style="fill: #444;" x="628.2692307692307" y="233.6470588235294">27 mins</text><text class="labels" style="fill: #444;" x="744.6153846153846" y="233.88235294117646">26 mins</text><text class="labels" style="fill: #444;" x="860.9615384615385" y="239.29411764705884">3 mins</text><text class="labels" style="fill: #444;" x="977.3076923076923" y="239.76470588235293">1 min</text><text class="labels" style="fill: #444;" x="1093.6538461538462" y="239.76470588235293">1 min</text></g></svg>