<svg xmlns="http://www.w3.org/2000/svg" width="1125" height="315"><g transform="translate(20, 20)"><g transform="translate(0, 260)" style="font-size: 15px; font-family: monospace; font-weight: 300;" fill="none" font-size="10" font-family="sans-serif" text-anchor="middle"><path class="domain" stroke="currentColor" d="M0.5,6V0.5H1085.5V6"></path><g class="tick" opacity="1" transform="translate(80.79787234042558,0)"><line stroke="currentColor" y2="6"></line><text fill="currentColor" y="9" dy="0.71em">JavaScript</text></g><g class="tick" opacity="1" transform="translate(196.2234042553192,0)"><line stroke="currentColor" y2="6"></line><text fill="currentColor" y="9" dy="0.71em">JSX</text></g><g class="tick" opacity="1" transform="translate(311.6489361702128,0)"><line stroke="currentColor" y2="6"></line><text fill="currentColor" y="9" dy="0.71em">CSS</text></g><g class="tick" opacity="1" transform="translate(427.07446808510645,0)"><line stroke="currentColor" y2="6"></line><text fill="currentColor" y="9" dy="0.71em">JSON</text></g><g class="tick" opacity="1" transform="translate(542.5,0)"><line stroke="currentColor" y2="6"></line><text fill="currentColor" y="9" dy="0.71em">Svelte</text></g><g class="tick" opacity="1" transform="translate(657.9255319148937,0)"><line stroke="currentColor" y2="6"></line><text fill="currentColor" y="9" dy="0.71em">Solidity</text></g><g class="tick" opacity="1" transform="translate(773.3510638297872,0)"><line stroke="currentColor" y2="6"></line><text fill="currentColor" y="9" dy="0.71em">Markdown</text></g><g class="tick" opacity="1" transform="translate(888.776595744681,0)"><line stroke="currentColor" y2="6"></line><text fill="currentColor" y="9" dy="0.71em">HTML</text></g><g class="tick" opacity="1" transform="translate(1004.2021276595746,0)"><line stroke="currentColor" y2="6"></line><text fill="currentColor" y="9" dy="0.71em">TypeScript</text></g></g><rect x="46.1702127659575" y="28.322440087145974" height="231.67755991285404" width="69.25531914893617" fill="#D50657"></rect><rect x="161.5957446808511" y="201.6557734204793" height="58.344226579520694" width="69.25531914893617" fill="#049AE6"></rect><rect x="277.0212765957447" y="202.50544662309366" height="57.49455337690634" width="69.25531914893617" fill="#F8C41B"></rect><rect x="392.44680851063833" y="221.76470588235293" height="38.23529411764707" width="69.25531914893617" fill="#32465B"></rect><rect x="507.87234042553195" y="223.18082788671023" height="36.81917211328977" width="69.25531914893617" fill="#E45E42"></rect><rect x="623.2978723404256" y="230.82788671023965" height="29.172113289760347" width="69.25531914893617" fill="#007C5A"></rect><rect x="738.7234042553191" y="257.45098039215685" height="2.5490196078431495" width="69.25531914893617" fill="#FC69FF"></rect><rect x="854.1489361702129" y="258.5838779956427" height="1.4161220043573053" width="69.25531914893617" fill="#3EC6CF"></rect><rect x="969.5744680851064" y="259.1503267973856" height="0.8496732026143832" width="69.25531914893617" fill="#620A79"></rect><text class="labels" style="fill: #444;" x="46.1702127659575" y="8.322440087145974">8 hrs 18 mins</text><text class="labels" style="fill: #444;" x="161.5957446808511" y="181.6557734204793">2 hrs 6 mins</text><text class="labels" style="fill: #444;" x="277.0212765957447" y="182.50544662309366">2 hrs 3 mins</text><text class="labels" style="fill: #444;" x="392.44680851063833" y="201.76470588235293">1 hr 35 mins</text><text class="labels" style="fill: #444;" x="507.87234042553195" y="203.18082788671023">1 hr 30 mins</text><text class="labels" style="fill: #444;" x="623.2978723404256" y="210.82788671023965">1 hr 3 mins</text><text class="labels" style="fill: #444;" x="738.7234042553191" y="237.45098039215685">9 mins</text><text class="labels" style="fill: #444;" x="854.1489361702129" y="238.5838779956427">5 mins</text><text class="labels" style="fill: #444;" x="969.5744680851064" y="239.15032679738562">3 mins</text></g></svg>