<svg xmlns="http://www.w3.org/2000/svg" width="625" height="315"><g transform="translate(20, 20)"><g transform="translate(0, 260)" style="font-size: 15px; font-family: monospace; font-weight: 300;" fill="none" font-size="10" font-family="sans-serif" text-anchor="middle"><path class="domain" stroke="currentColor" d="M0.5,6V0.5H585.5V6"></path><g class="tick" opacity="1" transform="translate(75.83333333333334,0)"><line stroke="currentColor" y2="6"></line><text fill="currentColor" y="9" dy="0.71em">JSX</text></g><g class="tick" opacity="1" transform="translate(184.16666666666669,0)"><line stroke="currentColor" y2="6"></line><text fill="currentColor" y="9" dy="0.71em">JavaScript</text></g><g class="tick" opacity="1" transform="translate(292.5,0)"><line stroke="currentColor" y2="6"></line><text fill="currentColor" y="9" dy="0.71em">TypeScript</text></g><g class="tick" opacity="1" transform="translate(400.83333333333337,0)"><line stroke="currentColor" y2="6"></line><text fill="currentColor" y="9" dy="0.71em">JSON</text></g><g class="tick" opacity="1" transform="translate(509.16666666666674,0)"><line stroke="currentColor" y2="6"></line><text fill="currentColor" y="9" dy="0.71em">LESS</text></g></g><rect x="43.33333333333334" y="31.980319803198004" height="228.019680196802" width="65" fill="#D50657"></rect><rect x="151.66666666666669" y="90.50430504305042" height="169.4956949569496" width="65" fill="#049AE6"></rect><rect x="260" y="246.24846248462487" height="13.751537515375134" width="65" fill="#F8C41B"></rect><rect x="368.33333333333337" y="247.84747847478474" height="12.152521525215263" width="65" fill="#32465B"></rect><rect x="476.66666666666674" y="257.4415744157442" height="2.558425584255815" width="65" fill="#E45E42"></rect><text class="labels" style="fill: #444;" x="43.33333333333334" y="11.980319803198004">7 hrs 13 mins</text><text class="labels" style="fill: #444;" x="151.66666666666669" y="70.50430504305042">5 hrs 30 mins</text><text class="labels" style="fill: #444;" x="260" y="226.24846248462487">43 mins</text><text class="labels" style="fill: #444;" x="368.33333333333337" y="227.84747847478474">38 mins</text><text class="labels" style="fill: #444;" x="476.66666666666674" y="237.44157441574418">8 mins</text></g></svg>