<svg xmlns="http://www.w3.org/2000/svg" width="750" height="315"><g transform="translate(20, 20)"><g transform="translate(0, 260)" style="font-size: 15px; font-family: monospace; font-weight: 300;" fill="none" font-size="10" font-family="sans-serif" text-anchor="middle"><path class="domain" stroke="currentColor" d="M0.5,6V0.5H710.5V6"></path><g class="tick" opacity="1" transform="translate(77.65625,0)"><line stroke="currentColor" y2="6"></line><text fill="currentColor" y="9" dy="0.71em">TypeScript</text></g><g class="tick" opacity="1" transform="translate(188.59375,0)"><line stroke="currentColor" y2="6"></line><text fill="currentColor" y="9" dy="0.71em">JavaScript</text></g><g class="tick" opacity="1" transform="translate(299.53125,0)"><line stroke="currentColor" y2="6"></line><text fill="currentColor" y="9" dy="0.71em">JSON</text></g><g class="tick" opacity="1" transform="translate(410.46875000000006,0)"><line stroke="currentColor" y2="6"></line><text fill="currentColor" y="9" dy="0.71em">YAML</text></g><g class="tick" opacity="1" transform="translate(521.40625,0)"><line stroke="currentColor" y2="6"></line><text fill="currentColor" y="9" dy="0.71em">Java</text></g><g class="tick" opacity="1" transform="translate(632.3437500000001,0)"><line stroke="currentColor" y2="6"></line><text fill="currentColor" y="9" dy="0.71em">Markdown</text></g></g><rect x="44.375" y="11.77003168854686" height="248.22996831145315" width="66.5625" fill="#D50657"></rect><rect x="155.3125" y="189.26210955183342" height="70.73789044816658" width="66.5625" fill="#049AE6"></rect><rect x="266.25" y="246.69986419194205" height="13.300135808057945" width="66.5625" fill="#F8C41B"></rect><rect x="377.18750000000006" y="254.70348574015392" height="5.296514259846077" width="66.5625" fill="#32465B"></rect><rect x="488.12500000000006" y="257.29289271163424" height="2.707107288365762" width="66.5625" fill="#E45E42"></rect><rect x="599.0625000000001" y="259.2937980986872" height="0.7062019013127951" width="66.5625" fill="#007C5A"></rect><text class="labels" style="fill: #444;" x="44.375" y="-8.22996831145314">21 hrs 9 mins</text><text class="labels" style="fill: #444;" x="155.3125" y="169.26210955183342">6 hrs 1 min</text><text class="labels" style="fill: #444;" x="266.25" y="226.69986419194205">1 hr 13 mins</text><text class="labels" style="fill: #444;" x="377.18750000000006" y="234.70348574015392">45 mins</text><text class="labels" style="fill: #444;" x="488.12500000000006" y="237.29289271163424">23 mins</text><text class="labels" style="fill: #444;" x="599.0625000000001" y="239.2937980986872">6 mins</text></g></svg>