<svg xmlns="http://www.w3.org/2000/svg" width="875" height="315"><g transform="translate(20, 20)"><g transform="translate(0, 260)" style="font-size: 15px; font-family: monospace; font-weight: 300;" fill="none" font-size="10" font-family="sans-serif" text-anchor="middle"><path class="domain" stroke="currentColor" d="M0.5,6V0.5H835.5V6"></path><g class="tick" opacity="1" transform="translate(78.98648648648646,0)"><line stroke="currentColor" y2="6"></line><text fill="currentColor" y="9" dy="0.71em">JSX</text></g><g class="tick" opacity="1" transform="translate(191.82432432432432,0)"><line stroke="currentColor" y2="6"></line><text fill="currentColor" y="9" dy="0.71em">JavaScript</text></g><g class="tick" opacity="1" transform="translate(304.6621621621622,0)"><line stroke="currentColor" y2="6"></line><text fill="currentColor" y="9" dy="0.71em">LESS</text></g><g class="tick" opacity="1" transform="translate(417.5,0)"><line stroke="currentColor" y2="6"></line><text fill="currentColor" y="9" dy="0.71em">JSON</text></g><g class="tick" opacity="1" transform="translate(530.3378378378379,0)"><line stroke="currentColor" y2="6"></line><text fill="currentColor" y="9" dy="0.71em">TypeScript</text></g><g class="tick" opacity="1" transform="translate(643.1756756756757,0)"><line stroke="currentColor" y2="6"></line><text fill="currentColor" y="9" dy="0.71em">Java</text></g><g class="tick" opacity="1" transform="translate(756.0135135135135,0)"><line stroke="currentColor" y2="6"></line><text fill="currentColor" y="9" dy="0.71em">Text</text></g></g><rect x="45.1351351351351" y="23.381294964028775" height="236.61870503597123" width="67.70270270270271" fill="#D50657"></rect><rect x="157.97297297297297" y="82.53597122302156" height="177.46402877697844" width="67.70270270270271" fill="#049AE6"></rect><rect x="270.81081081081084" y="236.61870503597123" height="23.38129496402877" width="67.70270270270271" fill="#F8C41B"></rect><rect x="383.64864864864865" y="247.84172661870502" height="12.158273381294975" width="67.70270270270271" fill="#32465B"></rect><rect x="496.4864864864865" y="252.98561151079136" height="7.014388489208642" width="67.70270270270271" fill="#E45E42"></rect><rect x="609.3243243243244" y="259.0647482014389" height="0.9352517985611257" width="67.70270270270271" fill="#007C5A"></rect><rect x="722.1621621621622" y="259.7661870503597" height="0.23381294964030985" width="67.70270270270271" fill="#FC69FF"></rect><text class="labels" style="fill: #444;" x="45.1351351351351" y="3.3812949640287755">10 hrs 12 mins</text><text class="labels" style="fill: #444;" x="157.97297297297297" y="62.53597122302156">7 hrs 59 mins</text><text class="labels" style="fill: #444;" x="270.81081081081084" y="216.61870503597123">1 hr</text><text class="labels" style="fill: #444;" x="383.64864864864865" y="227.84172661870502">52 mins</text><text class="labels" style="fill: #444;" x="496.4864864864865" y="232.98561151079136">30 mins</text><text class="labels" style="fill: #444;" x="609.3243243243244" y="239.06474820143887">4 mins</text><text class="labels" style="fill: #444;" x="722.1621621621622" y="239.7661870503597">1 min</text></g></svg>