<svg xmlns="http://www.w3.org/2000/svg" width="875" height="315"><g transform="translate(20, 20)"><g transform="translate(0, 260)" style="font-size: 15px; font-family: monospace; font-weight: 300;" fill="none" font-size="10" font-family="sans-serif" text-anchor="middle"><path class="domain" stroke="currentColor" d="M0.5,6V0.5H835.5V6"></path><g class="tick" opacity="1" transform="translate(78.98648648648646,0)"><line stroke="currentColor" y2="6"></line><text fill="currentColor" y="9" dy="0.71em">JSX</text></g><g class="tick" opacity="1" transform="translate(191.82432432432432,0)"><line stroke="currentColor" y2="6"></line><text fill="currentColor" y="9" dy="0.71em">JavaScript</text></g><g class="tick" opacity="1" transform="translate(304.6621621621622,0)"><line stroke="currentColor" y2="6"></line><text fill="currentColor" y="9" dy="0.71em">Dart</text></g><g class="tick" opacity="1" transform="translate(417.5,0)"><line stroke="currentColor" y2="6"></line><text fill="currentColor" y="9" dy="0.71em">TypeScript</text></g><g class="tick" opacity="1" transform="translate(530.3378378378379,0)"><line stroke="currentColor" y2="6"></line><text fill="currentColor" y="9" dy="0.71em">LESS</text></g><g class="tick" opacity="1" transform="translate(643.1756756756757,0)"><line stroke="currentColor" y2="6"></line><text fill="currentColor" y="9" dy="0.71em">JSON</text></g><g class="tick" opacity="1" transform="translate(756.0135135135135,0)"><line stroke="currentColor" y2="6"></line><text fill="currentColor" y="9" dy="0.71em">YAML</text></g></g><rect x="45.1351351351351" y="77.84431137724552" height="182.1556886227545" width="67.70270270270271" fill="#D50657"></rect><rect x="157.97297297297297" y="93.4131736526946" height="166.58682634730542" width="67.70270270270271" fill="#049AE6"></rect><rect x="270.81081081081084" y="161.91616766467067" height="98.08383233532933" width="67.70270270270271" fill="#F8C41B"></rect><rect x="383.64864864864865" y="218.7425149700599" height="41.25748502994011" width="67.70270270270271" fill="#32465B"></rect><rect x="496.4864864864865" y="258.4431137724551" height="1.5568862275449078" width="67.70270270270271" fill="#E45E42"></rect><rect x="609.3243243243244" y="258.4431137724551" height="1.5568862275449078" width="67.70270270270271" fill="#007C5A"></rect><rect x="722.1621621621622" y="259.2215568862276" height="0.7784431137724255" width="67.70270270270271" fill="#FC69FF"></rect><text class="labels" style="fill: #444;" x="45.1351351351351" y="57.84431137724552">2 hrs 34 mins</text><text class="labels" style="fill: #444;" x="157.97297297297297" y="73.4131736526946">2 hrs 14 mins</text><text class="labels" style="fill: #444;" x="270.81081081081084" y="141.91616766467067">1 hr 26 mins</text><text class="labels" style="fill: #444;" x="383.64864864864865" y="198.7425149700599">53 mins</text><text class="labels" style="fill: #444;" x="496.4864864864865" y="238.4431137724551">2 mins</text><text class="labels" style="fill: #444;" x="609.3243243243244" y="238.4431137724551">2 mins</text><text class="labels" style="fill: #444;" x="722.1621621621622" y="239.22155688622757">1 min</text></g></svg>