<svg xmlns="http://www.w3.org/2000/svg" width="750" height="315"><g transform="translate(20, 20)"><g transform="translate(0, 260)" style="font-size: 15px; font-family: monospace; font-weight: 300;" fill="none" font-size="10" font-family="sans-serif" text-anchor="middle"><path class="domain" stroke="currentColor" d="M0.5,6V0.5H710.5V6"></path><g class="tick" opacity="1" transform="translate(77.65625,0)"><line stroke="currentColor" y2="6"></line><text fill="currentColor" y="9" dy="0.71em">JSX</text></g><g class="tick" opacity="1" transform="translate(188.59375,0)"><line stroke="currentColor" y2="6"></line><text fill="currentColor" y="9" dy="0.71em">JavaScript</text></g><g class="tick" opacity="1" transform="translate(299.53125,0)"><line stroke="currentColor" y2="6"></line><text fill="currentColor" y="9" dy="0.71em">TypeScript</text></g><g class="tick" opacity="1" transform="translate(410.46875000000006,0)"><line stroke="currentColor" y2="6"></line><text fill="currentColor" y="9" dy="0.71em">LESS</text></g><g class="tick" opacity="1" transform="translate(521.40625,0)"><line stroke="currentColor" y2="6"></line><text fill="currentColor" y="9" dy="0.71em">Bash</text></g><g class="tick" opacity="1" transform="translate(632.3437500000001,0)"><line stroke="currentColor" y2="6"></line><text fill="currentColor" y="9" dy="0.71em">JSON</text></g></g><rect x="44.375" y="34.99327052489907" height="225.00672947510094" width="66.5625" fill="#D50657"></rect><rect x="155.3125" y="102.53028263795423" height="157.46971736204577" width="66.5625" fill="#049AE6"></rect><rect x="266.25" y="118.97711978465676" height="141.02288021534324" width="66.5625" fill="#F8C41B"></rect><rect x="377.18750000000006" y="256.5006729475101" height="3.499327052489889" width="66.5625" fill="#32465B"></rect><rect x="488.12500000000006" y="256.8506056527591" height="3.1493943472409" width="66.5625" fill="#E45E42"></rect><rect x="599.0625000000001" y="259.300134589502" height="0.6998654104979778" width="66.5625" fill="#007C5A"></rect><text class="labels" style="fill: #444;" x="44.375" y="14.993270524899067">6 hrs 43 mins</text><text class="labels" style="fill: #444;" x="155.3125" y="82.53028263795423">4 hrs 50 mins</text><text class="labels" style="fill: #444;" x="266.25" y="98.97711978465676">4 hrs 3 mins</text><text class="labels" style="fill: #444;" x="377.18750000000006" y="236.5006729475101">10 mins</text><text class="labels" style="fill: #444;" x="488.12500000000006" y="236.8506056527591">9 mins</text><text class="labels" style="fill: #444;" x="599.0625000000001" y="239.30013458950202">2 mins</text></g></svg>