<svg xmlns="http://www.w3.org/2000/svg" width="1000" height="315"><g transform="translate(20, 20)"><g transform="translate(0, 260)" style="font-size: 15px; font-family: monospace; font-weight: 300;" fill="none" font-size="10" font-family="sans-serif" text-anchor="middle"><path class="domain" stroke="currentColor" d="M0.5,6V0.5H960.5V6"></path><g class="tick" opacity="1" transform="translate(80.00000000000006,0)"><line stroke="currentColor" y2="6"></line><text fill="currentColor" y="9" dy="0.71em">JSX</text></g><g class="tick" opacity="1" transform="translate(194.28571428571433,0)"><line stroke="currentColor" y2="6"></line><text fill="currentColor" y="9" dy="0.71em">JavaScript</text></g><g class="tick" opacity="1" transform="translate(308.5714285714286,0)"><line stroke="currentColor" y2="6"></line><text fill="currentColor" y="9" dy="0.71em">TypeScript</text></g><g class="tick" opacity="1" transform="translate(422.8571428571429,0)"><line stroke="currentColor" y2="6"></line><text fill="currentColor" y="9" dy="0.71em">LESS</text></g><g class="tick" opacity="1" transform="translate(537.1428571428572,0)"><line stroke="currentColor" y2="6"></line><text fill="currentColor" y="9" dy="0.71em">JSON</text></g><g class="tick" opacity="1" transform="translate(651.4285714285714,0)"><line stroke="currentColor" y2="6"></line><text fill="currentColor" y="9" dy="0.71em">CSS</text></g><g class="tick" opacity="1" transform="translate(765.7142857142858,0)"><line stroke="currentColor" y2="6"></line><text fill="currentColor" y="9" dy="0.71em">YAML</text></g><g class="tick" opacity="1" transform="translate(880.0000000000001,0)"><line stroke="currentColor" y2="6"></line><text fill="currentColor" y="9" dy="0.71em">Dart</text></g></g><rect x="45.71428571428578" y="27.28226652675762" height="232.7177334732424" width="68.57142857142857" fill="#D50657"></rect><rect x="160.00000000000006" y="163.69359916054563" height="96.30640083945437" width="68.57142857142857" fill="#049AE6"></rect><rect x="274.28571428571433" y="165.0577124868835" height="94.9422875131165" width="68.57142857142857" fill="#F8C41B"></rect><rect x="388.5714285714286" y="229.71668415529905" height="30.28331584470095" width="68.57142857142857" fill="#32465B"></rect><rect x="502.8571428571429" y="257.5445960125918" height="2.4554039874082036" width="68.57142857142857" fill="#E45E42"></rect><rect x="617.1428571428571" y="257.8174186778594" height="2.1825813221406065" width="68.57142857142857" fill="#007C5A"></rect><rect x="731.4285714285714" y="257.8174186778594" height="2.1825813221406065" width="68.57142857142857" fill="#FC69FF"></rect><rect x="845.7142857142858" y="259.45435466946486" height="0.5456453305351374" width="68.57142857142857" fill="#3EC6CF"></rect><text class="labels" style="fill: #444;" x="45.71428571428578" y="7.2822665267576205">8 hrs 53 mins</text><text class="labels" style="fill: #444;" x="160.00000000000006" y="143.69359916054563">3 hrs 53 mins</text><text class="labels" style="fill: #444;" x="274.28571428571433" y="145.0577124868835">3 hrs 48 mins</text><text class="labels" style="fill: #444;" x="388.5714285714286" y="209.71668415529905">1 hr 11 mins</text><text class="labels" style="fill: #444;" x="502.8571428571429" y="237.5445960125918">9 mins</text><text class="labels" style="fill: #444;" x="617.1428571428571" y="237.8174186778594">8 mins</text><text class="labels" style="fill: #444;" x="731.4285714285714" y="237.8174186778594">8 mins</text><text class="labels" style="fill: #444;" x="845.7142857142858" y="239.45435466946486">2 mins</text></g></svg>