<svg xmlns="http://www.w3.org/2000/svg" width="750" height="315"><g transform="translate(20, 20)"><g transform="translate(0, 260)" style="font-size: 15px; font-family: monospace; font-weight: 300;" fill="none" font-size="10" font-family="sans-serif" text-anchor="middle"><path class="domain" stroke="currentColor" d="M0.5,6V0.5H710.5V6"></path><g class="tick" opacity="1" transform="translate(77.65625,0)"><line stroke="currentColor" y2="6"></line><text fill="currentColor" y="9" dy="0.71em">JSX</text></g><g class="tick" opacity="1" transform="translate(188.59375,0)"><line stroke="currentColor" y2="6"></line><text fill="currentColor" y="9" dy="0.71em">JavaScript</text></g><g class="tick" opacity="1" transform="translate(299.53125,0)"><line stroke="currentColor" y2="6"></line><text fill="currentColor" y="9" dy="0.71em">TypeScript</text></g><g class="tick" opacity="1" transform="translate(410.46875000000006,0)"><line stroke="currentColor" y2="6"></line><text fill="currentColor" y="9" dy="0.71em">LESS</text></g><g class="tick" opacity="1" transform="translate(521.40625,0)"><line stroke="currentColor" y2="6"></line><text fill="currentColor" y="9" dy="0.71em">CSS</text></g><g class="tick" opacity="1" transform="translate(632.3437500000001,0)"><line stroke="currentColor" y2="6"></line><text fill="currentColor" y="9" dy="0.71em">JSON</text></g></g><rect x="44.375" y="31.363088057901052" height="228.63691194209895" width="66.5625" fill="#D50657"></rect><rect x="155.3125" y="157.75633293124247" height="102.24366706875753" width="66.5625" fill="#049AE6"></rect><rect x="266.25" y="182.5331724969843" height="77.46682750301571" width="66.5625" fill="#F8C41B"></rect><rect x="377.18750000000006" y="211.38721351025333" height="48.61278648974667" width="66.5625" fill="#32465B"></rect><rect x="488.12500000000006" y="258.1182147165259" height="1.8817852834740734" width="66.5625" fill="#E45E42"></rect><rect x="599.0625000000001" y="258.74547647768395" height="1.254523522316049" width="66.5625" fill="#007C5A"></rect><text class="labels" style="fill: #444;" x="44.375" y="11.363088057901052">7 hrs 29 mins</text><text class="labels" style="fill: #444;" x="155.3125" y="137.75633293124247">3 hrs 26 mins</text><text class="labels" style="fill: #444;" x="266.25" y="162.5331724969843">2 hrs 47 mins</text><text class="labels" style="fill: #444;" x="377.18750000000006" y="191.38721351025333">1 hr 55 mins</text><text class="labels" style="fill: #444;" x="488.12500000000006" y="238.11821471652593">6 mins</text><text class="labels" style="fill: #444;" x="599.0625000000001" y="238.74547647768395">4 mins</text></g></svg>