<svg xmlns="http://www.w3.org/2000/svg" width="1250" height="315"><g transform="translate(20, 20)"><g transform="translate(0, 260)" style="font-size: 15px; font-family: monospace; font-weight: 300;" fill="none" font-size="10" font-family="sans-serif" text-anchor="middle"><path class="domain" stroke="currentColor" d="M0.5,6V0.5H1210.5V6"></path><g class="tick" opacity="1" transform="translate(81.44230769230771,0)"><line stroke="currentColor" y2="6"></line><text fill="currentColor" y="9" dy="0.71em">JSX</text></g><g class="tick" opacity="1" transform="translate(197.78846153846155,0)"><line stroke="currentColor" y2="6"></line><text fill="currentColor" y="9" dy="0.71em">JavaScript</text></g><g class="tick" opacity="1" transform="translate(314.13461538461536,0)"><line stroke="currentColor" y2="6"></line><text fill="currentColor" y="9" dy="0.71em">Groovy</text></g><g class="tick" opacity="1" transform="translate(430.4807692307692,0)"><line stroke="currentColor" y2="6"></line><text fill="currentColor" y="9" dy="0.71em">JSON</text></g><g class="tick" opacity="1" transform="translate(546.8269230769231,0)"><line stroke="currentColor" y2="6"></line><text fill="currentColor" y="9" dy="0.71em">TypeScript</text></g><g class="tick" opacity="1" transform="translate(663.1730769230769,0)"><line stroke="currentColor" y2="6"></line><text fill="currentColor" y="9" dy="0.71em">Solidity</text></g><g class="tick" opacity="1" transform="translate(779.5192307692308,0)"><line stroke="currentColor" y2="6"></line><text fill="currentColor" y="9" dy="0.71em">Dart</text></g><g class="tick" opacity="1" transform="translate(895.8653846153846,0)"><line stroke="currentColor" y2="6"></line><text fill="currentColor" y="9" dy="0.71em">CSS</text></g><g class="tick" opacity="1" transform="translate(1012.2115384615385,0)"><line stroke="currentColor" y2="6"></line><text fill="currentColor" y="9" dy="0.71em">XML</text></g><g class="tick" opacity="1" transform="translate(1128.5576923076924,0)"><line stroke="currentColor" y2="6"></line><text fill="currentColor" y="9" dy="0.71em">YAML</text></g></g><rect x="46.53846153846155" y="57.9064587973274" height="202.0935412026726" width="69.8076923076923" fill="#D50657"></rect><rect x="162.8846153846154" y="80.4899777282851" height="179.5100222717149" width="69.8076923076923" fill="#049AE6"></rect><rect x="279.2307692307692" y="243.20712694877506" height="16.792873051224944" width="69.8076923076923" fill="#F8C41B"></rect><rect x="395.5769230769231" y="243.20712694877506" height="16.792873051224944" width="69.8076923076923" fill="#32465B"></rect><rect x="511.9230769230769" y="245.52338530066814" height="14.476614699331861" width="69.8076923076923" fill="#E45E42"></rect><rect x="628.2692307692307" y="246.6815144766147" height="13.318485523385306" width="69.8076923076923" fill="#007C5A"></rect><rect x="744.6153846153846" y="246.6815144766147" height="13.318485523385306" width="69.8076923076923" fill="#FC69FF"></rect><rect x="860.9615384615385" y="251.89309576837417" height="8.106904231625833" width="69.8076923076923" fill="#3EC6CF"></rect><rect x="977.3076923076923" y="254.78841870824053" height="5.211581291759472" width="69.8076923076923" fill="#620A79"></rect><rect x="1093.6538461538462" y="259.4209354120267" height="0.5790645879732779" width="69.8076923076923" fill="#D50657"></rect><text class="labels" style="fill: #444;" x="46.53846153846155" y="37.9064587973274">3 hrs 49 mins</text><text class="labels" style="fill: #444;" x="162.8846153846154" y="60.4899777282851">3 hrs 10 mins</text><text class="labels" style="fill: #444;" x="279.2307692307692" y="223.20712694877506">29 mins</text><text class="labels" style="fill: #444;" x="395.5769230769231" y="223.20712694877506">29 mins</text><text class="labels" style="fill: #444;" x="511.9230769230769" y="225.52338530066814">25 mins</text><text class="labels" style="fill: #444;" x="628.2692307692307" y="226.6815144766147">23 mins</text><text class="labels" style="fill: #444;" x="744.6153846153846" y="226.6815144766147">23 mins</text><text class="labels" style="fill: #444;" x="860.9615384615385" y="231.89309576837417">14 mins</text><text class="labels" style="fill: #444;" x="977.3076923076923" y="234.78841870824053">9 mins</text><text class="labels" style="fill: #444;" x="1093.6538461538462" y="239.42093541202672">1 min</text></g></svg>