<svg xmlns="http://www.w3.org/2000/svg" width="625" height="315"><g transform="translate(20, 20)"><g transform="translate(0, 260)" style="font-size: 15px; font-family: monospace; font-weight: 300;" fill="none" font-size="10" font-family="sans-serif" text-anchor="middle"><path class="domain" stroke="currentColor" d="M0.5,6V0.5H585.5V6"></path><g class="tick" opacity="1" transform="translate(75.83333333333334,0)"><line stroke="currentColor" y2="6"></line><text fill="currentColor" y="9" dy="0.71em">JSX</text></g><g class="tick" opacity="1" transform="translate(184.16666666666669,0)"><line stroke="currentColor" y2="6"></line><text fill="currentColor" y="9" dy="0.71em">JavaScript</text></g><g class="tick" opacity="1" transform="translate(292.5,0)"><line stroke="currentColor" y2="6"></line><text fill="currentColor" y="9" dy="0.71em">TypeScript</text></g><g class="tick" opacity="1" transform="translate(400.83333333333337,0)"><line stroke="currentColor" y2="6"></line><text fill="currentColor" y="9" dy="0.71em">LESS</text></g><g class="tick" opacity="1" transform="translate(509.16666666666674,0)"><line stroke="currentColor" y2="6"></line><text fill="currentColor" y="9" dy="0.71em">CSS</text></g></g><rect x="43.33333333333334" y="31.901840490797536" height="228.09815950920247" width="65" fill="#D50657"></rect><rect x="151.66666666666669" y="88.04907975460124" height="171.95092024539878" width="65" fill="#049AE6"></rect><rect x="260" y="225.86503067484662" height="34.13496932515338" width="65" fill="#F8C41B"></rect><rect x="368.33333333333337" y="251.06748466257667" height="8.932515337423325" width="65" fill="#32465B"></rect><rect x="476.66666666666674" y="259.04294478527606" height="0.9570552147239368" width="65" fill="#E45E42"></rect><text class="labels" style="fill: #444;" x="43.33333333333334" y="11.901840490797536">7 hrs 15 mins</text><text class="labels" style="fill: #444;" x="151.66666666666669" y="68.04907975460124">5 hrs 39 mins</text><text class="labels" style="fill: #444;" x="260" y="205.86503067484662">1 hr 7 mins</text><text class="labels" style="fill: #444;" x="368.33333333333337" y="231.06748466257667">28 mins</text><text class="labels" style="fill: #444;" x="476.66666666666674" y="239.04294478527606">3 mins</text></g></svg>