<svg xmlns="http://www.w3.org/2000/svg" width="1125" height="315"><g transform="translate(20, 20)"><g transform="translate(0, 260)" style="font-size: 15px; font-family: monospace; font-weight: 300;" fill="none" font-size="10" font-family="sans-serif" text-anchor="middle"><path class="domain" stroke="currentColor" d="M0.5,6V0.5H1085.5V6"></path><g class="tick" opacity="1" transform="translate(80.79787234042558,0)"><line stroke="currentColor" y2="6"></line><text fill="currentColor" y="9" dy="0.71em">JavaScript</text></g><g class="tick" opacity="1" transform="translate(196.2234042553192,0)"><line stroke="currentColor" y2="6"></line><text fill="currentColor" y="9" dy="0.71em">JSON</text></g><g class="tick" opacity="1" transform="translate(311.6489361702128,0)"><line stroke="currentColor" y2="6"></line><text fill="currentColor" y="9" dy="0.71em">TypeScript</text></g><g class="tick" opacity="1" transform="translate(427.07446808510645,0)"><line stroke="currentColor" y2="6"></line><text fill="currentColor" y="9" dy="0.71em">Markdown</text></g><g class="tick" opacity="1" transform="translate(542.5,0)"><line stroke="currentColor" y2="6"></line><text fill="currentColor" y="9" dy="0.71em">Git Config</text></g><g class="tick" opacity="1" transform="translate(657.9255319148937,0)"><line stroke="currentColor" y2="6"></line><text fill="currentColor" y="9" dy="0.71em">XML</text></g><g class="tick" opacity="1" transform="translate(773.3510638297872,0)"><line stroke="currentColor" y2="6"></line><text fill="currentColor" y="9" dy="0.71em">Groovy</text></g><g class="tick" opacity="1" transform="translate(888.776595744681,0)"><line stroke="currentColor" y2="6"></line><text fill="currentColor" y="9" dy="0.71em">HTML</text></g><g class="tick" opacity="1" transform="translate(1004.2021276595746,0)"><line stroke="currentColor" y2="6"></line><text fill="currentColor" y="9" dy="0.71em">YAML</text></g></g><rect x="46.1702127659575" y="74.71264367816092" height="185.28735632183907" width="69.25531914893617" fill="#D50657"></rect><rect x="161.5957446808511" y="98.62068965517241" height="161.3793103448276" width="69.25531914893617" fill="#049AE6"></rect><rect x="277.0212765957447" y="101.60919540229884" height="158.39080459770116" width="69.25531914893617" fill="#F8C41B"></rect><rect x="392.44680851063833" y="156.89655172413794" height="103.10344827586206" width="69.25531914893617" fill="#32465B"></rect><rect x="507.87234042553195" y="242.816091954023" height="17.183908045977006" width="69.25531914893617" fill="#E45E42"></rect><rect x="623.2978723404256" y="257.01149425287355" height="2.988505747126453" width="69.25531914893617" fill="#007C5A"></rect><rect x="738.7234042553191" y="258.50574712643675" height="1.494252873563255" width="69.25531914893617" fill="#FC69FF"></rect><rect x="854.1489361702129" y="258.50574712643675" height="1.494252873563255" width="69.25531914893617" fill="#3EC6CF"></rect><rect x="969.5744680851064" y="258.50574712643675" height="1.494252873563255" width="69.25531914893617" fill="#620A79"></rect><text class="labels" style="fill: #444;" x="46.1702127659575" y="54.712643678160916">2 hrs 48 mins</text><text class="labels" style="fill: #444;" x="161.5957446808511" y="78.62068965517241">2 hrs 16 mins</text><text class="labels" style="fill: #444;" x="277.0212765957447" y="81.60919540229884">2 hrs 12 mins</text><text class="labels" style="fill: #444;" x="392.44680851063833" y="136.89655172413794">1 hr 38 mins</text><text class="labels" style="fill: #444;" x="507.87234042553195" y="222.816091954023">23 mins</text><text class="labels" style="fill: #444;" x="623.2978723404256" y="237.01149425287355">4 mins</text><text class="labels" style="fill: #444;" x="738.7234042553191" y="238.50574712643675">2 mins</text><text class="labels" style="fill: #444;" x="854.1489361702129" y="238.50574712643675">2 mins</text><text class="labels" style="fill: #444;" x="969.5744680851064" y="238.50574712643675">2 mins</text></g></svg>