<svg xmlns="http://www.w3.org/2000/svg" width="625" height="315"><g transform="translate(20, 20)"><g transform="translate(0, 260)" style="font-size: 15px; font-family: monospace; font-weight: 300;" fill="none" font-size="10" font-family="sans-serif" text-anchor="middle"><path class="domain" stroke="currentColor" d="M0.5,6V0.5H585.5V6"></path><g class="tick" opacity="1" transform="translate(75.83333333333334,0)"><line stroke="currentColor" y2="6"></line><text fill="currentColor" y="9" dy="0.71em">JavaScript</text></g><g class="tick" opacity="1" transform="translate(184.16666666666669,0)"><line stroke="currentColor" y2="6"></line><text fill="currentColor" y="9" dy="0.71em">JSX</text></g><g class="tick" opacity="1" transform="translate(292.5,0)"><line stroke="currentColor" y2="6"></line><text fill="currentColor" y="9" dy="0.71em">Bash</text></g><g class="tick" opacity="1" transform="translate(400.83333333333337,0)"><line stroke="currentColor" y2="6"></line><text fill="currentColor" y="9" dy="0.71em">TypeScript</text></g><g class="tick" opacity="1" transform="translate(509.16666666666674,0)"><line stroke="currentColor" y2="6"></line><text fill="currentColor" y="9" dy="0.71em">JSON</text></g></g><rect x="43.33333333333334" y="19.817073170731696" height="240.1829268292683" width="65" fill="#D50657"></rect><rect x="151.66666666666669" y="234.23780487804876" height="25.762195121951237" width="65" fill="#049AE6"></rect><rect x="260" y="251.47865853658539" height="8.521341463414615" width="65" fill="#F8C41B"></rect><rect x="368.33333333333337" y="253.65853658536585" height="6.341463414634148" width="65" fill="#32465B"></rect><rect x="476.66666666666674" y="259.405487804878" height="0.594512195121979" width="65" fill="#E45E42"></rect><text class="labels" style="fill: #444;" x="43.33333333333334" y="-0.18292682926830395">12 hrs 12 mins</text><text class="labels" style="fill: #444;" x="151.66666666666669" y="214.23780487804876">1 hr 30 mins</text><text class="labels" style="fill: #444;" x="260" y="231.47865853658539">43 mins</text><text class="labels" style="fill: #444;" x="368.33333333333337" y="233.65853658536585">32 mins</text><text class="labels" style="fill: #444;" x="476.66666666666674" y="239.40548780487802">3 mins</text></g></svg>