<svg xmlns="http://www.w3.org/2000/svg" width="625" height="315"><g transform="translate(20, 20)"><g transform="translate(0, 260)" style="font-size: 15px; font-family: monospace; font-weight: 300;" fill="none" font-size="10" font-family="sans-serif" text-anchor="middle"><path class="domain" stroke="currentColor" d="M0.5,6V0.5H585.5V6"></path><g class="tick" opacity="1" transform="translate(75.83333333333334,0)"><line stroke="currentColor" y2="6"></line><text fill="currentColor" y="9" dy="0.71em">JavaScript</text></g><g class="tick" opacity="1" transform="translate(184.16666666666669,0)"><line stroke="currentColor" y2="6"></line><text fill="currentColor" y="9" dy="0.71em">JSX</text></g><g class="tick" opacity="1" transform="translate(292.5,0)"><line stroke="currentColor" y2="6"></line><text fill="currentColor" y="9" dy="0.71em">TypeScript</text></g><g class="tick" opacity="1" transform="translate(400.83333333333337,0)"><line stroke="currentColor" y2="6"></line><text fill="currentColor" y="9" dy="0.71em">LESS</text></g><g class="tick" opacity="1" transform="translate(509.16666666666674,0)"><line stroke="currentColor" y2="6"></line><text fill="currentColor" y="9" dy="0.71em">JSON</text></g></g><rect x="43.33333333333334" y="20.917135961383753" height="239.08286403861624" width="65" fill="#D50657"></rect><rect x="151.66666666666669" y="41.20675784392596" height="218.79324215607403" width="65" fill="#049AE6"></rect><rect x="260" y="206.03378921962994" height="53.96621078037006" width="65" fill="#F8C41B"></rect><rect x="368.33333333333337" y="236.99115044247787" height="23.008849557522126" width="65" fill="#32465B"></rect><rect x="476.66666666666674" y="252.6790024135157" height="7.32099758648431" width="65" fill="#E45E42"></rect><text class="labels" style="fill: #444;" x="43.33333333333334" y="0.9171359613837531">11 hrs 43 mins</text><text class="labels" style="fill: #444;" x="151.66666666666669" y="21.206757843925963">10 hrs 46 mins</text><text class="labels" style="fill: #444;" x="260" y="186.03378921962994">2 hrs 58 mins</text><text class="labels" style="fill: #444;" x="368.33333333333337" y="216.99115044247787">1 hr 10 mins</text><text class="labels" style="fill: #444;" x="476.66666666666674" y="232.6790024135157">35 mins</text></g></svg>