<svg xmlns="http://www.w3.org/2000/svg" width="875" height="315"><g transform="translate(20, 20)"><g transform="translate(0, 260)" style="font-size: 15px; font-family: monospace; font-weight: 300;" fill="none" font-size="10" font-family="sans-serif" text-anchor="middle"><path class="domain" stroke="currentColor" d="M0.5,6V0.5H835.5V6"></path><g class="tick" opacity="1" transform="translate(78.98648648648646,0)"><line stroke="currentColor" y2="6"></line><text fill="currentColor" y="9" dy="0.71em">JSX</text></g><g class="tick" opacity="1" transform="translate(191.82432432432432,0)"><line stroke="currentColor" y2="6"></line><text fill="currentColor" y="9" dy="0.71em">JavaScript</text></g><g class="tick" opacity="1" transform="translate(304.6621621621622,0)"><line stroke="currentColor" y2="6"></line><text fill="currentColor" y="9" dy="0.71em">TypeScript</text></g><g class="tick" opacity="1" transform="translate(417.5,0)"><line stroke="currentColor" y2="6"></line><text fill="currentColor" y="9" dy="0.71em">LESS</text></g><g class="tick" opacity="1" transform="translate(530.3378378378379,0)"><line stroke="currentColor" y2="6"></line><text fill="currentColor" y="9" dy="0.71em">CSS</text></g><g class="tick" opacity="1" transform="translate(643.1756756756757,0)"><line stroke="currentColor" y2="6"></line><text fill="currentColor" y="9" dy="0.71em">YAML</text></g><g class="tick" opacity="1" transform="translate(756.0135135135135,0)"><line stroke="currentColor" y2="6"></line><text fill="currentColor" y="9" dy="0.71em">JSON</text></g></g><rect x="45.1351351351351" y="31.438935912938334" height="228.56106408706165" width="67.70270270270271" fill="#D50657"></rect><rect x="157.97297297297297" y="55.64691656590084" height="204.35308343409918" width="67.70270270270271" fill="#049AE6"></rect><rect x="270.81081081081084" y="192.72067714631197" height="67.27932285368803" width="67.70270270270271" fill="#F8C41B"></rect><rect x="383.64864864864865" y="222.58766626360338" height="37.41233373639662" width="67.70270270270271" fill="#32465B"></rect><rect x="496.4864864864865" y="256.8561064087062" height="3.1438935912938177" width="67.70270270270271" fill="#E45E42"></rect><rect x="609.3243243243244" y="257.4848851269649" height="2.5151148730350883" width="67.70270270270271" fill="#007C5A"></rect><rect x="722.1621621621622" y="258.4280532043531" height="1.5719467956469089" width="67.70270270270271" fill="#FC69FF"></rect><text class="labels" style="fill: #444;" x="45.1351351351351" y="11.438935912938334">7 hrs 27 mins</text><text class="labels" style="fill: #444;" x="157.97297297297297" y="35.64691656590084">6 hrs 50 mins</text><text class="labels" style="fill: #444;" x="270.81081081081084" y="172.72067714631197">2 hrs 14 mins</text><text class="labels" style="fill: #444;" x="383.64864864864865" y="202.58766626360338">1 hr 19 mins</text><text class="labels" style="fill: #444;" x="496.4864864864865" y="236.85610640870618">10 mins</text><text class="labels" style="fill: #444;" x="609.3243243243244" y="237.4848851269649">8 mins</text><text class="labels" style="fill: #444;" x="722.1621621621622" y="238.4280532043531">5 mins</text></g></svg>