<svg xmlns="http://www.w3.org/2000/svg" width="875" height="315"><g transform="translate(20, 20)"><g transform="translate(0, 260)" style="font-size: 15px; font-family: monospace; font-weight: 300;" fill="none" font-size="10" font-family="sans-serif" text-anchor="middle"><path class="domain" stroke="currentColor" d="M0.5,6V0.5H835.5V6"></path><g class="tick" opacity="1" transform="translate(78.98648648648646,0)"><line stroke="currentColor" y2="6"></line><text fill="currentColor" y="9" dy="0.71em">JavaScript</text></g><g class="tick" opacity="1" transform="translate(191.82432432432432,0)"><line stroke="currentColor" y2="6"></line><text fill="currentColor" y="9" dy="0.71em">JSX</text></g><g class="tick" opacity="1" transform="translate(304.6621621621622,0)"><line stroke="currentColor" y2="6"></line><text fill="currentColor" y="9" dy="0.71em">TypeScript</text></g><g class="tick" opacity="1" transform="translate(417.5,0)"><line stroke="currentColor" y2="6"></line><text fill="currentColor" y="9" dy="0.71em">JSON</text></g><g class="tick" opacity="1" transform="translate(530.3378378378379,0)"><line stroke="currentColor" y2="6"></line><text fill="currentColor" y="9" dy="0.71em">CSS</text></g><g class="tick" opacity="1" transform="translate(643.1756756756757,0)"><line stroke="currentColor" y2="6"></line><text fill="currentColor" y="9" dy="0.71em">BrightScript</text></g><g class="tick" opacity="1" transform="translate(756.0135135135135,0)"><line stroke="currentColor" y2="6"></line><text fill="currentColor" y="9" dy="0.71em">Markdown</text></g></g><rect x="45.1351351351351" y="59.3607305936073" height="200.6392694063927" width="67.70270270270271" fill="#D50657"></rect><rect x="157.97297297297297" y="186.39269406392694" height="73.60730593607306" width="67.70270270270271" fill="#049AE6"></rect><rect x="270.81081081081084" y="231.5068493150685" height="28.493150684931493" width="67.70270270270271" fill="#F8C41B"></rect><rect x="383.64864864864865" y="238.0365296803653" height="21.963470319634695" width="67.70270270270271" fill="#32465B"></rect><rect x="496.4864864864865" y="255.84474885844747" height="4.155251141552526" width="67.70270270270271" fill="#E45E42"></rect><rect x="609.3243243243244" y="258.81278538812785" height="1.1872146118721503" width="67.70270270270271" fill="#007C5A"></rect><rect x="722.1621621621622" y="259.4063926940639" height="0.5936073059360751" width="67.70270270270271" fill="#FC69FF"></rect><text class="labels" style="fill: #444;" x="45.1351351351351" y="39.3607305936073">3 hrs 38 mins</text><text class="labels" style="fill: #444;" x="157.97297297297297" y="166.39269406392694">1 hr 24 mins</text><text class="labels" style="fill: #444;" x="270.81081081081084" y="211.5068493150685">48 mins</text><text class="labels" style="fill: #444;" x="383.64864864864865" y="218.0365296803653">37 mins</text><text class="labels" style="fill: #444;" x="496.4864864864865" y="235.84474885844747">7 mins</text><text class="labels" style="fill: #444;" x="609.3243243243244" y="238.81278538812785">2 mins</text><text class="labels" style="fill: #444;" x="722.1621621621622" y="239.40639269406392">1 min</text></g></svg>