<svg xmlns="http://www.w3.org/2000/svg" width="750" height="315"><g transform="translate(20, 20)"><g transform="translate(0, 260)" style="font-size: 15px; font-family: monospace; font-weight: 300;" fill="none" font-size="10" font-family="sans-serif" text-anchor="middle"><path class="domain" stroke="currentColor" d="M0.5,6V0.5H710.5V6"></path><g class="tick" opacity="1" transform="translate(77.65625,0)"><line stroke="currentColor" y2="6"></line><text fill="currentColor" y="9" dy="0.71em">JavaScript</text></g><g class="tick" opacity="1" transform="translate(188.59375,0)"><line stroke="currentColor" y2="6"></line><text fill="currentColor" y="9" dy="0.71em">JSX</text></g><g class="tick" opacity="1" transform="translate(299.53125,0)"><line stroke="currentColor" y2="6"></line><text fill="currentColor" y="9" dy="0.71em">TypeScript</text></g><g class="tick" opacity="1" transform="translate(410.46875000000006,0)"><line stroke="currentColor" y2="6"></line><text fill="currentColor" y="9" dy="0.71em">LESS</text></g><g class="tick" opacity="1" transform="translate(521.40625,0)"><line stroke="currentColor" y2="6"></line><text fill="currentColor" y="9" dy="0.71em">Bash</text></g><g class="tick" opacity="1" transform="translate(632.3437500000001,0)"><line stroke="currentColor" y2="6"></line><text fill="currentColor" y="9" dy="0.71em">JSON</text></g></g><rect x="44.375" y="41.733547351524884" height="218.2664526484751" width="66.5625" fill="#D50657"></rect><rect x="155.3125" y="119.7752808988764" height="140.22471910112358" width="66.5625" fill="#049AE6"></rect><rect x="266.25" y="133.96468699839488" height="126.03531300160512" width="66.5625" fill="#F8C41B"></rect><rect x="377.18750000000006" y="255.8266452648475" height="4.173354735152486" width="66.5625" fill="#32465B"></rect><rect x="488.12500000000006" y="256.2439807383628" height="3.7560192616372206" width="66.5625" fill="#E45E42"></rect><rect x="599.0625000000001" y="257.91332263242373" height="2.0866773675762715" width="66.5625" fill="#007C5A"></rect><text class="labels" style="fill: #444;" x="44.375" y="21.733547351524884">5 hrs 23 mins</text><text class="labels" style="fill: #444;" x="155.3125" y="99.7752808988764">3 hrs 36 mins</text><text class="labels" style="fill: #444;" x="266.25" y="113.96468699839488">3 hrs 2 mins</text><text class="labels" style="fill: #444;" x="377.18750000000006" y="235.8266452648475">10 mins</text><text class="labels" style="fill: #444;" x="488.12500000000006" y="236.24398073836278">9 mins</text><text class="labels" style="fill: #444;" x="599.0625000000001" y="237.91332263242373">5 mins</text></g></svg>