<svg xmlns="http://www.w3.org/2000/svg" width="1000" height="315"><g transform="translate(20, 20)"><g transform="translate(0, 260)" style="font-size: 15px; font-family: monospace; font-weight: 300;" fill="none" font-size="10" font-family="sans-serif" text-anchor="middle"><path class="domain" stroke="currentColor" d="M0.5,6V0.5H960.5V6"></path><g class="tick" opacity="1" transform="translate(80.00000000000006,0)"><line stroke="currentColor" y2="6"></line><text fill="currentColor" y="9" dy="0.71em">JavaScript</text></g><g class="tick" opacity="1" transform="translate(194.28571428571433,0)"><line stroke="currentColor" y2="6"></line><text fill="currentColor" y="9" dy="0.71em">JSX</text></g><g class="tick" opacity="1" transform="translate(308.5714285714286,0)"><line stroke="currentColor" y2="6"></line><text fill="currentColor" y="9" dy="0.71em">TypeScript</text></g><g class="tick" opacity="1" transform="translate(422.8571428571429,0)"><line stroke="currentColor" y2="6"></line><text fill="currentColor" y="9" dy="0.71em">LESS</text></g><g class="tick" opacity="1" transform="translate(537.1428571428572,0)"><line stroke="currentColor" y2="6"></line><text fill="currentColor" y="9" dy="0.71em">CSS</text></g><g class="tick" opacity="1" transform="translate(651.4285714285714,0)"><line stroke="currentColor" y2="6"></line><text fill="currentColor" y="9" dy="0.71em">YAML</text></g><g class="tick" opacity="1" transform="translate(765.7142857142858,0)"><line stroke="currentColor" y2="6"></line><text fill="currentColor" y="9" dy="0.71em">JSON</text></g><g class="tick" opacity="1" transform="translate(880.0000000000001,0)"><line stroke="currentColor" y2="6"></line><text fill="currentColor" y="9" dy="0.71em">Dart</text></g></g><rect x="45.71428571428578" y="35.23035230352303" height="224.76964769647697" width="68.57142857142857" fill="#D50657"></rect><rect x="160.00000000000006" y="79.97289972899728" height="180.02710027100272" width="68.57142857142857" fill="#049AE6"></rect><rect x="274.28571428571433" y="188.13008130081303" height="71.86991869918697" width="68.57142857142857" fill="#F8C41B"></rect><rect x="388.5714285714286" y="218.07588075880759" height="41.924119241192415" width="68.57142857142857" fill="#32465B"></rect><rect x="502.8571428571429" y="256.4769647696477" height="3.5230352303523205" width="68.57142857142857" fill="#E45E42"></rect><rect x="617.1428571428571" y="257.18157181571814" height="2.8184281842818564" width="68.57142857142857" fill="#007C5A"></rect><rect x="731.4285714285714" y="257.8861788617886" height="2.1138211382113923" width="68.57142857142857" fill="#FC69FF"></rect><rect x="845.7142857142858" y="259.29539295392954" height="0.7046070460704641" width="68.57142857142857" fill="#3EC6CF"></rect><text class="labels" style="fill: #444;" x="45.71428571428578" y="15.230352303523027">6 hrs 38 mins</text><text class="labels" style="fill: #444;" x="160.00000000000006" y="59.97289972899728">5 hrs 11 mins</text><text class="labels" style="fill: #444;" x="274.28571428571433" y="168.13008130081303">2 hrs 4 mins</text><text class="labels" style="fill: #444;" x="388.5714285714286" y="198.07588075880759">1 hr 19 mins</text><text class="labels" style="fill: #444;" x="502.8571428571429" y="236.47696476964768">10 mins</text><text class="labels" style="fill: #444;" x="617.1428571428571" y="237.18157181571814">8 mins</text><text class="labels" style="fill: #444;" x="731.4285714285714" y="237.8861788617886">6 mins</text><text class="labels" style="fill: #444;" x="845.7142857142858" y="239.29539295392954">2 mins</text></g></svg>